<?xml version="1.0" encoding="UTF-8"?>
<svg id="Layer_1" data-name="Layer 1" xmlns="http://www.w3.org/2000/svg" width="165.24" height="178.66" viewBox="0 0 165.24 178.66">
  <defs>
    <style>
      .cls-1 {
        fill: none;
      }

      .cls-1, .cls-2, .cls-3, .cls-4, .cls-5, .cls-6, .cls-7, .cls-8, .cls-9, .cls-10 {
        stroke-width: 0px;
      }

      .cls-2 {
        fill: #754c29;
      }

      .cls-3 {
        fill: #2c5d2d;
      }

      .cls-4 {
        fill: #182c17;
      }

      .cls-5 {
        fill: #231f20;
      }

      .cls-6 {
        fill: #c49a6c;
      }

      .cls-7 {
        fill: #b1411a;
      }

      .cls-8 {
        fill: #ffdbac;
      }

      .cls-9 {
        fill: #fff;
      }

      .cls-10 {
        fill: #006838;
      }
    </style>
  </defs>
  <path class="cls-8" d="m139.55,84.4c.11,5.21,1.51,22.93-.43,27.8-5.64,14.14-40.43,32.84-50.49,33.24-10.41.41-51.79-18.86-55.77-26.9-6.78-13.71-4.62-30.69-4.62-40.35,0-30.63,32.69-47.19,63.09-50.97,42.2-5.26,47.43,20.03,48.22,57.18Z"/>
  <path class="cls-7" d="m134.59,59.87c-1.16,1.37-3.29,4.27-4.28,5.03.33-1.5,1.73-8.92,1.99-11.57-.46-1.65-.72-3.44-1-5.05-.42-2.47-.7-3.28-1.82-6.47-1.03-.09-2.56,1.5-4.39,5.4-1.59,3.4-1.65,6.03-1.65,6.47-.01,2.45-.31,8.01.33,8.99-1.57-.66-5.4-2.38-7.25-4.7-2.71-3.4-2.4-4.55-3.53-6.56-.46,1.45-1.12,1.23-2.53,3.2-3.26,3.02-4.47,4.7-6.2,5.54.51-1.9,1.33-5.74,1.43-8.99.06-1.93.14-4.56-.67-7.65-.99-3.8-3.46-6.81-5.38-8.91-.15-.16-.4,0-.34.2.67,2.07,1.68,5.13,1.39,8.71-.22,2.7-1.09,6.01-3.3,9.44-1.95,3.01-4.11,5.06-5.6,5.87.23-2.08,1.28-5.39,1.2-8.67-.08-3.24-.76-5.55-1.61-8.64-.46-1.67-1.29-4.03-2.88-6.67-.1-.17-.37-.06-.31.13.65,2.44,1.47,6,1.14,9.99-.29,3.49-.73,6.91-3.27,10.36-1,1.37-2.76,4.16-6.32,5.49-2.19.82-4.16.78-5.32.67,1.24-2.46,2.84-6.4,3.33-11.47.6-6.26-.78-11.34-1.91-14.39-.17-.46-.79-.53-1.06-.12-1.46,2.19-3.25,5.02-4.37,8.68-1.97,6.46-1.81,12.18-1.4,15.56-1.15-.97-4.32-4.51-5.29-10.7-.56-3.6-.08-6.87.47-8.81.04-.13-.14-.21-.21-.09-1.35,2.39-3.56,6.82-3.35,11.98.14,3.43,1.35,7.27,2.12,9.08-1.14-.21-4.87-2.74-8.09-6.75-2.17-2.71-2.92-4.61-3.17-5.91-.03-.16-.26-.15-.29,0-.43,2.29-1.36,4.76-3.24,8.46-1.93,3.8-4.08,6.9-5.83,8.68.26-1.51.87-4.63.02-7.77-.56-2.09-1.82-3.65-2.66-4.77-.16-.21-.48-.17-.58.08-.91,2.16-1.92,5.39-2.34,9.25-.96,6.03.15,9.72-.23,10.6-.4.94-2.08-.84-3.35-1.76-1.03-1.69-3.7-3-3.71-3.84.06,2.67,2.21,5.77,2.55,7.17.82,3.34.34,3.97.26,5.31-.12,2.14-.14,2.3-.92,5.33-.79,3.05-1.49,5.27-1.45,6.35.09,2.38,1.28,3.34,1.78,6.46.28,1.74.19,4.65.25,7.84-1-.72-2.08-1.57-3.07-2.29-.15,2.15.05,5.9,1.68,10.14,2.23,5.8,6.12,9.2,7.92,10.55-.75.56-1.49,1.23-2.45,2.7-1.19,1.81-1.53,2.66-2.16,4.16-.54,1.28-1.72,2.54-4.37,3.06,1.24-2.62,1.19-5.4,1.21-6.72.02-1.24-.21-2.43-.67-4.82-.61-3.17-1.4-4.72-2.12-4.73-.52,0,.1.4-1.2,2.03-.21.26-1.92,2.6-3.25,2.22-2.4-.68-2.59-11.59-2.69-10.67-.05.43-.12-.4.38-4.91.37-3.3,1.54-4.66,2.06-5.98.6-1.54,1.41-2.32,1.98-2.99-.58-1.22-.02.59-.66-3.3-.41-2.51.48-3.52.78-4.46.38-1.22.18-1.5.91-2.95.69-1.37.45-1.25.54-2.1-.64.78-2.03,1.59-4.08,2.47-1.38.59-1.84.46-2.71.51-.4-1.36,1.22-4.21,2.14-6.88,1.72-5.02,2.16-8.85,2.06-9.91-.23-2.55-.13-4.49-.53-7.96-.51-4.45-.61-5.77-.74-9.57-.04-1.22-.45-3.15-.19-5.56.38-3.51.98-6.92,3.73-8.81.98-.68,2.84-2.58,5.71-4.14.69-.38.68-1.36-.02-1.72-1.17-.6-.52-.65-1.69-.77-2.21-.24-5.47.55-7.61,2.19-.02-1.77,1.34-4.57,2.98-7.75,1.96-3.81,4.38-5.85,7.42-7.88,3.93-2.62,6.55-3.87,7.95-4.06,5.2-.71,8.76-.75,11.59-.48-.17-.59-.27-2.88-1.6-3.92-2.47-1.92-5.04-.89-5.31-.8,2.89-2.16,5.33-3.43,7.39-4.35,1.69-.76,4.28-1.7,7.75-2.35,1.52-.28,3.73-.26,6.64-.15,4.41.17,7.93,1.08,10.53,2.15,1.92-.94,4.63-2.63,8.09-3.65,3.33-.97,7.96-1.31,13.45-.97,6.98.43,12.39,3.19,15.74,5.57-.9.26-2.04.13-3.5,1.32-1.15.94-2.36,2.94-2.8,3.66,2.49-.17,6.48.03,10.93,1.34,4.76,1.4,8.03,2.65,10.25,3.88,3.01,1.67,8.26,5.66,10.75,11.89-1.35.31-2.95.02-5.19.66-1.28.37-2.78.85-3.6,1.31,1.98.53,4.5,1.66,6.9,4.44,2.86,3.32,4.13,6.48,4.61,12.29.26,3.18.66,7.93-.33,13.97-.55,3.37-1.63,5.39-1.05,8.5.56,3.02,1.78,5.83,2.94,7.33-.77-.01-1.45-.21-2.8-.76-1.12-.45-1.81-1.11-2.35-1.57-.15.67-.36,1.29-.23,2.46.28,2.56,1.11,3.32,2.38,6.2,1.62,3.7,2.26,4.21,2.26,5.86,0,2.37-1.9,4.9-1.61,6.29.69,3.25,2.53,5.47,4.14,8.89,1.01,2.14,2.44,5.68,1.99,10.3-1.55-.83-3.93-2.55-5.48-3.38.09,1.08,1.02,2.79,1.13,4.76.19,3.2-.22,3.62,0,4.28.83,2.48,2.3,2.61,3.53,5.13,1.03,1.23,1.33,4.2,1.33,4.2-3,.15-5.51-.82-7-2.43-1.38-1.5-3.81-1.73-5.25-2.84-1.73-1.34-1.63-3.82-2.09-5.18,1.21-1.34,2.88-3.55,3.99-6.65,1.91-5.33,1.5-10.59,1-12.55-1.27,1.22-2.52,2.71-3.79,3.93.48-2.47,1.04-4.19,1.33-5.9.74-4.31.56-5.6.39-7.02-.15-1.25-.6-2.49-1.59-4.41-1.45-2.38-1.58-3.94-1.83-5.16-.38-1.84,1.14-4.02,4.19-8.45.41-.6-.75-2.17-.77-3.54-.03-2.13.47-2.35.7-3.42.33-1.57,1.26,2.23-2.32-3.39"/>
  <path class="cls-3" d="m38.58,124.63c-.89.59-2,1.2-2.97,2.72-1.1,1.73-.8,3.21-1.84,4.5-.68.85-1.9,1.87-4.28,2.4.39-1.21.8-2.91.86-4.96.07-2.55,0-4.94-.44-6.3-.92.71-2.72,2.28-3.84,4.24-1.6,2.81-1.88,5.71-1.71,7.53.18,1.99.8,6.08,7.85,11.23,11.6,8.49,24.89,10.52,39.27,12.7,1.33.2,3.21.63,3.93.37-2.85-1.47-4.53-2.5-4.24-3.81.31-1.42.95-1.83,3.95-3.08,3.16-1.31,3.38-1.03,5.55-1.15-2.82-1.38-3.69-2.24-6.88-4.3-4.58-2.97-5.84-5.1-8.93-7.93-8.41-3.81-18.43-9.4-26.29-14.17Z"/>
  <path class="cls-3" d="m86.15,152.49c1.55-1.18,5.76-3.27,8.71-5.28,4.14-2.82,6.92-4.71,11.47-7.34,15.27-8.86,15.94-10.15,19.49-12.85,4.14-3.15,7.55-6.14,9.31-8.16.17.69.38,3.43,1.15,4.42,1.29,1.65,4.36,2.4,5.69,3.42,2.38,1.84,1.32,5.02,1.31,5.69-.15,5.49-2.53,8.83-6.09,11.34-5.49,3.88-12.37,6.3-15.27,7.25-7.4,2.43-17,5.08-28.49,7.69-1.53-.06-3.04-.54-3.52-.9-.74-.56-.45-.43-1.28-1.86-.46-.79-1.94-2.25-2.48-3.43Z"/>
  <path class="cls-8" d="m65.46,138.93c2.49,2.49,3.95,4.65,7.5,7.09,3.08,2.11,5.2,3.3,7.97,4.82.44-.02,2.8-.12,3.64.2.97.37,1.11.87,1.43,1.21,2.44-1.21,4.6-2.54,6.91-4.07,3.23-2.13,8.79-5.51,11.39-7.57-3.12.88-8.12,3.08-9.75,3.68-3.57,1.32-5.49,1.65-7.81,1.57-2.48-.09-2.4-.48-5.9-1.57-4.95-1.54-8.39-2.38-15.38-5.35Z"/>
  <path class="cls-8" d="m156.51,43.3c2.73-.64,4.7-1.1,6.26-.02,1.27.88,1.66,2.35,2.04,3.91.74,3.03.33,5.44.08,7.37-.75,5.64.12,4.73-.58,10.14-.82,6.29-2.46,11.11-3.38,13.55-1.31,3.45-2.32,6.06-4.57,9.06-1.34,1.78-3.01,4.05-6.06,5.93-2.69,1.66-5.26,2.28-6.9,2.55-.12-.44-.24-.87-.36-1.31.44-.58,1.58-2.24,1.68-4.68.05-1.32-.39-2.45-1.22-4.64-.33-.87-.8-2.19-1.67-3.81-.75-1.4-1.05-1.66-1.35-2.55-.49-1.46-.36-2.82-.18-3.75.47.41,1.26.99,2.36,1.41,1.25.46,2.36.5,3.01.47-1.04-1.51-1.68-2.89-2.07-3.88-.56-1.42-1.33-3.45-1.18-6.1.02-.43.1-.91.26-1.89.5-3.12.95-3.97,1.28-6.22.14-.98.18-1.88.26-3.69.1-2.38.08-4.36.04-5.8,2.41-1.75,4.59-2.95,6.23-3.76,3.24-1.6,5.33-2.12,6.03-2.28Z"/>
  <path class="cls-8" d="m14.06,45.05c-.61-.27-3.28-1.44-6.96-2.02-2.11-.34-3.52-.27-4.44.23-1.92,1.05-2.27,3.55-2.37,7.51-.18,6.77.05,10.45.79,15.07.27,1.7,1.17,6.82,3.74,13.12,2.35,5.79,3.53,8.68,6.42,11.42,4.08,3.88,9.43,5.38,13.1,5.78.06-1.91.01-4.37.58-6.81.28-1.2.86-2.62,1.2-3.63-1.86,1.14-3.73,1.93-4.8,2.16-.81.17-1.24.18-1.53-.07-.57-.48-.23-1.76.46-3.69.88-2.45,1.53-3.22,2.04-5.16.86-3.25,2.05-4.25.98-12.9-.34-2.78.06-2.83-.3-7.68-.26-3.45-.44-5.98-.5-7.87-3.11-2.73-6.37-4.57-8.4-5.47Z"/>
  <path class="cls-10" d="m88.63,156.62c-.41-.89-1.32-2.53-2.48-3.85-.45-.52-.94-1.06-1.38-1.46-2-.28-4.02-.07-5.17.08-1.28.17-3.97.45-6.31,1.84-.96.57-1.59,1.34-2.07,1.77.13.5.26.8.88,1.54,1.56,1.86,4.01,2.43,4.57,2.51-2.31,1.52-3.8,3.16-4.68,4.29-3.84,4.92-4.2,10.42-4.19,12.68,0,.65.13,1.42.16,1.77,2.46.11,7.77-.23,13.41-3.41,3.55-2,5.89-4.49,7.26-6.22,0,1.13.13,2.87.9,4.83,1.13,2.87,2.64,5.12,4.26,5.4,1.4-.82,2.83-2.89,3.81-6.2.2-.69,1.53-5.48-1.16-9.9-.71-1.17-1.87-2.24-2.45-2.77-.77-.39-1.06-.11-3-.96-1.05-.46-1.91-1.41-2.34-1.95Z"/>
  <path class="cls-4" d="m87.85,154.17c-.05-.24,3.35-.47,7.2-2.97,2.18-1.42,3.69-3.04,4.67-4.27-.42,1.19-1.32,3.15-3.22,4.76-3.69,3.12-8.59,2.77-8.65,2.48Z"/>
  <path class="cls-4" d="m88.93,156.06c.02-.31,3.84.3,8.97-1.01,3.62-.93,6.42-2.43,8.27-3.61-1.38,1.56-3.92,3.93-7.71,5-4.9,1.39-9.55-.04-9.53-.38Z"/>
  <path class="cls-4" d="m74.39,152.08c.11-.36-2.6-.95-5.41-3.48-1.43-1.29-2.37-2.61-2.96-3.57.07.8.41,3.7,2.75,5.59,2.33,1.89,5.49,1.84,5.61,1.46Z"/>
  <path class="cls-4" d="m71.2,153.93c.04-.33-2.68-.4-6.19-2.13-2.39-1.17-4.13-2.61-5.26-3.69.47,1.17,1.68,3.66,4.33,5.11,3.27,1.79,7.07,1.09,7.11.7Z"/>
  <path class="cls-6" d="m142.57,64.23c.72-2.17,2.25-3.57,5.28-6.27,2.12-1.88,4.08-3.34,5.68-4.41.37,2.25.76,6.53-.79,11.5-1.9,6.11-5.66,9.84-7.41,11.38-.8-1.05-1.98-2.89-2.64-5.43-.38-1.47-1.03-4.02-.13-6.77Z"/>
  <path class="cls-6" d="m23.36,65.32c-.88-2.53-2.41-3.98-5.43-6.83-1.44-1.36-3.55-3.18-6.37-5.04-.41,1.45-2.58,9.72,2.29,17.47,2.79,4.44,6.61,6.67,8.54,7.62.52-1.43,1.15-3.53,1.4-6.14.22-2.31.44-4.57-.43-7.08Z"/>
  <path class="cls-6" d="m78.28,100.12c.15-.18,2.85,3.23,6.54,3.13,2.62-.07,4.7-1.88,6.01-3.33-1.04,2.67-3.32,4.52-5.84,4.69-4.23.29-6.87-4.3-6.71-4.5Z"/>
  <path class="cls-6" d="m98.74,96.95c-.11-.1-1.09,1.29-2.92,1.74-1.43.35-2.83-.13-3.95-.74.93,1.26,2.68,1.64,4.09,1.4,2.21-.38,2.9-2.29,2.78-2.4Z"/>
  <path class="cls-6" d="m77.24,98.43c-.06-.18-2.29.67-4-.05-.99-.42-1.64-1.23-2.07-1.99-.15,1.26.55,2.1,1.48,2.7,1.87,1.19,4.65-.43,4.58-.66Z"/>
  <path class="cls-6" d="m67.26,139.45c.15-.28,5.11,1.58,15.04,5.31,1.16.44,2.82,1.06,5.08,1.1,2.6.04,4.79-.72,7.18-1.58,3.11-1.11,8-3.34,8.1-3.16.15.25-5.85,3.79-9.38,5.17-2.85,1.12-5.26,1.23-6.11,1.24-2.42.04-4.31-.44-5.59-.83-7.17-2.15-14.56-6.8-14.32-7.25Z"/>
  <path class="cls-5" d="m31.59,106.27c-.14,0-.27-.04-.39-.13-.91-.68-1.76-1.41-2.52-2.16-1.93-1.9-3.28-3.91-4.01-5.99-.21-.6-.36-1.19-.46-1.77-.08-.41-.13-.83-.15-1.25-.12-2.14.43-4.09,1.27-7.03.25-.89.53-1.77.86-2.71.72-2.05,1.57-4.05,2.55-5.96l.47.24c-.96,1.89-1.81,3.87-2.52,5.89-.32.92-.6,1.8-.85,2.68-.82,2.89-1.37,4.8-1.25,6.86.02.41.07.79.14,1.19.09.55.24,1.12.44,1.69.7,2,2,3.94,3.88,5.78.75.74,1.58,1.45,2.46,2.11.05.04.1.02.12.01.02-.01.07-.04.07-.1.22-2.5.1-5.01-.38-7.46-.12-.64-.26-1.23-.44-1.86-.18-.61-.35-1.09-.51-1.56-.37-1.03-.66-1.85-.73-3.35-.09-1.87.25-2.87.68-4.15.39-1.15.88-2.58,1.21-5.16.33-2.54.59-4.54,0-7.06-.34-1.45-.77-2.27-1.18-3.06-.4-.75-.77-1.47-1.03-2.63-.15-.67-.23-1.37-.23-2.08h.53c0,.68.08,1.32.22,1.96.24,1.09.6,1.77.98,2.49.43.82.88,1.67,1.23,3.19.61,2.61.34,4.66,0,7.24-.34,2.64-.84,4.1-1.24,5.27-.43,1.27-.75,2.19-.66,3.95.07,1.43.35,2.21.7,3.2.16.45.34.96.52,1.59.18.65.33,1.25.45,1.91.48,2.5.61,5.06.39,7.6-.02.24-.16.44-.38.54-.09.04-.18.06-.27.06Z"/>
  <path class="cls-5" d="m36.39,73.75c-.09,0-.19-.02-.27-.07-1.52-.78-2.92-1.77-4.18-2.94-1.06-.99-1.99-2.11-2.79-3.33l-.04-.07c-1.13-1.75-1.97-3.69-2.51-5.77l.52-.13c.53,2.05,1.36,3.96,2.48,5.68l.04.07c.76,1.16,1.66,2.23,2.66,3.17,1.22,1.14,2.58,2.11,4.06,2.86.06,0,.07-.02.07-.05-.28-2.93-.3-5.91-.05-8.85.32-3.76,1.08-7.49,2.24-11.06.07-.21.24-.37.46-.42.22-.05.45.02.61.18,1.28,1.39,2.25,3.05,2.79,4.82.52,1.71.65,3.5.4,5.31-.11.8-.28,1.51-.46,2.08.88-1.11,1.69-2.23,2.45-3.39h0s.04-.07.04-.07c.67-1,1.31-2.06,1.92-3.14.68-1.2,1.99-3.7,3.25-7.02.38-1,.73-2.03,1.05-3.06l.51.16c-.32,1.04-.68,2.08-1.06,3.09-1.27,3.35-2.6,5.88-3.28,7.09-.6,1.07-1.24,2.12-1.9,3.12l-.04.06c-.96,1.45-1.98,2.84-3.12,4.23-.12.14-.32.18-.47.08s-.22-.28-.15-.45c.24-.62.57-1.62.74-2.86.24-1.73.12-3.44-.38-5.08-.52-1.69-1.44-3.29-2.67-4.62-.04-.04-.08-.03-.1-.03-.02,0-.06.02-.07.06-1.16,3.54-1.9,7.22-2.22,10.94-.25,2.91-.23,5.85.05,8.76.02.22-.08.42-.26.54-.1.07-.21.1-.32.1Zm5.72-7.63s0,0,0,0c0,0,0,0,0,0Z"/>
  <path class="cls-5" d="m62.79,61.68c-.08,0-.16-.02-.23-.06-.35-.19-.82-.46-1.33-.78-2.89-1.82-5.36-4.17-7.32-6.97-1.11-1.59-2.04-3.31-2.76-5.13-.9-2.25-1.47-4.61-1.71-7l.53-.05c.23,2.34.79,4.64,1.67,6.85.71,1.78,1.61,3.47,2.7,5.02,1.89,2.71,4.37,5.07,7.17,6.83.43.27.82.5,1.14.68-1.23-2.55-2.57-6.61-2.06-11.59.46-4.41,2.2-7.77,3.58-9.82.1-.15.28-.2.44-.12.16.08.23.26.17.43-.99,2.75-1.34,5.71-1.03,8.56.6,5.42,3.43,9.22,5.23,11.13-.67-4.47-.45-8.93.67-13.27,1.06-4.1,2.88-7.94,5.42-11.4l.43.32c-2.5,3.4-4.29,7.18-5.33,11.22-1.13,4.38-1.33,8.89-.6,13.4.03.18-.06.36-.23.44-.17.09-.37.05-.5-.09-1.82-1.86-4.97-5.86-5.62-11.69-.27-2.44-.06-4.96.6-7.37-1.16,2.01-2.34,4.83-2.71,8.32-.5,4.91.83,8.9,2.04,11.38l.05.09c.09.19.05.41-.1.55-.09.09-.21.13-.33.13Zm6.25-1.68s0,0,0,0c0,0,0,0,0,0Zm.19-.1s0,0,0,0c0,0,0,0,0,0Zm-4.61-19.95s0,0,0,0c0,0,0,0,0,0Zm-.33-.17s0,0,0,0c0,0,0,0,0,0Z"/>
  <path class="cls-5" d="m75.29,61.72c-.2,0-.37-.09-.48-.26-.12-.18-.13-.4-.04-.59,1.8-3.7,4.5-11.23,2.36-19.94-.47-1.93-1.18-3.84-2.08-5.68-.72-1.44-1.56-2.83-2.51-4.13l.43-.31c.96,1.32,1.82,2.74,2.55,4.2.93,1.88,1.64,3.82,2.12,5.79,2.18,8.87-.57,16.53-2.4,20.3-.01.03,0,.05,0,.06.01.02.02.02.05.02,2.4-.22,5.87-1.02,8.75-3.58,4.82-4.27,4.98-10.61,5.06-14.02.08-3.18-.43-6.33-1.52-9.38-.05-.18.03-.34.17-.4.14-.06.3-.02.39.11,1.77,2.69,3.08,5.6,3.9,8.67,1.74,6.52.87,12.34-.21,16.15,2.16-1.57,6.77-5.63,8.22-12.45,1.11-5.25-.2-9.69-1.07-11.88-.05-.14,0-.3.12-.38l.18-.12.2.16c2.02,1.9,4.72,5.17,6.14,9.87,2,6.64.38,12.41-.97,15.59,2.22-1.65,4.27-3.53,6.1-5.58,1.62-1.82,3.09-3.81,4.37-5.93,1.17-1.92,2.2-3.97,3.05-6.1l.49.2c-.86,2.15-1.9,4.23-3.09,6.17-1.3,2.14-2.79,4.16-4.43,6.01-2,2.25-4.27,4.29-6.73,6.06-.14.09-.31.09-.43-.02-.12-.1-.16-.27-.09-.42,1.09-2.36,3.38-8.65,1.22-15.83-1.22-4.05-3.42-7.01-5.27-8.93.84,2.44,1.74,6.52.74,11.22-1.54,7.25-6.57,11.46-8.65,12.94-.15.11-.35.11-.51,0-.15-.11-.22-.3-.16-.48,1.09-3.73,2.03-9.56.28-16.12-.65-2.45-1.63-4.81-2.91-7.02.74,2.58,1.08,5.23,1.01,7.9-.09,3.49-.25,9.98-5.24,14.4-2.99,2.65-6.58,3.48-9.06,3.71-.02,0-.04,0-.05,0Zm29.1-1.56h0s0,0,0,0Zm-12.61-1.15s0,0,0,0c0,0,0,0,0,0Zm-.15-.1s0,0,0,0c0,0,0,0,0,0Z"/>
  <path class="cls-5" d="m130.19,65.47l-.22-.09c-.13-.07-.19-.23-.14-.37.08-.2.15-.42.23-.65,1.16-3.39,2.31-8.71,1.22-14.85-.45-2.57-1.25-5.04-2.38-7.34-1.64,1.92-4.38,5.87-5.19,11.55-.33,2.34-.3,4.74.08,7.14.08.49.17.95.26,1.36.05.21-.02.43-.18.57-.14.12-.33.16-.5.1-1.16-.37-3.44-1.27-5.63-3.11-1.74-1.46-3.1-3.25-4.05-5.32-.41-.89-.73-1.81-.96-2.74l.52-.13c.22.9.53,1.79.93,2.65.92,2,2.24,3.73,3.91,5.14,2.11,1.77,4.31,2.65,5.44,3.01,0,0,0-.02,0-.04-.09-.42-.18-.88-.27-1.39-.39-2.45-.42-4.91-.09-7.3.84-5.94,3.76-10.03,5.42-11.95.1-.11.24-.17.38-.15.14.02.26.12.33.25,1.18,2.38,2.02,4.95,2.49,7.62,1.08,6.05.01,11.32-1.12,14.78,1.31-1.38,2.55-2.89,3.7-4.48.62-.85,1.2-1.72,1.74-2.59.22-.34.42-.67.61-1h0s.04-.07.04-.07c.74-1.24,1.43-2.52,2.04-3.82l.48.23c-.62,1.29-1.3,2.57-2.03,3.8l-.03.06c-.21.35-.42.71-.66,1.07-.55.87-1.14,1.75-1.76,2.62-1.25,1.72-2.6,3.33-4.01,4.81-.15.16-.31.33-.47.49l-.14.14Zm-1.36-23.44s0,0,0,0c0,0,0,0,0,0Z"/>
  <path class="cls-5" d="m139.36,66.73c-2.02-2.06-3.58-4.27-4.63-6.56-.13-.3-.26-.59-.36-.88l.51-.17c.09.27.21.53.33.81,1.03,2.25,2.56,4.41,4.53,6.42l-.38.37Z"/>
  <path class="cls-5" d="m20.28,88.35c-.25,0-.45-.06-.62-.19-.83-.65-.19-2.17.88-4.68.89-2.1,2-4.7,2.69-7.8.33-1.52.43-2.42.04-9.73l-.04-.73c-.09-1.51-.19-3.27-.31-5.34l-.07-1.08c-.22-3.71-.39-6.39-.48-8.44-.22-4.87,0-6.08.88-7.72,1.72-3.21,4.51-5.16,6.54-6.59,1.41-.99,2.53-1.77,2.3-2.35-.29-.75-2.46-.97-4.3-.75-2.03.26-3.37,1.16-4.16,1.7-.56.38-.93.63-1.23.38-.21-.17-.26-.54-.17-1.15.5-3.24,5.45-14.03,16.11-18.24,5.33-2.1,10.39-1.88,13.7-1.33.06.01.11-.02.12-.03.04-.03.06-.08.05-.13-.04-.75-.25-1.85-1.05-2.78-1.22-1.42-3.33-1.93-5.38-1.3-.14.05-.31-.02-.38-.15-.08-.14-.04-.31.09-.41,3.62-2.72,9.62-6.1,17.65-6.79,4.87-.41,9.91.27,14.56,1.97.18.07.36.05.52-.03,4.33-2.42,11.36-5.17,20.22-4.57,7.61.52,13.47,3.35,17.04,5.64.12.08.17.21.14.34-.03.13-.13.23-.27.26-.93.14-2.3.53-3.61,1.61-1.09.88-1.72,1.91-2.08,2.69,5.61.11,11,1.21,16.01,3.27,3.77,1.55,8.47,3.48,12.21,8.29,1.37,1.77,2.48,3.75,3.3,5.88.06.15.04.32-.05.45-.09.13-.24.21-.4.21-1.28-.01-2.58.09-3.85.32-1.33.24-2.64.6-3.9,1.08,2.05.72,4.75,2.1,6.9,4.7,2.04,2.46,2.66,4.95,3.31,7.58.54,2.15.89,4.47,1.04,6.91.38,6.01-.53,11.01-.93,12.89-.1.45-.19.85-.28,1.23-.07.31-.14.59-.2.87l-.05.21c-.11.51-.18.93-.23,1.33l-.03.23c-.06.56-.07,1.12-.05,1.74.12,2.94,1.17,5.87,3.1,8.7.1.14.1.33,0,.48-.09.15-.26.22-.44.19-1.21-.21-3.51-.81-5.18-2.49-.41-.42-.76-.88-1.04-1.37-.09-.16-.2-.37-.31-.61-.62-1.37-.91-3.01-.78-4.48.03-.4.09-.74.15-1.07.09-.54.18-1.05.17-1.82h.53c.01.82-.09,1.37-.18,1.91-.06.33-.11.65-.14,1.03-.12,1.39.15,2.93.74,4.22.09.21.19.39.28.57.26.45.58.88.95,1.26,1.47,1.48,3.46,2.07,4.66,2.3-1.9-2.86-2.93-5.81-3.06-8.78-.03-.73,0-1.39.08-2.06l.04-.23c.06-.4.13-.82.24-1.32v-.24h.06c.05-.22.1-.44.15-.68.09-.38.18-.78.28-1.22.4-1.85,1.3-6.8.92-12.74-.15-2.41-.5-4.7-1.03-6.82-.67-2.68-1.25-5-3.21-7.37-2.27-2.74-5.17-4.08-7.21-4.71-.13-.04-.22-.16-.22-.29,0-.13.07-.26.19-.31,1.47-.61,3-1.05,4.56-1.33,1.28-.22,2.58-.34,3.87-.32-.79-2.06-1.87-3.96-3.19-5.67-3.66-4.7-8.28-6.6-12-8.12-5.04-2.07-10.45-3.16-16.09-3.24-.11,0-.22-.06-.28-.15-.07-.1-.08-.22-.03-.33.36-.86,1.05-2.1,2.35-3.15,1.18-.96,2.4-1.41,3.34-1.62-3.55-2.19-9.15-4.78-16.35-5.28-8.73-.6-15.65,2.12-19.92,4.5-.29.16-.64.19-.96.07-4.58-1.68-9.53-2.35-14.33-1.94-7.33.62-12.94,3.53-16.56,6.09,1.93-.28,3.79.34,4.94,1.69.9,1.05,1.14,2.27,1.18,3.1,0,.22-.08.42-.24.56-.16.14-.36.19-.57.16-3.24-.54-8.2-.76-13.41,1.3-8.98,3.54-13.89,11.89-15.37,16.26-.46,1.34-.48,1.98-.44,2.17.13-.05.38-.22.6-.37.84-.57,2.24-1.52,4.4-1.79,1.47-.18,4.37-.18,4.86,1.08.37.97-.77,1.77-2.49,2.98-1.99,1.4-4.72,3.31-6.38,6.4-.82,1.54-1.03,2.7-.82,7.44.09,2.05.25,4.73.48,8.44l.07,1.08c.12,2.07.22,3.83.31,5.34l.04.74c.4,7.38.3,8.3-.05,9.87-.7,3.14-1.82,5.78-2.72,7.89-.87,2.04-1.55,3.65-1.04,4.05.4.32,1.78-.34,3.69-1.25.91-.44,1.8-.9,2.64-1.39l.27.46c-.85.49-1.75.97-2.68,1.41-1.78.85-2.9,1.38-3.63,1.38Zm124.85-11.54s0,0,0,0h0Zm.1-.16h0,0ZM109.39,10.61h0,0Zm-63.74-1.05s0,0,0,0c0,0,0,0,0,0Z"/>
  <path class="cls-5" d="m29.67,134.67c-.18,0-.35-.08-.48-.22-.17-.19-.22-.44-.13-.68.67-1.85,1.4-4.78,1.05-8.29-.09-.9-.25-1.79-.46-2.65v-.04c-.4-1.59-1.01-3.12-1.82-4.57-.28.69-.61,1.33-1.02,1.91-1,1.4-2.3,2.16-3.22,2.55-.4.17-.86-.02-1.03-.41-1.39-3.2-4.24-11.57-.55-19.98.7-1.6,1.62-3.14,2.72-4.57l.42.32c-1.07,1.39-1.96,2.89-2.65,4.46-3.6,8.21-.81,16.41.55,19.55.06.13.21.18.33.13.85-.37,2.07-1.07,3-2.37.38-.54.69-1.13.92-1.77.07-.21.25-.35.47-.37.22-.02.42.08.53.28.83,1.5,1.46,3.09,1.87,4.73v.04c.23.88.38,1.78.48,2.7.36,3.61-.39,6.62-1.08,8.52-.03.07.01.13.03.14.02.02.06.05.12.04,1.29-.3,2.34-.86,3.13-1.67.91-.95,1.2-1.97,1.48-2.96.1-.37.21-.74.35-1.11.62-1.63,1.89-3.07,3.79-4.27l.29.45c-1.8,1.14-3,2.49-3.57,4.01-.13.34-.23.69-.33,1.06-.3,1.05-.61,2.14-1.61,3.19-.86.88-1.99,1.5-3.39,1.82-.05.01-.1.02-.16.02Z"/>
  <path class="cls-5" d="m136.12,104.06c-.06,0-.11-.01-.17-.04-.13-.08-.19-.23-.16-.38,2.45-7.71,2.63-13.34.53-16.76l-.18-.28c-.67-1.06-2.06-3.26-1.75-5.94.15-1.25.71-2.32,1.73-4.25.67-1.28,1.52-2.62,2.52-3.98l.43.32c-.98,1.34-1.82,2.66-2.48,3.91-1.02,1.94-1.54,2.91-1.67,4.06-.29,2.49.98,4.51,1.67,5.59.07.11.13.2.18.29,2.12,3.46,2.03,9.02-.27,16.53,1.25-1.1,2.37-2.31,3.35-3.62.9-1.2,1.67-2.48,2.31-3.83l.39-.83c1.21-2.62,2.21-5.44,1.29-8.22-.1-.33-.58-1.29-1.43-3.05l-.06-.13c-.77-1.57-1.27-2.48-1.64-3.14-.42-.76-.65-1.17-.84-1.82-.35-1.23-.35-2.6,0-4.07l.52.13c-.34,1.37-.34,2.65-.01,3.79.17.58.38.96.79,1.71.37.67.88,1.58,1.65,3.17l.06.13c.9,1.84,1.34,2.76,1.46,3.12.97,2.96-.06,5.89-1.32,8.61l-.39.84c-.65,1.37-1.45,2.69-2.37,3.92-1.14,1.52-2.47,2.92-3.95,4.15-.06.05-.13.08-.21.08Zm-.13-.49s0,0-.01,0c0,0,0,0,.01,0Z"/>
  <path class="cls-5" d="m148.28,129.74c-1.14,0-2.18-.21-3.11-.63-.83-.37-1.36-.82-1.92-1.29-.13-.11-.27-.22-.41-.34l-.1-.08c-.45-.36-1.02-.78-1.85-1.22-.92-.49-1.5-.67-2-.82-.37-.11-.68-.2-1.04-.4-1.65-.87-2.65-2.91-3.08-6.22l.53-.07c.4,3.08,1.34,5.04,2.8,5.82.31.17.59.25.94.36.5.15,1.13.34,2.1.86.93.5,1.55.96,2.03,1.35l.1.09c.11.09.22.18.32.27.55.47,1.03.87,1.8,1.21,1.16.53,2.54.7,4.08.51-.41-2.08-1.19-3.83-2.33-5.21-.32-.39-.62-.69-.91-.98-.57-.57-1.06-1.06-1.45-2.01-.44-1.07-.42-1.89-.39-2.94.01-.41.02-.88,0-1.42-.06-1.75-.38-3.52-.96-5.29l-.23-.7,1.75,1.08c.48.3.96.59,1.43.89.84.52,1.68,1.04,2.52,1.57-.05-4.1-.86-7.75-2.4-10.85-.24-.48-.45-.84-.68-1.26-.25-.44-.52-.93-.9-1.66-.75-1.45-1.44-2.94-2.03-4.43l-.08-.21c-.09-.23-.18-.44-.25-.66l.5-.18c.08.21.16.42.25.64l.08.21c.59,1.47,1.27,2.94,2.01,4.38.38.72.65,1.21.89,1.64.24.43.45.8.69,1.29,1.61,3.22,2.44,7.02,2.46,11.28,0,.16-.09.3-.23.38-.14.07-.3.07-.43-.02-.89-.56-1.77-1.11-2.67-1.67-.48-.3-.96-.59-1.43-.89l-.52-.32c.46,1.59.72,3.18.77,4.75.02.55,0,1.03,0,1.45-.03,1.02-.05,1.76.35,2.72.35.85.79,1.29,1.34,1.84.28.28.6.6.94,1.02,1.21,1.47,2.04,3.33,2.46,5.54.02.11,0,.23-.07.33-.07.1-.18.17-.3.19-.47.06-.93.09-1.37.09Zm1.22-.51s0,0,0,0c0,0,0,0,0,0Zm-.42-14.99s0,0,0,0c0,0,0,0,0,0Z"/>
  <path class="cls-5" d="m87.86,146.03c-1.29,0-2.58-.18-3.83-.54-6.59-1.89-13.07-4.17-19.27-6.78-8.19-3.46-16.11-7.6-23.54-12.31-.67-.42-1.32-.84-1.98-1.28-.27-.18-.54-.37-.81-.55-3.85-2.76-6.7-6.53-8.23-10.92l-.04-.13c-1.07-3.09-1.59-6.37-1.55-9.73h.53c-.04,3.3.47,6.52,1.52,9.57l.04.13c1.49,4.27,4.27,7.96,8.04,10.65.26.18.52.37.79.54.66.43,1.31.85,1.97,1.27,7.41,4.69,15.3,8.82,23.46,12.27,6.18,2.6,12.64,4.88,19.21,6.76,2.53.73,5.19.69,7.71-.1,5.06-1.59,10.02-3.58,14.75-5.91,3.18-1.56,6.32-3.3,9.33-5.18,6.08-3.8,11.79-8.24,16.98-13.22.67-.64,1.3-1.32,1.89-2.03,3.22-3.9,5.1-8.76,5.27-13.68,0-.06,0-.11,0-.15.05-1.67-.05-3.35-.3-4.99l.53-.08c.26,1.67.36,3.38.31,5.08,0,.05,0,.12,0,.18-.18,5.02-2.1,9.99-5.4,13.98-.6.73-1.25,1.42-1.93,2.08-5.21,5-10.95,9.47-17.06,13.28-3.03,1.89-6.18,3.65-9.38,5.21-4.75,2.34-9.74,4.34-14.83,5.94-1.37.43-2.77.64-4.18.64Z"/>
  <path class="cls-5" d="m75.68,159.68c-9.66-1.16-33.31-4.83-44.39-13.81-2.54-2.05-7.2-5.83-7.45-11.39-.1-2.1.33-5.34,2.89-8.85.86-1.17,1.87-2.21,3.02-3.07l.16.21h.27s0,.14,0,.14l-.11.08c-1.1.83-2.08,1.83-2.91,2.96-2.47,3.39-2.88,6.5-2.79,8.52.24,5.32,4.78,9,7.22,10.97,11,8.91,34.54,12.56,44.15,13.72l-.06.53Z"/>
  <path class="cls-5" d="m92.55,159.1h-.03v-.53c25.29-4.85,44.74-12.45,48.37-18.91,2.31-4.11,2.39-8.11,2.39-8.15.02-1.4-.16-2.8-.52-4.17v-.07s.27,0,.27,0l.25-.07c.38,1.41.56,2.86.54,4.31,0,.17-.09,4.17-2.46,8.4-3.7,6.59-23.3,14.3-48.78,19.18h-.02Z"/>
  <path class="cls-5" d="m80.85,151.3h-.06l-.06-.03c-5.04-2.47-9.54-5.72-13.38-9.65-.92-.94-1.82-1.95-2.69-2.99l.41-.34c.86,1.04,1.75,2.03,2.66,2.96,3.8,3.89,8.25,7.1,13.24,9.54l-.11.23v.27Z"/>
  <path class="cls-5" d="m86.03,152.72l-.26-.46c4.64-2.63,9.26-5.45,13.72-8.39,2.36-1.55,4.75-3.19,7.11-4.87l.31.43c-2.36,1.68-4.76,3.33-7.12,4.88-4.47,2.94-9.1,5.77-13.75,8.41Z"/>
  <path class="cls-5" d="m68.68,178.22c-.67,0-1.23-.52-1.28-1.19-.19-2.81.09-7.08,2.55-11.46,1.4-2.5,3.28-4.64,5.6-6.37.13-.1.26-.19.39-.28l.3.44c-.12.08-.25.17-.37.27-2.26,1.69-4.09,3.78-5.45,6.21-2.39,4.27-2.67,8.43-2.48,11.16.03.4.37.71.75.69,3.72-.04,10.83-.9,16.65-6.23,1.12-1.02,2.13-2.14,3.07-3.45l.43.31c-.97,1.33-2,2.49-3.15,3.53-5.96,5.45-13.21,6.33-17.01,6.36h-.01Z"/>
  <path class="cls-5" d="m93.64,178.66c-2.04,0-3.51-3.48-4.06-4.8-1.24-2.94-1.54-6.22-.9-9.75l.52.1c-.63,3.42-.33,6.6.87,9.45.47,1.11,1.89,4.47,3.57,4.47.01,0,.02,0,.04,0,.72-.02,2.14-.75,3.5-5.43,1.04-3.58.35-6.56,0-7.68-.47-1.52-1.06-3.42-2.78-4.84-.96-.79-1.82-1.06-2.65-1.32-1.03-.32-2-.62-3.01-1.81-.39-.46-.58-.81-.8-1.22-.24-.44-.53-.99-1.2-1.89-.6-.81-1.26-1.58-1.96-2.29-.17-.17-.39-.28-.64-.31-2.84-.3-5.73.06-8.34,1.03-1.37.51-2.69,1.19-3.91,2.02-.25.17-.41.43-.45.73-.04.29.05.59.24.81.37.42.78.82,1.21,1.17,3.86,3.15,8.92,2.48,10.92,2.04l.11.52c-2.07.45-7.33,1.14-11.37-2.15-.45-.37-.88-.78-1.27-1.23-.29-.33-.43-.78-.37-1.23.06-.45.3-.85.68-1.11,1.25-.85,2.61-1.55,4.02-2.08,2.69-1,5.67-1.37,8.58-1.06.37.04.71.2.97.46.72.73,1.4,1.52,2.01,2.35.69.93.99,1.5,1.24,1.95.21.4.38.71.73,1.12.91,1.07,1.77,1.33,2.76,1.64.84.26,1.79.56,2.83,1.41,1.84,1.52,2.48,3.58,2.95,5.09.36,1.16,1.08,4.27,0,7.99-1.1,3.76-2.48,5.77-4,5.82-.02,0-.03,0-.05,0Z"/>
  <path class="cls-5" d="m24.45,96.45c-5.38-.57-9.77-2.42-13.05-5.51-1.92-1.81-2.88-3.6-4.78-7.16C.34,72.02.2,62.97,0,50.43c-.03-1.8-.09-5.92,2.32-7.38.53-.33,1.4-.63,3.82-.41,3.6.33,6.4,1.42,7.75,2.03,2.96,1.37,5.96,3.2,8.91,5.44l-.32.42c-2.92-2.22-5.88-4.03-8.81-5.38-1.32-.6-4.06-1.66-7.58-1.98-2.27-.21-3.03.05-3.49.33-2.15,1.3-2.09,5.21-2.06,6.88.19,12.5.33,21.5,6.54,33.1,1.89,3.54,2.83,5.3,4.69,7.05,3.19,3.01,7.48,4.82,12.74,5.37l-.06.53Z"/>
  <path class="cls-5" d="m23.54,66.14c-.08-.14-.16-.28-.25-.42-.88-1.46-1.87-2.87-2.96-4.2-2.66-3.25-5.83-5.99-9.43-8.15l.27-.46c3.65,2.19,6.86,4.97,9.56,8.27,1.11,1.35,2.12,2.79,3,4.26.09.14.18.29.26.44l-.47.26Z"/>
  <path class="cls-5" d="m18.65,74.79c-1.66-1.25-2.49-3.29-2.12-5.2.45-2.31,2.41-3.39,3-3.67,1.23-.58,2.68-.67,4.08-.26l.08.03c.06.02.12.04.18.06l-.2.5s-.09-.03-.14-.05l-.08-.03c-1.27-.37-2.58-.29-3.7.23-.53.25-2.3,1.23-2.7,3.29-.33,1.71.42,3.54,1.92,4.67l-.32.43Z"/>
  <path class="cls-5" d="m143.19,96.09l-.1-.52c4.18-.79,7.67-2.48,10.37-5.02,1.86-1.75,2.8-3.51,4.68-7.02,6.23-11.65,6.37-20.66,6.56-33.13.03-1.67.09-5.58-2.06-6.88-.46-.28-1.23-.54-3.49-.33-3.68.34-6.53,1.5-7.58,1.98-2.49,1.15-4.99,2.62-7.44,4.37l-.31-.43c2.47-1.77,5.01-3.25,7.53-4.42,1.08-.49,3.99-1.68,7.75-2.03,2.42-.22,3.29.08,3.82.41,2.41,1.46,2.34,5.58,2.32,7.35-.19,12.55-.33,21.61-6.6,33.35-1.92,3.59-2.88,5.38-4.8,7.19-2.77,2.61-6.35,4.35-10.64,5.16Z"/>
  <path class="cls-5" d="m142.71,64.49h-.14v-.26h-.27l.11-.11-.06-.04c.65-.98,1.37-1.95,2.15-2.9,2.7-3.3,5.92-6.08,9.56-8.27l.27.46c-3.59,2.16-6.76,4.9-9.43,8.15-.77.94-1.48,1.9-2.11,2.86l-.08.12Z"/>
  <path class="cls-5" d="m146.59,74.79l-.32-.42c1.49-1.13,2.24-2.96,1.91-4.67-.4-2.06-2.17-3.04-2.7-3.29-.95-.45-2.04-.57-3.14-.36h-.06s0-.53,0-.53c1.17-.23,2.37-.09,3.43.4.59.28,2.55,1.36,3,3.67.37,1.9-.46,3.94-2.11,5.19Z"/>
  <path class="cls-5" d="m80.26,87.02l-.23-.48c1.22-.59,2.52-.94,3.87-1.02,1.58-.1,3.21.18,4.68.81l-.21.49c-1.4-.6-2.94-.86-4.44-.77-1.28.08-2.51.4-3.67.97Z"/>
  <path class="cls-5" d="m84.48,103.53c-.19,0-.39,0-.58-.02-2.15-.16-4.19-1.22-5.59-2.92-1.43-1.73-2.06-3.9-1.8-6.1l.53.06c-.25,2.06.35,4.08,1.68,5.7,1.31,1.59,3.21,2.58,5.22,2.73,2.03.15,4-.53,5.54-1.92,1.55-1.4,2.44-3.3,2.51-5.36l.53.02c-.07,2.21-1.02,4.24-2.68,5.74-1.5,1.35-3.38,2.08-5.35,2.08Z"/>
  <path class="cls-5" d="m74.98,98.9c-1.5,0-2.85-.51-3.57-1.45-.58-.76-.8-1.89-.62-3.12.28-1.85,1.39-3.59,3.06-4.79l.31.43c-1.55,1.11-2.59,2.73-2.84,4.44-.16,1.09.03,2.08.52,2.72.81,1.06,2.95,1.72,5.32.86l.18.5c-.78.28-1.58.42-2.35.42Z"/>
  <path class="cls-5" d="m95,98.92c-1.03,0-2.15-.25-3.26-.83l.25-.47c2.48,1.3,5.19.8,6.17-.48.49-.64.68-1.63.52-2.72-.25-1.71-1.29-3.32-2.84-4.44l.31-.43c1.67,1.2,2.79,2.95,3.06,4.79.18,1.23-.05,2.37-.62,3.12-.67.88-2,1.46-3.58,1.46Z"/>
  <path class="cls-1" d="m60.55,85.39c.03-.22.04-.45.04-.68,0-2.27-1.41-4.22-3.4-5.01,2,.62,3.46,2.49,3.46,4.7,0,.34-.03.67-.1.99Z"/>
  <path class="cls-1" d="m119.38,84.86c.01-.14.02-.28.02-.42,0-2.73-2.03-4.98-4.66-5.34,2.62.1,4.72,2.26,4.72,4.92,0,.29-.03.57-.07.84Z"/>
  <path class="cls-5" d="m67.39,126.22l-.45-.29c.66-1.02,6.82-9.98,18.36-10.05.05,0,.1,0,.15,0,11.31,0,17.54,8.63,18.21,9.62l-.44.3c-.66-.96-6.74-9.39-17.77-9.39-.05,0-.1,0-.14,0-11.45.08-17.66,9.41-17.92,9.81Z"/>
  <path class="cls-5" d="m86.18,125.17c-1.84,0-3.69-.38-5.39-1.11l.21-.49c1.79.77,3.77,1.14,5.71,1.06,1.77-.07,3.48-.5,5.08-1.27l.23.48c-1.67.8-3.44,1.24-5.29,1.32-.19,0-.37.01-.56.01Z"/>
  <path class="cls-5" d="m75.03,152.61c-1.87-.68-3.6-1.65-5.14-2.89-1.85-1.47-3.37-3.26-4.53-5.32l.46-.26c1.13,1.99,2.61,3.73,4.4,5.16,1.5,1.2,3.18,2.14,5,2.8l-.18.5Z"/>
  <path class="cls-5" d="m71.88,154.33c-2.6-.42-5.08-1.26-7.38-2.48-2.11-1.13-4.03-2.57-5.69-4.27l.38-.37c1.62,1.67,3.49,3.07,5.56,4.17,2.25,1.2,4.68,2.02,7.22,2.43l-.09.53Z"/>
  <path class="cls-5" d="m87.35,154.54l-.09-.52c2.43-.44,4.72-1.28,6.8-2.51,2.21-1.3,4.13-3,5.7-5.06l.42.32c-1.61,2.11-3.58,3.85-5.85,5.19-2.14,1.26-4.48,2.13-6.98,2.57Z"/>
  <path class="cls-5" d="m89.9,156.34c-.52,0-1.05-.01-1.57-.04l.02-.53c3.52.17,6.96-.24,10.24-1.2,2.81-.83,5.47-2.06,7.89-3.67l.29.44c-2.47,1.64-5.17,2.89-8.03,3.73-2.85.84-5.82,1.26-8.85,1.26Z"/>
  <path class="cls-5" d="m72.11,173.93l-.44-.3c2.46-3.59,5.37-6.84,8.66-9.67,2.53-2.17,5.29-4.1,8.21-5.73l.26.46c-2.89,1.61-5.62,3.52-8.12,5.67-3.25,2.8-6.13,6.01-8.56,9.56Z"/>
  <path class="cls-5" d="m77.75,172.53l-.33-.42c2.06-1.61,2.56-3.86,1.84-5.02-.63-1.01-2.09-1.2-2.91-1.22-2.03-.05-3.44,1.29-3.82,1.7l-.39-.36c.42-.45,1.98-1.94,4.23-1.87,1.6.04,2.79.56,3.35,1.47.86,1.38.36,3.9-1.96,5.72Z"/>
  <path class="cls-5" d="m82.45,167.03l-.33-.42c1.57-1.23,1.95-2.93,1.41-3.81-.35-.56-1.13-.89-2.2-.91-1.55-.02-2.62.99-2.92,1.3l-.39-.36c.32-.35,1.5-1.47,3.22-1.47.03,0,.07,0,.1,0,1.26.03,2.2.45,2.64,1.16.68,1.09.29,3.07-1.53,4.51Z"/>
  <path class="cls-5" d="m92.65,169.91c-.37-2.07-1.74-7.31-6.5-11.13-3.09-2.48-6.38-3.41-8.59-3.75l.08-.53c2.28.35,5.66,1.3,8.85,3.86,4.9,3.94,6.31,9.32,6.69,11.45l-.52.09Z"/>
  <path class="cls-5" d="m90.12,169.62c-.36-.88-.51-1.78-.47-2.69.04-.8.1-2.01.92-2.46.59-.32,1.25-.07,2.24.32.88.35,1.73.81,2.52,1.37l-.31.43c-.75-.54-1.56-.98-2.4-1.31-.95-.37-1.43-.55-1.79-.35-.56.3-.61,1.33-.64,2.02-.04.83.1,1.66.43,2.46l-.49.2Z"/>
  <path class="cls-5" d="m81.21,158.56c-.3,0-.59-.01-.89-.03l.04-.53c.92.07,1.84.03,2.73-.13,1.01-.18,1.5-.28,1.71-.63.32-.55-.17-1.46-.5-2.06-.4-.73-.95-1.36-1.64-1.88l.32-.43c.76.56,1.36,1.25,1.8,2.05.38.71.96,1.77.49,2.58-.34.58-1.03.7-2.08.89-.65.11-1.31.17-1.98.17Z"/>
  <rect class="cls-5" x="56.21" y="75.05" width=".53" height="1.06" transform="translate(-33.54 103.85) rotate(-70.67)"/>
  <g>
    <path class="cls-9" d="m74.2,81.88c-1.03,7.04-7.09,12.45-14.42,12.45-8.05,0-14.58-6.52-14.58-14.58,0-2.18.47-4.24,1.34-6.09-.11.4-.17.84-.17,1.28,0,2.31,1.63,4.24,3.81,4.71-.02.23-.03.46-.03.69,0,5.06,4.11,9.17,9.17,9.17s9.17-4.11,9.17-9.17c0-.16,0-.32-.01-.48,1.9.68,3.81,1.35,5.71,2.03Z"/>
    <path class="cls-5" d="m59.79,94.59c-8.18,0-14.84-6.66-14.84-14.84,0-2.18.46-4.26,1.36-6.2l.5.18c-.11.38-.16.79-.16,1.21,0,2.13,1.51,4,3.6,4.45l.23.05-.02.23c-.02.22-.03.45-.03.67,0,4.91,3.99,8.9,8.9,8.9s8.9-3.99,8.9-8.9c0-.16,0-.32-.01-.48v-.39s6.28,2.23,6.28,2.23l-.03.22c-1.05,7.23-7.37,12.67-14.68,12.67Zm-13.65-19.15c-.44,1.38-.66,2.82-.66,4.31,0,7.89,6.42,14.31,14.31,14.31,6.98,0,13.01-5.14,14.12-12l-5.14-1.83s0,.07,0,.1c0,5.2-4.23,9.44-9.44,9.44s-9.44-4.23-9.44-9.44c0-.16,0-.32.01-.48-2.05-.54-3.56-2.32-3.77-4.41Z"/>
  </g>
  <g>
    <path class="cls-2" d="m68.5,80.33c0,5.06-4.11,9.17-9.17,9.17s-9.17-4.11-9.17-9.17c0-.23.01-.46.03-.69.32.07.66.11,1.01.11,1.41,0,2.67-.6,3.55-1.56-.32.69-.5,1.45-.5,2.26,0,2.98,2.41,5.39,5.39,5.39,2.73,0,5-2.03,5.34-4.68,0-.01,0-.02,0-.03,0,0,0-.01,0-.02.03-.22.04-.45.04-.68,0-.14,0-.28-.02-.42-.01-.12-.02-.23-.04-.34-.04-.25-.09-.5-.16-.73-.02-.08-.04-.16-.07-.23-.02-.08-.05-.15-.09-.23,1.27.45,2.55.91,3.83,1.36,0,.16.01.32.01.48Z"/>
    <path class="cls-5" d="m59.33,89.77c-5.2,0-9.44-4.23-9.44-9.44,0-.24.01-.48.03-.71l.02-.31.3.06c1.57.34,3.23-.2,4.3-1.37l1.17-1.27-.73,1.56c-.31.67-.47,1.39-.47,2.15,0,2.83,2.3,5.13,5.13,5.13,2.56,0,4.75-1.91,5.08-4.44l.02-.12c.02-.21.03-.39.03-.56,0-.14,0-.27-.02-.4,0-.11-.02-.22-.04-.32-.04-.24-.09-.47-.15-.69-.02-.07-.04-.14-.06-.2-.03-.1-.05-.16-.08-.22l-.29-.59.62.22c1.19.42,2.38.84,3.57,1.27l.43.15v.18c.01.16.02.33.02.49,0,5.2-4.23,9.44-9.44,9.44Zm-8.9-9.81c0,.12,0,.25,0,.38,0,4.91,3.99,8.9,8.9,8.9s8.9-3.99,8.9-8.9c0-.1,0-.2,0-.29l-.09-.03c-1.02-.36-2.04-.72-3.05-1.08.06.22.12.47.15.72.02.12.03.23.04.35.01.15.02.3.02.45,0,.23-.02.46-.04.71l-.02.11c-.39,2.77-2.79,4.85-5.6,4.85-3.12,0-5.66-2.54-5.66-5.66,0-.47.06-.93.17-1.38-1.06.76-2.39,1.09-3.71.89Z"/>
  </g>
  <g>
    <path class="cls-5" d="m65.03,80.44c0,.23-.02.46-.04.68,0,0,0,.01,0,.02,0,.01,0,.02,0,.03-.35,2.64-2.61,4.68-5.34,4.68-2.98,0-5.39-2.42-5.39-5.39,0-.8.18-1.57.5-2.26.36-.38.65-.83.86-1.32.39-.44.86-.82,1.37-1.11,2.56.91,5.12,1.82,7.68,2.73h0c.04.08.06.15.09.23.03.08.05.15.07.23.07.23.12.48.16.73.02.11.03.22.04.34.01.14.02.28.02.42Z"/>
    <path class="cls-5" d="m59.64,86.11c-3.12,0-5.66-2.54-5.66-5.66,0-.83.18-1.63.52-2.37l.05-.07c.34-.36.61-.78.81-1.25l.05-.07c.42-.47.9-.86,1.44-1.17l.11-.06,7.98,2.84v.13c.03.07.06.14.08.22.03.1.06.16.07.23.07.24.13.49.17.76.02.12.03.23.04.35.01.15.02.3.02.45,0,.23-.02.46-.04.71l-.02.11c-.39,2.77-2.79,4.85-5.6,4.85Zm-4.67-7.77c-.3.66-.45,1.37-.45,2.11,0,2.83,2.3,5.13,5.13,5.13,2.56,0,4.75-1.91,5.08-4.44l.02-.12c.02-.21.03-.39.03-.56,0-.14,0-.27-.02-.4,0-.11-.02-.22-.04-.32-.04-.24-.09-.47-.15-.69-.02-.07-.04-.12-.06-.18l-.02-.06s-.02-.06-.03-.09l-7.46-2.65c-.43.26-.83.58-1.17.97-.22.49-.51.93-.87,1.32Z"/>
  </g>
  <g>
    <path class="cls-9" d="m55.97,75.4c-.05.52-.18,1.01-.37,1.46-.21.49-.51.94-.86,1.32-.88.96-2.14,1.56-3.55,1.56-.35,0-.68-.04-1.01-.11-2.17-.46-3.81-2.4-3.81-4.71,0-.44.06-.87.17-1.28,0,0,0,0,0-.01h0s.02-.03.02-.05h0c.21-.45.43-.88.68-1.29,2.9,1.03,5.81,2.07,8.72,3.1Z"/>
    <path class="cls-5" d="m51.19,80.01c-.35,0-.71-.04-1.06-.11-2.33-.5-4.02-2.59-4.02-4.97,0-.45.06-.89.17-1.31v-.07l.05-.07c.23-.49.46-.92.69-1.31l.11-.19,9.12,3.24-.02.21c-.05.54-.18,1.06-.39,1.55-.23.52-.53.99-.91,1.4-.96,1.04-2.32,1.64-3.74,1.64Zm-4.4-6.23c-.1.37-.15.75-.15,1.15,0,2.13,1.51,4,3.6,4.45,1.57.34,3.23-.2,4.3-1.37.34-.37.61-.78.81-1.25.16-.37.27-.77.33-1.18l-8.31-2.95c-.19.32-.36.67-.55,1.05l-.04.11Z"/>
  </g>
  <polygon class="cls-5" points="47.16 72.55 46.94 72.51 46.94 72.47 41.33 70.48 41.51 69.97 47.45 72.08 47.45 72.27 47.26 72.27 47.16 72.55"/>
  <rect class="cls-5" x="56.21" y="75.05" width=".53" height="1.06" transform="translate(-33.54 103.85) rotate(-70.67)"/>
  <polygon class="cls-5" points="76.34 82.92 74.11 82.13 74.29 81.63 76.52 82.42 76.34 82.92"/>
  <path class="cls-5" d="m113.52,75.95l-.18-.5c.33-.12.67-.23,1-.35l.18.5c-.33.12-.67.24-1,.35Z"/>
  <g>
    <path class="cls-9" d="m125.2,79.7c0,8.05-6.52,14.58-14.58,14.58-7.33,0-13.39-5.41-14.42-12.45,1.91-.68,3.81-1.35,5.71-2.03,0,.16-.01.32-.01.48,0,5.06,4.11,9.17,9.17,9.17s9.17-4.11,9.17-9.17c0-.23-.01-.46-.03-.69,2.17-.46,3.81-2.4,3.81-4.71,0-.44-.06-.87-.17-1.28.86,1.85,1.34,3.91,1.34,6.09Z"/>
    <path class="cls-5" d="m110.62,94.54c-7.31,0-13.62-5.45-14.68-12.67l-.03-.22,6.29-2.23v.39c-.02.18-.02.33-.02.48,0,4.91,3.99,8.9,8.9,8.9s8.9-3.99,8.9-8.9c0-.23-.01-.45-.03-.67l-.02-.23.23-.05c2.08-.44,3.6-2.31,3.6-4.45,0-.42-.05-.82-.16-1.21l.5-.18c.9,1.94,1.36,4.03,1.36,6.2,0,8.18-6.66,14.84-14.84,14.84Zm-14.12-12.53c1.11,6.86,7.14,12,14.12,12,7.89,0,14.31-6.42,14.31-14.31,0-1.49-.22-2.93-.66-4.31-.21,2.09-1.72,3.87-3.77,4.41,0,.16.01.32.01.49,0,5.2-4.23,9.44-9.44,9.44s-9.44-4.23-9.44-9.44c0-.03,0-.07,0-.1l-5.14,1.83Z"/>
  </g>
  <path class="cls-5" d="m123.6,73.66c-.13-.47-.33-.9-.59-1.29l-.05-.07v-.08h.27s.22-.15.22-.15c.29.43.52.92.66,1.44l-.51.14Z"/>
  <g>
    <path class="cls-2" d="m120.25,80.28c0,5.06-4.11,9.17-9.17,9.17s-9.17-4.11-9.17-9.17c0-.16,0-.32.01-.48,1.28-.45,2.56-.91,3.83-1.36-.04.07-.06.15-.09.23-.03.07-.05.15-.07.23-.07.23-.12.48-.16.73-.02.11-.03.22-.04.34-.01.14-.02.28-.02.42,0,.23.02.46.04.68,0,0,0,.01,0,.02,0,.01,0,.02,0,.03.35,2.64,2.61,4.68,5.34,4.68,2.98,0,5.39-2.42,5.39-5.39,0-.8-.18-1.57-.5-2.26.88.96,2.14,1.56,3.55,1.56.35,0,.68-.04,1.01-.11.02.23.03.46.03.69Z"/>
    <path class="cls-5" d="m111.08,89.72c-5.2,0-9.44-4.23-9.44-9.44,0-.15,0-.31,0-.46v-.18s.18-.09.18-.09l4.45-1.58-.29.59c-.03.06-.05.12-.07.18-.04.1-.06.17-.07.23-.07.23-.12.46-.15.7-.02.11-.02.21-.04.33,0,.13-.01.26-.01.4,0,.18.01.37.03.57l.02.02v.1c.33,2.53,2.52,4.44,5.08,4.44,2.83,0,5.13-2.3,5.13-5.13,0-.75-.16-1.47-.47-2.15l-.73-1.56,1.16,1.27c1.07,1.17,2.73,1.71,4.3,1.37l.3-.06.02.31c.02.24.03.47.03.71,0,5.2-4.23,9.44-9.44,9.44Zm-8.9-9.73c0,.1,0,.2,0,.29,0,4.91,3.99,8.9,8.9,8.9s8.9-3.99,8.9-8.9c0-.13,0-.25,0-.38-1.32.2-2.65-.14-3.71-.89.11.45.17.91.17,1.38,0,3.12-2.54,5.66-5.66,5.66-2.81,0-5.2-2.08-5.6-4.84l-.02-.02v-.13c-.03-.21-.05-.45-.05-.68,0-.15,0-.3.02-.44.01-.13.02-.24.04-.36.04-.25.09-.49.15-.72l-3.14,1.11Z"/>
  </g>
  <g>
    <path class="cls-5" d="m116.17,80.39c0,2.98-2.41,5.39-5.39,5.39-2.73,0-5-2.03-5.34-4.68,0-.01,0-.02,0-.03,0,0,0-.01,0-.02-.03-.22-.04-.45-.04-.68,0-.14,0-.28.02-.42.01-.12.02-.23.04-.34.04-.25.09-.5.16-.73.02-.08.05-.15.07-.23.02-.08.05-.15.09-.23h0c2.56-.92,5.12-1.83,7.68-2.74.52.29.98.67,1.37,1.11.21.49.51.94.86,1.32.32.69.5,1.45.5,2.26Z"/>
    <path class="cls-5" d="m110.77,86.06c-2.81,0-5.2-2.08-5.6-4.84l-.02-.02v-.13c-.03-.21-.05-.45-.05-.68,0-.15,0-.3.02-.44.01-.13.02-.24.04-.36.04-.27.1-.52.17-.77.02-.07.04-.14.07-.21.02-.09.05-.16.08-.23v-.13l.18-.07,7.8-2.77.11.06c.54.3,1.02.7,1.44,1.17l.05.07c.2.46.47.88.81,1.25l.05.07c.35.74.52,1.54.52,2.37,0,3.12-2.54,5.66-5.66,5.66Zm-5.08-5v.02c.33,2.53,2.52,4.44,5.08,4.44,2.83,0,5.13-2.3,5.13-5.13,0-.74-.15-1.45-.45-2.11-.36-.39-.65-.84-.87-1.32-.35-.38-.74-.71-1.17-.97l-7.46,2.65s-.02.06-.03.09c-.04.11-.06.17-.07.23-.07.22-.12.46-.15.7-.02.11-.02.21-.04.33,0,.13-.01.26-.01.4,0,.18.01.37.03.57l.02.02v.08Z"/>
  </g>
  <g>
    <path class="cls-9" d="m124.03,74.88c0,2.31-1.63,4.24-3.81,4.71-.32.07-.66.11-1.01.11-1.41,0-2.67-.6-3.55-1.56-.36-.38-.65-.83-.86-1.32-.2-.45-.32-.95-.37-1.46,2.91-1.03,5.82-2.07,8.72-3.1.25.42.47.85.68,1.29h0s.01.03.02.05h0s0,.01,0,.02c.11.4.17.84.17,1.28Z"/>
    <path class="cls-5" d="m119.22,79.96c-1.42,0-2.78-.6-3.74-1.65-.38-.41-.69-.88-.91-1.39-.21-.48-.34-1.01-.39-1.55l-.02-.21,9.12-3.24.11.19c.24.39.46.82.69,1.31l.06.1v.03c.11.42.17.87.17,1.32,0,2.38-1.69,4.47-4.02,4.97-.35.07-.71.11-1.06.11Zm-4.49-4.43c.06.41.17.81.33,1.18.2.46.47.88.81,1.25,1.07,1.17,2.73,1.71,4.3,1.37,2.08-.44,3.6-2.31,3.6-4.45,0-.39-.05-.78-.14-1.14l-.03-.03v-.06s0-.02-.01-.03h0c-.18-.39-.36-.73-.55-1.05l-8.31,2.95Z"/>
  </g>
  <polygon class="cls-5" points="123.28 72.49 123.16 72.23 122.96 72.23 122.96 72.04 123.14 71.97 128.9 69.92 129.08 70.43 123.28 72.49"/>
  <path class="cls-5" d="m113.52,75.95l-.18-.5c.33-.12.67-.23,1-.35l.18.5c-.33.12-.67.24-1,.35Z"/>
  <polygon class="cls-5" points="94.07 82.87 93.89 82.37 96.12 81.58 96.3 82.08 94.07 82.87"/>
  <line class="cls-1" x1="83.72" y1="141.58" x2="83.62" y2="141.48"/>
</svg>