<?xml version="1.0" encoding="UTF-8"?>
<svg id="Layer_1" data-name="Layer 1" xmlns="http://www.w3.org/2000/svg" width="121.19" height="110.27" viewBox="0 0 121.19 110.27">
  <defs>
    <style>
      .cls-1 {
        fill: #ef4137;
        stroke: #231f20;
        stroke-miterlimit: 10;
        stroke-width: .25px;
      }

      .cls-2 {
        fill: #231f20;
      }

      .cls-2, .cls-3 {
        stroke-width: 0px;
      }

      .cls-3 {
        fill: #ed1c24;
      }
    </style>
  </defs>
  <path class="cls-1" d="m60.59,109.56c16.42-16.49,29.01-28.07,37.93-35.97,3.7-3.28,9.41-8.26,14.39-16.68,3.47-5.87,9.02-15.26,7.52-27.47-.3-2.45-1.85-15.06-12.43-22.56-6-4.26-12.19-4.95-15.04-5.23-3.08-.31-10.49-.94-18.31,3.27-9.11,4.91-12.73,13.16-13.73,15.7-1.39-2.99-4.52-8.68-10.79-13.41-2.55-1.92-7.74-5.73-15.37-6.54C23.3-.55,14.89,5.91,12.85,7.53c-1.15.91-9.5,7.74-11.77,19.62-2.59,13.53,4.42,24.67,9.48,32.7,4.29,6.82,8.14,10.55,20.93,22.56,11.61,10.91,21.53,20.13,29.1,27.14Z"/>
  <path class="cls-2" d="m60.59,109.93l-.19-.17c-9.63-8.91-19.42-18.04-29.1-27.14-12.79-12.02-16.67-15.79-20.97-22.61C5.21,51.87-1.8,40.74.81,27.1,3.03,15.47,11.09,8.59,12.68,7.32,16.53,4.27,24.52-.68,34.78.4c7.86.83,13.21,4.87,15.5,6.59,4.47,3.37,8.13,7.84,10.61,12.96,1.7-4.07,5.6-10.94,13.63-15.27,8.05-4.34,15.62-3.58,18.46-3.3,2.69.27,8.99.9,15.17,5.28,9.29,6.59,11.84,17.08,12.54,22.75,1.51,12.3-4.16,21.9-7.56,27.64-4.91,8.31-10.53,13.28-14.24,16.56l-.2.18c-11.82,10.46-24.58,22.56-37.92,35.96l-.18.18ZM31.9.78c-8.71,0-15.46,4.25-18.88,6.96-1.57,1.24-9.49,8.02-11.68,19.46-2.57,13.43,4.38,24.46,9.45,32.51,4.27,6.77,8.13,10.53,20.89,22.51,9.62,9.04,19.35,18.11,28.91,26.96,13.29-13.33,25.99-25.37,37.76-35.8l.2-.18c3.69-3.27,9.27-8.2,14.14-16.44,3.36-5.68,8.98-15.18,7.49-27.3-.69-5.58-3.2-15.91-12.32-22.38-6.06-4.3-12.27-4.92-14.91-5.18-2.8-.28-10.25-1.02-18.16,3.24-8.26,4.45-12.07,11.66-13.61,15.56l-.23.58-.26-.56c-2.44-5.27-6.15-9.87-10.71-13.31-2.25-1.7-7.52-5.67-15.24-6.49-.96-.1-1.91-.15-2.83-.15Z"/>
  <g>
    <path class="cls-3" d="m60.59,109.9l-.18-.16c-9.64-8.92-19.43-18.06-29.1-27.14-12.79-12.02-16.67-15.78-20.97-22.61C5.23,51.86-1.78,40.74.83,27.11,3.05,15.48,11.1,8.6,12.69,7.34,16.54,4.29,24.53-.67,34.78.42c7.86.83,13.21,4.87,15.49,6.59,4.48,3.38,8.15,7.86,10.62,12.99,1.69-4.06,5.59-10.96,13.63-15.3,8.04-4.34,15.61-3.58,18.45-3.3,2.69.27,8.99.9,15.16,5.28,9.28,6.59,11.83,17.07,12.53,22.74,1.51,12.29-4.16,21.89-7.55,27.62-4.91,8.31-10.52,13.27-14.24,16.56l-.2.18c-11.82,10.46-24.58,22.56-37.92,35.96l-.17.17ZM31.89.76c-8.71,0-15.47,4.25-18.9,6.96-1.57,1.24-9.49,8.02-11.68,19.47-2.57,13.44,4.38,24.47,9.45,32.52,4.27,6.78,8.13,10.53,20.89,22.51,9.61,9.03,19.34,18.1,28.93,26.98,13.29-13.34,26-25.38,37.77-35.81l.2-.18c3.69-3.27,9.27-8.2,14.14-16.44,3.36-5.68,8.98-15.19,7.49-27.31-.69-5.58-3.2-15.92-12.32-22.39-6.07-4.3-12.27-4.92-14.92-5.19-2.81-.28-10.26-1.02-18.17,3.24-8.27,4.46-12.08,11.67-13.62,15.57l-.21.54-.24-.52c-2.44-5.27-6.15-9.87-10.72-13.31-2.25-1.7-7.53-5.67-15.25-6.49-.97-.1-1.91-.15-2.83-.15Z"/>
    <path class="cls-2" d="m60.6,110.27l-.36-.34c-9.63-8.92-19.43-18.05-29.11-27.14-12.81-12.03-16.69-15.81-21.01-22.66C4.98,51.97-2.06,40.79.57,27.06,2.81,15.33,10.92,8.4,12.53,7.13,16.41,4.05,24.46-.94,34.81.15c7.93.84,13.32,4.9,15.62,6.64,4.36,3.28,7.96,7.62,10.45,12.56,1.74-3.96,5.67-10.66,13.52-14.89C82.52.09,90.14.85,93.01,1.13c2.71.27,9.06.9,15.29,5.32,9.36,6.64,11.94,17.21,12.64,22.92,1.52,12.38-4.18,22.03-7.59,27.79-4.93,8.34-10.57,13.33-14.29,16.62l-.2.18c-11.81,10.46-24.56,22.55-37.91,35.95l-.35.35ZM31.89,1.03c-8.72,0-15.48,4.33-18.73,6.91-1.55,1.23-9.41,7.95-11.59,19.31-2.55,13.34,4.36,24.31,9.41,32.33,4.25,6.75,8.11,10.5,20.85,22.46,9.57,8.99,19.24,18.01,28.74,26.8,13.23-13.27,25.88-25.26,37.61-35.64l.2-.18c3.68-3.26,9.24-8.18,14.09-16.38,3.34-5.65,8.93-15.11,7.45-27.14-.68-5.54-3.17-15.79-12.21-22.21-6.01-4.26-12.16-4.88-14.79-5.14-2.79-.28-10.18-1.01-18.02,3.21-8.19,4.42-11.97,11.56-13.5,15.43l-.44,1.12-.51-1.09c-2.43-5.23-6.1-9.8-10.63-13.21-2.24-1.69-7.47-5.63-15.11-6.44-.93-.1-1.87-.15-2.81-.15Z"/>
  </g>
</svg>