<?xml version="1.0" encoding="UTF-8"?>
<svg id="Layer_1" data-name="Layer 1" xmlns="http://www.w3.org/2000/svg" width="284" height="73" viewBox="0 0 284 73">
  <defs>
    <style>
      .cls-1 {
        fill: #1d659f;
        stroke: #1c65a0;
        stroke-miterlimit: 10;
      }
    </style>
  </defs>
  <path class="cls-1" d="m1.59,37.06c-.17-.84-1.04-5.78,2.02-9.18.4-.44,1.52-1.65,3.36-2.28,1.99-.68,3.72-.14,4.98-.04,5,.37,8.62,1.92,9.53,2.29,4.19,1.69,10.95,1.94,24.49,2.45,16.45.62,24.67.92,33.33-1.08,5.65-1.31,10.25-3.05,13.48-4.47.81-.36,1.29-1.21,1.18-2.09-.37-3.02-.56-9.79,4.11-14.93,4.33-4.76,10.51-5.54,13.08-5.86,1.49-.19,2.86-.22,4.07-.18,1.09.04,1.58,1.38.79,2.14-2.05,1.94-4.57,4.98-6.16,9.26-.92,2.49-1.3,4.79-1.43,6.66-.07.99.47,1.92,1.37,2.35,7.28,3.47,13.48,4.72,17.6,5.23,2.06.26,8.04.59,25.15-1.7,9.27-1.24,15.85-2.81,18.54-3.42,13.76-3.09,38.89-6.26,63.33-2.83,11.34,1.59,28.37,5.42,47.93,15.77.42.22.42.82,0,1.05-19.44,10.53-36.42,14.53-47.74,16.23-24.4,3.67-49.56.75-63.35-2.21-2.69-.58-9.29-2.08-18.57-3.23-17.13-2.12-23.11-1.72-25.16-1.45-4.14.56-10.37,1.88-17.68,5.47-.81.4-1.29,1.25-1.23,2.16.14,1.9.54,4.25,1.51,6.79,1.61,4.22,4.12,7.21,6.18,9.14.82.77.34,2.17-.79,2.22-1.19.05-2.53.03-3.98-.14-2.58-.3-8.76-1.02-13.14-5.73-4.67-5.03-4.6-11.7-4.27-14.78.1-.96-.43-1.86-1.31-2.24-3.24-1.38-7.81-3.05-13.4-4.28-8.68-1.91-16.9-1.53-33.34-.75-13.53.64-20.29.96-24.46,2.69-.91.38-4.51,1.96-9.51,2.38-1.26.11-2.98.66-4.98,0-1.85-.61-2.98-1.81-3.38-2.24-3.01-3.27-2.32-8.03-2.13-9.08,0-.03,0-.04,0-.04,0-.01,0-.02,0-.04Z"/>
  <path class="cls-1" d="m1.09,34.18c.05-1.96.52-4.49,2.32-6.48.38-.42,1.52-1.69,3.47-2.35,1.59-.54,3.01-.34,4.16-.17.33.05.64.09.93.11,4.83.36,8.33,1.79,9.48,2.25l.13.05c4.14,1.67,10.91,1.93,24.4,2.43,16.4.61,24.64.92,33.26-1.07,4.59-1.06,9.11-2.56,13.43-4.46.7-.31,1.12-1.04,1.02-1.81-.43-3.47-.45-10.05,4.18-15.14,4.4-4.83,10.6-5.61,13.25-5.95,1.36-.17,2.74-.23,4.12-.18.61.02,1.12.39,1.34.96.22.58.07,1.21-.38,1.63-2.76,2.62-4.81,5.7-6.09,9.16-.78,2.1-1.25,4.32-1.41,6.59-.07.88.42,1.71,1.22,2.09,5.71,2.72,11.6,4.47,17.52,5.21,2.4.3,8.86.48,25.08-1.7,8.5-1.14,14.77-2.56,17.78-3.25l.73-.17c15.54-3.49,40.37-6.07,63.42-2.83,16.4,2.3,32.55,7.62,48.02,15.8.28.15.45.44.45.75,0,.31-.17.61-.45.76-15.37,8.33-31.46,13.8-47.83,16.26-23.02,3.46-47.87,1.13-63.45-2.21l-.74-.16c-3.02-.65-9.3-2.02-17.8-3.07-16.24-2.01-22.7-1.77-25.1-1.45-5.95.8-11.87,2.63-17.6,5.44-.71.35-1.14,1.09-1.08,1.9.17,2.31.67,4.57,1.49,6.71,1.3,3.41,3.36,6.45,6.11,9.04.47.44.62,1.08.4,1.68-.22.59-.74.97-1.36.99-1.35.06-2.7.01-4.02-.14-2.65-.31-8.86-1.03-13.31-5.82-4.64-5-4.71-11.53-4.34-14.99.09-.85-.37-1.63-1.15-1.97-4.3-1.83-8.79-3.26-13.35-4.27-8.64-1.91-16.87-1.52-33.27-.74-13.48.64-20.24.96-24.37,2.67l-.13.05c-1.15.48-4.63,1.94-9.46,2.35-.29.02-.6.07-.93.12-1.14.18-2.56.39-4.16-.13-1.96-.64-3.12-1.9-3.5-2.32-2.97-3.23-2.46-7.83-2.2-9.25v-.04c-.09-.41-.28-1.52-.25-2.93Zm93.15-11.21c-.02.88-.53,1.66-1.35,2.02-4.36,1.91-8.91,3.42-13.53,4.49-8.69,2.01-16.95,1.7-33.4,1.08-13.55-.51-20.35-.76-24.58-2.47l-.13-.05c-1.13-.46-4.57-1.86-9.32-2.22-.3-.02-.62-.07-.96-.12-1.09-.16-2.44-.35-3.91.15-1.82.62-2.9,1.81-3.25,2.2-2.92,3.24-2.15,8.02-1.96,8.95h0s-.26.05-.26.05l.27-.02v.15c-.22,1.3-.77,5.76,2.08,8.85.36.39,1.45,1.57,3.27,2.17,1.47.48,2.82.28,3.91.11.35-.05.67-.1.96-.13,4.74-.4,8.17-1.84,9.3-2.31l.13-.05c4.21-1.75,11.01-2.07,24.54-2.71,16.45-.78,24.7-1.17,33.42.75,4.59,1.01,9.11,2.46,13.44,4.3,1,.42,1.6,1.43,1.47,2.51-.36,3.36-.3,9.72,4.2,14.57,4.31,4.64,10.38,5.35,12.98,5.65,1.29.15,2.62.2,3.94.14.41-.02.74-.26.88-.65.12-.31.11-.76-.26-1.11-2.81-2.64-4.91-5.74-6.24-9.23-.83-2.19-1.35-4.5-1.52-6.86-.07-1.01.46-1.97,1.37-2.41,5.78-2.84,11.75-4.69,17.76-5.49,2.96-.4,9.74-.47,25.23,1.45,8.53,1.06,14.83,2.42,17.85,3.08l.74.16c15.53,3.33,40.3,5.65,63.26,2.2,16.3-2.45,32.33-7.9,47.65-16.2.11-.06.16-.19.17-.29,0-.12-.06-.23-.17-.29-15.41-8.16-31.51-13.45-47.84-15.74-22.98-3.22-47.73-.65-63.23,2.82l-.73.17c-3.02.69-9.3,2.11-17.83,3.25-15.47,2.07-22.25,2.07-25.22,1.7-5.97-.74-11.92-2.51-17.68-5.26-1-.48-1.6-1.49-1.52-2.61.16-2.32.65-4.58,1.45-6.73,1.31-3.54,3.4-6.69,6.22-9.36.35-.33.36-.76.24-1.06-.11-.29-.39-.6-.86-.62-1.35-.05-2.7,0-4.03.18-2.59.33-8.65,1.09-12.92,5.78-4.49,4.93-4.46,11.33-4.04,14.71.01.12.02.23.02.34Z"/>
</svg>