<?xml version="1.0" encoding="UTF-8"?>
<svg id="Layer_1" data-name="Layer 1" xmlns="http://www.w3.org/2000/svg" width="163.15" height="208.42" viewBox="0 0 163.15 208.42">
  <defs>
    <style>
      .cls-1 {
        fill: #fddb2d;
      }

      .cls-1, .cls-2, .cls-3 {
        stroke: #231f20;
        stroke-miterlimit: 10;
        stroke-width: .5px;
      }

      .cls-2 {
        fill: #f6b232;
      }

      .cls-4 {
        fill: #3c2415;
      }

      .cls-4, .cls-5, .cls-6, .cls-7, .cls-8, .cls-9, .cls-10, .cls-11, .cls-12 {
        stroke-width: 0px;
      }

      .cls-5 {
        fill: #231f20;
      }

      .cls-6 {
        fill: #8b5e3c;
      }

      .cls-7 {
        fill: #c2b59b;
      }

      .cls-8 {
        fill: #939598;
      }

      .cls-9 {
        fill: #f1f2f2;
      }

      .cls-10 {
        fill: #fff200;
      }

      .cls-11 {
        fill: #fff;
      }

      .cls-12 {
        fill: #fbb040;
      }

      .cls-3 {
        fill: none;
      }
    </style>
  </defs>
  <g>
    <path class="cls-7" d="m56.04,112.93c-1.18,1.89-2.7,4.51-4.22,7.75-2.31,4.94-3.5,8.94-4.29,11.65-.36,1.22-1.55,5.39-2.56,11.21-.45,2.58-1.91,11.53-1.66,23.55.06,2.7.15,6.58.79,11.72.76,6.07,1.95,11.17,3.03,15.04-1.06.66-1.92,1.28-2.55,1.76-.93.72-1.52,1.26-2,1.7-1.29,1.19-1.52,1.61-1.64,1.89-.17.36-.55,1.21-.22,2.07.08.2.26.57.64.87.31.24.6.31,1.12.43.32.08.79.16,1.36.18-.13.31-.31.81-.42,1.43-.15.81-.27,1.51.07,2.25.07.16.34.72.97,1.08.65.38,1.3.32,1.59.29.67-.07,1.15-.36,1.39-.53.1.16.37.56.85.67.34.08.61-.03,1.08-.22.53-.21.95-.38,1.32-.77.52-.53.66-1.16.77-1.65.2-.9-.03-1.08.22-1.91.1-.33.25-.62.56-1.2.43-.82.7-1.32,1.18-1.85.26-.28.67-.68,1.28-1.06.17.23.43.54.8.85.6.49,1.15.68,1.99.96,1.07.36,1.62.54,2.28.4.31-.06.85-.17,1.18-.65.45-.64.18-1.44.14-1.55,0-.46-.06-1.06-.32-1.69-.61-1.44-1.98-2.06-3.43-2.7-1.04-.46-2.72-1.06-4.94-1.23-.21-1.38-.48-3.31-.69-5.62-.1-1.06-.33-3.89-.36-9.3-.02-3.67-.04-7.12.29-11.79.21-2.94.57-6.67,1.25-10.97.62.25,1.45.56,2.42.92,0,0,2.06.74,4.01,1.33,4.12,1.24,9.36,2.09,9.59,2.13,4.13.66,8.72,1.4,14.93,1.36,2.19-.01,8.13-.15,15.68-1.74,4.86-1.02,8.92-2.34,12.03-3.52-.48-2.84-1.07-5.81-1.82-8.91-1.29-5.36-2.67-9.49-4.28-14.3-1.07-3.19-2.01-5.81-2.68-7.62.7.2,1.75.43,3.03.48,2.22.07,3.88-.49,4.79-.78,4.56-1.47,3.88-.7,9.09-2.42,5.08-1.68,8.95-2.96,13.62-5.8,1.8-1.1,5.84-3.72,10.09-8.13,2.91-3.03,5.01-5.96,6.49-8.32,1.6.23,2.87.07,3.67-.09,1.46-.29,2.46-.82,3.96-1.62,1.31-.69,1.98-1.05,2.78-1.8,1.08-1.03,1.58-2.03,1.91-2.7.32-.67.5-1.21.5-1.84,0-.35,0-.78-.23-1.18-.56-.92-1.99-.85-2.11-.84.15-.26.36-.67.47-1.2.08-.38.18-.81.05-1.15-.24-.65-1.29-1.02-2.57-.94.1-.24.2-.55.26-.93.08-.56.03-1.02-.04-1.34-.1-.21-.31-.59-.73-.9-.72-.52-1.51-.45-1.7-.42.27-.43.62-1.1.85-1.96.18-.7.21-1.21.25-2,.05-1.13.07-1.72-.24-2.41-.11-.25-.3-.63-.7-.94-.59-.45-1.26-.46-1.52-.46-1.57,0-2.72,1.35-3.24,1.97-.38.44-.11.26-1.12,1.84-.13.21-.31.48-.29.83.01.29.14.71.47.9.3.17.49,0,1.44-.04.7-.03.86.06.94.11.41.26.46.82.47.94.04.45-.12.78-.4,1.33-.65,1.3-.98,1.95-1.15,2.16-.45.55-.85.84-1.48,1.3-.3.22-.6.41-1.01.5-.27.06-.61.14-.91-.04-.42-.25-.45-.83-.46-.93-.02-.34.09-.48.43-1.3.44-1.06.46-1.34.45-1.53-.02-.52-.24-.87-.28-.94-.07-.1-.37-.58-.87-.69-.37-.08-.78.04-1.35.49-2.01,1.56-2.6,3.93-2.6,3.93-.54,2.19.06,4,.4,5.01.6,1.8,1.54,3.07,2.16,3.79-.34.57-.84,1.35-1.51,2.24-.44.58-2.01,2.6-4.72,4.83-.58.48-2.04,1.64-4.51,3.1-1.64.97-5.27,2.99-10.38,4.65-4.73,1.54-8.49,2.04-10.89,2.34-3.36.43-6.97.93-11.72.47-1.79-.17-3.27-.44-4.32-.65l-.37-.89-9.88,1.65c-4.1.56-8.73.96-13.81,1.01-6.87.06-12.99-.54-18.17-1.37Z"/>
    <path class="cls-7" d="m44.39,145.63c-1.17-1.14-2.79-2.5-4.9-3.75-1.16-.68-2.89-1.69-5.37-2.36-2.41-.65-4.24-1.13-6.32-.34-2.23.85-3.37,2.64-3.64,3.08-.28.47-.69,1.27-1.07,4.33-.59,4.68-.32,8.21-.24,9.25.12,1.43.29,2.59.47,3.73,1.15,7.11,2.91,13.06,3.1,13.7.73,2.45.72,2.1,4.84,13.9.69,1.98,1.26,3.61,1.64,4.72-.65.12-1.35.29-2.07.52-2.37.75-4.2,1.9-5.5,2.9-.22-.07-.52-.15-.9-.21-.93-.16-1.94-.34-2.89.13-.27.13-1.18.58-1.35,1.52-.15.81.36,1.45.45,1.56.63.77,1.61.8,2.08.81.7.02,1.25-.17,1.56-.3-.07.25-.14.66-.02,1.11.34,1.25,1.83,1.63,1.99,1.67,1.49.36,2.68-.64,2.82-.76.2.11.5.26.87.42,1.01.45,1.52.68,2.18.75.55.06,1.02,0,1.86-.13.42-.06.7-.12.86-.15,1.1-.21,1.87-.1,2.95-.06.67.02,1.62.03,2.78-.06-.13-.43-.29-1.19-.06-2.06.05-.21.23-.8,1.18-1.86.45-.5,1.08-1.12,3.08-2.55.59-.42,1.23-.86,1.91-1.31-.37-1.34-.8-3.03-1.24-4.99-.83-3.7-1.27-6.56-1.41-7.52-.29-1.95-.83-5.95-1.03-11.11-.14-3.5-.06-6.15,0-8.2.02-.82.14-4.59.62-9.66.25-2.69.53-4.98.77-6.72Z"/>
    <path class="cls-7" d="m109.73,146.22c.7-.68,1.73-1.62,3.08-2.63,1.72-1.3,3.47-2.62,6.11-3.54.83-.29,2.87-.94,5.51-.97,1.51-.02,2.44-.03,3.52.46,1.98.92,2.86,2.85,3.32,3.9.62,1.4.84,2.7.86,6.93.03,4.1.04,6.15-.26,8.65-.33,2.69-.83,4.65-1.82,8.46-1.04,4.02-2.01,6.98-3.94,12.91-.78,2.41-1.44,4.34-2.26,6.57-.7,1.92-1.33,3.53-1.81,4.73.5.02,1.3.07,2.26.26,2.96.56,5.11,1.87,6.52,2.74.54.34,1.31.85,2.2,1.54.36-.08.9-.15,1.54-.08.47.05,1.33.13,2.12.75.31.24.75.58.93,1.2.19.64.09,1.51-.46,1.99-.53.46-1.25.37-2.33.22-.83-.11-1.48-.33-1.89-.5-.09.25-.27.65-.63,1.03-.28.3-.8.75-1.59.91-.27.05-1.07.18-1.92-.26-.55-.28-.88-.68-1.04-.9,0,.1-.02.24-.09.38-.2.39-.65.54-1.11.64-.96.22-1.99.25-3.5.11-.35-.03-.63-.07-.82-.09-4.87-.08-8.47-.1-10.54.02-.51.03-1.74.12-2.46-.64-.51-.55-.57-1.32-.6-1.73-.05-.74.34-.99.53-2.28.06-.4.07-.67.09-.86.06-.81.25-2.11.84-4.32.92-.37,1.84-.74,2.77-1.11.09-1.06.2-2.5.31-4.21.11-1.72.26-4.19.33-7.3.08-3.77.12-5.65-.07-8.1-.05-.67-.23-2.42-.6-5.93-.18-1.76-.26-2.47-.33-3.1-.25-2.19-.4-3.56-.64-5.07-.24-1.54-.38-2.01-1.02-5.11-.27-1.31-.67-3.26-1.13-5.67Z"/>
    <path class="cls-4" d="m53.24,156.4c-.13.62-.3,1.52-.47,2.61-.27,1.72-.4,2.96-.57,4.95-.15,1.67-.32,3.7-.43,6.46-.06,1.6-.13,4.21-.06,7.44.08,3.56.3,6.25.37,7.09.19,2.23.43,4.18.65,5.77.35.05.79.15,1.28.37,1.01.47,1.59,1.19,1.86,1.59,1.44-1.38,2.33-2.47,2.89-3.24,0,0,.58-.81,1.75-1.71.4-.31.74-.53,1.2-.53.58,0,1.01.36,1.1.43.27.24.41.5.45.59.81,1.62,1.34,1.88,2.24,4.1.59,1.46.85,2.56,1.28,4.36.28,1.16.46,2.2.69,3.42.21,1.12.36,2.07.47,2.75.25-.91.59-2.03,1.06-3.3.43-1.18.83-2.08,1.04-2.55.66-1.46,1.08-2.4,1.84-3.55.33-.49.9-1.17,2.04-2.51.73-.86,1.18-1.35,1.94-1.63.6-.22,1.1-.2,1.26-.2.19,0,.77.06,1.63.55,1.3.74,2,1.79,2.32,2.26.59.9.86,1.69,1.06,2.3.41,1.24.49,2.24.51,2.47.1,1.29-.08,2.42-.31,3.32.39-.41.94-1.05,1.49-1.92.43-.7.42-.83,1.02-1.97.88-1.66.83-1.21,1.79-2.92.28-.51.63-1.16,1.33-1.63.33-.22.58-.3.79-.33.65-.1,1.16.2,1.31.29.52.32.75.77,1.02,1.31.35.7.46,1.3.55,1.83.08.45.14,1.02.13,1.7.53-1.35,1.22-2.28,1.71-2.83.57-.65,1.15-1.28,2.12-1.57.3-.09.74-.23,1.29-.14.82.14,1.32.71,1.54.96.43.5.6.98.95,2.34.4,1.53.6,2.3.68,2.78.16,1.06.28,2.63.02,4.53.39-.94.95-2.11,1.75-3.38.3-.47.89-1.36,1.76-2.4.67-.8,1.83-2.16,3.69-3.5,1.91-1.38,3.55-2.03,3.95-2.18.52-.2.97-.34,1.3-.43.1-.81.23-1.98.35-3.4.43-4.81.43-8.32.43-9.05,0-1.56-.05-2.64-.14-4.81-.1-2.51-.21-5.09-.55-8.36-.27-2.59-.6-4.77-.84-6.28-.13-.78-.25-1.44-.33-1.92-1,.39-2.34.87-3.93,1.37-.83.26-3.25,1.01-6.69,1.77-5.79,1.26-10.48,1.67-11.76,1.77-5.49.43-9.67.23-10.91.16-1.13-.06-4.46-.28-8.75-1-1.45-.24-4.68-.83-8.75-1.96-2.88-.8-5.36-1.65-7.38-2.41Z"/>
    <g>
      <path class="cls-8" d="m112.69,163.61c1.36.31,2.51.32,3.29.27,1-.06,3.02-.33,5.14-1.61.86-.52,1.51-1.08,1.94-1.49-.71,1.93-1.75,4.92-2.79,8.65-1.3,4.65-1.61,6.89-2.88,11.71-.62,2.34-1.58,5.72-2.97,9.78-.57-.05-1.13-.11-1.7-.16.16-.96.36-2.29.52-3.9.3-2.94.31-5.15.32-7.65,0-.78,0-3.84-.24-7.99-.15-2.71-.37-5.25-.63-7.62Z"/>
      <path class="cls-8" d="m42.94,164.22c-1.05-.15-2.34-.43-3.74-.94-1.75-.64-3.13-1.44-4.14-2.13.7,4.31,1.43,7.91,2.02,10.57,2.65,12.09,4.96,17.2,5.91,19.2.82,1.72,1.57,3.09,2.09,4,.63-.34,1.27-.69,1.9-1.03-1.07-3.44-2.07-7.37-2.81-11.73-1.15-6.79-1.39-12.88-1.23-17.95Z"/>
      <path class="cls-8" d="m53.35,155.71c.31-3.7.84-6.8,1.33-9.16,1.07-5.18,2.47-9.27,3.33-11.75.27-.79.51-1.44.67-1.89.2,4.75.32,9.64.35,14.66.02,3.58,0,7.1-.06,10.54-1.87-.8-3.75-1.6-5.62-2.4Z"/>
      <g>
        <ellipse class="cls-6" cx="103.67" cy="181.47" rx="1.83" ry="3.5" transform="translate(-28.05 19.21) rotate(-9.33)"/>
        <path class="cls-5" d="m104.08,185.07c-.48,0-.96-.3-1.39-.87-.46-.61-.8-1.47-.95-2.41-.15-.94-.11-1.86.13-2.59.25-.76.68-1.22,1.21-1.31,1.08-.18,2.19,1.26,2.52,3.27h0c.33,2.01-.26,3.72-1.34,3.9-.06,0-.12.01-.18.01Zm-.81-6.93s-.09,0-.14.01c-.43.07-.79.47-1,1.13-.23.69-.27,1.56-.12,2.47.15.9.47,1.72.9,2.3.42.55.88.82,1.31.75.92-.15,1.42-1.77,1.12-3.6h0c-.29-1.74-1.2-3.06-2.08-3.06Z"/>
      </g>
      <g>
        <ellipse class="cls-6" cx="63.21" cy="172.33" rx="3.5" ry="1.83" transform="translate(-117.48 204.63) rotate(-79.99)"/>
        <path class="cls-5" d="m62.4,175.86c-.45-.16-.81-.6-1.02-1.28-.23-.73-.27-1.65-.1-2.59.17-.94.51-1.79.98-2.4.49-.63,1.05-.93,1.58-.84,1.07.19,1.65,1.91,1.3,3.92h0c-.35,2.01-1.48,3.43-2.56,3.24-.06-.01-.12-.03-.18-.05Zm1.53-6.81s-.09-.03-.14-.04c-.43-.08-.9.19-1.32.74-.44.57-.77,1.39-.93,2.29-.16.9-.13,1.78.09,2.47.21.66.56,1.07.99,1.14.92.16,1.93-1.19,2.25-3.02h0c.31-1.74-.12-3.28-.95-3.57Z"/>
      </g>
      <path class="cls-5" d="m69.19,150.7l-.26-.47c3.66-2.03,7.78-3.22,11.92-3.46,6.46-.37,11.61,1.57,14.8,3.27l-.25.47c-3.13-1.66-8.2-3.57-14.52-3.21-4.06.23-8.1,1.41-11.69,3.39Z"/>
      <g>
        <path class="cls-7" d="m153.81,59.05c-.03-1.51-.38-3.24-.78-4.57-.33-1.1-.64-1.95-1.26-1.95-4.7.03-13.05,2.92-19.73,7.26,1.21-4.33,1.86-9.22,1.86-14.73C133.91,20.43,108.9.47,78.06.47S21.09,20.46,22.2,45.06c.3,6.52,1.26,12.12,2.81,16.93-6.96-5.39-17-9.61-22.35-9.64-.62,0-.93,1.38-1.26,2.48-.4,1.33-1.02,4.27-1.1,5.78-.3,5.65.94,15.26,8.98,22.25,6.61,5.75,15,7.24,21.13,6.07,3.05,21.09,23.68,25.17,48.04,25.17s43.2-9.88,47.54-25.16c5.4,1.06,12.77-1.21,19.15-6.43,9.06-7.41,8.77-17.81,8.66-23.45Z"/>
        <circle class="cls-12" cx="105.12" cy="73.24" r="15.49"/>
        <circle class="cls-10" cx="105.1" cy="69.92" r="15.49"/>
        <circle class="cls-5" cx="106.51" cy="71.61" r="5.64"/>
        <circle class="cls-11" cx="96.62" cy="65.79" r="6.36"/>
        <circle class="cls-12" cx="50.13" cy="72.88" r="15.49"/>
        <circle class="cls-10" cx="50.1" cy="69.56" r="15.49"/>
        <circle class="cls-5" cx="51.51" cy="71.25" r="5.64"/>
        <circle class="cls-11" cx="41.63" cy="65.44" r="6.36"/>
        <path class="cls-5" d="m97.39,89.07s-8.21,7.24-19.09,7.35c-14.45.14-18.83-6.82-18.83-6.82.8,9.02,8.19,14.99,18.56,14.75,10.37-.24,18.28-7.64,19.36-15.28Z"/>
        <path class="cls-9" d="m72.52,95.91c1.45.25,3.47.34,5.46.33s3.39-.17,4.7-.36c.11,1.52-.64,2.74-1.94,3.11s-2.18-.8-2.96-2.14c-.62,1.41-1.5,2.66-2.74,2.45-1.58-.27-2.27-1.6-2.52-3.39Z"/>
        <path class="cls-9" d="m86.69,94.9c1.02.99,2.04,1.97,3.07,2.96.51-1.51,1.01-3.02,1.52-4.52-.63.31-1.35.62-2.17.9-.88.3-1.7.52-2.42.66Z"/>
        <path class="cls-9" d="m88.28,101.63c-1.02-.99-1.61-1.79-2.63-2.77l-1.52,4.52c.63-.31,1.32-.71,2.17-.9,1-.22,1.26-.7,1.99-.85Z"/>
        <path class="cls-9" d="m68.68,102.8c1.02-.99,1.92-2.18,2.94-3.16.73,1.45,1.09,2.95,1.6,4.46-.63-.31-1.29-.06-2.32-.52-.99-.44-1.33-.74-2.22-.78Z"/>
        <path class="cls-9" d="m65.59,94.21c.33,1.38.5,3.03.83,4.41,1.39-.83,2.45-2.06,3.69-3.06-.78-.13-2.14-.6-2.43-.7-1.03-.35-1.74-.54-2.09-.65Z"/>
        <g>
          <path class="cls-9" d="m75.37,78.16c0,.79-.47,1.15-1.25,1.15s-1.37.03-1.37-.75.6-1.24,1.39-1.24,1.24.05,1.24.84Z"/>
          <path class="cls-5" d="m73.94,79.45c-.47,0-.87-.01-1.11-.25-.14-.14-.21-.35-.21-.63,0-.82.61-1.37,1.52-1.37.67,0,1.37,0,1.37.97,0,.83-.49,1.29-1.39,1.29h-.09s-.06,0-.09,0Zm.2-1.99c-.76,0-1.25.43-1.25,1.1,0,.21.04.35.14.45.18.18.56.18,1.01.17h.09c.74,0,1.12-.34,1.12-1.02s-.29-.7-1.1-.7Z"/>
        </g>
        <path class="cls-8" d="m127.16,79.7c0-1.18-.04-2.46-.17-3.83-.12-1.28-.28-2.46-.48-3.55,1.58-1.72,3.77-3.77,6.66-5.7,3.62-2.41,7.06-3.76,9.61-4.54.1,1.57.04,4.29-1.36,7.12-1.52,3.07-3.84,4.69-6.44,6.52-1.7,1.19-4.31,2.76-7.83,3.97Z"/>
        <path class="cls-8" d="m29.63,78.62c.26-1.72.52-3.45.77-5.17-1.61-1.77-4.08-4.1-7.54-6.16-3.22-1.91-6.22-2.95-8.44-3.54.27,1.64.99,4.55,3.13,7.48,2.22,3.04,4.82,4.52,6.06,5.21,2.36,1.31,4.54,1.89,6.03,2.18Z"/>
        <path class="cls-5" d="m72.53,114.56c-12.03,0-30.97-2.1-39.37-16.58-4.91-8.46-4.37-17.96-3.03-24.48-4.32-7.05-10.91-21.13-7.05-36.79,3.56-14.44,14.18-23.13,22.46-27.87C55.81,2.96,68.42-.26,80.13.02c20.29.48,45.28,11.17,52.2,33.52,5.27,17-2.09,32.64-5.56,38.67,1.43,8.07.51,15.63-2.65,21.86-9.33,18.37-34.37,19.74-43.79,20.25-1.89.1-4.6.25-7.79.25ZM78.72.53c-11.21,0-23.13,3.17-32.92,8.77-8.19,4.69-18.69,13.28-22.21,27.53-3.83,15.54,2.77,29.52,7.04,36.48l.06.09-.02.1c-1.33,6.43-1.9,15.84,2.95,24.2,10.47,18.04,37.72,16.55,46.67,16.07,9.34-.51,34.16-1.86,43.35-19.96,3.12-6.15,4.02-13.63,2.58-21.62l-.02-.1.05-.08c3.41-5.9,10.79-21.45,5.56-38.33C124.97,11.6,100.22,1.02,80.11.55c-.46-.01-.93-.02-1.39-.02Z"/>
        <path class="cls-5" d="m27.27,89.57c-1.59,0-3.18-.14-4.75-.42-1.6-.28-3.2-.71-4.73-1.28-4.06-1.5-7.74-3.97-10.66-7.16C.16,73.09-1.91,61.95,1.86,52.32l.08-.19.21.03c4.96.66,9.75,2.11,14.23,4.31.21.1.41.2.62.31,1.61.83,3.17,1.74,4.62,2.71,1.26.84,2.49,1.76,3.65,2.72l-.34.41c-1.15-.95-2.37-1.85-3.61-2.68-1.44-.96-2.97-1.87-4.57-2.68-.2-.11-.4-.21-.61-.31-4.37-2.15-9.03-3.57-13.86-4.23-3.59,9.4-1.55,20.23,5.24,27.65,2.86,3.13,6.48,5.56,10.46,7.02,1.51.56,3.07.98,4.64,1.26,2.48.44,5,.52,7.49.26l.06.53c-.96.1-1.92.15-2.88.15Z"/>
        <path class="cls-5" d="m126.93,89.57c-.4,0-.8,0-1.19-.03l.02-.53c2.66.12,5.33-.17,7.94-.85l.19-.06c2.93-.78,5.69-2.05,8.2-3.77,1.66-1.14,3.21-2.48,4.59-3.99,6.79-7.42,8.83-18.25,5.24-27.65-3.93.54-7.78,1.59-11.43,3.13-.76.31-1.58.68-2.43,1.1-1.2.59-2.41,1.26-3.58,1.97-.91.56-1.81,1.15-2.75,1.82l-.31-.43c.95-.67,1.86-1.28,2.78-1.84,1.19-.72,2.41-1.39,3.63-1.99.86-.42,1.69-.8,2.46-1.12,3.76-1.59,7.72-2.66,11.78-3.2l.21-.03.08.19c3.77,9.63,1.71,20.78-5.27,28.4-1.41,1.54-2.99,2.91-4.68,4.07-2.5,1.72-5.25,3-8.17,3.8h0s-.2.06-.2.06c-2.33.63-4.71.94-7.09.94Z"/>
        <path class="cls-5" d="m29.78,72.91c-1.92-1.9-4.07-3.58-6.4-5.01-.23-.14-.44-.27-.65-.38-.65-.38-1.27-.71-1.9-1.02-1.43-.72-2.91-1.34-4.41-1.85-1.4-.48-2.81-.87-4.32-1.18l.11-.52c1.53.32,2.96.71,4.38,1.2,1.52.52,3.02,1.15,4.47,1.88.63.31,1.27.65,1.93,1.04.21.12.43.25.64.38,2.38,1.45,4.56,3.16,6.51,5.09l-.37.38Z"/>
        <path class="cls-5" d="m24.21,76.88c-1.42-.28-2.66-1.06-3.5-2.19-.81-1.08-1.17-2.43-1-3.69.11-.81.43-1.59.93-2.26.54-.72,1.26-1.3,2.1-1.69l.22.48c-.75.35-1.41.88-1.9,1.53-.45.6-.74,1.3-.83,2.01-.16,1.13.17,2.33.9,3.3.76,1.03,1.88,1.73,3.17,1.99l-.1.52Z"/>
        <path class="cls-5" d="m126.71,72.51l-.39-.36c1.71-1.86,3.62-3.55,5.66-5.01.73-.52,1.47-1.02,2.2-1.46.13-.08.27-.17.41-.25l.16-.1c2.1-1.24,4.31-2.26,6.6-3.05h0s.18-.07.18-.07c.66-.22,1.35-.44,2.17-.66l.14.51c-.74.21-1.37.4-1.97.6l-.17.06c-2.31.78-4.56,1.81-6.68,3.06l-.16.1c-.13.08-.27.16-.4.24-.72.44-1.45.93-2.17,1.44-2.01,1.44-3.89,3.1-5.58,4.94Z"/>
        <path class="cls-5" d="m132.72,76.01l-.2-.49c.96-.4,1.73-1.08,2.25-1.96l.03-.06c.68-1.19.77-2.56.26-3.68-.06-.14-.15-.29-.27-.48-.59-.88-1.58-1.5-2.71-1.72l.1-.52c1.27.24,2.38.95,3.05,1.95.14.21.23.38.31.55.58,1.25.49,2.78-.24,4.1h0s-.03.07-.03.07c-.58,1.02-1.46,1.79-2.54,2.24Z"/>
        <path class="cls-5" d="m53.27,37.24l-.21-.49c7.75-3.35,15.93-5.24,24.32-5.63,9.82-.45,19.86,1.26,29.05,4.95l-.2.49c-9.11-3.66-19.08-5.36-28.82-4.92-8.32.38-16.44,2.26-24.13,5.59Z"/>
        <path class="cls-5" d="m59.21,26.97l-.26-.47c6.04-3.36,12.41-5.26,18.95-5.64,7.65-.45,15.48,1.27,22.63,4.96l-.24.47c-7.07-3.65-14.81-5.35-22.36-4.91-6.46.38-12.75,2.26-18.72,5.57Z"/>
        <path class="cls-5" d="m33.61,53.07l-.45-.28c1.68-2.7,5.52-7.58,12.48-9.98,7.63-2.64,14.28-.56,16.79.45l-.2.49c-2.45-.99-8.95-3.02-16.41-.44-6.8,2.35-10.56,7.12-12.2,9.76Z"/>
        <path class="cls-5" d="m123,53.79c-1.64-2.64-5.4-7.41-12.2-9.76-7.46-2.58-13.96-.55-16.41.44l-.2-.49c2.51-1.02,9.16-3.09,16.79-.45,6.95,2.4,10.8,7.29,12.48,9.98l-.45.28Z"/>
        <path class="cls-5" d="m74.14,74.86l-.35-.41c.63-.54,1.98-1.45,3.88-1.48,1.5-.03,2.62.49,3.33.92l-.28.45c-.64-.4-1.67-.87-3.04-.84-1.73.03-2.97.86-3.54,1.35Z"/>
        <path class="cls-5" d="m78.51,86.88c-2.22,0-5.08-1.06-5.31-3.07-.16-1.33.91-2.48,1.55-3.04l.35.4c-.46.4-1.51,1.45-1.38,2.58.2,1.69,3.01,2.77,5.28,2.58,1.53-.13,4.01-.94,4.15-2.57.12-1.36-1.46-2.5-1.64-2.63l.3-.44c.34.23,2.02,1.49,1.87,3.11-.18,1.97-2.87,2.9-4.64,3.05-.17.01-.36.02-.54.02Z"/>
        <path class="cls-5" d="m72.18,84.55c-.82,0-1.61-.25-2.28-.72-1.47-1.07-1.78-2.91-1.45-4.26.37-1.49,1.55-2.67,3.07-3.06l.13.52c-1.33.35-2.36,1.37-2.68,2.68-.29,1.18-.02,2.78,1.25,3.7.91.65,2.11.8,3.21.4l.18.5c-.47.17-.95.25-1.43.25Z"/>
        <path class="cls-5" d="m84.21,84.55c-.31,0-.62-.04-.93-.11l.12-.52c.99.23,2,.03,2.78-.53,1.26-.92,1.54-2.52,1.25-3.7-.32-1.3-1.35-2.33-2.68-2.68l.13-.52c1.52.4,2.7,1.57,3.07,3.06.33,1.35.02,3.2-1.45,4.26-.66.48-1.46.73-2.28.73Z"/>
        <path class="cls-5" d="m49.33,48.01l-.53-.02c.08-2.06.27-4.01.58-5.95.55-3.52,1.49-6.99,2.78-10.3,3.98-10.21,10.5-16.48,14.82-20.63,4.17-4.01,8.83-7.54,13.85-10.51.18-.11.36-.22.55-.32l.26-.15.27.46-.26.15c-.18.11-.36.21-.55.32-4.98,2.95-9.61,6.46-13.75,10.44-4.54,4.36-10.75,10.34-14.69,20.44-1.28,3.28-2.2,6.71-2.75,10.19-.31,1.93-.49,3.86-.57,5.9Z"/>
        <path class="cls-5" d="m104.57,47.95l-.53-.03c.11-1.78.12-3.59.04-5.37-.11-2.43-.41-4.87-.88-7.26v-.06c-.25-1.19-.55-2.43-.88-3.65-2.94-10.43-8.54-16.99-12.63-21.78-2.69-3.15-5.68-6.1-8.89-8.78l-.17-.14c-.11-.09-.21-.18-.32-.26-.07-.06-.11-.09-.16-.13l.35-.4s.07.06.11.09c.14.11.24.2.35.29l.17.14c3.24,2.7,6.25,5.68,8.96,8.84,3.89,4.55,9.77,11.44,12.73,21.98.34,1.23.64,2.48.89,3.74v.06c.48,2.36.78,4.83.89,7.28.08,1.8.07,3.63-.04,5.43Z"/>
        <path class="cls-5" d="m32.26,62.5h-.53c.07-8.67,1.96-25.44,13.79-40.46,8.65-10.99,18.84-16.28,22.81-18.05,3.86-1.71,7.92-3,12.08-3.84.16-.03.32-.06.47-.09h.06s.12-.04.12-.04l.1.11-.18.17v.06-.05l.14.22h-.11s.01.04.01.04c-.17.04-.35.07-.52.1-4.12.83-8.14,2.11-11.97,3.81-3.94,1.75-14.03,6.99-22.61,17.89-11.74,14.9-13.61,31.54-13.68,40.14ZM80.99.52v.06-.06Z"/>
        <path class="cls-5" d="m32.26,62.5h-.53c.07-8.67,1.96-25.44,13.79-40.46,8.65-10.99,18.84-16.28,22.81-18.05,3.86-1.71,7.92-3,12.08-3.84.16-.03.32-.06.47-.09h.06s.12-.04.12-.04l.1.11-.18.17v.06-.05l.14.22h-.11s.01.04.01.04c-.17.04-.35.07-.52.1-4.12.83-8.14,2.11-11.97,3.81-3.94,1.75-14.03,6.99-22.61,17.89-11.74,14.9-13.61,31.54-13.68,40.14ZM80.99.52v.06-.06Z"/>
        <path class="cls-5" d="m121.69,63.1l-.53-.03c.25-4.08.14-8.21-.33-12.28-1.23-10.61-4.76-20.27-10.51-28.71-7.82-11.5-17.51-17.41-21.31-19.42-1.23-.65-2.46-1.24-3.64-1.76l-.09-.06.2-.19.1-.23c1.19.52,2.43,1.12,3.67,1.78,3.84,2.03,13.61,8,21.5,19.59,5.8,8.51,9.36,18.25,10.6,28.94.48,4.1.59,8.27.34,12.38Z"/>
        <path class="cls-5" d="m21.32,107.48c-1.66-6.54-2.9-13.21-3.71-19.82-.45-3.65-.76-7.31-.94-10.86-.23-4.36-.44-8.49-.43-12.4.01-2.71.13-5.14.36-7.42.44-4.28,1.31-8.34,2.68-12.39,1.14-3.39,2.61-6.72,4.35-9.89l.47.26c-1.73,3.14-3.18,6.44-4.32,9.8-1.35,4.02-2.22,8.03-2.66,12.28-.23,2.26-.34,4.67-.36,7.37-.01,3.9.2,8.01.43,12.37.18,3.54.5,7.18.94,10.82.8,6.59,2.05,13.23,3.7,19.76l-.52.13Z"/>
        <path class="cls-5" d="m32.3,117.2c-4.77-8.89-8.13-18.4-9.99-28.25-.3-1.57-.57-3.21-.8-4.88-.43-3.15-.72-6.36-.84-9.52-.08-1.84-.1-3.74-.06-5.65.02-.95.04-1.81.09-2.64.09-2.13.27-4.34.51-6.57.28-2.5.66-5.01,1.13-7.47l.52.1c-.46,2.44-.84,4.94-1.12,7.43-.24,2.22-.42,4.42-.51,6.54-.04.83-.07,1.69-.09,2.63-.03,1.9-.01,3.79.06,5.62.12,3.14.4,6.33.83,9.46.23,1.66.5,3.29.8,4.85,1.85,9.8,5.19,19.26,9.94,28.1l-.47.25Z"/>
        <path class="cls-5" d="m127.63,115.12l-.5-.18c3.15-8.6,5.36-17.55,6.56-26.59.27-2.02.49-4.11.66-6.19.23-2.86.37-5.73.41-8.52.02-1.54,0-3.04-.02-4.43-.03-1.28-.07-2.5-.13-3.62-.11-2.27-.29-4.58-.54-6.86-.22-2.15-.52-4.37-.87-6.58l.53-.08c.36,2.23.65,4.45.87,6.61.25,2.29.43,4.61.54,6.89.06,1.13.11,2.35.13,3.64.03,1.4.04,2.9.02,4.45-.04,2.81-.18,5.69-.41,8.56-.17,2.09-.4,4.19-.67,6.22-1.21,9.08-3.43,18.07-6.59,26.7Z"/>
        <path class="cls-5" d="m138.41,109.9l-.51-.14c2.25-8.25,3.62-16.73,4.08-25.21.11-2.04.16-3.97.18-5.9.02-4.11.06-9.74-.81-16.14-.32-2.35-.71-4.6-1.22-6.85-.32-1.42-.69-2.9-1.12-4.41-1.68-5.93-4.07-11.73-7.09-17.24l.47-.26c3.04,5.54,5.45,11.38,7.14,17.35.43,1.52.8,3.01,1.12,4.43.51,2.27.91,4.53,1.23,6.9.87,6.44.84,12.09.81,16.22-.01,1.94-.07,3.88-.18,5.92-.46,8.52-1.84,17.04-4.1,25.32Z"/>
        <path class="cls-5" d="m52.48,102.24c-.13-.99-.58-2.92-2.14-4.64-1.6-1.77-3.52-2.4-4.52-2.62l.11-.52c1.06.23,3.1.9,4.8,2.78,1.66,1.83,2.14,3.88,2.28,4.93l-.53.07Z"/>
        <path class="cls-5" d="m101.92,102.48l-.53-.07c.14-1.05.62-3.1,2.28-4.93,1.7-1.88,3.74-2.55,4.8-2.78l.11.52c-1,.22-2.92.85-4.52,2.62-1.56,1.73-2.01,3.65-2.14,4.64Z"/>
        <path class="cls-5" d="m50.12,85.65c-8.89,0-16.13-7.24-16.13-16.13s7.24-16.13,16.13-16.13,16.13,7.24,16.13,16.13-7.24,16.13-16.13,16.13Zm0-31.73c-8.6,0-15.6,7-15.6,15.6s7,15.6,15.6,15.6,15.6-7,15.6-15.6-7-15.6-15.6-15.6Z"/>
        <path class="cls-5" d="m51.53,76.89c-3.13,0-5.68-2.55-5.68-5.68s2.55-5.68,5.68-5.68,5.68,2.55,5.68,5.68-2.55,5.68-5.68,5.68Zm0-10.83c-2.84,0-5.15,2.31-5.15,5.15s2.31,5.15,5.15,5.15,5.15-2.31,5.15-5.15-2.31-5.15-5.15-5.15Z"/>
        <path class="cls-5" d="m41.64,71.76c-3.57,0-6.48-2.91-6.48-6.48s2.91-6.48,6.48-6.48,6.48,2.91,6.48,6.48-2.91,6.48-6.48,6.48Zm0-12.43c-3.28,0-5.95,2.67-5.95,5.95s2.67,5.95,5.95,5.95,5.95-2.67,5.95-5.95-2.67-5.95-5.95-5.95Z"/>
        <path class="cls-5" d="m105.1,86.05c-8.89,0-16.13-7.24-16.13-16.13s7.24-16.13,16.13-16.13,16.13,7.24,16.13,16.13-7.24,16.13-16.13,16.13Zm0-31.73c-8.6,0-15.6,7-15.6,15.6s7,15.6,15.6,15.6,15.6-7,15.6-15.6-7-15.6-15.6-15.6Z"/>
        <path class="cls-5" d="m106.51,77.29c-3.13,0-5.68-2.55-5.68-5.68s2.55-5.68,5.68-5.68,5.68,2.55,5.68,5.68-2.55,5.68-5.68,5.68Zm0-10.83c-2.84,0-5.15,2.31-5.15,5.15s2.31,5.15,5.15,5.15,5.15-2.31,5.15-5.15-2.31-5.15-5.15-5.15Z"/>
        <path class="cls-5" d="m96.62,72.16c-3.57,0-6.48-2.91-6.48-6.48s2.91-6.48,6.48-6.48,6.48,2.91,6.48,6.48-2.91,6.48-6.48,6.48Zm0-12.43c-3.28,0-5.95,2.67-5.95,5.95s2.67,5.95,5.95,5.95,5.95-2.67,5.95-5.95-2.67-5.95-5.95-5.95Z"/>
        <path class="cls-5" d="m56.02,92.21c6.94-4.69,10.87-13.36,9.73-21.69,0,0,.19-.02.19-.02,1.27,8.43-2.61,17.28-9.61,22.15,0,0-.3-.44-.3-.44h0Z"/>
        <path class="cls-5" d="m98.7,90.52c-6.53-4.57-10.41-12.62-9.76-20.57,0,0,.17.01.17.01-.52,7.86,3.39,15.72,9.88,20.12,0,0-.3.44-.3.44h0Z"/>
        <path class="cls-5" d="m90.9,67.49l-.5-.17.06-.18c.03-.08.05-.16.08-.23l.5.18c-.02.07-.05.14-.07.22l-.06.19Z"/>
        <path class="cls-5" d="m77.64,96.58h-.11c-1.38,0-3-.02-4.87-.26-.9-.12-1.73-.27-2.54-.46-1.68-.39-3.31-.96-4.83-1.69-.44-.21-.81-.39-1.14-.58-1.59-.86-3.09-1.91-4.46-3.12-.22-.19-.42-.37-.61-.56l.37-.38c.19.18.38.36.59.54,1.34,1.18,2.81,2.21,4.36,3.05.33.18.68.36,1.12.56,1.49.71,3.08,1.27,4.72,1.65.8.18,1.61.33,2.49.45,1.83.23,3.44.25,4.8.25h.11c.1,0,.2,0,.3,0,1.63,0,3.28-.15,4.91-.41,1.38-.22,2.73-.53,4.02-.92.69-.21,1.19-.38,1.49-.48.98-.35,1.97-.77,2.93-1.23,1.59-.76,3.1-1.66,4.51-2.66.44-.31.89-.65,1.38-1.03l.33.42c-.5.39-.96.73-1.4,1.05-1.43,1.02-2.97,1.93-4.59,2.71-.97.47-1.97.89-2.98,1.25-.3.11-.81.29-1.52.49-1.31.39-2.69.71-4.09.93-1.66.27-3.33.41-4.98.42-.1,0-.2,0-.32,0Z"/>
        <path class="cls-5" d="m76.85,104.64c-.98,0-2.16-.05-3.43-.24-1.73-.25-3.35-.71-4.84-1.36-2.01-.89-3.77-2.14-5.23-3.72-2.13-2.29-3.57-5.24-4.18-8.53-.07-.36-.12-.7-.16-1.03l.53-.07c.04.32.09.66.16,1,.6,3.23,1.96,6.01,4.05,8.26,1.41,1.53,3.12,2.74,5.06,3.6,1.44.63,3.02,1.07,4.7,1.32,2.41.36,4.49.22,5.49.16h.09c.92-.07,2.64-.18,4.75-.75,1.59-.43,3.09-1.04,4.45-1.8,1.7-.95,3.22-2.17,4.52-3.62,1.68-1.88,2.95-4.08,3.77-6.54.2-.59.37-1.22.52-1.87l.52.12c-.15.66-.33,1.31-.53,1.92-.84,2.53-2.14,4.79-3.88,6.72-1.34,1.49-2.91,2.74-4.66,3.72-1.4.79-2.93,1.41-4.57,1.85-2.16.58-3.98.71-4.85.76h-.09c-.49.04-1.25.09-2.17.09Z"/>
        <polygon class="cls-5" points="73.21 104.23 71.55 99.95 68.88 102.97 68.48 102.62 71.74 98.94 73.7 104.04 73.21 104.23"/>
        <polygon class="cls-5" points="73.21 104.23 71.55 99.95 68.88 102.97 68.48 102.62 71.74 98.94 73.7 104.04 73.21 104.23"/>
        <polygon class="cls-5" points="84.14 103.63 83.64 103.44 85.66 98.2 88.6 101.53 88.2 101.88 85.84 99.21 84.14 103.63"/>
        <polygon class="cls-5" points="89.96 98.45 86.76 95.15 87.14 94.78 89.73 97.45 91.15 93.15 91.66 93.32 89.96 98.45"/>
        <polygon class="cls-5" points="66.31 99.21 65.14 94 65.66 93.88 66.64 98.24 70.01 95.4 70.35 95.81 66.31 99.21"/>
        <path class="cls-5" d="m75.05,99.59c-.06,0-.13,0-.19-.01-1.03-.13-2.23-1.47-2.43-3.49l.53-.05c.18,1.73,1.16,2.91,1.97,3.01.78.1,2-.76,2.62-2.32v-.02c.06-.15.11-.31.16-.47l.51.15c-.04.15-.09.3-.14.45l-.02.06c-.7,1.79-2.02,2.69-3,2.69Z"/>
        <path class="cls-5" d="m80.54,99.54c-.99,0-2.32-.94-2.98-2.65l-.02-.05c-.06-.14-.11-.3-.15-.46l.52-.13c.04.15.09.3.15.44l.02.06c.61,1.52,1.82,2.36,2.59,2.26.85-.1,1.84-1.38,1.98-3.13l.53.04c-.16,2.1-1.37,3.48-2.44,3.61-.06,0-.12.01-.18.01Z"/>
      </g>
      <path class="cls-5" d="m78.61,109.33h-.05c-1.42,0-2.81-.26-4.14-.75l.19-.5c1.27.47,2.6.71,3.96.72,1.28,0,2.52-.2,3.72-.6l.17.5c-1.24.42-2.53.63-3.84.63Z"/>
    </g>
    <path class="cls-5" d="m45.44,208.28c-.25,0-.49-.03-.72-.1-.31-.09-1.07-.39-1.5-1.15-.09-.16-.37-.66-.19-2.08.07-.51.18-1.37.57-2.3.22-.54.5-1.03.85-1.5.51-.68,1.03-1.11,1.58-1.56.68-.56,1.4-1.04,2.19-1.46l.25.47c-.76.4-1.45.86-2.1,1.4-.55.45-1.02.84-1.5,1.47-.33.43-.58.88-.79,1.38-.36.87-.47,1.69-.53,2.17-.07.57-.11,1.33.12,1.75.35.61,1,.85,1.19.9.72.21,1.6,0,2.4-.62l.32.42c-.7.53-1.45.81-2.16.81Z"/>
    <path class="cls-5" d="m42.94,203.12c-.79,0-1.47-.25-1.91-.72-.14-.15-.25-.3-.33-.46-.27-.51-.3-1.05-.31-1.28-.05-1.23.61-2.13,1.01-2.67.54-.74,1.07-1.16,2.44-2.16.85-.62,1.8-1.3,2.84-2.04-1.41-5.09-2.45-10.31-3.09-15.52-.3-2.4-.79-7.46-.69-14.39.07-4.99.44-10.08,1.1-15.12.14-1.08.28-2.16.43-3.26.82-5.95,1.98-12.99,5.43-21.38,1.61-3.92,3.56-7.75,5.78-11.38l.3-.48.45.28-.3.48c-2.21,3.6-4.14,7.4-5.74,11.3-3.43,8.33-4.58,15.33-5.4,21.25-.15,1.09-.29,2.17-.43,3.25-.65,5.02-1.02,10.08-1.09,15.06-.1,6.9.39,11.93.69,14.31.65,5.25,1.7,10.5,3.12,15.62l.05.18-.15.11c-1.1.77-2.1,1.49-2.98,2.14-1.35.99-1.83,1.36-2.33,2.05-.38.52-.95,1.29-.91,2.32.01.21.03.66.25,1.08.06.12.14.24.25.35.48.51,1.39.68,2.37.45l.12.52c-.34.08-.66.12-.97.12Z"/>
    <path class="cls-5" d="m48.54,208.42c-.25,0-.53-.04-.79-.21-.28-.18-.47-.48-.57-.88-.2-.75-.03-1.78.1-2.61.1-.65.32-1.59.76-2.53.4-.82.93-1.55,1.57-2.2l.38.38c-.6.6-1.1,1.29-1.47,2.04-.42.89-.62,1.77-.71,2.35-.13.81-.28,1.78-.11,2.43.07.28.18.46.34.57.27.18.64.12.87.09.6-.08.99-.47,1.37-.85.25-.26.8-.81,1.09-1.72.15-.44.15-.71.16-1.03,0-.34.02-.72.18-1.34.14-.55.36-1.08.63-1.57.52-.92,1.27-1.68,2.21-2.29l.2-.13.15.19c.56.71,1.24,1.26,2.01,1.62.14.07,1.38.64,2.94.47.69-.07.86-.23.93-.29.43-.41.33-1.22.27-1.7-.05-.42-.17-.83-.36-1.23-.52-1.09-1.61-2.1-3.15-2.93-1.48-.8-3.13-1.24-4.9-1.3h-.22s-.03-.23-.03-.23c-.94-6.56-1.34-13.28-1.18-19.96,0-.06,0-.13,0-.2l.53.05c0,.05,0,.11,0,.16-.15,6.59.23,13.2,1.15,19.66,1.77.09,3.42.55,4.91,1.35,1.64.88,2.81,1.98,3.38,3.17.21.44.34.91.4,1.39.07.55.19,1.56-.43,2.16-.18.16-.47.35-1.23.43-1.71.19-3.07-.45-3.22-.52-.78-.36-1.47-.9-2.05-1.58-.78.53-1.39,1.19-1.83,1.96-.25.45-.44.94-.58,1.45-.15.56-.16.9-.16,1.22,0,.35-.02.67-.19,1.19-.34,1.02-.94,1.64-1.2,1.9-.42.42-.91.92-1.7,1.03-.11.02-.27.04-.44.04Z"/>
    <path class="cls-5" d="m32.56,192c-2.01-5.2-3.9-10.5-5.62-15.77-4.98-15.18-5.12-24.62-4.36-29.87.34-2.36,1.05-5.26,3.46-6.8,1.89-1.2,4.02-1.04,5.74-.9,3.94.31,6.72,2.03,8.57,3.17,1.62,1,3.14,2.18,4.53,3.52l-.37.38c-1.36-1.31-2.85-2.47-4.44-3.45-1.8-1.11-4.52-2.79-8.33-3.09-1.64-.13-3.67-.29-5.41.82-2.23,1.42-2.89,4.18-3.22,6.43-.75,5.19-.61,14.54,4.34,29.63,1.72,5.26,3.61,10.56,5.61,15.75l-.5.19Z"/>
    <polygon class="cls-5" points="25.33 195.58 25.33 195.58 25.33 195.04 25.33 195.58"/>
    <path class="cls-5" d="m25.78,195.29l-.32-.43c1.52-1.14,3.99-2.63,7.07-3.22.06-.01.14-.03.22-.04.02,0,.09-.02.15-.02.99-.18,2.05-.24,3.11-.19,2.29.11,4.52.75,6.63,1.9l-.25.47c-2.03-1.11-4.19-1.72-6.4-1.83-1.02-.05-2.04.01-3.04.19l-.12.02c-.06,0-.13.02-.19.03-2.99.57-5.38,2.02-6.86,3.13Z"/>
    <path class="cls-5" d="m26.75,202.11c-1.02,0-1.67-.4-2.05-.77-.07-.05-.44-.45-.68-1.01-.2-.47-.25-.98-.14-1.48.05-.23.22-.82.78-1.3.73-.63,1.61-.62,1.95-.58l-.06.53c-.27-.03-.97-.04-1.55.45-.43.37-.57.83-.61,1.01-.09.39-.05.78.11,1.16.21.51.54.82.54.82.52.5,1.24.7,2.09.61.65-.08,1.23-.38,1.73-.9l.38.37c-.59.61-1.27.97-2.04,1.06-.16.02-.32.03-.47.03Z"/>
    <path class="cls-5" d="m32.49,202.41c-.81,0-1.72-.16-2.59-.65-.39-.23-.72-.47-1-.72-.75-.66-1.08-1.33-.99-1.98.1-.69.66-1.13.93-1.34.91-.72,1.96-.7,2.48-.69.94.02,1.88.33,2.71.88l-.3.44c-.74-.5-1.58-.77-2.42-.79-.48-.01-1.38-.03-2.13.57-.23.18-.66.52-.73,1-.08.57.4,1.13.82,1.5.26.23.56.44.9.65,1.56.89,3.28.58,4.18.32h.07s6.53-.06,6.53-.06v.53s-6.49.05-6.49.05c-.48.14-1.17.28-1.95.28Z"/>
    <path class="cls-5" d="m42.82,164.15c-1.27,0-2.52-.21-3.71-.62-2.38-.82-3.98-2.24-4.9-3.29l.4-.35c.88,1,2.41,2.36,4.67,3.14,1.23.42,2.53.62,3.86.58l.02.53c-.11,0-.23,0-.34,0Z"/>
    <path class="cls-5" d="m130.32,202.13c-.14,0-.3,0-.46-.03-.42-.05-.8-.18-1.14-.36h0l-.06-.03c-.31-.18-.6-.4-.86-.68-.09-.09-.17-.18-.23-.26l.38-.38.04.04c.06.08.13.16.2.23.21.22.43.4.68.55h.03l.07.06c.29.16.61.26.95.31,1.08.12,1.73-.26,2.09-.6.01-.01.53-.5.67-1.23.05-.26.05-.51,0-.75-.1-.4-.31-.75-.61-1.01-.58-.5-1.28-.48-1.56-.45l-.06-.53c.34-.04,1.23-.05,1.96.58.39.33.66.78.78,1.3.07.32.07.64,0,.98-.18.92-.83,1.52-.84,1.52-.38.36-1.03.76-2.04.76Z"/>
    <path class="cls-5" d="m115.29,164.17c-1.2,0-2.19-.18-2.84-.34l.13-.52c1.19.3,3.59.66,6.28-.26,2.28-.78,3.8-2.14,4.67-3.14l.4.35c-.92,1.05-2.51,2.47-4.9,3.29-1.35.46-2.63.62-3.74.62Z"/>
    <path class="cls-5" d="m122.3,192.16l-.49-.21c.03-.08.06-.15.09-.23l.05-.13c1.97-5.1,3.83-10.32,5.52-15.5.64-1.96,2.6-7.91,3.77-14.73v-.07c.12-.6.21-1.21.3-1.82l.06-.49c.66-4.74.73-8.95.21-12.52-.33-2.25-.99-5.01-3.22-6.43-1.74-1.11-3.78-.95-5.41-.82-3.81.3-6.53,1.98-8.33,3.09-1.82,1.13-3.52,2.49-5.03,4.03l-.19-.18h-.27s0-.11,0-.11l.08-.08c1.54-1.57,3.26-2.95,5.12-4.11,1.84-1.14,4.62-2.86,8.57-3.17,1.72-.13,3.85-.3,5.74.9,2.41,1.54,3.12,4.44,3.46,6.8.53,3.62.46,7.88-.21,12.66l-.06.49c-.09.62-.19,1.23-.3,1.84,0,0,0,.06-.02.09-1.17,6.84-3.13,12.82-3.78,14.78-1.7,5.19-3.56,10.42-5.53,15.53l-.05.12c-.03.08-.06.17-.1.25Z"/>
    <path class="cls-5" d="m132.92,196.39s-.06-.05-.09-.07c-.81-.67-2.12-1.62-3.88-2.43l-.04-.02c-2.09-.96-4.29-1.47-6.53-1.54-.11,0-.22,0-.32,0-1.92-.02-3.81.29-5.61.92l-.18-.5c1.85-.65,3.8-.98,5.79-.95.1,0,.22,0,.33,0,2.3.07,4.56.6,6.71,1.58h.05l.05.05c1.79.83,3.13,1.81,3.94,2.48.05.03.1.07.14.12l-.38.38Z"/>
    <path class="cls-5" d="m135.23,200.78c-.72,0-1.58-.2-2.54-.7l.24-.47c1.98,1.02,3.54.69,4.06-.17.31-.5.19-1.24-.04-1.71-.45-.89-1.45-1.15-2.05-1.31-1.01-.26-1.91-.1-2.49.09l-.16-.51c.65-.2,1.65-.38,2.78-.09.64.17,1.84.47,2.39,1.58.31.62.44,1.55.02,2.23-.38.61-1.15,1.06-2.22,1.06Z"/>
    <path class="cls-5" d="m124.56,202.33c-1.03,0-1.88-.18-1.94-.19-.35-.08-.39-.07-.68-.05-.55.05-1.84.17-6.96-.01-5.69-.21-6.09-.49-6.48-1.34-.36-.78-.37-1.22.32-4.11.12-.54.16-.74.49-2.72l.1-.57c.04-.26.09-.56.14-.88l.13-.8.53.09-.13.8c-.05.32-.1.62-.14.88l-.1.58c-.33,1.99-.36,2.2-.49,2.76-.68,2.86-.64,3.16-.36,3.76.25.53.38.83,6.02,1.03,5.08.18,6.35.07,6.89.01.34-.03.43-.04.84.06.02,0,2.66.55,4.18-.31l.05-.03c.31-.2.6-.41.85-.63.42-.38.9-.94.83-1.5-.06-.46-.46-.78-.72-.99-.76-.6-1.66-.59-2.14-.57-1.07.02-1.9.44-2.42.79l-.3-.44c.58-.39,1.51-.86,2.7-.88.51-.01,1.58-.03,2.48.69.32.25.84.67.92,1.35.08.63-.26,1.29-1,1.96-.27.24-.58.48-.93.69l-.05.03c-.78.44-1.77.56-2.63.56Z"/>
    <path class="cls-5" d="m99.38,205.87l.23-2.57c.07-.72.14-1.88.12-3.29-.03-2-.08-3.3-.63-4.85-.29-.81-1.07-2.97-2.32-3.1-.37-.04-.7.11-1.2.34-.4.18-1.04.55-1.96,1.62-.73.85-1.34,1.79-1.81,2.81l-.72,1.53.21-1.67c.06-.46.07-.93.03-1.39-.05-.53-.18-1.92-1.19-3.04-.34-.38-.76-.84-1.23-.8-.32.03-.57.27-1.06.77-.57.59-.88,1.11-.88,1.12-.28.47-.56.92-.85,1.38-.42.67-.86,1.36-1.24,2.06-.72,1.31-1.6,2.62-2.61,3.88l-.9,1.12.44-1.37c.43-1.34.56-2.71.4-4.07-.07-.55-.26-1.66-.86-2.94-.46-1-1.04-2.24-2.4-3.11-.47-.3-1.33-.86-2.34-.72-.77.11-1.31.55-1.73.98-2.67,2.67-4.11,5.83-4.13,5.86-1.1,2.45-1.97,5.02-2.6,7.64l-.3,1.25-.22-1.27c-.49-2.84-1.06-5.79-1.68-8.76,0-.04-.82-3.8-3.11-6.81-.23-.3-.59-.71-1.05-.74-.45-.02-.9.35-1.38.74-.37.31-.59.56-.82.82l-.05.06c-.51.58-.64.72-.79.86-.17.18-.37.38-1.34,1.48-.36.4-.83.95-1.39,1.59l-.25.29-.19-.33c-.29-.52-.83-1.23-1.76-1.67-.42-.2-.87-.33-1.36-.38l-.21-.02-.03-.21c-.75-5.65-1.1-11.38-1.05-17.04,0-.06,0-.13,0-.2.03-3.27.21-6.64.52-9.97.23-2.42.54-4.83.9-7.15l.53.08c-.36,2.31-.67,4.71-.9,7.12-.31,3.32-.49,6.67-.52,9.95,0,.07,0,.13,0,.18-.05,5.56.29,11.2,1.01,16.76.47.07.92.2,1.33.4.88.42,1.44,1.04,1.8,1.57.46-.53.85-.98,1.15-1.32.98-1.11,1.17-1.31,1.36-1.5.14-.15.27-.28.77-.84l.05-.06c.24-.27.48-.54.86-.85.56-.46,1.12-.92,1.78-.88.67.04,1.15.56,1.44.95,2.37,3.11,3.17,6.87,3.21,7.03.53,2.55,1.03,5.09,1.47,7.55.6-2.24,1.38-4.43,2.32-6.53.06-.13,1.5-3.27,4.24-6.02.29-.29.98-.98,2.03-1.13,1.2-.17,2.18.46,2.7.8,1.48.95,2.12,2.33,2.59,3.34.63,1.35.84,2.52.91,3.1.12,1.01.09,2.03-.1,3.03.67-.91,1.26-1.84,1.77-2.78.39-.72.83-1.42,1.25-2.09.28-.45.57-.9.84-1.36.02-.05.38-.62.97-1.23.5-.51.87-.88,1.4-.93.73-.06,1.27.53,1.67.97,1.14,1.25,1.29,2.84,1.33,3.36,0,.1.02.2.02.3.39-.67.84-1.3,1.34-1.88.99-1.15,1.7-1.56,2.15-1.76.54-.24.96-.43,1.47-.38,1.58.17,2.41,2.47,2.77,3.45.58,1.63.63,2.97.67,5.02,0,.54,0,1.04-.01,1.49.69-1.66,1.62-3.21,2.77-4.61,1.11-1.36,2.42-2.56,3.88-3.57.86-.71,1.84-1.33,2.89-1.85.13-.07.26-.13.41-.2.73-.33,1.48-.61,2.22-.82.75-7.14.88-14.35.4-21.42-.1-1.5-.25-3.14-.44-4.86-.25-2.26-.57-4.64-.98-7.06-.46-2.8-1.02-5.65-1.67-8.48-.12-.53-.24-1.05-.37-1.55v-.04c-1.31-5.33-2.72-9.48-4.5-14.74l-.06-.18c-.29-.86-.48-1.46-.66-2-.34-1.07-.61-1.92-1.45-4.13l.5-.19c.84,2.22,1.11,3.07,1.46,4.15.17.54.36,1.14.66,2l.06.18c1.79,5.28,3.2,9.44,4.51,14.81v.04c.13.5.25,1.01.37,1.53.66,2.84,1.22,5.7,1.68,8.51.4,2.43.73,4.82.98,7.09.19,1.73.34,3.38.44,4.89.49,7.16.35,14.46-.42,21.69l-.02.18-.17.05c-.77.21-1.55.5-2.31.84-.13.06-.26.12-.38.19-1.02.51-1.97,1.11-2.81,1.81-1.44.99-2.71,2.16-3.79,3.48-1.5,1.83-2.61,3.91-3.3,6.18l-.75,2.47Z"/>
    <path class="cls-5" d="m98.03,112.63c-.07-.17-.14-.34-.21-.51l-.16-.39s-.02-.06-.03-.08l.48-.24s.04.09.06.14l.16.38c.06.17.13.33.2.5l-.49.21Z"/>
    <path class="cls-5" d="m82.87,161.97c-.9,0-1.8-.01-2.7-.04-9.26-.3-18.36-2.18-27.05-5.59l-.09-.04c-.07-.03-.14-.06-.21-.08l.18-.5c.08.03.15.06.23.09l.09.04c8.63,3.38,17.68,5.25,26.87,5.55,10.75.36,21.32-1.41,31.42-5.25l.19.5c-9.31,3.54-19.03,5.33-28.92,5.33Z"/>
    <g>
      <path class="cls-5" d="m107.1,113.38c-.37,0-.74,0-1.11,0-2.52-.04-5.13-.24-7.75-.57l.07-.53c2.6.33,5.19.53,7.69.57,5.39.09,10.56-.5,15.82-1.81,2.89-.72,7.72-1.93,13.15-5.26,3.03-1.85,5.82-4.11,8.31-6.7.17-.17.32-.34.48-.5,0,0,.05-.07.09-.15.05-.08.11-.16.13-.2l.05-.06.37.39-.18-.19.21.16-.04.05s-.04.08-.09.15c-.12.19-.13.2-.16.23-.15.16-.31.33-.48.5-2.51,2.63-5.35,4.92-8.41,6.79-5.5,3.37-10.57,4.64-13.3,5.32-4.94,1.24-9.81,1.84-14.84,1.84Z"/>
      <path class="cls-5" d="m105.07,126.38c-.77,0-1.51-.07-2.2-.24l.13-.52c2.54.63,5.9-.17,9.14-.94l1.09-.26c5.51-1.29,8.63-2.54,11.92-3.87.62-.25,1.25-.5,1.91-.76,8-3.13,12.77-7.51,14.45-9.24,3.13-3.22,5.19-5.69,6.29-7.55l.46.27c-1.12,1.9-3.21,4.41-6.37,7.66-1.7,1.76-6.54,6.19-14.64,9.37-.66.26-1.29.51-1.91.76-3.32,1.33-6.45,2.6-12,3.89l-1.09.26c-2.46.58-4.97,1.18-7.2,1.18Z"/>
      <path class="cls-5" d="m143.67,99.41l-.41-.34,2.68-3.28c.07-.08.06-.19,0-.27-.81-.84-1.45-1.84-1.9-2.98-.41-1.03-1.26-3.16-.6-5.78.65-2.58,2.28-3.89,2.77-4.23.79-.56,1.33-.53,1.59-.47.6.14.95.66,1.04.81.04.06.28.46.32,1.05.04.55-.09.99-.3,1.67-.08.26-.14.41-.18.53-.05.14-.08.21-.11.37-.07.4-.06.89.09,1.03.19.19.92-.28,1.31-.52.47-.29,1.25-.79,1.99-1.87.14-.21.85-1.32,1.01-2.54.03-.23.05-.5-.06-.67-.11-.17-.31-.2-.51-.21-.23,0-.35.06-.51.15-.15.08-.32.17-.57.2-.52.06-1.21-.19-1.48-.78-.31-.69.02-1.75,1-3.16.66-.96,1.51-1.67,2.53-2.11.46-.19,1.08-.46,1.87-.33.25.04,1,.16,1.57.82.82.95.74,2.41.67,3.59-.05,1.04-.26,1.85-.51,2.87-.08.33-.16.63-.26.95l-.51-.16c.09-.31.17-.59.25-.92.25-1,.45-1.79.5-2.77.06-1.14.13-2.43-.54-3.22-.44-.51-1.03-.61-1.25-.64-.63-.1-1.16.12-1.57.3-.93.4-1.7,1.05-2.3,1.92-1.13,1.64-1.08,2.36-.95,2.64.16.34.61.51.94.47.15-.02.25-.07.38-.14.18-.1.41-.21.77-.21.2,0,.69.02.96.46.19.31.18.69.13,1.02-.17,1.31-.88,2.45-1.09,2.77-.81,1.18-1.68,1.73-2.15,2.03-.66.42-1.48.94-1.97.45-.4-.38-.28-1.24-.24-1.5.03-.21.08-.32.13-.47.04-.11.1-.25.17-.49.2-.63.32-1.01.28-1.47-.03-.48-.22-.78-.24-.81-.05-.09-.3-.47-.71-.57-.14-.03-.52-.06-1.15.39-.32.22-1.94,1.46-2.56,3.92-.61,2.45.19,4.47.58,5.44.43,1.08,1.03,2.02,1.79,2.81.26.27.27.68.04.97l-2.68,3.28Z"/>
      <path class="cls-5" d="m153.79,90.7c-.83-.03-1.46-.37-1.83-.98-.62-1.03-.26-2.36-.14-2.74.26-.8.7-1.26,1.16-1.74,1.01-1.07,2.02-1.46,2.68-1.6.22-.05.48-.08.74-.08h0c.33,0,.62.03.9.11.42.11.89.23,1.23.72.3.45.34.96.36,1.17.02.26.01.65-.2,1.38-.03.12-.08.27-.13.42l-.5-.18c.05-.14.09-.27.12-.39.19-.65.2-.98.18-1.2-.01-.17-.04-.58-.27-.91-.21-.31-.49-.39-.92-.5-.24-.06-.48-.09-.77-.09-.28,0-.5.04-.64.07-.86.18-1.67.67-2.41,1.45-.44.46-.82.86-1.04,1.54-.11.33-.42,1.47.09,2.3.28.46.75.7,1.39.72l-.02.53Z"/>
      <path class="cls-5" d="m155.67,93.22c-.07,0-.13,0-.2,0-.73-.02-1.26-.04-1.66-.52-.49-.6-.42-1.53-.36-1.9.02-.15.06-.3.1-.43.34-1.05,1.2-1.75,1.83-2.25.37-.3.93-.75,1.74-.99.41-.11.8-.15,1.22-.11.44.05.87.17,1.3.29.8.22,1.37.38,1.56,1,.08.26.08.61-.22,1.45-.12.33-.24.64-.39.94l-.48-.23c.14-.29.26-.58.37-.89.3-.84.23-1.04.21-1.11-.1-.33-.44-.44-1.2-.65-.5-.14-.85-.23-1.21-.27-.35-.03-.68,0-1.03.09-.7.2-1.2.6-1.55.89-.61.49-1.37,1.1-1.66,1.99-.03.11-.07.23-.09.36-.03.23-.12,1.03.25,1.48.23.29.56.31,1.27.33.3.01.58,0,.84-.04l.07.53c-.23.03-.47.05-.73.05Z"/>
      <path class="cls-5" d="m148.11,103.46l-.4-.35c.33-.38.61-.81.89-1.24.28-.43.58-.88.93-1.28.14-.16.34-.25.55-.25.46,0,.92,0,1.38,0,1.42-.01,1.66.01,2.05-.04.68-.08,1.15-.25,2.14-.62,1.08-.4,2.09-.77,3.3-1.57.91-.61,1.49-.99,2.1-1.79.72-.94,1.03-1.88,1.2-2.38.3-.87.44-1.3.33-1.76-.17-.71-.84-1-1.2-1.15-.32-.13-.65-.19-1.01-.17-.26,0-.51.04-.75.08h-.08c-.58.11-1.04.19-1.57.55-.44.3-1.04.86-1.37,1.56-.16.35-.25.69-.25,1.02,0,.64.32,1.06.32,1.07.26.35.59.44.76.46l-.07.53c-.25-.03-.73-.17-1.1-.66h0s-.42-.54-.43-1.39c0-.41.1-.84.3-1.25.38-.8,1.06-1.44,1.56-1.77.62-.42,1.18-.51,1.77-.61h.09c.26-.05.53-.1.82-.1.44-.02.84.05,1.23.21.42.18,1.28.55,1.51,1.52.15.61-.03,1.16-.34,2.06-.18.53-.51,1.52-1.28,2.54-.66.87-1.3,1.3-2.19,1.89-1.29.85-2.33,1.24-3.43,1.65-1.04.39-1.53.56-2.27.65-.43.05-.68.03-2.11.04-.47,0-.93,0-1.39,0-.06,0-.11.03-.15.07-.32.37-.6.79-.88,1.23-.29.44-.58.89-.93,1.29Z"/>
    </g>
    <path class="cls-5" d="m53.16,156.91l-.53-.06c.55-4.54,1.41-9.09,2.53-13.52,1.47-5.79,3.45-11.49,5.88-16.97l.49.22c-2.41,5.44-4.38,11.12-5.85,16.88-1.12,4.41-1.97,8.94-2.52,13.46Z"/>
    <path class="cls-5" d="m22.49,199.49c-1.37,0-2.36-.67-2.72-1.54-.3-.73-.05-1.63.34-2.2.7-1.02,1.89-1.16,2.54-1.23,1.24-.14,3.36.33,3.84.56l-.24.48c-.41-.2-2.43-.64-3.54-.51-.6.07-1.6.18-2.16,1-.3.44-.51,1.15-.29,1.69.41.98,1.84,1.62,3.79.92l.18.5c-.63.22-1.21.32-1.74.32Z"/>
  </g>
  <g>
    <path class="cls-3" d="m148.11,79.61c-.19.42-.23.79-.25,1.04-.06.65.05,1.15.15,1.54.09.37.23.95.62,1.61.09.14.69,1.15,1.76,1.71.17.09.34.16.51.19.62-1.12.23-2.46-.07-3.48-.32-1.08-.77-1.8-1.1-2.24-.35-.46-.69-.91-1.19-1.11-.18.19-.31.49-.42.73Z"/>
    <path class="cls-2" d="m146.98,79c.3-.19.79-.3,1.24-.21.11.02.21.05.3.09-.18.19-.31.49-.42.73-.19.42-.23.79-.25,1.04-.06.65.05,1.15.15,1.54.09.37.23.95.62,1.61.09.14.69,1.15,1.76,1.71.17.09.34.16.51.19-.01.02-.02.04-.03.06-.11.2-.36.6-.84.83-.35.17-.71.19-1.03.15-.41-.19-.73-.46-.98-.67,0,0-1.81-1.49-1.99-4.44.02-1.2.35-2.25.98-2.64Z"/>
    <path class="cls-1" d="m147.16,78.46c.75-.54,1.55-.57,1.87-.57.83-.02,1.44.26,1.66.36,1.63.76,2.54,2.67,2.66,4.33.05.62.14,2-.8,3.14-.19.23-1.11,1.34-2.56,1.27-.38-.02-.71-.12-1-.25.32.04.68.02,1.03-.15.48-.23.73-.63.84-.83.01-.02.02-.04.03-.06.62-1.12.23-2.46-.07-3.48-.32-1.08-.77-1.8-1.1-2.24-.35-.46-.69-.91-1.19-1.11-.1-.04-.2-.07-.3-.09-.45-.09-.94.02-1.24.21-.63.39-.95,1.44-.98,2.64-.02-.37-.02-.76.01-1.18.04-.52.19-.85.25-.96.28-.59.72-.91.89-1.03Z"/>
    <path class="cls-3" d="m148.53,78.88c.5.21.84.65,1.19,1.11.33.44.78,1.16,1.1,2.24.3,1.02.69,2.35.07,3.48-.17-.03-.34-.1-.51-.19-1.06-.57-1.67-1.57-1.76-1.71-.39-.66-.53-1.25-.62-1.61-.09-.39-.21-.89-.15-1.54.02-.26.06-.62.25-1.04.11-.24.24-.53.42-.73Z"/>
  </g>
</svg>