<?xml version="1.0" encoding="UTF-8"?>
<svg id="Layer_1" data-name="Layer 1" xmlns="http://www.w3.org/2000/svg" width="154.2" height="210.89" viewBox="0 0 154.2 210.89">
  <defs>
    <style>
      .cls-1 {
        fill: #3c2415;
      }

      .cls-1, .cls-2, .cls-3, .cls-4, .cls-5, .cls-6, .cls-7, .cls-8, .cls-9 {
        stroke-width: 0px;
      }

      .cls-2 {
        fill: #231f20;
      }

      .cls-3 {
        fill: #8b5e3c;
      }

      .cls-4 {
        fill: #c2b59b;
      }

      .cls-5 {
        fill: #939598;
      }

      .cls-6 {
        fill: #f1f2f2;
      }

      .cls-7 {
        fill: #fff200;
      }

      .cls-8 {
        fill: #fff;
      }

      .cls-9 {
        fill: #fbb040;
      }
    </style>
  </defs>
  <path class="cls-4" d="m153.81,59.05c-.03-1.51-.38-3.24-.78-4.57-.33-1.1-.64-1.95-1.26-1.95-4.7.03-13.05,2.92-19.73,7.26,1.21-4.33,1.86-9.22,1.86-14.73C133.91,20.43,108.9.47,78.06.47S21.09,20.46,22.2,45.06c.3,6.52,1.26,12.12,2.81,16.93-6.96-5.39-17-9.61-22.35-9.64-.62,0-.93,1.38-1.26,2.48-.4,1.33-1.02,4.27-1.1,5.78-.3,5.65.94,15.26,8.98,22.25,6.61,5.75,15,7.24,21.13,6.07,3.05,21.09,23.68,25.17,48.04,25.17s43.2-9.88,47.54-25.16c5.4,1.06,12.77-1.21,19.15-6.43,9.06-7.41,8.77-17.81,8.66-23.45Z"/>
  <path class="cls-4" d="m114.29,139.21c1.09,4.62,2.22,6.74,1.93,9.94-.94,10.36-17.35,12.54-36.38,13.35-12.27.52-35.33-.81-38.91-9.52-1.57-3.83,0-7.31,1.45-14.35,4.18-20.25,17.7-45.86,36.5-43.91,17.65,1.83,29.51,19.57,35.41,44.48Z"/>
  <ellipse class="cls-4" cx="28.52" cy="200.39" rx="2.22" ry="3.21" transform="translate(-173.29 215.88) rotate(-86.29)"/>
  <path class="cls-4" d="m54.83,196.59c-1.47-1.33-3.17-2.01-4.38-1.89-.27-.15-.58-.24-.98-.24-.5,0-.99-1.52-1.04-1.98-.02-.17-.1-.3-.21-.4.91-.98,1.61-1.91,2.03-2.65,4.23-7.46,6.4-12.56.2-28.14-6.83-17.17-19.52-23.84-26.12-21.49-7.74,2.76-5.82,21.11-.92,36.79,1.66,5.3,3.31,11.57,5.58,16.22-3.4.6-7.43,1.97-8.44,3.64-.49-.05-1.02,0-1.57.15-1.67.47-2.75,1.77-2.43,2.9.32,1.13,1.93,1.66,3.6,1.19.72,1.46,2.8,1.91,4.65,1.02.36-.18.69-.39.98-.64,1.84.47,4.03.79,6.38.94,1.9.12,3.51.11,4.87-.01.07.21.17.39.32.56.55.63,1.53.77,2.65.5-1.07,2.39-.92,4.76.4,5.45.91.48,2.16.02,3.29-1.04.09.69.35,1.17.77,1.34,1.09.44,2.92-1.51,3.57-4.26.08-.34.15-.98.25-1.3.16-.52.31-.99.42-1.43.03,0,.06,0,.09-.01.54-.11,1.24-1.22,1.6-1.61.05-.05.09-.12.14-.18.2.22.41.43.64.64,2.07,1.86,4.56,2.46,5.58,1.34s.16-3.55-1.9-5.41Z"/>
  <path class="cls-4" d="m137.78,198.62c-.42-.04-.81.01-1.17.13-2.28-2.07-7.06-3.98-10.73-4.42,2.41-4.65,4.46-10.66,6.02-15.66,4.9-15.68,6.82-34.03-.92-36.79-6.6-2.36-19.28,4.31-26.12,21.49-6.2,15.58-2.6,20.11.2,28.14.43,1.23,4.66-5.27,3.43,4.33-1.86.15-4.25,1.03-5.76,2.27-2.36,1.93-3.53,4.39-2.63,5.49.9,1.1,3.72.59,5.9-1.5.14-.13.26-.25.39-.37.68.83,1.68,1.13,1.93,1.87.76,2.28,1.5,7.27,4.09,6.84.42-.07.71-.65.88-1.5,1.23,1.26,2.53,1.84,3.38,1.36,1.04-.59,1.49-3.33.28-5.5.89.2,1.7.24,2.14.03.36-.17.53-.48.57-.86,1.42.4,3.09.52,4.86.23.55-.09,1.15-.16,1.76-.22.41.36,1.22.61,2.16.61,1.22,0,2.22-.41,2.41-.95.39-.03.78-.06,1.16-.09.39.33,1.11.55,1.93.55,1.24,0,2.25-.51,2.25-1.13,0-.05-.02-.09-.03-.14.04-.01.08-.03.12-.04.31.16.67.24,1.05.23,2.77-.11,2.72-.72,2.76-1.93.05-1.49-.92-2.31-2.32-2.45Z"/>
  <circle class="cls-9" cx="105.12" cy="73.24" r="15.49"/>
  <path class="cls-4" d="m54.83,196.59c-1.47-1.33-3.17-2.01-4.38-1.89-.27-.15-.58-.24-.98-.24-.5,0-.99-1.52-1.04-1.98-.02-.17-.1-.3-.21-.4.91-.98,1.61-1.91,2.03-2.65,4.23-7.46,6.4-12.56.2-28.14-6.83-17.17-19.52-23.84-26.12-21.49-7.74,2.76-5.82,21.11-.92,36.79,1.66,5.3,3.31,11.57,5.58,16.22-3.4.6-7.43,1.97-8.44,3.64-.49-.05-1.02,0-1.57.15-1.67.47-2.75,1.77-2.43,2.9.32,1.13,1.93,1.66,3.6,1.19.72,1.46,2.8,1.91,4.65,1.02.36-.18.69-.39.98-.64,1.84.47,4.03.79,6.38.94,1.9.12,3.51.11,4.87-.01.07.21.17.39.32.56.55.63,1.53.77,2.65.5-1.07,2.39-.92,4.76.4,5.45.91.48,2.16.02,3.29-1.04.09.69.35,1.17.77,1.34,1.09.44,2.92-1.51,3.57-4.26.08-.34.15-.98.25-1.3.16-.52.31-.99.42-1.43.03,0,.06,0,.09-.01.54-.11,1.24-1.22,1.6-1.61.05-.05.09-.12.14-.18.2.22.41.43.64.64,2.07,1.86,4.56,2.46,5.58,1.34s.16-3.55-1.9-5.41Z"/>
  <circle class="cls-7" cx="105.1" cy="69.92" r="15.49"/>
  <circle class="cls-2" cx="106.51" cy="71.61" r="5.64"/>
  <circle class="cls-8" cx="96.62" cy="65.79" r="6.36"/>
  <circle class="cls-9" cx="50.13" cy="72.88" r="15.49"/>
  <circle class="cls-7" cx="50.1" cy="69.56" r="15.49"/>
  <circle class="cls-2" cx="51.51" cy="71.25" r="5.64"/>
  <circle class="cls-8" cx="41.63" cy="65.44" r="6.36"/>
  <path class="cls-1" d="m49.13,157.53c-.75,5.44-1.32,11.46-1.54,17.99-.2,5.83.12,11.08.65,16.02.53.06.77.09,1.37.51,1.52,1.05,1.9,1.76,1.98,2.2,5.07-5.99,5.58-6.14,6.16-5.95,3.18,1.07,5.22,9.88,6.08,16.84,2.13-9.37,6.54-15.32,9.58-15.05,3.74.34,6.32,8.49,4.58,11.49,1.56-2.39,3.59-5.98,4.67-7.42,1.43-1.91,1.9-2.37,2.56-2.3,1.56.16,2.82,4.92,2.15,5.71,1.49-2.65,3.93-5.14,5.55-4.84,2.02.38,3.59,5.62,2.8,11.23,1.16-2.17,4.26-7.6,7.01-9.5,1.42-.98,4.56-2.64,5.79-3.16.95-4.73,1.01-10.21.67-17.51-.27-5.87-.27-11.7-1.7-15.78-6.14,1.99-16.88,4.47-27.84,4.47-13.67,0-23.89-2.33-30.54-4.96Z"/>
  <path class="cls-2" d="m97.39,89.07s-8.21,7.24-19.09,7.35c-14.45.14-18.83-6.82-18.83-6.82.8,9.02,8.19,14.99,18.56,14.75,10.37-.24,18.28-7.64,19.36-15.28Z"/>
  <path class="cls-6" d="m72.52,95.91c1.45.25,3.47.34,5.46.33s3.39-.17,4.7-.36c.11,1.52-.64,2.74-1.94,3.11s-2.18-.8-2.96-2.14c-.62,1.41-1.5,2.66-2.74,2.45-1.58-.27-2.27-1.6-2.52-3.39Z"/>
  <path class="cls-6" d="m86.69,94.9c1.02.99,2.04,1.97,3.07,2.96l1.52-4.52c-.63.31-1.35.62-2.17.9-.88.3-1.7.52-2.42.66Z"/>
  <path class="cls-6" d="m88.28,101.63c-1.02-.99-1.61-1.79-2.63-2.77l-1.52,4.52c.63-.31,1.32-.71,2.17-.9,1-.22,1.26-.7,1.99-.85Z"/>
  <path class="cls-6" d="m68.68,102.8c1.02-.99,1.92-2.18,2.94-3.16.73,1.45,1.09,2.95,1.6,4.46-.63-.31-1.29-.06-2.32-.52-.99-.44-1.33-.74-2.22-.78Z"/>
  <path class="cls-6" d="m65.59,94.21c.33,1.38.5,3.03.83,4.41,1.39-.83,2.45-2.06,3.69-3.06-.78-.13-2.14-.6-2.43-.7-1.03-.35-1.74-.54-2.09-.65Z"/>
  <g>
    <path class="cls-6" d="m75.37,78.16c0,.79-.47,1.15-1.25,1.15s-1.37.03-1.37-.75.6-1.24,1.39-1.24,1.24.05,1.24.84Z"/>
    <path class="cls-2" d="m73.94,79.45c-.47,0-.87-.01-1.11-.25-.14-.14-.21-.35-.21-.63,0-.82.61-1.37,1.52-1.37.67,0,1.37,0,1.37.97,0,.83-.49,1.29-1.39,1.29h-.09s-.06,0-.09,0Zm.2-1.99c-.76,0-1.25.43-1.25,1.1,0,.21.04.35.14.45.18.18.56.18,1.01.17h.09c.74,0,1.12-.34,1.12-1.02s-.29-.7-1.1-.7Z"/>
  </g>
  <g>
    <ellipse class="cls-3" cx="100.28" cy="184.52" rx="1.83" ry="3.5" transform="translate(-28.59 18.7) rotate(-9.33)"/>
    <path class="cls-2" d="m100.69,188.12c-.48,0-.96-.3-1.39-.87-.46-.61-.8-1.47-.95-2.41-.15-.94-.11-1.86.13-2.59.25-.76.68-1.22,1.21-1.31,1.08-.18,2.19,1.26,2.52,3.27h0c.33,2.01-.26,3.72-1.34,3.9-.06,0-.12.01-.18.01Zm-.81-6.93s-.09,0-.14.01c-.43.07-.79.47-1,1.13-.23.69-.27,1.56-.12,2.47.15.9.47,1.72.9,2.3.42.55.88.82,1.31.75.92-.15,1.42-1.77,1.12-3.6h0c-.29-1.74-1.2-3.06-2.08-3.06Z"/>
  </g>
  <g>
    <ellipse class="cls-3" cx="55.03" cy="174.1" rx="3.5" ry="1.83" transform="translate(-125.69 200.18) rotate(-80.67)"/>
    <path class="cls-2" d="m54.62,177.7c-.06,0-.12,0-.18-.01-1.08-.18-1.67-1.89-1.34-3.9h0c.33-2.01,1.44-3.45,2.52-3.27.53.09.96.55,1.21,1.31.24.73.29,1.65.13,2.59-.15.94-.49,1.8-.95,2.41-.42.57-.91.87-1.39.87Zm-1.26-3.87h0c-.3,1.83.2,3.45,1.12,3.6.43.07.9-.2,1.31-.75.44-.58.76-1.4.9-2.3.15-.9.11-1.78-.12-2.47-.22-.66-.57-1.06-1-1.13-.93-.15-1.91,1.22-2.22,3.05Z"/>
  </g>
  <path class="cls-5" d="m113.94,196.87c1.29-4.67,2.47-10.08,3.23-16.13.56-4.44.82-8.57.89-12.34.88-.17,2.13-.52,3.48-1.26,1.4-.76,2.38-1.65,3.01-2.31-.49,4.55-1.19,9.46-2.21,14.67-1.17,5.95-2.57,11.4-4.05,16.31-1.45.35-2.91.71-4.36,1.06Z"/>
  <path class="cls-5" d="m42.89,194.63c-1.17-4.33-2.26-9.34-3-14.94-.74-5.59-1-10.7-1-15.19-1.02-.06-2.69-.29-4.52-1.16-1.61-.77-2.73-1.73-3.41-2.43.93,5.48,2.11,11.32,3.64,17.46,1.38,5.55,2.89,10.75,4.46,15.59,1.28.22,2.56.44,3.84.66Z"/>
  <path class="cls-5" d="m49.13,157.53c.34-2.68.82-5.55,1.46-8.6.64-3.01,1.37-5.81,2.14-8.37.28,3.18.56,6.37.84,9.55.27,3.06.53,6.12.79,9.18l-5.23-1.77Z"/>
  <path class="cls-5" d="m107.76,157.87c-.42-2.59-.94-5.33-1.59-8.19-.62-2.73-1.3-5.31-2.01-7.72-.33,2.7-.66,5.43-.97,8.18-.35,3.05-.67,6.07-.97,9.06,1.85-.44,3.7-.89,5.55-1.33Z"/>
  <path class="cls-5" d="m127.16,79.7c0-1.18-.04-2.46-.17-3.83-.12-1.28-.28-2.46-.48-3.55,1.58-1.72,3.77-3.77,6.66-5.7,3.62-2.41,7.06-3.76,9.61-4.54.1,1.57.04,4.29-1.36,7.12-1.52,3.07-3.84,4.69-6.44,6.52-1.7,1.19-4.31,2.76-7.83,3.97Z"/>
  <path class="cls-5" d="m29.63,78.62c.26-1.72.52-3.45.77-5.17-1.61-1.77-4.08-4.1-7.54-6.16-3.22-1.91-6.22-2.95-8.44-3.54.27,1.64.99,4.55,3.13,7.48,2.22,3.04,4.82,4.52,6.06,5.21,2.36,1.31,4.54,1.89,6.03,2.18Z"/>
  <path class="cls-2" d="m72.53,114.56c-12.03,0-30.97-2.1-39.37-16.58-4.91-8.46-4.37-17.96-3.03-24.48-4.32-7.05-10.91-21.13-7.05-36.79,3.56-14.44,14.18-23.13,22.46-27.87C55.81,2.96,68.42-.26,80.13.02c20.29.48,45.28,11.17,52.2,33.52,5.27,17-2.09,32.64-5.56,38.67,1.43,8.07.51,15.63-2.65,21.86-9.33,18.37-34.37,19.74-43.79,20.25-1.89.1-4.6.25-7.79.25ZM78.72.53c-11.21,0-23.13,3.17-32.92,8.77-8.19,4.69-18.69,13.28-22.21,27.53-3.83,15.54,2.77,29.52,7.04,36.48l.06.09-.02.1c-1.33,6.43-1.9,15.84,2.95,24.2,10.47,18.04,37.72,16.55,46.67,16.07,9.34-.51,34.16-1.86,43.35-19.96,3.12-6.15,4.02-13.63,2.58-21.62l-.02-.1.05-.08c3.41-5.9,10.79-21.45,5.56-38.33C124.97,11.6,100.22,1.02,80.11.55c-.46-.01-.93-.02-1.39-.02Z"/>
  <path class="cls-2" d="m27.27,89.57c-1.59,0-3.18-.14-4.75-.42-1.6-.28-3.2-.71-4.73-1.28-4.06-1.5-7.74-3.97-10.66-7.16C.16,73.09-1.91,61.95,1.86,52.32l.08-.19.21.03c4.96.66,9.75,2.11,14.23,4.31.21.1.41.2.62.31,1.61.83,3.17,1.74,4.62,2.71,1.26.84,2.49,1.76,3.65,2.72l-.34.41c-1.15-.95-2.37-1.85-3.61-2.68-1.44-.96-2.97-1.87-4.57-2.68-.2-.11-.4-.21-.61-.31-4.37-2.15-9.03-3.57-13.86-4.23-3.59,9.4-1.55,20.23,5.24,27.65,2.86,3.13,6.48,5.56,10.46,7.02,1.51.56,3.07.98,4.64,1.26,2.48.44,5,.52,7.49.26l.06.53c-.96.1-1.92.15-2.88.15Z"/>
  <path class="cls-2" d="m126.93,89.57c-.4,0-.8,0-1.19-.03l.02-.53c2.66.12,5.33-.17,7.94-.85l.19-.06c2.93-.78,5.69-2.05,8.2-3.77,1.66-1.14,3.21-2.48,4.59-3.99,6.79-7.42,8.83-18.25,5.24-27.65-3.93.54-7.78,1.59-11.43,3.13-.76.31-1.58.68-2.43,1.1-1.2.59-2.41,1.26-3.58,1.97-.91.56-1.81,1.15-2.75,1.82l-.31-.43c.95-.67,1.86-1.28,2.78-1.84,1.19-.72,2.41-1.39,3.63-1.99.86-.42,1.69-.8,2.46-1.12,3.76-1.59,7.72-2.66,11.78-3.2l.21-.03.08.19c3.77,9.63,1.71,20.78-5.27,28.4-1.41,1.54-2.99,2.91-4.68,4.07-2.5,1.72-5.25,3-8.17,3.8h0s-.2.06-.2.06c-2.33.63-4.71.94-7.09.94Z"/>
  <path class="cls-2" d="m29.78,72.91c-1.92-1.9-4.07-3.58-6.4-5.01-.23-.14-.44-.27-.65-.38-.65-.38-1.27-.71-1.9-1.02-1.43-.72-2.91-1.34-4.41-1.85-1.4-.48-2.81-.87-4.32-1.18l.11-.52c1.53.32,2.96.71,4.38,1.2,1.52.52,3.02,1.15,4.47,1.88.63.31,1.27.65,1.93,1.04.21.12.43.25.64.38,2.38,1.45,4.56,3.16,6.51,5.09l-.37.38Z"/>
  <path class="cls-2" d="m24.21,76.88c-1.42-.28-2.66-1.06-3.5-2.19-.81-1.08-1.17-2.43-1-3.69.11-.81.43-1.59.93-2.26.54-.72,1.26-1.3,2.1-1.69l.22.48c-.75.35-1.41.88-1.9,1.53-.45.6-.74,1.3-.83,2.01-.16,1.13.17,2.33.9,3.3.76,1.03,1.88,1.73,3.17,1.99l-.1.52Z"/>
  <path class="cls-2" d="m126.71,72.51l-.39-.36c1.71-1.86,3.62-3.55,5.66-5.01.73-.52,1.47-1.02,2.2-1.46.13-.08.27-.17.41-.25l.16-.1c2.1-1.24,4.31-2.26,6.6-3.05h0s.18-.07.18-.07c.66-.22,1.35-.44,2.17-.66l.14.51c-.74.21-1.37.4-1.97.6l-.17.06c-2.31.78-4.56,1.81-6.68,3.06l-.16.1c-.13.08-.27.16-.4.24-.72.44-1.45.93-2.17,1.44-2.01,1.44-3.89,3.1-5.58,4.94Z"/>
  <path class="cls-2" d="m132.72,76.01l-.2-.49c.96-.4,1.73-1.08,2.25-1.96l.03-.06c.68-1.19.77-2.56.26-3.68-.06-.14-.15-.29-.27-.48-.59-.88-1.58-1.5-2.71-1.72l.1-.52c1.27.24,2.38.95,3.05,1.95.14.21.23.38.31.55.58,1.25.49,2.78-.24,4.1h0s-.03.07-.03.07c-.58,1.02-1.46,1.79-2.54,2.24Z"/>
  <path class="cls-2" d="m53.27,37.24l-.21-.49c7.75-3.35,15.93-5.24,24.32-5.63,9.82-.45,19.86,1.26,29.05,4.95l-.2.49c-9.11-3.66-19.08-5.36-28.82-4.92-8.32.38-16.44,2.26-24.13,5.59Z"/>
  <path class="cls-2" d="m59.21,26.97l-.26-.47c6.04-3.36,12.41-5.26,18.95-5.64,7.65-.45,15.48,1.27,22.63,4.96l-.24.47c-7.07-3.65-14.81-5.35-22.36-4.91-6.46.38-12.75,2.26-18.72,5.57Z"/>
  <path class="cls-2" d="m33.61,53.07l-.45-.28c1.68-2.7,5.52-7.58,12.48-9.98,7.63-2.64,14.28-.56,16.79.45l-.2.49c-2.45-.99-8.95-3.02-16.41-.44-6.8,2.35-10.56,7.12-12.2,9.76Z"/>
  <path class="cls-2" d="m123,53.79c-1.64-2.64-5.4-7.41-12.2-9.76-7.46-2.58-13.96-.55-16.41.44l-.2-.49c2.51-1.02,9.16-3.09,16.79-.45,6.95,2.4,10.8,7.29,12.48,9.98l-.45.28Z"/>
  <path class="cls-2" d="m74.14,74.86l-.35-.41c.63-.54,1.98-1.45,3.88-1.48,1.5-.03,2.62.49,3.33.92l-.28.45c-.64-.4-1.67-.87-3.04-.84-1.73.03-2.97.86-3.54,1.35Z"/>
  <path class="cls-2" d="m78.51,86.88c-2.22,0-5.08-1.06-5.31-3.07-.16-1.33.91-2.48,1.55-3.04l.35.4c-.46.4-1.51,1.45-1.38,2.58.2,1.69,3.01,2.77,5.28,2.58,1.53-.13,4.01-.94,4.15-2.57.12-1.36-1.46-2.5-1.64-2.63l.3-.44c.34.23,2.02,1.49,1.87,3.11-.18,1.97-2.87,2.9-4.64,3.05-.17.01-.36.02-.54.02Z"/>
  <path class="cls-2" d="m72.18,84.55c-.82,0-1.61-.25-2.28-.72-1.47-1.07-1.78-2.91-1.45-4.26.37-1.49,1.55-2.67,3.07-3.06l.13.52c-1.33.35-2.36,1.37-2.68,2.68-.29,1.18-.02,2.78,1.25,3.7.91.65,2.11.8,3.21.4l.18.5c-.47.17-.95.25-1.43.25Z"/>
  <path class="cls-2" d="m84.21,84.55c-.31,0-.62-.04-.93-.11l.12-.52c.99.23,2,.03,2.78-.53,1.26-.92,1.54-2.52,1.25-3.7-.32-1.3-1.35-2.33-2.68-2.68l.13-.52c1.52.4,2.7,1.57,3.07,3.06.33,1.35.02,3.2-1.45,4.26-.66.48-1.46.73-2.28.73Z"/>
  <path class="cls-2" d="m49.33,48.01l-.53-.02c.08-2.06.27-4.01.58-5.95.55-3.52,1.49-6.99,2.78-10.3,3.98-10.21,10.5-16.48,14.82-20.63,4.17-4.01,8.83-7.54,13.85-10.51.18-.11.36-.22.55-.32l.26-.15.27.46-.26.15c-.18.11-.36.21-.55.32-4.98,2.95-9.61,6.46-13.75,10.44-4.54,4.36-10.75,10.34-14.69,20.44-1.28,3.28-2.2,6.71-2.75,10.19-.31,1.93-.49,3.86-.57,5.9Z"/>
  <path class="cls-2" d="m104.57,47.95l-.53-.03c.11-1.78.12-3.59.04-5.37-.11-2.43-.41-4.87-.88-7.26v-.06c-.25-1.19-.55-2.43-.88-3.65-2.94-10.43-8.54-16.99-12.63-21.78-2.69-3.15-5.68-6.1-8.89-8.78l-.17-.14c-.11-.09-.21-.18-.32-.26-.07-.06-.11-.09-.16-.13l.35-.4s.07.06.11.09c.14.11.24.2.35.29l.17.14c3.24,2.7,6.25,5.68,8.96,8.84,3.89,4.55,9.77,11.44,12.73,21.98.34,1.23.64,2.48.89,3.74v.06c.48,2.36.78,4.83.89,7.28.08,1.8.07,3.63-.04,5.43Z"/>
  <path class="cls-2" d="m32.26,62.5h-.53c.07-8.67,1.96-25.44,13.79-40.46,8.65-10.99,18.84-16.28,22.81-18.05,3.86-1.71,7.92-3,12.08-3.84.16-.03.32-.06.47-.09h.06s.12-.04.12-.04l.1.11-.18.17v.06-.05l.14.22h-.11s.01.04.01.04c-.17.04-.35.07-.52.1-4.12.83-8.14,2.11-11.97,3.81-3.94,1.75-14.03,6.99-22.61,17.89-11.74,14.9-13.61,31.54-13.68,40.14ZM80.99.52v.06-.06Z"/>
  <path class="cls-2" d="m32.26,62.5h-.53c.07-8.67,1.96-25.44,13.79-40.46,8.65-10.99,18.84-16.28,22.81-18.05,3.86-1.71,7.92-3,12.08-3.84.16-.03.32-.06.47-.09h.06s.12-.04.12-.04l.1.11-.18.17v.06-.05l.14.22h-.11s.01.04.01.04c-.17.04-.35.07-.52.1-4.12.83-8.14,2.11-11.97,3.81-3.94,1.75-14.03,6.99-22.61,17.89-11.74,14.9-13.61,31.54-13.68,40.14ZM80.99.52v.06-.06Z"/>
  <path class="cls-2" d="m121.69,63.1l-.53-.03c.25-4.08.14-8.21-.33-12.28-1.23-10.61-4.76-20.27-10.51-28.71-7.82-11.5-17.51-17.41-21.31-19.42-1.23-.65-2.46-1.24-3.64-1.76l-.09-.06.2-.19.1-.23c1.19.52,2.43,1.12,3.67,1.78,3.84,2.03,13.61,8,21.5,19.59,5.8,8.51,9.36,18.25,10.6,28.94.48,4.1.59,8.27.34,12.38Z"/>
  <path class="cls-2" d="m21.32,107.48c-1.66-6.54-2.9-13.21-3.71-19.82-.45-3.65-.76-7.31-.94-10.86-.23-4.36-.44-8.49-.43-12.4.01-2.71.13-5.14.36-7.42.44-4.28,1.31-8.34,2.68-12.39,1.14-3.39,2.61-6.72,4.35-9.89l.47.26c-1.73,3.14-3.18,6.44-4.32,9.8-1.35,4.02-2.22,8.03-2.66,12.28-.23,2.26-.34,4.67-.36,7.37-.01,3.9.2,8.01.43,12.37.18,3.54.5,7.18.94,10.82.8,6.59,2.05,13.23,3.7,19.76l-.52.13Z"/>
  <path class="cls-2" d="m32.3,117.2c-4.77-8.89-8.13-18.4-9.99-28.25-.3-1.57-.57-3.21-.8-4.88-.43-3.15-.72-6.36-.84-9.52-.08-1.84-.1-3.74-.06-5.65.02-.95.04-1.81.09-2.64.09-2.13.27-4.34.51-6.57.28-2.5.66-5.01,1.13-7.47l.52.1c-.46,2.44-.84,4.94-1.12,7.43-.24,2.22-.42,4.42-.51,6.54-.04.83-.07,1.69-.09,2.63-.03,1.9-.01,3.79.06,5.62.12,3.14.4,6.33.83,9.46.23,1.66.5,3.29.8,4.85,1.85,9.8,5.19,19.26,9.94,28.1l-.47.25Z"/>
  <path class="cls-2" d="m127.63,115.12l-.5-.18c3.15-8.6,5.36-17.55,6.56-26.59.27-2.02.49-4.11.66-6.19.23-2.86.37-5.73.41-8.52.02-1.54,0-3.04-.02-4.43-.03-1.28-.07-2.5-.13-3.62-.11-2.27-.29-4.58-.54-6.86-.22-2.15-.52-4.37-.87-6.58l.53-.08c.36,2.23.65,4.45.87,6.61.25,2.29.43,4.61.54,6.89.06,1.13.11,2.35.13,3.64.03,1.4.04,2.9.02,4.45-.04,2.81-.18,5.69-.41,8.56-.17,2.09-.4,4.19-.67,6.22-1.21,9.08-3.43,18.07-6.59,26.7Z"/>
  <path class="cls-2" d="m138.41,109.9l-.51-.14c2.25-8.25,3.62-16.73,4.08-25.21.11-2.04.16-3.97.18-5.9.02-4.11.06-9.74-.81-16.14-.32-2.35-.71-4.6-1.22-6.85-.32-1.42-.69-2.9-1.12-4.41-1.68-5.93-4.07-11.73-7.09-17.24l.47-.26c3.04,5.54,5.45,11.38,7.14,17.35.43,1.52.8,3.01,1.12,4.43.51,2.27.91,4.53,1.23,6.9.87,6.44.84,12.09.81,16.22-.01,1.94-.07,3.88-.18,5.92-.46,8.52-1.84,17.04-4.1,25.32Z"/>
  <path class="cls-2" d="m39.42,203.64c-1.2,0-2.12-.38-2.53-1.06-.03-.05-.06-.1-.08-.16-.44-.93.07-2.16.26-2.63.55-1.28,1.47-1.97,2.88-3.02.88-.66,1.81-1.25,2.78-1.77-2.73-10-4.11-20.26-4.1-30.5.01-6.41.58-12.84,1.68-19.09.27-1.59.61-3.26.99-4.96,2.25-10.06,5.91-19.77,10.87-28.88l.47.25c-4.94,9.06-8.58,18.73-10.82,28.74-.38,1.7-.71,3.36-.98,4.94-1.1,6.22-1.66,12.61-1.67,19-.01,10.26,1.38,20.55,4.13,30.56l.06.21-.19.1c-1,.53-1.98,1.14-2.89,1.83-1.5,1.12-2.24,1.7-2.69,2.77-.18.43-.62,1.5-.28,2.23.02.04.03.07.05.11.34.57,1.25.86,2.4.8l.03.53c-.12,0-.24.01-.36.01Z"/>
  <path class="cls-2" d="m41.22,208.97c-.2,0-.4-.03-.58-.09-1.1-.35-1.72-1.75-1.83-2.91-.09-.91.15-1.81.72-2.75.46-.75,1.07-1.41,1.61-1.99.91-.98,1.97-1.79,3.17-2.42l.25.47c-1.14.6-2.16,1.38-3.02,2.32-.52.56-1.12,1.2-1.55,1.91-.51.83-.72,1.62-.64,2.42.08.82.54,2.15,1.46,2.45.73.23,1.75-.2,2.65-1.14l.38.37c-.85.88-1.79,1.36-2.61,1.36Z"/>
  <path class="cls-2" d="m44.63,209.16c-.14,0-.28-.03-.41-.08-1.22-.53-.91-3.36-.56-4.64.35-1.3,1.03-2.48,2.02-3.52l.38.37c-.93.97-1.57,2.07-1.89,3.28-.44,1.65-.42,3.72.26,4.01.42.19,1.24-.29,2.17-1.28.72-.76.85-1.54,1-2.44.13-.78.27-1.66.82-2.65.47-.85,1.12-1.6,1.92-2.24l.19-.15.17.18c.71.76,1.55,1.33,2.48,1.68,1.27.49,2.95.83,3.52.18.64-.74-.23-2.73-1.05-3.9-1.84-2.63-5.13-3.32-6.92-3.49l-.21-.02-.03-.21c-1.43-10.51-1.57-21.18-.41-31.69,1.39-12.61,4.62-24.94,9.6-36.65l.49.21c-4.96,11.66-8.18,23.94-9.56,36.5-1.15,10.4-1.02,20.95.38,31.36,1.92.22,5.2,1,7.09,3.7.77,1.09,1.97,3.45,1.01,4.55-.94,1.08-3.38.25-4.11-.03-.93-.36-1.77-.91-2.5-1.64-.66.56-1.2,1.21-1.6,1.93-.51.91-.64,1.71-.76,2.48-.15.95-.3,1.84-1.13,2.73-.67.71-1.59,1.48-2.36,1.48Z"/>
  <path class="cls-2" d="m117.55,205.37c-.11,0-.23,0-.35-.01l.03-.53c1.04.06,1.9-.18,2.29-.66.04-.05.08-.1.11-.14.45-.73-.06-1.93-.22-2.32-.46-1.08-1.2-1.66-2.7-2.78-.9-.68-1.87-1.29-2.89-1.83l-.19-.1.06-.21c2.57-9.31,3.95-18.87,4.12-28.41.13-7.42-.48-14.88-1.84-22.17-.25-1.33-.52-2.65-.8-3.92-2.49-11.12-6.7-21.82-12.52-31.79l.46-.27c5.85,10.02,10.08,20.76,12.58,31.94.29,1.28.56,2.6.81,3.94,1.36,7.32,1.98,14.82,1.85,22.28-.17,9.52-1.54,19.05-4.08,28.34.98.52,1.91,1.12,2.78,1.77,1.41,1.05,2.34,1.74,2.87,2.99.19.46.77,1.85.18,2.82-.05.08-.1.15-.16.21-.45.55-1.31.85-2.38.85Z"/>
  <path class="cls-2" d="m115.75,210.7c-.82,0-1.76-.48-2.61-1.36l.38-.37c.9.93,1.91,1.37,2.65,1.13.82-.26,1.37-1.46,1.47-2.45.08-.8-.13-1.59-.65-2.42-.43-.71-1.03-1.34-1.55-1.91-.86-.93-1.88-1.71-3.02-2.32l.25-.47c1.19.63,2.26,1.45,3.16,2.43.54.58,1.15,1.24,1.61,1.99.58.93.82,1.83.73,2.75-.11,1.15-.74,2.55-1.83,2.91-.19.06-.38.09-.58.09Z"/>
  <path class="cls-2" d="m112.34,210.89c-.78,0-1.69-.77-2.36-1.48-.84-.88-.98-1.78-1.13-2.73-.12-.77-.25-1.57-.76-2.48-.4-.72-.94-1.37-1.6-1.93-.73.73-1.57,1.28-2.5,1.64-.93.36-3.2,1.08-4.11.03-.95-1.1.25-3.46,1.01-4.55,1.9-2.7,5.17-3.48,7.09-3.7,1.4-10.4,1.53-20.95.38-31.36-1.38-12.55-4.6-24.84-9.56-36.5l.49-.21c4.98,11.71,8.21,24.04,9.6,36.65,1.16,10.52,1.02,21.18-.41,31.69l-.03.21-.21.02c-1.79.18-5.07.87-6.92,3.49-.82,1.17-1.69,3.15-1.05,3.9.56.65,2.24.31,3.51-.18.93-.36,1.77-.93,2.48-1.69l.17-.18.19.15c.8.64,1.45,1.39,1.92,2.24.55.99.69,1.88.82,2.65.15.9.27,1.68.99,2.44.94.98,1.75,1.47,2.17,1.28.68-.3.7-2.36.26-4.01-.32-1.21-.96-2.32-1.89-3.28l.38-.37c1,1.03,1.68,2.22,2.02,3.52.34,1.28.66,4.11-.56,4.64-.13.06-.27.08-.41.08Z"/>
  <path class="cls-2" d="m78.61,162.78c-.45,0-.89,0-1.34,0-9.66-.14-19.21-1.75-28.38-4.8l.17-.51c9.12,3.03,18.62,4.63,28.22,4.77,10.36.14,20.58-1.41,30.4-4.62l.17.51c-9.45,3.09-19.27,4.65-29.23,4.65Z"/>
  <path class="cls-2" d="m66.74,151.12l-.26-.47c3.66-2.03,7.78-3.22,11.92-3.46,6.46-.37,11.61,1.57,14.8,3.27l-.25.47c-3.13-1.66-8.2-3.57-14.52-3.21-4.06.23-8.1,1.41-11.69,3.39Z"/>
  <path class="cls-2" d="m136.46,198.74c-2.34-1.72-6.08-3.81-10.63-4.04-.8-.05-1.62-.03-2.45.05-1.86.19-3.69.69-5.44,1.5l-.22-.48c1.8-.83,3.69-1.35,5.61-1.55.85-.09,1.7-.1,2.53-.05,4.68.24,8.52,2.38,10.92,4.14l-.32.43Z"/>
  <path class="cls-2" d="m138.12,203.45c-.6,0-1.25-.14-1.89-.42l.21-.49c1.53.67,2.87.35,3.36-.29.48-.62.39-1.76-.19-2.55-.61-.82-1.76-1.18-2.92-.92-.35.08-.7.21-1.03.41l-.27-.46c.38-.22.78-.38,1.19-.47,1.37-.3,2.73.14,3.46,1.12.64.86.88,2.29.19,3.19-.43.57-1.21.87-2.1.87Z"/>
  <path class="cls-2" d="m134.05,204.6c-.87,0-1.82-.38-2.65-1.1l.17-.2v-.27s.1,0,.1,0l.07.07c1.03.89,2.31,1.2,3.19.78.45-.22.9-.68,1.16-1.2.19-.39.36-.98.09-1.58-.35-.75-1.31-1.2-2.33-1.08l-.06-.53c1.25-.14,2.43.43,2.88,1.39.28.61.25,1.34-.09,2.04-.31.62-.85,1.17-1.4,1.44-.34.17-.72.25-1.12.25Z"/>
  <path class="cls-2" d="m128.35,204.93c-.92,0-1.71-.25-2.14-.42l-6.48.1v-.53s6.58-.1,6.58-.1l.05.02c.62.25,2.21.76,3.76,0,.44-.21.91-.54,1.28-.89.64-.61.93-1.24.8-1.73-.19-.68-1.11-1-1.46-1.12-1.58-.54-3.11.25-3.69.62l-.28-.45c.65-.41,2.35-1.3,4.14-.68.42.15,1.53.53,1.8,1.48.19.69-.15,1.49-.95,2.26-.41.4-.92.75-1.42.99-.68.33-1.37.45-2,.45Z"/>
  <path class="cls-2" d="m118.12,168.65l-.05-.26h-.27s0-.22,0-.22l.22-.05c.79-.15,1.57-.38,2.31-.7,1.61-.67,3.08-1.72,4.26-3.02l.4.36c-1.23,1.36-2.76,2.46-4.45,3.16-.78.33-1.59.57-2.42.73Z"/>
  <path class="cls-2" d="m28.64,192.6c-4.18-10.85-11.02-30.9-9.84-43.31.23-2.39.7-7.35,4.14-9.42,3.18-1.92,7.26-.43,9.96.56,2.89,1.06,5.53,2.73,7.84,4.96l-.37.38c-2.26-2.18-4.84-3.81-7.66-4.84-2.6-.96-6.54-2.4-9.51-.61-3.2,1.93-3.66,6.72-3.88,9.02-1.18,12.31,5.64,32.27,9.8,43.07l-.5.19Z"/>
  <path class="cls-2" d="m63.77,206.23l-.19-1.38c-.47-3.41-1.25-6.75-2.3-9.93-1.96-5.89-3.25-6.38-3.61-6.39h0c-.24,0-.8.29-2.88,2.46-.99,1.03-1.95,2.09-2.84,3.16l-.21.25-.2-.25c-.44-.53-.93-1.01-1.47-1.4-.54-.39-1.13-.71-1.74-.95l.19-.5c.66.25,1.29.6,1.87,1.02.49.36.95.78,1.36,1.25.85-1,1.74-1.99,2.66-2.95,2.34-2.44,2.89-2.61,3.28-2.62,1.24.04,2.62,2.31,4.1,6.75.93,2.81,1.65,5.75,2.13,8.74.88-3.12,2.16-6.03,3.82-8.66,1.63-2.59,3.04-4.82,5.17-4.84,1.67-.03,3.34,1.39,4.72,3.94,1.18,2.19,1.23,4.41,1.03,5.99,1.28-1.9,2.5-3.74,3.63-5.48l.04-.06c.92-1.42,1.72-2.65,2.77-2.55,1.13.1,1.81,1.68,2.14,2.44.33.75.53,1.55.58,2.38,1.13-1.77,3.18-4.41,5.06-4.03,2.15.41,3.46,4.51,3.3,9.98,1.02-2.29,2.41-4.35,4.16-6.13,2.89-2.95,6.11-4.45,8.31-5.18l.17.5c-2.14.72-5.28,2.18-8.1,5.05-2.07,2.12-3.63,4.62-4.64,7.46l-.68,1.9.16-2.01c.51-6.48-1.01-10.7-2.78-11.04-1.52-.3-3.58,2.17-4.99,4.58l-.55.94.06-1.09c.06-1.09-.13-2.13-.55-3.08-.27-.61-.89-2.05-1.7-2.12-.75-.07-1.45,1.03-2.27,2.31l-.04.06c-1.34,2.07-2.8,4.27-4.35,6.55l-.84,1.23.36-1.45c.35-1.4.71-4.17-.74-6.88-1.28-2.37-2.78-3.67-4.23-3.67h-.02c-1.83.02-3.17,2.13-4.72,4.59-1.85,2.94-3.23,6.22-4.09,9.76l-.33,1.36Z"/>
  <path class="cls-2" d="m52.48,102.24c-.13-.99-.58-2.92-2.14-4.64-1.6-1.77-3.52-2.4-4.52-2.62l.11-.52c1.06.23,3.1.9,4.8,2.78,1.66,1.83,2.14,3.88,2.28,4.93l-.53.07Z"/>
  <path class="cls-2" d="m77.95,108.37h-.05c-1.42,0-2.81-.26-4.14-.75l.19-.5c1.27.47,2.6.71,3.96.72,1.28,0,2.52-.2,3.72-.6l.17.5c-1.24.42-2.53.63-3.84.63Z"/>
  <path class="cls-2" d="m101.92,102.48l-.53-.07c.14-1.05.62-3.1,2.28-4.93,1.7-1.88,3.74-2.55,4.8-2.78l.11.52c-1,.22-2.92.85-4.52,2.62-1.56,1.73-2.01,3.65-2.14,4.64Z"/>
  <path class="cls-2" d="m50.12,85.65c-8.89,0-16.13-7.24-16.13-16.13s7.24-16.13,16.13-16.13,16.13,7.24,16.13,16.13-7.24,16.13-16.13,16.13Zm0-31.73c-8.6,0-15.6,7-15.6,15.6s7,15.6,15.6,15.6,15.6-7,15.6-15.6-7-15.6-15.6-15.6Z"/>
  <path class="cls-2" d="m51.53,76.89c-3.13,0-5.68-2.55-5.68-5.68s2.55-5.68,5.68-5.68,5.68,2.55,5.68,5.68-2.55,5.68-5.68,5.68Zm0-10.83c-2.84,0-5.15,2.31-5.15,5.15s2.31,5.15,5.15,5.15,5.15-2.31,5.15-5.15-2.31-5.15-5.15-5.15Z"/>
  <path class="cls-2" d="m41.64,71.76c-3.57,0-6.48-2.91-6.48-6.48s2.91-6.48,6.48-6.48,6.48,2.91,6.48,6.48-2.91,6.48-6.48,6.48Zm0-12.43c-3.28,0-5.95,2.67-5.95,5.95s2.67,5.95,5.95,5.95,5.95-2.67,5.95-5.95-2.67-5.95-5.95-5.95Z"/>
  <path class="cls-2" d="m105.1,86.05c-8.89,0-16.13-7.24-16.13-16.13s7.24-16.13,16.13-16.13,16.13,7.24,16.13,16.13-7.24,16.13-16.13,16.13Zm0-31.73c-8.6,0-15.6,7-15.6,15.6s7,15.6,15.6,15.6,15.6-7,15.6-15.6-7-15.6-15.6-15.6Z"/>
  <path class="cls-2" d="m106.51,77.29c-3.13,0-5.68-2.55-5.68-5.68s2.55-5.68,5.68-5.68,5.68,2.55,5.68,5.68-2.55,5.68-5.68,5.68Zm0-10.83c-2.84,0-5.15,2.31-5.15,5.15s2.31,5.15,5.15,5.15,5.15-2.31,5.15-5.15-2.31-5.15-5.15-5.15Z"/>
  <path class="cls-2" d="m96.62,72.16c-3.57,0-6.48-2.91-6.48-6.48s2.91-6.48,6.48-6.48,6.48,2.91,6.48,6.48-2.91,6.48-6.48,6.48Zm0-12.43c-3.28,0-5.95,2.67-5.95,5.95s2.67,5.95,5.95,5.95,5.95-2.67,5.95-5.95-2.67-5.95-5.95-5.95Z"/>
  <path class="cls-2" d="m56.02,92.21c6.94-4.69,10.87-13.36,9.73-21.69,0,0,.19-.02.19-.02,1.27,8.43-2.61,17.28-9.61,22.15,0,0-.3-.44-.3-.44h0Z"/>
  <path class="cls-2" d="m98.7,90.52c-6.53-4.57-10.41-12.62-9.76-20.57,0,0,.17.01.17.01-.52,7.86,3.39,15.72,9.88,20.12,0,0-.3.44-.3.44h0Z"/>
  <path class="cls-2" d="m90.9,67.49l-.5-.17.06-.18c.03-.08.05-.16.08-.23l.5.18c-.02.07-.05.14-.07.22l-.06.19Z"/>
  <path class="cls-2" d="m77.64,96.58h-.11c-1.38,0-3-.02-4.87-.26-.9-.12-1.73-.27-2.54-.46-1.68-.39-3.31-.96-4.83-1.69-.44-.21-.81-.39-1.14-.58-1.59-.86-3.09-1.91-4.46-3.12-.22-.19-.42-.37-.61-.56l.37-.38c.19.18.38.36.59.54,1.34,1.18,2.81,2.21,4.36,3.05.33.18.68.36,1.12.56,1.49.71,3.08,1.27,4.72,1.65.8.18,1.61.33,2.49.45,1.83.23,3.44.25,4.8.25h.11c.1,0,.2,0,.3,0,1.63,0,3.28-.15,4.91-.41,1.38-.22,2.73-.53,4.02-.92.69-.21,1.19-.38,1.49-.48.98-.35,1.97-.77,2.93-1.23,1.59-.76,3.1-1.66,4.51-2.66.44-.31.89-.65,1.38-1.03l.33.42c-.5.39-.96.73-1.4,1.05-1.43,1.02-2.97,1.93-4.59,2.71-.97.47-1.97.89-2.98,1.25-.3.11-.81.29-1.52.49-1.31.39-2.69.71-4.09.93-1.66.27-3.33.41-4.98.42-.1,0-.2,0-.32,0Z"/>
  <path class="cls-2" d="m76.85,104.64c-.98,0-2.16-.05-3.43-.24-1.73-.25-3.35-.71-4.84-1.36-2.01-.89-3.77-2.14-5.23-3.72-2.13-2.29-3.57-5.24-4.18-8.53-.07-.36-.12-.7-.16-1.03l.53-.07c.04.32.09.66.16,1,.6,3.23,1.96,6.01,4.05,8.26,1.41,1.53,3.12,2.74,5.06,3.6,1.44.63,3.02,1.07,4.7,1.32,2.41.36,4.49.22,5.49.16h.09c.92-.07,2.64-.18,4.75-.75,1.59-.43,3.09-1.04,4.45-1.8,1.7-.95,3.22-2.17,4.52-3.62,1.68-1.88,2.95-4.08,3.77-6.54.2-.59.37-1.22.52-1.87l.52.12c-.15.66-.33,1.31-.53,1.92-.84,2.53-2.14,4.79-3.88,6.72-1.34,1.49-2.91,2.74-4.66,3.72-1.4.79-2.93,1.41-4.57,1.85-2.16.58-3.98.71-4.85.76h-.09c-.49.04-1.25.09-2.17.09Z"/>
  <polygon class="cls-2" points="73.21 104.23 71.55 99.95 68.88 102.97 68.48 102.62 71.74 98.94 73.7 104.04 73.21 104.23"/>
  <polygon class="cls-2" points="73.21 104.23 71.55 99.95 68.88 102.97 68.48 102.62 71.74 98.94 73.7 104.04 73.21 104.23"/>
  <polygon class="cls-2" points="84.14 103.63 83.64 103.44 85.66 98.2 88.6 101.53 88.2 101.88 85.84 99.21 84.14 103.63"/>
  <polygon class="cls-2" points="89.96 98.45 86.76 95.15 87.14 94.78 89.73 97.45 91.15 93.15 91.66 93.32 89.96 98.45"/>
  <polygon class="cls-2" points="66.31 99.21 65.14 94 65.66 93.88 66.64 98.24 70.01 95.4 70.35 95.81 66.31 99.21"/>
  <path class="cls-2" d="m75.05,99.59c-.06,0-.13,0-.19-.01-1.03-.13-2.23-1.47-2.43-3.49l.53-.05c.18,1.73,1.16,2.91,1.97,3.01.78.1,2-.76,2.62-2.32v-.02c.06-.15.11-.31.16-.47l.51.15c-.04.15-.09.3-.14.45l-.02.06c-.7,1.79-2.02,2.69-3,2.69Z"/>
  <path class="cls-2" d="m80.54,99.54c-.99,0-2.32-.94-2.98-2.65l-.02-.05c-.06-.14-.11-.3-.15-.46l.52-.13c.04.15.09.3.15.44l.02.06c.61,1.52,1.82,2.36,2.59,2.26.85-.1,1.84-1.38,1.98-3.13l.53.04c-.16,2.1-1.37,3.48-2.44,3.61-.06,0-.12.01-.18.01Z"/>
  <path class="cls-2" d="m38.87,164.77c-1.4-.08-2.77-.39-4.07-.94-1.69-.7-3.23-1.8-4.45-3.16l.4-.35c1.17,1.31,2.64,2.35,4.25,3.03,1.24.52,2.55.82,3.89.9l-.03.53Z"/>
  <path class="cls-2" d="m126.09,194.54l-.5-.2c4.28-10.77,11.28-30.68,10.08-42.97-.22-2.26-.68-6.95-3.88-8.84-2.97-1.76-6.9-.35-9.51.59-2.11.76-4.09,1.86-5.91,3.26l-.33-.42c1.86-1.44,3.9-2.57,6.05-3.34,2.7-.97,6.77-2.44,9.96-.55,3.43,2.03,3.91,6.91,4.13,9.25,1.21,12.4-5.82,32.4-10.12,43.22Z"/>
  <path class="cls-2" d="m20.43,196.7l-.32-.43c2.4-1.76,6.24-3.9,10.92-4.14.82-.05,1.68-.03,2.53.05,1.92.19,3.81.71,5.61,1.55l-.22.48c-1.75-.81-3.58-1.31-5.44-1.5-.82-.08-1.65-.1-2.44-.05-4.55.23-8.3,2.32-10.64,4.04Z"/>
  <path class="cls-2" d="m18.77,201.41c-.89,0-1.67-.3-2.1-.87-.69-.9-.45-2.33.19-3.19.73-.99,2.1-1.43,3.47-1.12.41.09.81.24,1.18.47l-.27.46c-.33-.19-.68-.33-1.03-.41-1.17-.26-2.32.1-2.93.92-.58.79-.67,1.93-.19,2.55.49.64,1.83.96,3.36.29l.21.49c-.64.28-1.29.42-1.89.42Z"/>
  <path class="cls-2" d="m22.84,202.55c-.4,0-.78-.08-1.12-.25-.55-.27-1.09-.82-1.4-1.44-.35-.7-.38-1.43-.09-2.04.45-.96,1.63-1.53,2.88-1.39l-.06.53c-1.02-.12-1.98.33-2.33,1.08-.28.59-.1,1.19.09,1.58.26.52.7.98,1.16,1.2.88.42,2.16.11,3.19-.78l.07-.07h.1v.27s.17.2.17.2c-.83.72-1.78,1.1-2.65,1.1Z"/>
  <path class="cls-2" d="m28.54,202.88c-.63,0-1.32-.11-2-.45-.5-.24-1-.59-1.42-.99-.8-.76-1.13-1.56-.95-2.25.27-.95,1.38-1.33,1.79-1.48,1.81-.62,3.5.27,4.15.67l-.28.45c-.58-.37-2.11-1.16-3.69-.62-.35.12-1.27.44-1.46,1.12-.13.48.16,1.12.8,1.73.37.36.84.68,1.28.9,1.54.75,3.14.24,3.76,0l.05-.02,6.58.1v.53s-6.48-.1-6.48-.1c-.43.17-1.21.42-2.14.42Z"/>
</svg>