<?xml version="1.0" encoding="UTF-8"?>
<svg id="Layer_1" data-name="Layer 1" xmlns="http://www.w3.org/2000/svg" width="212" height="65.84" viewBox="0 0 212 65.84">
  <defs>
    <style>
      .cls-1 {
        fill: #fff;
        stroke: #231f20;
        stroke-width: .25px;
      }

      .cls-2 {
        fill: #3b3328;
      }

      .cls-2, .cls-3, .cls-4 {
        stroke-width: 0px;
      }

      .cls-3 {
        fill: #1a0000;
      }

      .cls-4 {
        fill: #231f20;
      }
    </style>
  </defs>
  <g>
    <path class="cls-3" d="m211.68,58.99c.03,1.47.06,2.93.09,4.4v.05l-3.12,2.04c-68.43.04-136.87.09-205.3.13l-3.15-1.76v-8.91c2.57-.02,4.65-.12,6.1-.2,3.41-.2,3.26-.33,4.7-.28,2.08.07,3.37.39,4.17-.14.41-.27.65-.74.43-1.07-.17-.26-.65-.48-3.53-.65-1.02-.06-1.86-.11-2.55-.14-1.27-.07-2.03-.09-2.47-.07-.8.04-1.71.13-2.13-.22-.27-.21-.29-.54-.22-.79.14-.45.65-.5.75-.86.01-.06.02-.12,0-.18-.04-.32-.41-.65-.78-.85-.03-.01-.05-.03-.08-.04-.86-.43-1.62-.11-2.78-.5-.57-.19-.95-.46-1.17-.65-.04-7.52-.07-15.04-.11-22.56h0c2.88-.04,5.21-.06,6.84-.07,3.12-.02,3.9-.01,5.66-.07,2.61-.09,2.62-.18,3.95-.14.94.02,1.59,0,2.88-.07.96-.05,1.64-.1,1.93-.43.2-.23.14-.5.11-.62,0,0-.09-.42-.61-.79-.12-.08-.46-.16-1.01-.23-2.66-.35-10.09-.54-19.65-.54v-9.32c2.8-.63,4.56-1.32,5.59-1.79.52-.24,1.14-.55,1.11-.93-.04-.42-.84-.71-1.53-.93-.05-.01-.09-.03-.14-.04-1.11-.36-1.73-.27-3.34-.56-.73-.13-1.32-.27-1.67-.37-.05-2.17-.09-4.34-.14-6.52h.04c70.36.05,140.71.1,211.07.15h.09c-.04.48-.09,1.15-.09,1.95v.37c0,.47,0,.95,0,1.32v.09c0,.38,0,.63,0,.63,0,1.16.02,1.58-.1,1.8-.04.08-.1.13-.18.19-.58.4-1.62.35-3.33.25-1.54-.09-2.04-.29-3.14-.12-.24.03-1.59.24-1.66.68-.06.37.8.69.92.74,1.17.45,2.26.17,4.07.13.78-.02,1.92,0,3.33.19.09,7.28.17,14.58.26,21.86,0,.68.01,1.36.02,2.05-.53.04-1.37.11-2.41.19-2.01.14-2.28.13-3.14.25-.29.04-.8.13-1.28.21h0c-.5.09-.96.18-1.21.23-.14.08-1.12.61-.93,1.05.06.14.24.25.51.35.24.09.58.17.97.27,1.16.29,1.65.23,1.85.5.21.26,0,.69-.37.93-.47.32-.98.18-2.68.37-.06,0-.13.01-.19.02h0c-1.09.14-1.54.28-1.83.41-.27.11-1.1.47-1.02.8.05.22.47.36,1.76.62,1.7.35,3.13.54,4.07.68.17.02,1.37.2,2.49.37,1.42.22,2.56.42,3.3.55,0,0,.02,0,.03,0-.06,4.34-.12,8.67-.19,13.01-3.02.07-5.49.17-7.21.25-5.48.26-5.71.42-8.23.37-.22,0-.45,0-.66,0h0c-1.13.01-2.25.1-3.37.08,0,0-.01,0-.02,0-.01,0-.03,0-.04,0,0,0-.01,0-.01,0,0,0-.02,0-.03,0,0,0-.01,0-.01,0t-.01,0c-.15,0-.3,0-.45-.02-.35-.02-.75-.05-1.18-.04h-.03c-.6.01-1.24.09-1.84.35-.18.08-.88.39-.83.74.03.22.32.44,1.2.68,1.96.53,3.85.29,5.74.25,2.15-.05,1.81.22,6.38.5,1.82.11,2.19.08,5,.19,2.47.1,4.48.2,5.78.28Z"/>
    <path class="cls-4" d="m3.3,65.84l-3.3-1.84v-9.29h.19c2.67-.03,4.78-.13,6.09-.2,1.53-.09,2.36-.17,2.91-.22.69-.06,1-.09,1.81-.07.57.02,1.09.06,1.55.09,1.16.09,2,.15,2.53-.21.22-.14.38-.35.41-.53.01-.07,0-.13-.03-.18-.17-.26-1.19-.43-3.39-.56l-2.55-.14c-1.33-.07-2.04-.09-2.46-.07h-.22c-.78.06-1.59.11-2.03-.26-.35-.28-.4-.74-.29-1.08.1-.31.32-.47.5-.6.12-.08.23-.16.25-.25v-.03s0-.04,0-.04c-.02-.17-.26-.45-.66-.67l-.05-.03c-.44-.22-.84-.24-1.29-.27-.43-.02-.92-.05-1.5-.24-.45-.15-.87-.38-1.23-.68l-.09-.07-.11-22.93h.19c2.89-.04,5.22-.06,6.84-.07h1.85c1.69-.02,2.46-.03,3.81-.07,1.12-.04,1.77-.08,2.24-.11.62-.04.96-.06,1.72-.04.91.02,1.53,0,2.77-.07h.1c.76-.04,1.55-.08,1.81-.37.1-.11.09-.23.06-.37,0-.02-.09-.35-.52-.66-.03-.02-.19-.1-.94-.2-2.57-.34-9.91-.54-19.63-.54h-.19v-9.76l.16-.04c2.17-.49,4.04-1.09,5.56-1.78.91-.41,1-.62.99-.68-.02-.18-.48-.43-1.39-.73-.05-.01-.09-.03-.14-.04-.64-.21-1.12-.26-1.73-.33-.43-.05-.92-.1-1.58-.22-.74-.13-1.32-.28-1.68-.37l-.14-.04v-.19c-.03-1.09-.05-2.19-.08-3.28-.02-1.08-.05-2.16-.07-3.24v-.24s.19,0,.19,0l211.42.15-.03.26c-.04.42-.09,1.09-.09,1.92v.37c0,.47,0,.95,0,1.32v.09c0,.37,0,.63,0,.63v.28c0,1.04.01,1.38-.13,1.65-.06.11-.14.19-.24.26-.63.44-1.68.38-3.43.27-.53-.03-.94-.07-1.29-.11-.68-.07-1.12-.12-1.82-.01-.94.14-1.44.37-1.5.5h0s.12.2.78.46c.83.32,1.6.27,2.66.19.41-.03.85-.06,1.35-.07,1.13-.03,2.23.03,3.35.19l.17.02v.21s.29,24.14.29,24.14h-.18c-.53.06-1.37.13-2.41.2-.64.04-1.1.07-1.46.1-.77.05-1.08.07-1.67.15-.29.04-.8.12-1.27.21-.5.09-.97.18-1.21.23-.47.26-.75.54-.79.68.01.06.08.15.39.26.21.07.5.15.83.23l.13.03c.44.11.78.17,1.06.22.46.08.72.12.89.35.1.13.15.31.13.5-.04.29-.24.6-.54.8-.34.23-.69.25-1.32.28-.36.02-.82.05-1.44.12l-.19.02c-1.09.14-1.52.28-1.8.4-.82.34-.9.55-.9.55.1.1,1.12.31,1.61.41,1.51.31,2.8.5,3.74.63l.38.06c.3.04,1.4.2,2.44.36,1.39.21,2.51.41,3.26.54h.07s.19.01.19.01l-.02.24c-.03,2.16-.06,4.32-.09,6.48-.03,2.18-.06,4.35-.09,6.53v.23s-.19,0-.19,0c-2.46.06-4.89.14-7.2.25-2.25.1-3.62.19-4.61.26-1.42.09-2.13.14-3.63.11-.22,0-.44,0-.66,0-.47,0-.93.02-1.38.04-.64.02-1.29.05-1.95.04l-.04.03-.03-.02-.03.02h0s0,0,0,0h-.03s-.02,0-.02,0l-.05-.03c-.14,0-.28,0-.42-.02h-.15c-.3-.03-.63-.04-1.02-.04-.75.02-1.31.13-1.81.34-.66.28-.71.48-.71.49,0,0,.07.21,1.05.48,1.54.42,3.06.35,4.54.28.38-.02.77-.03,1.15-.04,1.09-.03,1.56.03,2.34.13.76.1,1.81.23,4.05.36,1.05.06,1.61.08,2.45.1.61.02,1.36.04,2.54.08,2.54.1,4.55.21,5.78.28h.18s.09,4.78.09,4.78l-.1.12-3.21,2.07c-68.43.04-136.87.09-205.3.12h-.04Zm-2.92-2.15l3,1.67c68.41-.04,136.81-.08,205.22-.12l2.98-1.95-.08-4.08c-1.24-.07-3.18-.17-5.6-.27-1.18-.05-1.93-.07-2.53-.08-.85-.02-1.41-.04-2.46-.1-2.26-.14-3.31-.27-4.07-.37-.78-.1-1.21-.15-2.29-.13-.38,0-.76.03-1.14.04-1.5.06-3.05.14-4.64-.29-.91-.25-1.3-.5-1.35-.88-.07-.5.51-.81.96-1,.53-.23,1.14-.35,1.9-.36.42,0,.76.02,1.07.04h.15c.14.02.28.02.42.03l.04-.03h0s0,0,0,0h.01s.01,0,.01,0h0s0,0,0,0l.03.02h.02s.02,0,.02,0c.66.02,1.32-.01,1.96-.04.46-.02.92-.04,1.38-.04.22,0,.45,0,.67,0,1.48.03,2.15-.01,3.6-.11,1-.06,2.37-.15,4.62-.26,2.26-.11,4.63-.19,7.03-.25.03-2.1.06-4.2.09-6.3.03-2.09.06-4.18.09-6.27-.74-.13-1.83-.32-3.16-.53-1.03-.16-2.13-.32-2.43-.36l-.38-.06c-.94-.14-2.23-.33-3.75-.64-1.43-.29-1.83-.42-1.91-.79-.12-.49.51-.83,1.14-1.09.3-.13.76-.28,1.87-.42l.2-.02c.63-.07,1.09-.1,1.46-.12.59-.03.89-.05,1.15-.23.22-.15.33-.34.35-.46,0-.04,0-.07-.03-.1-.08-.1-.31-.15-.67-.21-.28-.05-.63-.11-1.08-.22l-.13-.03c-.34-.09-.63-.16-.86-.24-.35-.12-.53-.26-.62-.46-.06-.13-.07-.27-.03-.41.11-.41.63-.75,1.04-.98.29-.06.76-.15,1.25-.24.49-.08,1-.16,1.29-.21.6-.08.92-.1,1.69-.15.36-.02.82-.05,1.46-.1.92-.07,1.69-.13,2.23-.17l-.28-23.47c-1.05-.14-2.07-.19-3.14-.17-.5.01-.94.04-1.34.07-1.06.08-1.9.13-2.79-.21-.79-.31-1.12-.63-1.05-1.02.03-.15.1-.62,1.82-.86.74-.11,1.22-.06,1.9,0,.35.04.75.08,1.28.11,1.62.1,2.69.16,3.23-.21.06-.04.09-.07.12-.12.08-.14.07-.55.07-1.37v-.28s0-.25,0-.62v-.1c0-.38,0-.86,0-1.33v-.37c0-.59.03-1.16.07-1.71L.71,2.52c.02,1,.05,2,.07,2.99.02,1.03.04,2.06.07,3.1.35.09.87.22,1.51.33.65.12,1.13.17,1.56.22.63.07,1.12.13,1.8.35l.13.04c.89.29,1.63.58,1.68,1.14.04.55-.59.88-1.24,1.18-1.51.68-3.35,1.28-5.47,1.77v8.89c9.78,0,16.88.21,19.48.55.78.1.99.19,1.09.26.57.41.69.88.7.94.03.15.11.54-.17.85-.33.38-.99.44-2.05.49h-.1c-1.25.06-1.87.09-2.8.07-.75-.02-1.07,0-1.7.04-.47.03-1.12.07-2.25.11-1.35.04-2.12.05-3.81.06h-1.85c-1.59.02-3.86.04-6.65.08l.11,22.2c.31.23.65.42,1.03.55.54.18.98.2,1.41.23.47.02.91.05,1.39.28l.05.02c.23.12.85.5.93,1.05.03.08.01.21,0,.29-.07.26-.26.4-.42.52-.14.1-.28.2-.33.36-.02.07-.08.32.14.5.34.28,1.12.23,1.8.19h.22c.43-.03,1.15-.02,2.49.05l2.55.14c3.07.18,3.46.42,3.67.73.11.17.15.37.11.58-.05.32-.28.64-.6.86-.62.42-1.51.35-2.73.26-.46-.03-.97-.07-1.54-.09-.79-.03-1.09,0-1.77.07-.55.05-1.38.13-2.92.22-1.28.08-3.33.17-5.92.2v8.52Zm211.33-21.34h0s0,0,0,0Z"/>
    <path class="cls-2" d="m211.68,56.94c.04,2.14.09,4.28.13,6.42v.08h-.12c-70.51.04-141,.08-211.5.13v-10.67c2.57-.02,4.65-.12,6.1-.2,1.85-.11,2.65-.2,3.22-.25.49-.04.82-.06,1.48-.04,2.08.07,3.37.39,4.17-.14.41-.27.65-.74.43-1.07-.17-.26-.65-.48-3.53-.64-2.9-.17-4.35-.26-5.02-.22-.55.03-1.14.08-1.6,0-.22-.04-.4-.11-.53-.22-.22-.17-.27-.41-.24-.63,0-.05.01-.11.03-.15.14-.45.65-.5.75-.86.11-.4-.4-.84-.86-1.07-.86-.42-1.62-.11-2.78-.5-.57-.19-.95-.46-1.17-.65-.04-6.84-.06-13.67-.1-20.51,0-.68,0-1.36,0-2.04,2.88-.04,5.22-.06,6.84-.07,3.12-.02,3.9,0,5.66-.07,2.61-.09,2.62-.18,3.95-.14.94.02,1.59,0,2.88-.07.14,0,.29-.01.42-.02.74-.04,1.27-.13,1.51-.4.2-.23.14-.5.11-.62,0,0-.09-.42-.61-.79-.68-.49-9.12-.77-20.67-.78v-9.32c2.45-.55,4.11-1.15,5.18-1.61.15-.06.29-.13.42-.18.52-.23,1.14-.55,1.11-.93-.04-.44-.95-.74-1.67-.98-1.11-.36-1.73-.26-3.34-.56-.73-.13-1.32-.28-1.67-.37-.04-1.49-.06-2.99-.1-4.48-.01-.68-.03-1.36-.04-2.04,70.4.05,140.8.1,211.21.15-.04.48-.09,1.15-.09,1.95v.1c0,.7,0,1.49,0,1.95v.37c0,.64.01,1.05,0,1.32v.09c-.03.33-.11.44-.27.56-.58.41-1.62.35-3.33.25-1.54-.09-2.04-.29-3.14-.13-.24.04-1.59.25-1.66.68-.06.37.8.7.92.75,1.17.45,2.26.17,4.07.13.78-.02,1.91,0,3.32.18h0c.09,7.97.19,15.94.28,23.91h-.02c-.53.05-1.37.12-2.39.19-2.01.14-2.28.13-3.14.25-.6.08-2.01.34-2.49.43-.14.08-1.12.61-.93,1.05.12.28.65.41,1.48.62.25.06.47.11.65.14h0c.69.13,1.03.14,1.19.35.21.26,0,.68-.37.92-.45.31-.93.19-2.45.35-.07,0-.15.01-.23.02-1.24.14-1.73.3-2.03.43-.27.11-1.1.46-1.02.8.05.22.47.36,1.76.62.38.08.75.15,1.09.21h0c1.21.23,2.24.37,2.97.47.17.02,1.37.2,2.49.37,1.43.22,2.59.42,3.33.56,0,.68-.02,1.36-.03,2.04-.06,3.66-.1,7.31-.16,10.97-3.02.07-5.49.16-7.21.25-5.48.26-5.71.42-8.23.37-1.54-.03-3.08.15-4.62.06-.83-.05-2.01-.14-3.05.31-.18.08-.88.39-.83.75.03.21.32.44,1.2.68.5.13.98.22,1.47.27h.03c.55.06,1.09.07,1.63.06t.01,0s0,0,.01,0c0,0,.02,0,.03,0,0,0,0,0,.01,0,0,0,.02,0,.04,0,0,0,.01,0,.02,0,.83,0,1.65-.06,2.47-.08.36,0,.65,0,.9,0h0c1.27.04,1.67.26,5.47.49,1.82.11,2.19.08,5,.19,2.47.1,4.48.21,5.78.28Z"/>
    <path class="cls-4" d="m0,63.79v-11.14h.19c2.02-.02,4.01-.08,6.09-.2,1.54-.09,2.36-.17,2.91-.22l.31-.03c.52-.05.86-.07,1.5-.04.57.02,1.08.06,1.53.09,1.17.09,2.01.15,2.54-.21.22-.14.38-.35.41-.53.01-.07,0-.13-.03-.19-.17-.26-1.19-.43-3.39-.55l-.33-.02c-2.69-.16-4.04-.24-4.68-.2h-.24c-.49.04-.99.07-1.4,0-.27-.05-.47-.13-.61-.26-.25-.19-.37-.52-.32-.87.01-.07.02-.14.04-.2.1-.32.32-.48.5-.6.12-.08.23-.16.25-.25.05-.17-.25-.53-.75-.78-.42-.2-.81-.22-1.26-.25-.43-.02-.92-.05-1.5-.24-.46-.16-.89-.39-1.23-.68l-.08-.07-.05-9.84c-.02-3.6-.03-7.2-.05-10.8,0-.34,0-.68,0-1.02,0-.34,0-.68,0-1.02v-.23h.19c2.88-.05,5.22-.07,6.85-.07h1.67c1.84-.02,2.6-.02,3.99-.07,1.12-.04,1.76-.08,2.23-.11.62-.04.96-.06,1.73-.04.96.02,1.64,0,2.87-.07.14,0,.29-.01.41-.02.6-.04,1.18-.1,1.39-.34.1-.11.09-.23.06-.37,0-.02-.09-.35-.52-.66-.51-.37-7.07-.74-20.57-.74h-.19v-9.76l.16-.04c1.99-.45,3.73-.99,5.15-1.6.11-.05.21-.09.31-.14l.1-.05c.93-.42.99-.63.99-.68-.02-.28-1.08-.62-1.53-.77-.64-.21-1.12-.26-1.72-.33-.43-.05-.93-.1-1.59-.22-.72-.13-1.3-.28-1.68-.37l-.15-.04v-.19c-.02-.79-.04-1.57-.06-2.36L.32,0h.19l211.42.15-.03.26c-.04.42-.09,1.09-.09,1.92v.1c0,.7,0,1.49,0,1.94v.54c0,.55.01.92,0,1.19v.07c-.03.4-.13.6-.37.77-.62.44-1.66.38-3.38.29h-.05c-.52-.03-.93-.08-1.28-.12-.68-.07-1.12-.12-1.83-.01-1.36.22-1.5.5-1.5.5.02.03.19.23.79.46.82.32,1.6.26,2.66.19.41-.03.85-.06,1.36-.07,1.08-.03,2.21.03,3.35.19h.19v.23s.27,24.15.27,24.15h-.19c-.54.05-1.38.11-2.4.19-.69.05-1.18.08-1.55.1-.72.05-1.02.06-1.58.14-.6.08-2.01.34-2.49.43-.39.22-.74.51-.79.68.08.2.68.36,1.31.52.29.07.5.11.68.15.16.03.29.05.4.07.47.08.73.13.9.35.1.13.15.31.13.5-.04.3-.24.59-.54.8-.34.23-.68.25-1.31.28-.31.02-.7.04-1.21.09-.07,0-.13.01-.19.02-1.25.14-1.72.29-2.02.43-.82.34-.9.54-.9.55.1.11,1.16.32,1.61.41.38.08.75.15,1.09.21,1.07.2,1.97.33,2.69.43l.36.05c.33.05,1.41.2,2.42.36,1.44.22,2.61.43,3.33.56l.17.03v.21c0,.34-.01.68-.02,1.02,0,.34-.01.68-.01,1.02-.03,1.83-.05,3.67-.08,5.5-.03,1.82-.05,3.65-.08,5.48v.23s-.19,0-.19,0c-3.15.07-5.66.17-7.2.25-2.25.1-3.62.19-4.61.26-1.42.09-2.13.14-3.63.11-.68-.01-1.36.01-2.02.04-.85.03-1.73.07-2.61.02h-.13c-.79-.05-1.89-.12-2.85.3-.67.3-.71.48-.71.49,0,0,.08.22,1.05.48.47.12.95.21,1.45.26.51.05,1.02.08,1.61.06l.04-.03h0s0,0,0,0h.01s.01,0,.01,0h0s0,0,0,0l.03.02h.02s.02,0,.02,0c.45,0,.91-.02,1.36-.04.36-.01.72-.03,1.09-.04.36,0,.65,0,.91,0,.53.02.91.06,1.43.13.76.1,1.81.23,4.05.36,1.04.06,1.6.08,2.43.1.61.02,1.36.04,2.56.09,2.32.09,4.22.19,5.78.28h.18s.13,6.97.13,6.97h-.3c-70.39.04-140.76.08-211.15.12h-.54Zm.38-10.67v10.2h.16c70.36-.04,140.71-.09,211.08-.12l-.12-6.03c-1.52-.09-3.37-.18-5.6-.27-1.19-.05-1.94-.07-2.56-.09-.84-.02-1.4-.04-2.44-.1-2.26-.14-3.31-.27-4.07-.36-.51-.06-.88-.11-1.39-.13-.26-.01-.54-.01-.9,0-.36,0-.72.02-1.08.04-.45.02-.9.04-1.35.04l-.05.03-.03-.02-.03.02h0s0,0,0,0h-.03s-.02,0-.02,0l-.05-.03c-.58,0-1.12-.01-1.61-.06-.55-.06-1.04-.15-1.52-.27-.91-.25-1.3-.5-1.35-.87-.07-.48.47-.79.94-1,1.05-.45,2.18-.39,3.01-.34h.13c.86.06,1.73.02,2.58-.01.67-.03,1.36-.05,2.04-.04,1.47.03,2.14-.02,3.6-.11,1-.06,2.37-.15,4.62-.26,1.52-.07,3.96-.17,7.03-.24.03-1.75.05-3.5.08-5.24.03-1.83.05-3.67.08-5.5,0-.34,0-.68.01-1.02,0-.27,0-.54.01-.81-.73-.13-1.83-.32-3.16-.53-1.01-.16-2.09-.31-2.41-.36l-.36-.05c-.72-.1-1.63-.23-2.7-.43-.35-.06-.72-.14-1.1-.21-1.49-.3-1.83-.44-1.91-.79-.12-.5.51-.83,1.14-1.09.32-.14.82-.3,2.08-.45.1-.01.17-.02.24-.02.51-.05.91-.08,1.22-.09.61-.04.89-.05,1.15-.23.22-.15.33-.34.35-.45,0-.04,0-.07-.03-.1-.08-.11-.32-.15-.68-.21-.12-.02-.25-.04-.4-.07-.2-.04-.41-.08-.67-.15-.95-.24-1.45-.37-1.61-.74-.05-.13-.06-.27-.03-.41.12-.43.71-.8,1.04-.98.52-.11,1.94-.37,2.55-.45.57-.08.89-.1,1.6-.14.37-.02.86-.06,1.55-.11.93-.06,1.69-.13,2.23-.17l-.28-23.47c-1.09-.14-2.13-.19-3.14-.16-.5.01-.94.04-1.35.07-1.06.07-1.9.13-2.78-.21-.79-.31-1.12-.64-1.05-1.03.05-.27.29-.62,1.81-.86.76-.11,1.25-.06,1.93,0,.34.04.74.08,1.26.11h.05c1.6.09,2.65.15,3.18-.22.11-.08.16-.12.18-.38v-.07c.02-.26.01-.62,0-1.16v-.54c0-.45,0-1.24,0-1.95v-.1c0-.7.04-1.29.07-1.71L.71.47l.09,3.92c.02.72.03,1.45.05,2.17.37.09.89.22,1.51.33.66.12,1.14.17,1.57.22.62.07,1.12.12,1.78.34,1.03.34,1.76.62,1.81,1.18.04.56-.62.9-1.24,1.18l-.1.05c-.1.04-.2.09-.32.14-1.4.6-3.1,1.13-5.05,1.58v8.89c4.82,0,19.56.07,20.57.81.57.41.69.88.7.94.03.15.11.54-.17.86-.29.33-.81.42-1.63.47-.13,0-.27.02-.42.02-1.23.06-1.93.09-2.89.07-.75-.02-1.07,0-1.7.04-.47.03-1.12.07-2.24.11-1.4.05-2.16.05-4,.06h-1.67c-1.59.02-3.86.04-6.66.08,0,.26,0,.52,0,.78,0,.34,0,.68,0,1.02.02,3.6.04,7.2.05,10.8l.05,9.58c.22.17.56.39,1.03.55.54.18.99.2,1.42.23.47.02.91.05,1.39.28.54.27,1.12.79.97,1.37-.07.26-.25.39-.42.51-.14.1-.28.2-.33.36,0,.03-.01.07-.02.11-.01.11,0,.27.16.39.1.09.25.15.46.18.38.06.86.04,1.33.01h.24c.66-.05,2.01.03,4.71.18l.33.02c3.07.17,3.46.41,3.67.73.11.17.15.37.11.58-.05.32-.28.64-.6.85-.63.42-1.52.35-2.74.26-.45-.03-.96-.07-1.52-.09-.63-.02-.95,0-1.46.04l-.31.03c-.55.05-1.37.13-2.92.22-2.02.11-3.96.18-5.92.2Z"/>
  </g>
  <g>
    <path class="cls-1" d="m99.69,40.06c-.42.23-.88.34-1.39.34-.61,0-1.31-.11-2.1-.34-.71-.21-1.24-.43-1.61-.65,0-.03.03-.29.08-.78.04-.37.04-.65,0-.82-.18-.79-.39-1.47-.63-2.04-.52-1-1.25-2.41-2.18-4.24-.24-.47-.9-1.51-2-3.12-1.28-1.89-2.05-2.83-2.31-2.83-.43,0-1.34,2.19-2.73,6.56-.62,1.95-1.51,4.33-2.69,7.12-.14.34-.46.51-.96.51-.42,0-.88-.2-1.37-.61-.54-.45-.8-.9-.8-1.36,0-.13.15-.51.45-1.13.3-.62.45-1.01.45-1.18,0-.71-1.1-2.54-3.3-5.5-2.12-2.86-3.31-4.29-3.55-4.29-.3,0-.76.73-1.37,2.18-.3.79-.61,1.57-.92,2.35-.67,1.63-1.34,3.25-2.02,4.86-.88,2.05-1.77,3.63-2.67,4.74-.2.26-.66.39-1.39.39-.43,0-.77-.1-1-.29-.34-.3-.67-.62-1-.94-.44-.4-1.05-.91-1.83-1.54.26-.13.43-.19.49-.19l.06.02h.1c.14,0,.35,0,.61-.02.32-.02.51-.02.59-.02.24,0,.42-.14.55-.44.63-1.44,1.65-3.86,3.06-7.27,3.1-7.8,5.33-11.7,6.69-11.7.39,0,.9.19,1.53.56.68.42,1.02.81,1.02,1.16,0,.13-.21.63-.64,1.5s-.64,1.37-.64,1.5c0,.45,1.06,2.02,3.18,4.7,1.74,2.21,2.88,3.59,3.41,4.14.26-.14.52-.54.79-1.19.17-.48.34-.97.51-1.45.82-2.29,1.65-4.59,2.47-6.88,1.33-3.55,2.27-5.33,2.81-5.33.3,0,.84.4,1.63,1.2.79.8,1.18,1.43,1.18,1.88,0,.16-.21.63-.63,1.4-.58,1.02-.92,1.66-1.02,1.91l11.11,16.54v.56Z"/>
    <path class="cls-1" d="m112.76,26.98c0,.31-.13.6-.39.9-.26.29-.5.44-.71.44-.17,0-.31-.14-.41-.41-.12-.35-.26-.61-.43-.75-.21-.18-.55-.35-1.03-.51-.48-.16-.89-.24-1.23-.24-.69,0-1.37.27-2.04.8-.75.59-1.32,1.39-1.73,2.39-.21.52-.31.83-.31.94-.03.48.15.72.53.72h2.1s.17.02.43.07c.26.05.41.07.45.07h3.02c.75,0,1.12.22,1.12.65,0,.23-.18.49-.55.8-.31.26-.54.42-.69.48-.09.05-.2.07-.31.07-.07,0-.26-.12-.57-.35-.31-.23-.58-.35-.79-.35h-3s-.38.05-1.06.1c-.51.03-.77.14-.79.32-.03.29-.04.49-.04.59.04.26.08.64.14,1.13.11,1.11.63,2.06,1.57,2.84.84.69,1.65,1.03,2.43,1.03.25,0,.94-.18,2.08-.53.09-.03.35-.16.77-.39.35-.18.61-.27.77-.27.17,0,.25.11.25.34,0,.19-.14.44-.43.75-.25.24-.47.42-.67.53-.46.26-1.18.6-2.16,1.02-.37.11-.73.17-1.1.17-.68,0-1.29-.08-1.83-.24-.11-.02-.6-.28-1.47-.8-1.06-.6-1.86-1.57-2.39-2.91-.43-1.08-.65-2.26-.65-3.54,0-.71.12-1.52.37-2.42.34-1.29.9-2.37,1.69-3.22.54-.57,1.1-1.02,1.69-1.36.14-.08.6-.26,1.35-.53.69-.24,1.4-.36,2.12-.36.8,0,1.58.14,2.34.41,1.03.37,1.55.91,1.55,1.62Z"/>
    <path class="cls-1" d="m131.74,39.51c0,.18-.14.32-.43.44-.22.08-.43.12-.63.12h-.84c-.24,0-.48-.07-.73-.19-.3-.18-.47-.42-.51-.73.01-.31-.03-.73-.12-1.28-.09-.21-.34-.4-.75-.56-.33-.11-.65-.23-.98-.34-.46-.21-1.12-.54-1.98-.99-.93-.55-1.61-.96-2.04-1.24-.88-.57-1.61-1.07-2.2-1.53-.34-.39-.76-.79-1.26-1.21-.22-.02-.33.19-.33.6v5.33c0,1.42-.92,2.13-2.75,2.13-.31,0-.52-.11-.63-.34v-3.27l.39-7c0-.11,0-.29.02-.55.01-.25.02-.45.02-.59,0-1.28-.36-2.04-1.08-2.28v-.36c1.31-.55,2.14-.82,2.49-.82s.65.16.86.48c.56.97,1.51,2.58,2.85,4.82.64,1.03,1.82,2.25,3.53,3.66,1.66,1.36,2.78,2.06,3.36,2.11.33.03.49-.32.49-1.07,0-1.89-.2-4.8-.61-8.74-.03-.18-.22-.57-.57-1.16.18-.18.44-.27.78-.27.47,0,.92.08,1.36.24.39.15.61.29.67.44.56,1.68.89,4.13.98,7.34-.01,1,0,2.49.06,4.48.04.81.14,1.38.31,1.73.17.35.26.54.26.59Z"/>
    <path class="cls-1" d="m149.58,39.19c-.12.16-.24.27-.37.32-1.53.6-2.41.9-2.63.9-.5,0-.8-.45-.9-1.36-.01-.06-.06-.09-.14-.07-.16.03-.26.05-.3.05s-.2.07-.49.19c-.33.16-.56.26-.71.29-1.5.44-2.6.65-3.28.65-.04,0-.12.01-.25.04s-.21.04-.26.04c-1.07,0-2.08-.27-3.02-.82-.99-.58-1.74-1.39-2.24-2.42-.64-1.32-.96-2.63-.96-3.92,0-.89.16-1.77.49-2.64.26-.68.73-1.6,1.39-2.76.01-.06.05-.19.12-.36.01-.06.02-.12.02-.17,0-.21-.24-.26-.73-.14-.1.02-.16-.04-.18-.17l.06-.22c.13-.14.39-.31.78-.48.48-.22,1.18-.47,2.1-.73.79-.21,1.24-.32,1.36-.32.34,0,.51.11.51.34,0,.18-.08.33-.26.46-1.02.68-1.69,1.69-2.02,3.03-.42,1.66-.63,2.95-.63,3.85,0,1.79.37,3.21,1.12,4.26.81,1.13,1.96,1.7,3.45,1.7.67,0,1.39-.1,2.18-.29,1.11-.26,1.7-.61,1.77-1.07.02-.18.03-.48.02-.9-.03-.55-.04-.78-.04-.68,0-.05-.03-.61-.08-1.68-.05-1.07-.08-1.64-.08-1.68l-.04-1.65s-.02-.26-.06-.68c-.03-.55-.05-1.1-.08-1.65-.07-.71-.17-1.25-.3-1.62-.08-.19-.26-.29-.55-.29-.04,0-.14.02-.3.06-.16.04-.26.06-.29.06-.33,0-.49-.12-.49-.35,0-.08.04-.19.13-.31.08-.13.17-.2.25-.24.39-.13.96-.28,1.71-.45.64-.15,1.01-.22,1.12-.22.54,0,.84.41.92,1.24.26,2.74.46,5.22.59,7.46.07.73.16,1.94.27,3.62.03.26.09.62.2,1.07.09.23.27.36.53.41.2.03.39.06.57.1v.22Z"/>
  </g>
</svg>