<?xml version="1.0" encoding="UTF-8"?>
<svg id="Layer_1" data-name="Layer 1" xmlns="http://www.w3.org/2000/svg" width="170" height="175" viewBox="0 0 170 175">
  <defs>
    <style>
      .cls-1 {
        fill: #231f20;
      }

      .cls-1, .cls-2, .cls-3 {
        stroke-width: 0px;
      }

      .cls-2 {
        fill: #a0741c;
      }

      .cls-3 {
        fill: #fddb2d;
      }
    </style>
  </defs>
  <path class="cls-1" d="m130.12,146.85h-.12c-11.26-.38-21.08-6.61-30.57-12.64-13.65-8.67-26.03-20.3-36.8-34.58-6.53-8.66-13.94-18.48-19.33-29.47-6.26-12.76-8.49-24.52-6.82-35.97l.02-.12.12-.02c3.07-.62,6.46-.63,11.02-.04,23.53,3.03,42.07,17.15,45.55,19.95,12.4,9.99,19.24,20.12,23.32,26.17,4.3,6.37,10.2,15.1,13.8,28.19,1.31,4.76,3.3,11.95,2.66,21.6h-.18s.18,0,.18,0h-.18s.18.02.18.02c-.35,5.27-.78,11.83-2.79,16.8l-.05.12ZM36.81,34.37c-1.62,11.33.6,22.99,6.8,35.64,5.38,10.96,12.77,20.77,19.3,29.42,10.74,14.24,23.09,25.85,36.71,34.49,9.42,5.98,19.16,12.16,30.27,12.58,1.95-4.9,2.38-11.37,2.72-16.57v-.02c.63-9.59-1.34-16.75-2.65-21.48-3.59-13.03-9.46-21.73-13.75-28.08-4.07-6.04-10.89-16.14-23.25-26.09-3.46-2.79-21.93-16.85-45.37-19.88-4.45-.57-7.78-.57-10.78.01Z"/>
  <path class="cls-2" d="m158.45,133.44c-4.39,5.75-12.81,11.23-22.04,12.79-2.19.37-4.32.5-6.41.43,2.01-4.95,2.44-11.52,2.78-16.77.62-9.41-1.27-16.52-2.66-21.54-3.52-12.8-9.27-21.46-13.78-28.14-4.3-6.37-11.15-16.36-23.29-26.13-2.64-2.13-21.28-16.8-45.46-19.91-3.9-.5-7.53-.65-10.96.04.06-.43.13-.87.2-1.3.78-4.52,2.53-13.94,10.03-21.72,5.41-5.61,12.13-8.62,18.41-10.19,9.1.72,17.08,3.43,23.38,5.59,0,0,44.92,15.38,69.42,69.91,8.09,22.87,9.49,44.98.35,56.93Z"/>
  <path class="cls-1" d="m131.08,146.86c-.36,0-.72,0-1.08-.02h-.25s.1-.24.1-.24c1.99-4.92,2.42-11.44,2.77-16.69.63-9.61-1.34-16.77-2.65-21.51-3.59-13.03-9.46-21.73-13.75-28.08-4.07-6.04-10.89-16.14-23.25-26.09-3.46-2.79-21.93-16.85-45.37-19.88-4.51-.58-7.88-.57-10.9.04l-.25.05.04-.25c.06-.44.13-.87.2-1.31.72-4.14,2.39-13.84,10.08-21.81,4.73-4.91,10.95-8.35,18.5-10.23h.03s.03,0,.03,0c9.18.72,17.08,3.43,23.43,5.6.11.04,11.42,3.98,25.57,14.53,13.06,9.74,31.28,27.27,43.95,55.47,4.14,11.7,6.44,22.98,6.65,32.63.11,5.05-.34,9.66-1.35,13.7-1.06,4.23-2.73,7.85-4.97,10.78-4.85,6.36-13.55,11.4-22.15,12.86-1.78.3-3.58.45-5.36.45Zm-.82-.37c2.03.06,4.08-.09,6.12-.44,8.52-1.44,17.12-6.44,21.92-12.73h0c4.37-5.72,6.47-13.88,6.24-24.26-.21-9.62-2.5-20.86-6.63-32.51-12.63-28.12-30.81-45.61-43.83-55.32-14.11-10.52-25.36-14.44-25.48-14.48-6.32-2.17-14.19-4.86-23.31-5.58-7.46,1.87-13.62,5.28-18.3,10.13-7.61,7.89-9.27,17.52-9.98,21.63-.06.35-.12.7-.17,1.05,3-.57,6.34-.56,10.77,0,23.53,3.03,42.07,17.15,45.55,19.95,12.4,9.99,19.24,20.12,23.32,26.17,4.3,6.37,10.2,15.1,13.8,28.19,1.31,4.76,3.3,11.95,2.66,21.6-.34,5.21-.77,11.65-2.7,16.59Z"/>
  <path class="cls-3" d="m158.85,144.8c-10.43,15.63-25.27,21.78-31.25,24.16-15.58,6.21-29.12,5.34-33.94,4.97-36.25-2.74-67.06-32.34-81.21-62.99-5.3-11.47-17-36.84-7.24-65.23,1.96-5.71,11.45-33.3,39.37-42.35,7.33-2.38,14.3-2.86,20.71-2.36-6.29,1.57-13,4.57-18.41,10.19-7.5,7.78-9.25,17.2-10.03,21.72-.07.44-.14.87-.2,1.3-3.75,25.71,13.18,48.16,26.12,65.31,13.74,18.21,27.3,28.53,36.76,34.53,9.9,6.29,19.53,12.24,30.48,12.61,2.09.07,4.22-.06,6.41-.43,9.23-1.56,17.65-7.05,22.04-12.79,9.13-11.94,7.74-34.06-.35-56.93,3.07,6.83,5.81,14.28,8.11,22.38,2.85,10.06,2.39,17.5,2.17,20.04-1.16,13.09-7.12,22.26-9.53,25.87Z"/>
  <path class="cls-1" d="m99.93,174.35c-2.08,0-4.17-.08-6.28-.24-37.39-2.83-67.8-33.72-81.35-63.09-2.58-5.59-6.9-14.95-9.28-26.31C.15,71.04.83,57.9,5.04,45.66,12.45,24.13,26.47,9.05,44.53,3.2c6.68-2.17,13.48-2.94,20.78-2.37l1.09.09-1.06.26c-7.48,1.87-13.64,5.28-18.33,10.14-7.61,7.89-9.27,17.52-9.98,21.63-.07.43-.14.86-.2,1.3-1.66,11.37.56,23.07,6.79,35.76,5.38,10.96,12.77,20.77,19.3,29.42,10.74,14.24,23.09,25.85,36.71,34.49,9.45,6,19.23,12.21,30.4,12.58,2.11.07,4.25-.07,6.37-.43,8.52-1.44,17.12-6.44,21.92-12.73,4.37-5.72,6.47-13.88,6.24-24.26-.21-9.62-2.5-20.86-6.63-32.51l.33-.13c3.18,7.09,5.92,14.63,8.12,22.4,1.96,6.93,2.72,13.88,2.17,20.11-1.18,13.4-7.49,22.84-9.56,25.95h0c-10.67,16-26.22,22.19-31.33,24.22-8.72,3.48-18.02,5.23-27.74,5.23ZM60.72,1c-5.56,0-10.86.84-16.09,2.53C26.69,9.35,12.75,24.35,5.38,45.77c-4.19,12.18-4.87,25.26-2.02,38.87,2.37,11.32,6.68,20.65,9.25,26.23,13.51,29.27,43.81,60.07,81.06,62.88,11.94.91,23.33-.76,33.86-4.96,5.08-2.02,20.55-8.19,31.17-24.09h0c8.32-12.48,9.21-22.49,9.5-25.78.54-6.18-.21-13.09-2.16-19.98-1.8-6.34-3.95-12.52-6.41-18.43,3.27,10.23,5.09,20.03,5.28,28.56.23,10.46-1.89,18.69-6.32,24.48-4.85,6.36-13.55,11.4-22.15,12.86-2.15.36-4.31.51-6.44.43-11.26-.38-21.08-6.61-30.57-12.64-13.65-8.67-26.03-20.3-36.8-34.58-6.53-8.66-13.94-18.48-19.33-29.47-6.26-12.76-8.49-24.52-6.82-35.97.06-.43.13-.87.2-1.31.72-4.14,2.39-13.84,10.08-21.81,4.51-4.68,10.38-8.03,17.45-9.96-1.17-.07-2.33-.11-3.48-.11Z"/>
  <path class="cls-1" d="m130.12,146.85h-.12c-11.26-.38-21.08-6.61-30.57-12.64-13.65-8.67-26.03-20.3-36.8-34.58-6.53-8.66-13.94-18.48-19.33-29.47-6.26-12.76-8.49-24.52-6.82-35.97l.02-.12.12-.02c3.07-.62,6.46-.63,11.02-.04,23.53,3.03,42.07,17.15,45.55,19.95,12.4,9.99,19.24,20.12,23.32,26.17,4.3,6.37,10.2,15.1,13.8,28.19,1.31,4.76,3.3,11.95,2.66,21.6-.35,5.3-.78,11.85-2.8,16.82l-.05.12ZM36.81,34.37c-1.62,11.33.6,22.99,6.8,35.64,5.38,10.96,12.77,20.77,19.3,29.42,10.74,14.24,23.09,25.85,36.71,34.49,9.42,5.98,19.16,12.16,30.27,12.58,1.95-4.9,2.38-11.37,2.72-16.57.63-9.61-1.34-16.77-2.65-21.51-3.59-13.03-9.46-21.73-13.75-28.08-4.07-6.04-10.89-16.14-23.25-26.09-3.46-2.79-21.93-16.85-45.37-19.88-4.45-.57-7.78-.57-10.78.01Z"/>
</svg>