<?xml version="1.0" encoding="UTF-8"?>
<svg id="Layer_1" data-name="Layer 1" xmlns="http://www.w3.org/2000/svg" width="280.97" height="417.89" viewBox="0 0 280.97 417.89">
  <defs>
    <style>
      .cls-1, .cls-2, .cls-3, .cls-4, .cls-5, .cls-6, .cls-7, .cls-8, .cls-9, .cls-10, .cls-11, .cls-12, .cls-13, .cls-14, .cls-15, .cls-16, .cls-17 {
        stroke-width: 0px;
      }

      .cls-1, .cls-18 {
        fill: none;
      }

      .cls-19 {
        fill: #fddb2d;
      }

      .cls-19, .cls-20, .cls-18 {
        stroke: #231f20;
        stroke-miterlimit: 10;
        stroke-width: .5px;
      }

      .cls-20 {
        fill: #f6b232;
      }

      .cls-2 {
        fill: #754c29;
      }

      .cls-3 {
        fill: #2c5d2d;
      }

      .cls-4 {
        fill: #305a64;
      }

      .cls-5 {
        fill: #3c3328;
      }

      .cls-6 {
        fill: #182c17;
      }

      .cls-7 {
        fill: #231f20;
      }

      .cls-8 {
        fill: #234044;
      }

      .cls-9 {
        fill: #c49a6c;
      }

      .cls-10 {
        fill: #b1411a;
      }

      .cls-11 {
        fill: #a97c50;
      }

      .cls-12 {
        fill: #a15d34;
      }

      .cls-13 {
        fill: #ffdbac;
      }

      .cls-14 {
        fill: #fff;
      }

      .cls-15 {
        fill: #fff4e0;
      }

      .cls-16 {
        fill: #003e1a;
      }

      .cls-17 {
        fill: #006838;
      }
    </style>
  </defs>
  <path class="cls-7" d="m49.72,375.37c-7.64-1.63-15.42-3.49-23.12-5.53l-.2-.05v-.2c-.31-21.9-.31-44.11,0-66.01.15-10.61.37-21.87.98-32.31l.53.02c-.61,10.45-.83,21.7-.98,32.3-.3,21.83-.3,43.97,0,65.79,7.63,2.02,15.33,3.86,22.9,5.47l-.11.52Z"/>
  <path class="cls-7" d="m148.9,385.77c-13.82,0-27.57-.58-40.94-1.72-5.77-.49-11.63-1.1-17.41-1.82l.07-.53c5.78.71,11.63,1.33,17.39,1.81,14.54,1.24,29.54,1.82,44.58,1.7v.53c-1.23,0-2.46.01-3.69.01Z"/>
  <path class="cls-16" d="m58.77,172.11c-6.77,9.01-14.42,21.93-21.31,40.73-6.3,17.19-8.71,32.97-10.23,70.74-.9,22.34-1.46,51.62-.43,86.25,32.54,8.63,60.47,12.42,81.31,14.2,41.48,3.54,75,.79,97.39-1.13,13-1.12,23.78-2.43,31.25-3.43,1.61-40.99-.95-75.04-4.06-100.27-4.21-34.09-9.88-55.74-11.77-62.72-5.19-19.15-7.99-34.33-14.83-44.69-48.22.49-99.1-.17-147.32.32Z"/>
  <path class="cls-1" d="m108.34,192.55c-3.56-.53-6.95-1.14-10.17-1.83"/>
  <path class="cls-1" d="m121.83,193.97c-2.27-.14-4.48-.33-6.65-.56"/>
  <path class="cls-1" d="m156.85,192.37h0c3.55-.55,6.94-1.2,10.16-1.91"/>
  <path class="cls-1" d="m149.51,193.35c-2.2.24-4.46.44-6.77.59"/>
  <path class="cls-4" d="m74.76,189.99c-3.61,7.19-7.21,15.34-10.49,24.42-5.21,14.46-8.34,27.82-10.25,39.31-2.9-.92-5.81-1.83-8.71-2.75,1.06-9.45,3.52-22.26,9.48-36.42,4.71-11.19,10.29-20.1,15.16-26.74,1.6.73,3.2,1.46,4.8,2.19Z"/>
  <path class="cls-7" d="m54.24,254.07l-9.21-2.91.02-.22c1.41-12.59,4.61-24.87,9.5-36.5,3.99-9.47,9.1-18.49,15.2-26.79l.13-.17,5.25,2.39-.12.25c-3.96,7.89-7.49,16.1-10.47,24.39-4.58,12.7-8.02,25.9-10.23,39.26l-.05.3Zm-8.64-3.28l8.21,2.59c2.22-13.29,5.65-26.42,10.21-39.05,2.97-8.23,6.46-16.37,10.38-24.2l-4.35-1.98c-6.01,8.23-11.06,17.14-15.01,26.51-4.85,11.51-8.02,23.67-9.44,36.13Z"/>
  <path class="cls-4" d="m79.48,191.9c-3.23,8.32-6.37,17.47-9.21,27.43-3.76,13.2-6.34,25.54-8.11,36.7,3.16.8,6.32,1.6,9.49,2.4,1.46-10.95,3.64-23.01,6.88-35.89,2.48-9.86,5.27-18.97,8.17-27.29-2.4-1.12-4.81-2.24-7.21-3.36Z"/>
  <path class="cls-7" d="m71.87,258.77l-10.01-2.53.04-.24c1.96-12.35,4.69-24.71,8.12-36.74,2.64-9.25,5.74-18.48,9.22-27.45l.1-.27,7.68,3.58-.08.23c-3.11,8.93-5.86,18.1-8.16,27.26-2.96,11.76-5.27,23.83-6.87,35.86l-.04.3Zm-9.41-2.93l8.96,2.27c1.6-11.95,3.91-23.94,6.85-35.62,2.29-9.1,5.01-18.21,8.09-27.08l-6.73-3.14c-3.44,8.87-6.5,18-9.1,27.14-3.4,11.92-6.11,24.18-8.06,36.43Z"/>
  <path class="cls-4" d="m94.36,196.8c-2.08,7.54-4.04,15.51-5.8,23.91-3,14.29-5.01,27.77-6.31,40.23,3.45.63,6.9,1.26,10.35,1.89,1.08-12.65,2.67-26.02,4.92-40.03,1.35-8.37,2.85-16.43,4.46-24.18-2.54-.61-5.07-1.21-7.61-1.82Z"/>
  <path class="cls-7" d="m92.83,263.14l-10.88-1.98.03-.25c1.41-13.47,3.53-27.02,6.32-40.26,1.68-8,3.63-16.05,5.81-23.92l.07-.25,8.11,1.94-.05.25c-1.66,7.98-3.16,16.11-4.45,24.17-2.13,13.21-3.78,26.67-4.92,40.01l-.02.29Zm-10.3-2.42l9.82,1.79c1.14-13.25,2.79-26.63,4.9-39.75,1.28-7.98,2.77-16.03,4.41-23.94l-7.11-1.7c-2.14,7.79-4.07,15.74-5.73,23.64-2.76,13.14-4.88,26.59-6.28,39.96Z"/>
  <path class="cls-4" d="m109.37,200.25c-.9,7.99-1.78,16.04-2.63,24.13-1.4,13.38-2.7,26.63-3.89,39.76,2.99.35,5.98.69,8.98,1.04.58-11.88,1.3-23.98,2.18-36.28.66-9.33,1.4-18.53,2.2-27.59-2.28-.35-4.55-.71-6.83-1.06Z"/>
  <path class="cls-7" d="m112.07,265.49l-9.52-1.1.02-.26c1.2-13.19,2.51-26.57,3.89-39.76.84-8.02,1.73-16.14,2.63-24.14l.03-.28,7.35,1.14-.02.25c-.81,9.15-1.55,18.43-2.2,27.59-.86,12.03-1.59,24.23-2.18,36.28v.28Zm-8.94-1.57l8.43.98c.59-11.95,1.31-24.07,2.16-36,.65-9.08,1.38-18.28,2.18-27.35l-6.31-.98c-.89,7.9-1.77,15.93-2.6,23.86-1.37,13.11-2.68,26.39-3.87,39.5Z"/>
  <path class="cls-4" d="m189.15,188.36c3.9,8.11,7.83,17.69,11.14,28.69,4.88,16.22,7.01,30.9,7.87,42.84,2.87-.66,5.75-1.31,8.62-1.97-.58-11.03-2.56-25.93-8.48-42.58-4.24-11.94-9.43-21.73-14.18-29.31-1.66.78-3.31,1.56-4.97,2.34Z"/>
  <path class="cls-7" d="m207.91,260.21l-.02-.31c-1.04-14.51-3.68-28.91-7.86-42.78-2.94-9.78-6.68-19.42-11.12-28.65l-.12-.24,5.43-2.55.13.2c5.78,9.25,10.56,19.13,14.2,29.37,4.87,13.7,7.73,28.05,8.49,42.65v.22s-9.13,2.09-9.13,2.09Zm-18.4-71.73c4.4,9.18,8.11,18.76,11.03,28.48,4.15,13.81,6.8,28.14,7.86,42.59l8.1-1.85c-.78-14.47-3.62-28.7-8.45-42.28-3.6-10.13-8.32-19.91-14.03-29.06l-4.51,2.12Z"/>
  <path class="cls-4" d="m183.37,190.99c3.12,8.97,6.12,18.94,8.68,29.85,3.51,14.91,5.54,28.69,6.67,40.91-3.03.5-6.06,1.01-9.09,1.51-.7-12.49-2.3-26.66-5.46-42.04-2.11-10.26-4.62-19.7-7.3-28.25,2.17-.66,4.33-1.33,6.5-1.99Z"/>
  <path class="cls-7" d="m189.39,263.58l-.02-.3c-.79-14.08-2.63-28.21-5.46-42-1.95-9.48-4.4-18.97-7.29-28.22l-.08-.26,7-2.15.08.24c3.4,9.77,6.33,19.82,8.69,29.88,3.16,13.42,5.4,27.2,6.68,40.95l.02.25-9.63,1.6Zm-12.18-70.42c2.86,9.18,5.3,18.61,7.23,28.02,2.82,13.72,4.65,27.77,5.45,41.78l8.55-1.42c-1.27-13.64-3.51-27.31-6.64-40.63-2.34-9.96-5.23-19.91-8.59-29.59l-6,1.84Z"/>
  <path class="cls-4" d="m169.69,195.23c2.13,9.28,4.11,19.11,5.83,29.46,2.34,14.04,3.94,27.36,5,39.82-2.95.32-5.9.63-8.85.95-.48-11.96-1.54-24.97-3.46-38.84-1.45-10.49-3.24-20.36-5.22-29.54,2.23-.61,4.46-1.23,6.69-1.84Z"/>
  <path class="cls-7" d="m171.43,265.75v-.28c-.53-12.94-1.7-26-3.47-38.82-1.36-9.86-3.12-19.79-5.22-29.52l-.05-.25,7.21-1.98.06.27c2.23,9.72,4.2,19.63,5.84,29.47,2.19,13.14,3.88,26.55,5,39.84l.02.26-9.39,1Zm-8.12-68.49c2.08,9.66,3.82,19.52,5.17,29.31,1.76,12.74,2.93,25.72,3.45,38.59l8.3-.89c-1.13-13.2-2.8-26.5-4.98-39.54-1.62-9.74-3.57-19.55-5.77-29.17l-6.18,1.7Z"/>
  <path class="cls-4" d="m156.19,199.28c1.6,8.18,3.02,16.85,4.19,25.98,1.86,14.57,2.79,28.24,3.09,40.8-2.88.15-5.77.31-8.65.46.6-11.59.44-25.13-1.36-40.11-1.14-9.46-2.77-18.14-4.61-25.94,2.45-.4,4.89-.79,7.34-1.19Z"/>
  <path class="cls-7" d="m154.54,266.81l.02-.3c.69-13.35.23-26.83-1.36-40.07-1.04-8.68-2.59-17.4-4.61-25.92l-.07-.28,7.88-1.27.05.25c1.68,8.58,3.09,17.33,4.19,26,1.72,13.49,2.76,27.22,3.09,40.83v.26s-9.2.49-9.2.49Zm-5.36-66.12c1.99,8.45,3.52,17.09,4.55,25.7,1.58,13.17,2.04,26.58,1.38,39.86l8.1-.43c-.34-13.5-1.38-27.13-3.08-40.52-1.09-8.57-2.49-17.22-4.14-25.71l-6.81,1.1Z"/>
  <path class="cls-15" d="m69.41,188.05c-4.53,2.56-11.36,6.85-17.5,13.26-1.63,1.7-8.57,9.09-14.14,21.01-4.06,8.68-5.97,16.73-6.89,22.99.79,2.91,1.99,6.32,3.84,9.95,3.32,6.52,7.43,11.16,10.6,14.17,1.11-5.77,2.21-11.54,3.32-17.31-1.1-.38-2.21-.77-3.31-1.15.4-4.92,1.24-11.22,3.02-18.4,2.34-9.38,5.36-16.47,7-20.05,2.54-5.54,5.26-10.25,9.67-17.89,1.55-2.69,3.5-5.07,4.41-6.58Z"/>
  <path class="cls-8" d="m78.99,192.43c-1.4-.64-2.81-1.27-4.21-1.91-2.04,4.08-3.7,7.7-4.99,10.68-.47,1.07-1.78,4.11-3.36,8.15-.81,2.08-2.03,5.21-3.46,9.41-.38,1.13-1.55,4.61-2.89,9.25-.29.99-1.25,4.38-2.35,8.9-1.03,4.24-1.7,7.49-1.94,8.64-.62,3.04-1.1,5.72-1.46,7.95,2.54.74,5.07,1.49,7.61,2.23.52-3.3,1.03-6.13,1.47-8.38.61-3.16,1.15-5.58,1.56-7.43.63-2.85,1.14-4.96,1.62-6.94.4-1.64,1.2-4.95,2.26-9.02,2.31-8.82,3.46-13.22,5.08-17.64.71-1.93,1.54-4.06,3.3-8.93.76-2.1,1.37-3.83,1.77-4.96Z"/>
  <path class="cls-8" d="m109.02,200.7l-6.9-1.36c-1.27,6.09-2.28,11.5-3.08,16.05-.24,1.38-1.29,7.38-2.46,15.37-1.01,6.87-1.63,11.98-1.78,13.16-.18,1.44-.66,5.45-1.18,10.69-.3,3.01-.54,5.64-.73,7.75,3.24.49,6.48.98,9.72,1.47.61-5.81,1.09-10.54,1.41-13.75.73-7.2.88-8.92,1.55-15.49.38-3.7.43-4.16,1.24-12.11.14-1.33.65-6.41,1.26-12.45.19-1.91.76-7.48.95-9.34Z"/>
  <path class="cls-15" d="m121.77,202.63c-1.79-.24-3.58-.49-5.36-.73-.21,2.51-.43,5.03-.64,7.54.69-1.19,1.66-2.6,2.98-4.04,1.05-1.15,2.1-2.06,3.03-2.77Z"/>
  <path class="cls-15" d="m145.14,201.77c1.18-.24,2.36-.47,3.54-.71.56,2.57,1.13,5.14,1.69,7.71-.16-.92-.61-2.56-2.22-4.39-1.06-1.21-2.25-2.23-3.01-2.61Z"/>
  <path class="cls-15" d="m138.72,214.3c-2.25,3.01-4.59,4.98-6.23,6.16-4.8,3.47-9.45,4.54-11.67,5.02-2.6.57-4.81.73-6.34.77-.56,7.6-1.07,15.29-1.52,23.08-.3,5.21-.57,10.38-.82,15.51,6.7.67,13.86,1.17,21.44,1.4,7.37.23,14.36.19,20.93-.04.55-9.86.36-18.14,0-24.4-.43-7.46-1.19-13.62-1.6-16.92-.58-4.62-1.18-8.55-1.68-11.54-.08,1.51-.39,5.65-1.71,9.2-.28.76-.91,2.3-2.38,3.51-.96.79-1.56.85-1.71.86-1.35.08-2.44-1.26-3.04-2.03-2.54-3.23-3.39-8.48-3.66-10.6Z"/>
  <path class="cls-8" d="m162.91,197.76c-2.14.53-4.28,1.06-6.41,1.58.6,3.2,1.32,7.19,2.08,11.81.51,3.14,1.22,7.54,1.98,13.33.92,7.1,1.42,12.52,1.72,15.84.31,3.48.52,6.42.94,12.31.25,3.62.48,7.02.5,11.53,0,.68,0,1.25,0,1.63,2.57-.18,5.13-.36,7.7-.54-.16-4.16-.43-9.39-.91-15.44-.23-2.91-.87-10.5-2.15-20.32-.56-4.26-1.3-9.92-2.5-16.49-.51-2.79-1.63-8.59-2.57-13.4-.15-.77-.28-1.41-.36-1.84Z"/>
  <path class="cls-8" d="m176.78,193.7c-2.22.69-4.44,1.38-6.65,2.06.77,3.37,1.7,7.6,2.68,12.51.27,1.35,1.4,7.05,2.72,14.81.65,3.86,1.68,9.93,2.75,17.96.97,7.3,1.56,13.23,1.97,17.23.24,2.41.43,4.44.57,5.92,2.85-.39,5.71-.79,8.56-1.18-.22-3.74-.54-8.01-1.02-12.74-.22-2.12-.73-6.91-1.64-13.06-1.34-9.04-2.75-15.83-3.15-17.69-.51-2.4-1.82-8.41-3.93-16.13-1.06-3.87-2.05-7.16-2.84-9.69Z"/>
  <path class="cls-8" d="m189.24,189.03c-1.82.74-3.64,1.48-5.47,2.21,1.19,3.43,2.35,6.99,3.47,10.66.85,2.78,2.8,9.35,4.87,18,2.38,9.97,3.68,17.53,3.95,19.13.27,1.62,1.13,6.77,1.95,13.57.42,3.48.73,6.49.95,8.9,2.96-.6,5.92-1.21,8.88-1.81-.19-2.76-.48-6.12-.95-9.95-.4-3.25-1.07-8.13-2.23-14.01-.61-3.07-2-9.74-4.49-18.1-.83-2.79-2.66-8.88-5.3-15.46-1.01-2.53-2.62-6.3-4.05-9.56-.65-1.48-1.2-2.71-1.59-3.57Z"/>
  <path class="cls-8" d="m93.89,197.38c-2.32-.73-4.63-1.46-6.95-2.2-1.46,4.32-2.89,8.81-4.27,13.45-1.17,3.93-2.84,9.59-4.66,17.16-.51,2.1-1.93,8.12-3.35,15.78-1.1,5.89-1.89,11.15-2.27,13.64-.19,1.25-.34,2.3-.45,3.03,3.37.73,6.73,1.47,10.1,2.2.36-2.76.88-6.68,1.53-11.41.71-5.14,1.06-7.71,1.41-9.94.95-6.14,1.83-10.45,3.35-17.89,1.01-4.94,1.96-9.55,3.48-15.75.81-3.3,1.54-6.06,2.09-8.09Z"/>
  <path class="cls-15" d="m209.04,216.54c5.08-1.52,10.9-3.63,17.11-6.61,5.26-2.52,9.83-5.2,13.72-7.76,2.57-3.82,5.17-8.01,7.7-12.57,1.33-2.4,2.57-4.76,3.7-7.07-2.32-3.34-5.42-7.21-9.5-11.11-5.33-5.1-10.62-8.6-14.87-10.97-3.98,7.45-7.11,12.98-8.53,15.26-.31.5-1,1.57-2,2.88-.87,1.13-1.58,2.05-2.63,2.97-1.33,1.17-2.55,1.76-3.66,2.29-2.1,1.01-3.77,1.38-6.77,2.03-3.24.71-5.92,1.27-7.83,1.67,2.56,4.34,4.59,8.23,6.16,11.44.53,1.1,2.4,4.96,4.56,10.2,1.18,2.87,2.12,5.38,2.84,7.35Z"/>
  <path class="cls-5" d="m48.98,252.41c-1.21,5.54-2.51,12.42-3.58,20.38-1.57,11.73-1.96,20.79-2.08,24.23-.36,10.34.02,18.65.35,23.61.2,3.09.83,11.7,2.6,22.77.38,2.4.74,4.4,1.01,5.83,6.44.94,14.63,1.9,24.16,2.4,8.06.42,14.12.36,18.3.31,17.42-.2,28.97-1.76,31.8-2.15,1.99-.28,3.62-.53,4.71-.71,10.36,3.28,19.49,4.92,26.55,5.78,11.6,1.41,20.51,1.08,25.5.87,11.75-.49,20.8-2.11,25.07-2.95,3.18-.63,5.83-1.26,7.74-1.74,1.14-6.25,2.29-13.73,3.16-22.22.36-3.54,1.18-12.23,1.42-23.54.26-12.25-.28-21.57-.49-24.75-.53-8.33-1.38-15.58-2.22-21.49-6.1,1.45-13.56,3.01-22.15,4.34-9.94,1.54-17.53,2.17-21.98,2.53-11.14.91-19.83,1.05-23.85,1.08-5.15.04-11.72-.04-19.3-.45-14.57-.79-25.86-2.59-30.83-3.36-15.34-2.39-27.11-5.27-32.84-6.85-5.27-1.45-9.71-2.83-13.05-3.92Z"/>
  <path class="cls-13" d="m249.91,180.05c-2-2.52-4.24-5.5-7.19-8.31-2.56-2.44-4.95-4.73-7.26-6.43l2.74-4.25c-.72-.42-1.82-1.1-3.06-2.07-2.07-1.62-6.34-4.95-7.93-10.62-.37-1.31-.98-3.58-.42-6.42,0,0,.3-4.2,4.34-7.13.72-.52,1.33-.96,2.17-1.09,1.94-.3,2.96.77,3.33,1.22.21.25.69,1.27.82,2.47.05.47-.04.58-.33,2.41-.18,1.15.11,1.66.15,2.01.03.24.32,1.79,1.44,2.33.83.4,1.25.15,1.91-.14.89-.39,2.03-1.12,3.83-3.6,1.5-2.07,2.42-3.33,2.92-5.37,0,0,.35-1.42.01-4.56-.02-.2-.07-.6-.37-.92-.31-.34-.71-.42-.83-.45-.63-.11-1,.27-1.69.57-.74.32-1.64.32-3.45.31-1.26,0-1.48-.12-1.61-.21-.8-.54-.82-1.81-.82-2.39,0-3.5,2.93-6.37,3.51-6.94.12-.11,2.43-2.34,5.81-3.31,1.43-.41,2.35-.39,3.16-.17.19.05,1.03.29,1.93,1.03.7.58,2.06,1.97,2.87,5.57.65,2.92.5,5.53.16,10.63-.07,1.04-.14,1.89-.19,2.45.6-.36,1.46-.82,2.56-1.19.81-.27,2.13-.71,3.86-.66,1.15.04,2.14.07,3.07.76.88.66,1.23,1.55,1.39,1.99.86,2.32-.26,4.55-.54,5.06,1.12-.29,2.08-.38,2.78-.41,1.18-.05,2.31.06,3.38.32.79.19,1.2.29,1.52.58.91.8.82,2.21.78,2.9-.09,1.5-.77,2.61-1.2,3.19,1.11-.13,2.03-.04,2.66.07.92.16,1.88.32,2.82,1.05.19.15,1.05.83,1.53,1.99.63,1.53.2,2.94-.5,5.17-.46,1.45-1.05,3.31-2.57,5.35-1.32,1.77-2.66,2.76-4.14,3.85-1.32.96-1.79,1.15-9.94,5.07-1.78.86-4.41,2.12-6.18,2.17-.93.02-1.85.22-2.79.24-.23,0-.62,0-1.09.19-.13.05-.69.29-1.18.9-.64.8-.47,1.38-.94,2.64-.16.42-.74,1.49-1.22,2.18Z"/>
  <path class="cls-13" d="m31.49,247.53c-1.97,1.04-3.56,2.26-4.31,3.08-2.92,3.21-3.73,7.09-3.58,9.25.1,1.35.61,2.58.76,2.96.38.92.63,1.17.85,1.31.97.66,2.35.04,2.6-.08-.26.72-.57,1.81-.66,3.16-.07,1.16-.19,3.07.91,4.94.4.68,1.12,1.9,2.63,2.44,1.22.43,2.32.18,2.8.04-.01.49.03,1.21.3,2.01.93,2.74,3.66,3.85,4.25,4.08,2.7,1.09,5.14.33,5.84.09.45-3.55.89-7.09,1.34-10.64-2.56-2.48-5.3-6.11-8.18-10.83-2.73-4.46-4.49-8.54-5.54-11.82Z"/>
  <path class="cls-13" d="m71.81,351.99c-.11,2.13-.64,9.56-.75,11.69-.05,1-.33,6.62-.38,7.62-2.19-.16-4.61-.16-7.19.1-11.01,1.12-19.11,6.45-23.53,9.99-.43-.42-1.1-1.01-2.03-1.51-.33-.17-1.34-.69-3.35-1-1.81-.29-1.92-.02-4.88-.18-2.11-.12-2.47-.28-3.53-.07-.74.15-1.94.41-2.86,1.45-.25.27-.86.97-.97,2.01-.22,1.95,1.53,3.33,1.66,3.43-1.18.13-2.14.38-2.85.62-1.25.42-1.96.65-2.58,1.35-.27.3-1,1.23-.95,2.45.07,1.63,1.5,2.66,2.34,3.26.55.39,1.63,1.05,3.26,1.29-.36.31-1.07,1.02-1.44,2.15-.13.41-.58,1.76.02,2.97.71,1.44,2.47,1.79,3.97,2.1.9.18,2.45.37,4.4-.06-.42.59-1.02,1.56-1.4,2.88-.31,1.07-.58,1.99-.28,2.99.49,1.59,2.13,2.34,3.01,2.74,2.21,1,4.29.72,5.5.55,2.95-.44,4.97-1.84,5.96-2.54,1.79-1.27,1.66-1.73,3.49-3.31,2.63-2.26,5.25-3.31,7.22-4.09,3.64-1.43,3.6-.62,7.48-1.97,2.18-.76,4.46-1.96,9.01-4.34,3.29-1.73,3.68-2.05,5.28-2.64,3.26-1.2,3.73-.63,6.58-1.68,1.89-.7,4.99-1.84,7.01-4.84.53-.78,1.71-2.55,1.65-4.95-.06-2.38-1.31-4.26-1.81-5.01-.92-1.38-1.35-1.36-1.94-2.51-.5-.97-.65-1.88-.68-4.56-.03-2.77-.05-4.81.36-7.83.25-1.87.72-2.56.84-4.49.09-1.5-.02-2.75-.13-3.6-5.23-.07-10.28-.4-15.51-.46Z"/>
  <path class="cls-13" d="m171.68,356.04c.11,2.13.44,12.15.54,14.27.05,1,.33,6.62.38,7.62,2.19-.16,4.61-.16,7.19.1,11.01,1.12,19.11,6.45,23.53,9.99.43-.42,1.1-1.01,2.03-1.51.33-.17,1.34-.69,3.35-1,1.81-.29,1.92-.02,4.88-.18,2.11-.12,2.47-.28,3.53-.07.74.15,1.94.41,2.86,1.45.25.27.86.97.97,2.01.22,1.95-1.53,3.33-1.66,3.43,1.18.13,2.14.38,2.85.62,1.25.42,1.96.65,2.58,1.35.27.3,1,1.23.95,2.45-.07,1.63-1.5,2.66-2.34,3.26-.55.39-1.63,1.05-3.26,1.29.36.31,1.07,1.02,1.44,2.15.13.41.58,1.76-.02,2.97-.71,1.44-2.47,1.79-3.97,2.1-.9.18-2.45.37-4.4-.06.42.59,1.02,1.56,1.4,2.88.31,1.07.58,1.99.28,2.99-.49,1.59-2.13,2.34-3.01,2.74-2.21,1-4.29.72-5.5.55-2.95-.44-4.97-1.84-5.96-2.54-1.79-1.27-1.66-1.73-3.49-3.31-2.63-2.26-5.25-3.31-7.22-4.09-3.64-1.43-3.6-.62-7.48-1.97-2.18-.76-4.46-1.96-9.01-4.34-3.29-1.73-3.68-2.05-5.28-2.64-3.26-1.2-3.73-.63-6.58-1.68-1.89-.7-4.99-1.84-7.01-4.84-.53-.78-1.71-2.55-1.65-4.95.06-2.38,1.31-4.26,1.81-5.01.92-1.38.76-1.5,1.35-2.65.5-.97,1.24-1.74,1.27-4.42.03-2.77.05-4.81-.36-7.83-.25-1.87-.72-2.56-.84-4.49-.09-1.5-.09-6.36.02-7.21,5.23-.07,10.6.62,15.83.56Z"/>
  <g>
    <path class="cls-12" d="m53.44,384.73c-2.97,0-5.3-1.41-5.3-3.2s2.33-3.2,5.3-3.2,5.3,1.41,5.3,3.2-2.33,3.2-5.3,3.2Zm0-5.87c-2.63,0-4.77,1.2-4.77,2.67s2.14,2.67,4.77,2.67,4.77-1.2,4.77-2.67-2.14-2.67-4.77-2.67Z"/>
    <path class="cls-12" d="m53.44,387.88c-1.04,0-1.86-1.45-1.86-3.31s.82-3.31,1.86-3.31,1.86,1.45,1.86,3.31-.82,3.31-1.86,3.31Zm0-6.08c-.64,0-1.33,1.12-1.33,2.78s.69,2.78,1.33,2.78,1.33-1.12,1.33-2.78-.69-2.78-1.33-2.78Z"/>
    <path class="cls-12" d="m69.12,385.4c-.96,0-2.58-.19-2.58-.92s1.62-.92,2.58-.92,2.58.19,2.58.92-1.62.92-2.58.92Zm-2.03-.92c.14.13.83.39,2.03.39s1.89-.25,2.03-.39c-.14-.13-.83-.39-2.03-.39s-1.89.25-2.03.39Z"/>
    <path class="cls-12" d="m61.09,388.61c-.08,0-.16,0-.23,0-1.8-.07-3.17-.88-3.14-1.84.02-.5.39-.93,1.06-1.23.6-.27,1.39-.4,2.21-.37h0c.82.03,1.6.22,2.18.54.64.35.98.81.96,1.31-.02.5-.39.93-1.06,1.23-.54.25-1.24.38-1.98.38Zm-.34-2.93c-.66,0-1.28.12-1.76.33-.46.21-.73.49-.74.77-.02.56,1.05,1.23,2.63,1.29.75.03,1.44-.09,1.97-.33.46-.21.73-.49.74-.77s-.24-.58-.68-.82c-.51-.28-1.2-.44-1.94-.47h0c-.07,0-.15,0-.22,0Z"/>
    <path class="cls-12" d="m57.35,390.74c-1.45,0-2.58-1.96-2.58-4.47s1.14-4.47,2.58-4.47,2.58,1.96,2.58,4.47-1.14,4.47-2.58,4.47Zm0-8.4c-1.11,0-2.05,1.8-2.05,3.93s.94,3.93,2.05,3.93,2.05-1.8,2.05-3.93-.94-3.93-2.05-3.93Z"/>
    <path class="cls-12" d="m52.03,392.19c-2.18,0-3.96-1.78-3.96-3.96s1.78-3.96,3.96-3.96,3.96,1.78,3.96,3.96-1.78,3.96-3.96,3.96Zm0-7.39c-1.89,0-3.43,1.54-3.43,3.43s1.54,3.43,3.43,3.43,3.43-1.54,3.43-3.43-1.54-3.43-3.43-3.43Z"/>
    <path class="cls-12" d="m48.19,392.34c-2.26,0-4.11-1.84-4.11-4.11s1.84-4.11,4.11-4.11,4.11,1.84,4.11,4.11-1.84,4.11-4.11,4.11Zm0-7.68c-1.97,0-3.57,1.6-3.57,3.57s1.6,3.57,3.57,3.57,3.57-1.6,3.57-3.57-1.6-3.57-3.57-3.57Z"/>
    <path class="cls-12" d="m55.73,394.58c-2.4,0-4.27-.97-4.41-2.4-.16-1.6,1.93-3.08,4.77-3.37,2.83-.29,5.18.75,5.35,2.35.16,1.6-1.93,3.08-4.77,3.37h0c-.32.03-.63.05-.93.05Zm1.25-5.28c-.28,0-.56.01-.84.04-2.45.25-4.42,1.52-4.29,2.79.13,1.26,2.31,2.12,4.76,1.87,2.45-.25,4.42-1.52,4.29-2.79-.11-1.12-1.83-1.91-3.92-1.91Z"/>
    <path class="cls-12" d="m50.89,395.02c-1.7,0-3.09-1.39-3.09-3.09s1.39-3.09,3.09-3.09,3.09,1.39,3.09,3.09-1.39,3.09-3.09,3.09Zm0-5.65c-1.41,0-2.56,1.15-2.56,2.56s1.15,2.56,2.56,2.56,2.56-1.15,2.56-2.56-1.15-2.56-2.56-2.56Z"/>
    <path class="cls-12" d="m64.12,380.13c-2.97,0-5.3-1.41-5.3-3.2s2.33-3.2,5.3-3.2,5.3,1.41,5.3,3.2-2.33,3.2-5.3,3.2Zm0-5.87c-2.63,0-4.77,1.2-4.77,2.67s2.14,2.67,4.77,2.67,4.77-1.2,4.77-2.67-2.14-2.67-4.77-2.67Z"/>
    <path class="cls-12" d="m64.12,383.28c-1.04,0-1.86-1.45-1.86-3.31s.82-3.31,1.86-3.31,1.86,1.45,1.86,3.31-.82,3.31-1.86,3.31Zm0-6.08c-.64,0-1.33,1.12-1.33,2.78s.69,2.78,1.33,2.78,1.33-1.12,1.33-2.78-.69-2.78-1.33-2.78Z"/>
    <path class="cls-12" d="m70.93,388.25c-.96,0-2.58-.19-2.58-.92s1.62-.92,2.58-.92,2.58.19,2.58.92-1.62.92-2.58.92Zm-2.03-.92c.14.13.82.39,2.03.39s1.89-.25,2.03-.39c-.14-.13-.83-.39-2.03-.39s-1.89.25-2.03.39Z"/>
    <path class="cls-12" d="m71.78,384.01c-.08,0-.16,0-.23,0-.82-.03-1.6-.22-2.18-.54-.64-.35-.98-.81-.96-1.31.02-.5.39-.93,1.06-1.23.6-.27,1.38-.4,2.21-.37h0c.82.03,1.6.22,2.18.54.64.35.98.81.96,1.31-.02.5-.39.93-1.06,1.23-.54.25-1.24.38-1.98.38Zm-.34-2.93c-.66,0-1.28.11-1.76.33-.46.21-.73.49-.74.77s.24.58.68.82c.51.28,1.2.44,1.94.47.75.03,1.44-.09,1.97-.33.46-.21.73-.49.74-.77s-.24-.58-.68-.82c-.51-.28-1.2-.44-1.94-.47h0c-.07,0-.15,0-.22,0Z"/>
    <path class="cls-12" d="m68.04,386.14c-1.45,0-2.58-1.96-2.58-4.47s1.14-4.47,2.58-4.47,2.58,1.96,2.58,4.47-1.14,4.47-2.58,4.47Zm0-8.4c-1.11,0-2.05,1.8-2.05,3.94s.94,3.93,2.05,3.93,2.05-1.8,2.05-3.93-.94-3.94-2.05-3.94Z"/>
    <path class="cls-12" d="m62.71,387.59c-2.18,0-3.96-1.78-3.96-3.96s1.78-3.96,3.96-3.96,3.96,1.78,3.96,3.96-1.78,3.96-3.96,3.96Zm0-7.39c-1.89,0-3.43,1.54-3.43,3.43s1.54,3.43,3.43,3.43,3.43-1.54,3.43-3.43-1.54-3.43-3.43-3.43Z"/>
    <path class="cls-12" d="m58.87,387.74c-2.26,0-4.11-1.84-4.11-4.11s1.84-4.11,4.11-4.11,4.11,1.84,4.11,4.11-1.84,4.11-4.11,4.11Zm0-7.68c-1.97,0-3.57,1.6-3.57,3.57s1.6,3.57,3.57,3.57,3.57-1.6,3.57-3.57-1.6-3.57-3.57-3.57Z"/>
    <path class="cls-12" d="m66.43,389.98c-.99,0-1.91-.17-2.68-.48-1.05-.44-1.67-1.12-1.75-1.91-.08-.79.39-1.58,1.33-2.22.89-.61,2.11-1.01,3.44-1.15,1.32-.14,2.6.02,3.59.44,1.05.44,1.67,1.12,1.75,1.91.08.79-.39,1.58-1.33,2.22-.89.61-2.11,1.01-3.44,1.15-.31.03-.62.05-.92.05Zm1.26-5.28c-.28,0-.57.01-.87.04-1.24.12-2.37.5-3.19,1.06-.77.52-1.16,1.14-1.1,1.73.06.59.57,1.12,1.43,1.47.91.38,2.1.52,3.34.4h0c1.24-.12,2.37-.5,3.19-1.06.77-.52,1.16-1.14,1.1-1.73-.06-.59-.57-1.11-1.43-1.47-.7-.29-1.55-.44-2.47-.44Z"/>
    <path class="cls-12" d="m61.57,390.42c-1.7,0-3.09-1.39-3.09-3.09s1.39-3.09,3.09-3.09,3.09,1.39,3.09,3.09-1.39,3.09-3.09,3.09Zm0-5.65c-1.41,0-2.56,1.15-2.56,2.56s1.15,2.56,2.56,2.56,2.56-1.15,2.56-2.56-1.15-2.56-2.56-2.56Z"/>
  </g>
  <g>
    <path class="cls-12" d="m189.78,390.29c-2.97,0-5.3-1.41-5.3-3.2s2.33-3.2,5.3-3.2,5.3,1.41,5.3,3.2-2.33,3.2-5.3,3.2Zm0-5.87c-2.63,0-4.77,1.2-4.77,2.67s2.14,2.67,4.77,2.67,4.77-1.2,4.77-2.67-2.14-2.67-4.77-2.67Z"/>
    <path class="cls-12" d="m189.78,393.44c-1.04,0-1.86-1.45-1.86-3.31s.82-3.31,1.86-3.31,1.86,1.45,1.86,3.31-.82,3.31-1.86,3.31Zm0-6.08c-.64,0-1.33,1.12-1.33,2.78s.69,2.78,1.33,2.78,1.33-1.12,1.33-2.78-.69-2.78-1.33-2.78Z"/>
    <path class="cls-12" d="m174.1,390.95c-.96,0-2.58-.19-2.58-.92s1.62-.92,2.58-.92,2.58.19,2.58.92-1.62.92-2.58.92Zm-2.03-.92c.14.13.83.39,2.03.39s1.89-.25,2.03-.39c-.14-.13-.83-.39-2.03-.39s-1.89.25-2.03.39Z"/>
    <path class="cls-12" d="m182.12,394.17c-.74,0-1.43-.13-1.98-.38-.66-.3-1.04-.74-1.06-1.23s.32-.96.96-1.31c.58-.32,1.35-.51,2.18-.54.83-.02,1.61.1,2.21.37.66.3,1.04.74,1.06,1.23.02.5-.32.96-.96,1.31-.58.32-1.35.51-2.18.54-.08,0-.16,0-.24,0Zm.13-2.92c-.74.03-1.43.2-1.94.47-.44.24-.69.54-.68.82,0,.28.28.56.74.77.53.24,1.23.36,1.97.33.74-.03,1.43-.2,1.94-.47.44-.24.69-.54.68-.82s-.28-.56-.74-.77c-.53-.24-1.23-.36-1.97-.33h0Z"/>
    <path class="cls-12" d="m185.86,396.3c-1.45,0-2.58-1.96-2.58-4.47s1.13-4.47,2.58-4.47,2.58,1.96,2.58,4.47-1.14,4.47-2.58,4.47Zm0-8.4c-1.11,0-2.05,1.8-2.05,3.94s.94,3.93,2.05,3.93,2.05-1.8,2.05-3.93-.94-3.94-2.05-3.94Z"/>
    <path class="cls-12" d="m191.19,397.75c-2.18,0-3.96-1.78-3.96-3.96s1.78-3.96,3.96-3.96,3.96,1.78,3.96,3.96-1.78,3.96-3.96,3.96Zm0-7.39c-1.89,0-3.43,1.54-3.43,3.43s1.54,3.43,3.43,3.43,3.43-1.54,3.43-3.43-1.54-3.43-3.43-3.43Z"/>
    <path class="cls-12" d="m195.03,397.89c-2.26,0-4.1-1.84-4.1-4.11s1.84-4.11,4.1-4.11,4.11,1.84,4.11,4.11-1.84,4.11-4.11,4.11Zm0-7.68c-1.97,0-3.57,1.6-3.57,3.57s1.6,3.57,3.57,3.57,3.57-1.6,3.57-3.57-1.6-3.57-3.57-3.57Z"/>
    <path class="cls-12" d="m187.48,400.14c-.3,0-.61-.02-.93-.05h0c-2.84-.29-4.93-1.77-4.77-3.37.16-1.6,2.51-2.64,5.35-2.35,2.84.29,4.93,1.77,4.77,3.37-.14,1.42-2.01,2.4-4.41,2.4Zm-.88-.58c2.45.25,4.64-.61,4.76-1.87.13-1.26-1.84-2.54-4.29-2.79-2.46-.25-4.64.61-4.76,1.87-.13,1.26,1.84,2.54,4.29,2.79h0Z"/>
    <path class="cls-12" d="m192.33,400.57c-1.7,0-3.09-1.39-3.09-3.09s1.39-3.09,3.09-3.09,3.09,1.39,3.09,3.09-1.39,3.09-3.09,3.09Zm0-5.65c-1.41,0-2.56,1.15-2.56,2.56s1.15,2.56,2.56,2.56,2.56-1.15,2.56-2.56-1.15-2.56-2.56-2.56Z"/>
    <path class="cls-12" d="m179.09,385.69c-2.97,0-5.3-1.41-5.3-3.2s2.33-3.2,5.3-3.2,5.3,1.41,5.3,3.2-2.33,3.2-5.3,3.2Zm0-5.87c-2.63,0-4.77,1.2-4.77,2.67s2.14,2.67,4.77,2.67,4.77-1.2,4.77-2.67-2.14-2.67-4.77-2.67Z"/>
    <path class="cls-12" d="m179.09,388.84c-1.04,0-1.86-1.45-1.86-3.31s.82-3.31,1.86-3.31,1.86,1.45,1.86,3.31-.82,3.31-1.86,3.31Zm0-6.08c-.64,0-1.33,1.12-1.33,2.78s.69,2.78,1.33,2.78,1.33-1.12,1.33-2.78-.69-2.78-1.33-2.78Z"/>
    <path class="cls-12" d="m172.28,393.8c-.96,0-2.58-.19-2.58-.92s1.62-.92,2.58-.92,2.58.19,2.58.92-1.62.92-2.58.92Zm-2.03-.92c.14.13.82.39,2.03.39s1.89-.25,2.03-.39c-.14-.13-.83-.39-2.03-.39s-1.89.25-2.03.39Z"/>
    <path class="cls-12" d="m171.44,389.57c-.74,0-1.43-.13-1.98-.38-.66-.3-1.04-.74-1.06-1.23-.02-.5.32-.96.96-1.31.58-.32,1.35-.51,2.18-.54.82-.03,1.61.1,2.21.37.66.3,1.04.74,1.06,1.23.04.97-1.34,1.78-3.14,1.84-.08,0-.16,0-.23,0Zm.13-2.92c-.74.03-1.43.2-1.94.47-.44.24-.69.54-.68.82s.28.56.74.77c.53.24,1.23.36,1.97.33,1.57-.06,2.65-.73,2.63-1.29-.01-.28-.28-.56-.74-.77-.53-.24-1.23-.36-1.97-.33h0Z"/>
    <path class="cls-12" d="m175.18,391.7c-1.45,0-2.58-1.96-2.58-4.47s1.14-4.47,2.58-4.47,2.58,1.96,2.58,4.47-1.14,4.47-2.58,4.47Zm0-8.4c-1.11,0-2.05,1.8-2.05,3.93s.94,3.94,2.05,3.94,2.05-1.8,2.05-3.94-.94-3.93-2.05-3.93Z"/>
    <path class="cls-12" d="m180.5,393.15c-2.18,0-3.96-1.78-3.96-3.96s1.78-3.96,3.96-3.96,3.96,1.78,3.96,3.96-1.78,3.96-3.96,3.96Zm0-7.39c-1.89,0-3.43,1.54-3.43,3.43s1.54,3.43,3.43,3.43,3.43-1.54,3.43-3.43-1.54-3.43-3.43-3.43Z"/>
    <path class="cls-12" d="m184.34,393.29c-2.26,0-4.11-1.84-4.11-4.11s1.84-4.11,4.11-4.11,4.1,1.84,4.1,4.11-1.84,4.11-4.1,4.11Zm0-7.68c-1.97,0-3.57,1.6-3.57,3.57s1.6,3.57,3.57,3.57,3.57-1.6,3.57-3.57-1.6-3.57-3.57-3.57Z"/>
    <path class="cls-12" d="m176.78,395.54c-.3,0-.61-.02-.92-.05-1.32-.13-2.54-.54-3.44-1.15-.94-.64-1.41-1.43-1.33-2.22.08-.8.7-1.47,1.75-1.91.99-.42,2.27-.57,3.59-.44,1.32.13,2.54.54,3.44,1.15.94.64,1.41,1.43,1.33,2.22-.08.8-.7,1.47-1.75,1.91-.76.32-1.69.48-2.68.48Zm-1.26-5.28c-.92,0-1.77.15-2.47.44-.86.36-1.37.88-1.43,1.47-.06.59.33,1.21,1.1,1.73.82.56,1.95.93,3.19,1.06h0c1.24.13,2.42-.02,3.34-.4.86-.36,1.37-.88,1.43-1.47.06-.59-.33-1.21-1.1-1.73-.82-.56-1.95-.93-3.19-1.06-.29-.03-.58-.04-.87-.04Z"/>
    <path class="cls-12" d="m181.64,395.97c-1.7,0-3.09-1.39-3.09-3.09s1.39-3.09,3.09-3.09,3.09,1.39,3.09,3.09-1.39,3.09-3.09,3.09Zm0-5.65c-1.41,0-2.56,1.15-2.56,2.56s1.15,2.56,2.56,2.56,2.56-1.15,2.56-2.56-1.15-2.56-2.56-2.56Z"/>
  </g>
  <path class="cls-3" d="m75.5,158.22c-1.13.74-2.54,1.52-3.77,3.46-1.4,2.19-1.01,4.07-2.33,5.72-.86,1.08-2.42,2.37-5.43,3.04.5-1.54,1.01-3.7,1.09-6.3.09-3.24,0-6.27-.56-7.99-1.17.9-3.45,2.9-4.87,5.39-2.03,3.56-2.38,7.25-2.17,9.56.23,2.53,1.01,7.71,9.96,14.26,14.73,10.78,31.6,13.36,49.86,16.12,1.68.25,4.08.79,4.99.47-3.62-1.87-5.75-3.17-5.39-4.84.39-1.81,1.2-2.33,5.02-3.91,4.01-1.66,4.29-1.31,7.05-1.47-3.58-1.75-4.69-2.84-8.73-5.46-5.82-3.78-7.42-6.47-11.33-10.07-10.68-4.84-23.4-11.94-33.37-17.98Z"/>
  <path class="cls-3" d="m135.89,193.59c1.97-1.5,7.31-4.16,11.05-6.7,5.25-3.57,8.79-5.98,14.56-9.32,19.39-11.24,20.23-12.88,24.74-16.31,5.26-3.99,9.59-7.79,11.82-10.36.22.87.48,4.36,1.47,5.62,1.63,2.09,5.54,3.04,7.23,4.35,3.02,2.33,1.68,6.38,1.66,7.23-.19,6.97-3.21,11.2-7.73,14.4-6.97,4.93-15.7,8-19.38,9.21-9.4,3.09-21.58,6.45-36.17,9.76-1.94-.08-3.86-.68-4.47-1.15-.94-.7-.57-.54-1.63-2.37-.59-1.01-2.46-2.85-3.15-4.35Z"/>
  <path class="cls-13" d="m109.63,176.38c3.16,3.15,5.02,5.91,9.53,9,3.91,2.68,6.6,4.19,10.11,6.12.56-.03,3.56-.15,4.62.25,1.23.46,1.41,1.11,1.81,1.53,3.1-1.54,5.84-3.23,8.77-5.17,4.1-2.71,11.16-6.99,14.47-9.62-3.97,1.12-10.31,3.91-12.38,4.68-4.54,1.67-6.97,2.09-9.91,1.99-3.15-.11-3.05-.61-7.49-1.99-6.28-1.95-10.65-3.02-19.53-6.79Z"/>
  <path class="cls-17" d="m139.03,198.85c-.53-1.13-1.68-3.21-3.15-4.88-.57-.65-1.2-1.35-1.75-1.86-2.54-.36-5.1-.09-6.56.11-1.62.21-5.04.57-8.01,2.33-1.22.73-2.01,1.7-2.62,2.25.16.64.33,1.02,1.12,1.96,1.98,2.36,5.09,3.09,5.81,3.19-2.94,1.93-4.83,4.02-5.95,5.45-4.88,6.25-5.34,13.23-5.32,16.1,0,.83.16,1.81.2,2.25,3.12.14,9.87-.29,17.02-4.33,4.51-2.54,7.48-5.7,9.21-7.9,0,1.43.16,3.65,1.14,6.13,1.44,3.65,3.36,6.5,5.4,6.85,1.77-1.04,3.6-3.67,4.83-7.87.26-.87,1.94-6.96-1.48-12.57-.91-1.48-2.37-2.85-3.11-3.51-.98-.49-1.34-.15-3.8-1.22-1.33-.58-2.43-1.79-2.98-2.48Z"/>
  <path class="cls-6" d="m138.05,195.74c-.06-.3,4.26-.59,9.14-3.77,2.77-1.8,4.69-3.86,5.93-5.42-.54,1.52-1.68,4-4.09,6.04-4.68,3.96-10.9,3.51-10.98,3.15Z"/>
  <path class="cls-6" d="m139.41,198.13c.02-.39,4.88.38,11.39-1.29,4.6-1.17,8.15-3.09,10.49-4.58-1.75,1.97-4.97,4.98-9.78,6.35-6.22,1.77-12.12-.05-12.1-.48Z"/>
  <path class="cls-6" d="m120.96,193.08c.14-.46-3.3-1.2-6.87-4.42-1.81-1.63-3.01-3.32-3.75-4.54.09,1.02.52,4.7,3.49,7.1,2.96,2.39,6.98,2.33,7.13,1.85Z"/>
  <path class="cls-6" d="m116.9,195.43c.05-.42-3.4-.51-7.85-2.7-3.04-1.49-5.25-3.32-6.67-4.68.6,1.49,2.13,4.65,5.5,6.49,4.15,2.27,8.97,1.39,9.03.89Z"/>
  <path class="cls-9" d="m111.91,177.04c.19-.36,6.49,2.01,19.09,6.74,1.48.55,3.58,1.35,6.45,1.4,3.3.05,6.08-.92,9.11-2,3.95-1.41,10.15-4.24,10.29-4.02.19.31-7.43,4.81-11.91,6.57-3.62,1.42-6.67,1.56-7.75,1.58-3.08.06-5.47-.56-7.09-1.05-9.11-2.73-18.49-8.64-18.18-9.21Z"/>
  <path class="cls-7" d="m69.18,186.52c-.9-.6-1.75-1.23-2.56-1.88-3-2.43-8.5-6.89-9.12-13.3h0c-.02-.21-.03-.42-.04-.63-.12-2.56.4-6.51,3.54-10.81.94-1.29,2.05-2.45,3.28-3.44.08-.06.16-.13.24-.19h0s.01-.02.02-.02c.05-.04.1-.08.15-.12l.14-.1v-.18h-.34s-.05-.06-.05-.06l-.15-.2c-.06.04-.12.09-.18.14-1.38,1.07-2.61,2.33-3.65,3.76-3.25,4.46-3.79,8.58-3.67,11.24.02.46.06.92.13,1.36.95,6.31,6.32,10.66,9.32,13.1.79.64,1.64,1.27,2.53,1.86.15.1.3.2.45.3l3.94,2.32c14.99,7.97,37.75,11.59,48.62,12.94.28.04.55.07.81.1l.06-.47.02-.2s-.09-.01-.13-.02c-.14-.02-.29-.04-.44-.05h-.01c-.05-.01-.11-.02-.16-.02h0c-10.8-1.34-33.56-4.95-48.48-12.9-1.23-.66-2.4-1.34-3.51-2.06l-.75-.49Z"/>
  <path class="cls-7" d="m144.01,201.99h-.04v-.68c32.11-6.16,56.81-15.81,61.41-24.01,2.93-5.22,3.04-10.3,3.04-10.35.02-1.78-.2-3.56-.66-5.29v-.09s.34,0,.34,0l.31-.08c.48,1.79.71,3.63.69,5.47,0,.21-.11,5.29-3.13,10.67-4.69,8.36-29.58,18.15-61.93,24.35h-.03Z"/>
  <path class="cls-7" d="m129.16,192.09h-.08l-.08-.03c-6.4-3.14-12.12-7.26-16.99-12.25-1.17-1.19-2.31-2.47-3.41-3.8l.52-.43c1.09,1.32,2.22,2.58,3.37,3.76,4.82,4.93,10.47,9.01,16.8,12.12l-.15.3v.34Z"/>
  <path class="cls-7" d="m135.74,193.89l-.33-.59c5.9-3.34,11.76-6.92,17.42-10.65,3.01-1.98,6.05-4.06,9.02-6.19l.39.55c-2.98,2.13-6.03,4.21-9.04,6.2-5.67,3.74-11.55,7.33-17.46,10.67Z"/>
  <path class="cls-7" d="m113.71,226.27c-.85,0-1.56-.66-1.62-1.5-.24-3.57.12-8.98,3.23-14.55,1.78-3.17,4.17-5.89,7.11-8.09.16-.12.33-.24.49-.35l.39.55c-.15.11-.31.22-.47.34-2.87,2.14-5.2,4.79-6.93,7.88-3.03,5.42-3.39,10.7-3.15,14.17.03.5.43.89.96.88,4.72-.05,13.74-1.14,21.14-7.9,1.42-1.29,2.7-2.72,3.9-4.38l.55.4c-1.23,1.69-2.54,3.16-3.99,4.48-7.56,6.92-16.77,8.03-21.59,8.08h-.02Z"/>
  <path class="cls-7" d="m145.39,226.83c-2.59,0-4.45-4.42-5.16-6.09-1.58-3.74-1.96-7.9-1.14-12.38l.67.12c-.79,4.35-.42,8.38,1.1,11.99.59,1.41,2.4,5.68,4.53,5.68.02,0,.03,0,.05,0,.92-.03,2.72-.96,4.45-6.9,1.32-4.54.44-8.33,0-9.75-.6-1.93-1.35-4.34-3.53-6.14-1.21-1-2.31-1.34-3.36-1.67-1.31-.41-2.54-.79-3.82-2.29-.5-.58-.74-1.03-1.01-1.54-.3-.56-.67-1.25-1.52-2.4-.76-1.02-1.6-2-2.49-2.91-.22-.22-.5-.36-.81-.39-3.6-.38-7.27.08-10.59,1.31-1.74.65-3.41,1.51-4.96,2.57-.31.21-.52.55-.57.93-.05.37.07.75.31,1.03.47.54.99,1.04,1.53,1.48,4.9,3.99,11.33,3.14,13.86,2.59l.14.66c-2.63.57-9.3,1.45-14.43-2.73-.58-.47-1.12-.99-1.61-1.56-.37-.43-.54-.99-.47-1.56.07-.57.39-1.08.86-1.4,1.6-1.09,3.31-1.97,5.11-2.64,3.42-1.27,7.19-1.74,10.9-1.35.47.05.89.25,1.23.59.92.93,1.77,1.93,2.55,2.98.88,1.18,1.26,1.9,1.57,2.48.27.5.48.9.93,1.43,1.16,1.35,2.25,1.69,3.51,2.09,1.07.33,2.27.71,3.59,1.79,2.34,1.93,3.15,4.55,3.75,6.46.46,1.48,1.38,5.42,0,10.14-1.39,4.78-3.15,7.33-5.08,7.39-.02,0-.04,0-.07,0Z"/>
  <path class="cls-7" d="m121.77,193.76c-2.37-.86-4.57-2.1-6.53-3.66-2.35-1.87-4.28-4.14-5.76-6.75l.59-.33c1.43,2.53,3.31,4.74,5.59,6.56,1.91,1.52,4.04,2.72,6.34,3.56l-.23.64Z"/>
  <path class="cls-7" d="m117.78,195.93c-3.3-.53-6.45-1.59-9.37-3.15-2.68-1.43-5.11-3.26-7.22-5.42l.48-.47c2.06,2.11,4.43,3.9,7.06,5.3,2.85,1.52,5.94,2.56,9.16,3.08l-.11.67Z"/>
  <path class="cls-7" d="m137.41,196.21l-.12-.67c3.09-.55,6-1.62,8.64-3.18,2.81-1.66,5.25-3.81,7.24-6.42l.54.41c-2.05,2.67-4.55,4.89-7.43,6.59-2.71,1.6-5.69,2.7-8.86,3.27Z"/>
  <path class="cls-7" d="m140.66,198.48c-.66,0-1.33-.02-2-.05l.03-.67c4.47.21,8.84-.3,13.01-1.52,3.57-1.05,6.94-2.62,10.02-4.66l.37.56c-3.13,2.08-6.56,3.67-10.2,4.74-3.61,1.06-7.38,1.6-11.23,1.6Z"/>
  <path class="cls-7" d="m118.06,220.81l-.56-.38c3.12-4.56,6.82-8.69,10.99-12.27,3.21-2.76,6.71-5.21,10.42-7.28l.33.59c-3.66,2.05-7.13,4.47-10.31,7.2-4.13,3.55-7.78,7.63-10.87,12.14Z"/>
  <path class="cls-7" d="m125.23,219.04l-.42-.53c2.61-2.05,3.24-4.9,2.33-6.37-.59-.95-1.9-1.5-3.69-1.54-.05,0-.1,0-.14,0-2.5,0-4.24,1.65-4.71,2.17l-.5-.46c.54-.58,2.49-2.46,5.37-2.38,2.03.05,3.54.71,4.25,1.86,1.09,1.75.45,4.95-2.49,7.26Z"/>
  <path class="cls-7" d="m131.2,212.06l-.42-.53c1.99-1.56,2.48-3.72,1.79-4.83-.44-.71-1.43-1.12-2.8-1.16-1.98-.03-3.33,1.25-3.7,1.65l-.5-.46c.42-.45,1.96-1.9,4.21-1.87,1.6.04,2.79.57,3.36,1.48.86,1.39.37,3.9-1.95,5.72Z"/>
  <path class="cls-7" d="m144.14,215.71c-.47-2.63-2.21-9.28-8.25-14.13-3.92-3.15-8.1-4.33-10.91-4.76l.1-.67c2.89.44,7.19,1.65,11.23,4.9,6.22,5,8.01,11.83,8.5,14.54l-.67.12Z"/>
  <path class="cls-7" d="m140.93,215.35c-.45-1.11-.65-2.26-.59-3.41.05-1.02.13-2.55,1.17-3.12.76-.41,1.58-.08,2.84.41,1.12.44,2.2,1.03,3.2,1.74l-.39.55c-.95-.68-1.98-1.24-3.05-1.66-1.21-.47-1.81-.69-2.27-.44-.71.38-.77,1.69-.82,2.56-.05,1.05.13,2.1.54,3.12l-.63.25Z"/>
  <path class="cls-7" d="m129.62,201.3c-.38,0-.75-.01-1.13-.04l.05-.67c1.17.09,2.34.03,3.47-.17,1.28-.23,1.91-.35,2.17-.8.4-.7-.22-1.85-.63-2.61-.5-.93-1.2-1.73-2.09-2.38l.4-.54c.96.71,1.73,1.59,2.28,2.6.49.9,1.22,2.25.62,3.27-.43.74-1.31.89-2.64,1.13-.82.15-1.66.22-2.51.22Z"/>
  <g>
    <path class="cls-13" d="m180.61,165.29h0c6.66-4.59,12.72-9.56,17.01-14.45.03-.03.05-.06.08-.09h0c2.47-2.83,4.36-5.63,5.42-8.3.09-.21.17-.44.23-.69.01-.03.02-.06.03-.09.53-1.8.81-4.5.94-7.63,0-.03,0-.06,0-.1,0-.02,0-.03,0-.04.03-.69.05-1.41.06-2.14v-.04c.03-1.52.03-3.12.01-4.73,0-.14,0-.28,0-.42h0s0-.03,0-.04c0-.22-.01-.44-.01-.65-.13-7.52-.65-15.29-.72-18.74-.1-4.69-.26-9.23-.51-13.61-.03-.54-.06-1.09-.1-1.62-.16-2.51-.36-4.96-.59-7.35h0c-.02-.14-.03-.28-.04-.42-.02-.19-.04-.37-.06-.56-.02-.22-.05-.45-.07-.67,0-.1-.02-.2-.03-.29h0c0-.07-.01-.14-.02-.21-.42-3.74-.95-7.33-1.63-10.72-.06-.34-.13-.67-.2-1-5.46-25.99-19.82-40.9-57.96-36.14-7.71.96-15.54,2.57-23.13,4.84-.23.06-.46.13-.68.2-10.44,3.18-20.41,7.62-28.98,13.35-.13.08-.25.17-.38.25-12.04,8.14-21.26,18.86-25.05,32.24-.03.11-.06.22-.09.33-.04.17-.09.33-.13.5,0,0,0,.02,0,.03-.06.21-.11.42-.17.63h0c-.06.23-.11.46-.17.69-.86,3.69-1.32,7.57-1.32,11.65,0,.87-.02,1.79-.04,2.75-.01.55-.03,1.12-.05,1.7-.23,7.51-.79,17.2.42,27.09.04.32.08.64.12.95,0,.06.02.12.03.17.01.13.03.26.05.39h0c.29,2.12.68,4.24,1.17,6.34,0,.03.01.05.02.07,0,.02,0,.03,0,.04.6,2.56,1.36,5.09,2.32,7.57,0,0,0,.02.01.02,0,.01,0,.02.01.03.53,1.38,1.12,2.74,1.78,4.07,0,0,.01.02.01.02.37.74.99,1.56,1.82,2.43h0c3.49,3.68,10.8,8.41,19.48,13.08.05.03.11.06.17.09,1.84.99,3.73,1.97,5.67,2.94l.06.03c5.88,2.96,12.1,5.79,18.02,8.22.21.09.43.18.64.27.02,0,.03.01.04.02,4.4,1.78,8.61,3.33,12.38,4.52,1.89.6,3.67,1.11,5.3,1.51,0,0,.01,0,.02,0,2.97.73,5.45,1.11,7.22,1.04.95-.04,2.07-.2,3.33-.48t.01,0c4.38-.97,10.5-3.34,17.19-6.6.02-.01.04-.02.06-.03,6.37-3.11,13.27-7.03,19.68-11.35.05-.03.09-.06.14-.1l1.17-.79Z"/>
    <path class="cls-10" d="m66.32,169.56c1.03-.51,1.76-1.16,2.27-1.84.29-.39.51-.79.68-1.2.2-.47.38-.89.56-1.3.01,0,.01-.02.01-.02.47-1.08.95-2.03,1.86-3.46.01-.02.02-.04.03-.05.02-.04.05-.07.07-.11.07-.11.14-.22.22-.34,1.16-1.78,2.07-2.63,2.97-3.33.04-.03.09-.06.14-.1-.02-.02-.05-.04-.07-.05-1.2-.9-3.08-2.49-5-4.82-.61-.74-1.23-1.56-1.83-2.46-1.16-1.73-2.26-3.74-3.15-6.06-1.89-4.9-2.27-9.29-2.17-12.09,0-.11,0-.22.01-.32,0-.08.01-.16.02-.23,0-.07,0-.14.01-.21.1.07.2.14.3.22.09.06.18.12.26.19,1.1.81,2.26,1.72,3.34,2.5l-.02-1.02c-.03-1.91-.02-3.71-.05-5.28,0,0,0-.02,0-.02-.03-1.43-.1-2.67-.26-3.63-.64-3.96-2.15-5.18-2.26-8.2-.05-1.37.84-4.19,1.84-8.06.99-3.84,1.01-4.06,1.17-6.77.1-1.69.71-2.5-.33-6.74-.38-1.55-2.51-4.76-3.09-7.8-.07-.36-.12-.71-.13-1.07,0-.08-.01-.15-.01-.23,0,.19.12.4.31.64.06.06.12.13.18.2,1,1.03,3.22,2.39,4.22,4.03,1.53,1.12,3.53,3.21,4.17,2.4.03-.04.06-.1.09-.15s.04-.13.06-.2h0c.15-.79-.15-2.57-.25-5.26,0-.02,0-.03,0-.05h0c-.07-1.96-.03-4.38.38-7.25h0s0-.04,0-.05c0-.01,0-.02,0-.03s0-.02,0-.04c.03-.19.05-.38.09-.57.03-.3.07-.61.11-.91s.08-.6.13-.89c.04-.29.09-.59.14-.87.64-3.72,1.66-6.85,2.59-9.08.13-.3.54-.36.73-.09,1.07,1.42,2.66,3.4,3.38,6.05.61,2.27.63,4.53.46,6.41-.02.23-.04.46-.07.68-.13,1.12-.3,2.08-.42,2.77,1.16-1.17,2.44-2.8,3.76-4.76.11-.15.22-.32.32-.48,1.12-1.71,2.25-3.66,3.33-5.78,2.29-4.52,3.46-7.59,4.04-10.41h0c.02-.09.04-.18.05-.27,0-.02,0-.04.01-.06.04-.2.32-.21.36,0,.01.06.03.12.04.19.02.09.04.18.06.27h0c.4,1.63,1.41,3.92,3.92,7.05,2.72,3.39,5.74,5.95,7.87,7.35.22.15.43.28.63.4.77.46,1.38.74,1.76.81-.99-2.3-2.52-7.17-2.69-11.52-.27-6.54,2.53-12.16,4.26-15.2.08-.15.31-.05.26.11-.7,2.45-1.32,6.61-.6,11.18,1.23,7.86,5.26,12.36,6.72,13.59-.52-4.3-.73-11.55,1.77-19.76,1.42-4.65,3.69-8.24,5.54-11.02.09-.13.21-.22.34-.28.14-.06.3-.08.46-.05h.01c.13.03.24.09.34.18h0c.09.08.15.18.2.3.07.19.14.38.21.58,0,0,0,.02.01.02h0s0,.02,0,.02c1.1,3.1,2.28,7.62,2.37,13.1v.07s0,.08,0,.12c.02,1.4-.04,2.85-.18,4.36-.61,6.44-2.65,11.44-4.22,14.57.16.02.34.03.52.04.83.06,1.89.06,3.09-.1,0,0,.01,0,.02,0,0,0,0,0,.01,0,.96-.13,2.01-.37,3.11-.78.71-.27,1.36-.58,1.96-.92.01-.01.03-.02.04-.02,0,0,.02,0,.02-.01,2.61-1.5,4.25-3.59,5.34-5.1h0c.24-.35.46-.66.66-.92.18-.24.36-.5.52-.74.05-.07.09-.14.14-.22,2.64-4.06,3.14-8.1,3.48-12.2.42-5.06-.62-9.58-1.44-12.68-.06-.24.27-.38.4-.16,2.02,3.36,3.07,6.35,3.65,8.47,1.08,3.92,1.94,6.85,2.04,10.97.11,4.16-1.24,8.36-1.52,11,1.9-1.03,4.64-3.63,7.11-7.46,2.82-4.36,3.91-8.56,4.2-11.98.37-4.55-.92-8.44-1.77-11.07-.09-.26.24-.45.43-.25,2.43,2.67,5.57,6.49,6.82,11.32.15.56.27,1.1.37,1.63h0s0,.02,0,.03c.62,3.21.53,5.95.47,8.05-.08,2.51-.49,5.32-.95,7.67t0,.01c-.29,1.49-.6,2.8-.85,3.73,2.2-1.08,3.74-3.21,7.88-7.04,1.54-2.16,2.38-2.25,2.95-3.41.05-.1.1-.21.14-.32.04-.1.07-.2.11-.32.05.09.1.18.14.26.05.08.09.15.13.23.13.27.25.52.36.77h0c.38.89.62,1.71,1.07,2.71.04.08.07.17.12.24.51,1.08,1.28,2.35,2.67,4.11.47.59,1.04,1.15,1.67,1.68.04.03.09.07.13.11,2.49,2.04,5.83,3.53,7.4,4.18-.21-.31-.34-1.01-.42-1.92v-.03c-.22-2.67-.01-7.15,0-9.46,0-.56.07-3.9,2.09-8.21.5-1.05.97-1.98,1.43-2.77.07-.11.13-.22.2-.34.06-.11.13-.21.19-.31.14-.22.28-.44.42-.65.11-.17.22-.32.33-.48,1.09-1.52,2.04-2.24,2.8-2.31.07,0,.15,0,.22,0,.27.76.5,1.42.7,2,0,.02.01.03.02.04,0,0,0,.01,0,.02.85,2.47,1.16,3.63,1.59,6.16.32,1.89.64,3.99,1.14,5.95.04.15.07.31.12.46-.02.21-.05.44-.07.7h0c-.41,3.38-1.7,10.33-2.26,13.12,0,.02-.01.03-.01.04-.07.35-.13.63-.18.84.12-.09.24-.2.38-.34h0l.22-.22c1.38-1.41,3.56-4.34,4.82-5.83h.01s.2.28.2.28l2.11,2.8c1.23,1.93,2.04,2.99,2.57,3.54.11.12.2.21.29.29,0,0,.01,0,.02.02.06.05.12.1.18.13.04.03.09.05.12.07h0c.44.21.14-.6-.11-.12-.01.01-.02.03-.02.04-.04.08-.07.19-.1.33-.03.14-.06.27-.1.39h0c-.04.13-.08.25-.12.36-.31.84-.7,1.46-.67,3.59.03,1.67,1.4,3.59,1.02,4.4-.01.03-.03.06-.04.09-.06.09-.12.17-.17.25-3.76,5.47-5.63,8.19-5.15,10.49.31,1.53.48,3.53,2.32,6.54,1.25,2.43,1.83,4,2.02,5.6.21,1.79.44,3.43-.5,8.9-.38,2.17-1.08,4.36-1.69,7.49,1.5-1.44,2.97-3.17,4.47-4.64.11-.11.22-.21.33-.32l.02-.02s0,.01,0,.02c0,.01,0,.03.01.04.03.1.05.21.07.33.57,2.63.92,8.6-1.1,14.76,0,.03-.02.05-.03.09-.07.23-.15.46-.23.69-.15.42-.31.82-.47,1.21-.08.19-.17.37-.24.55-.42.94-.87,1.79-1.33,2.58-.04.06-.07.12-.11.18-.93,1.54-1.9,2.77-2.72,3.71-.07.07-.13.15-.2.22.02.05.03.1.05.15.54,1.75.48,4.77,2.61,6.42,1.82,1.41,4.9,1.69,6.66,3.6.17.18.34.36.53.52.2.19.42.37.65.53,1.91,1.41,4.61,2.2,7.72,2.04,0,0,0-.07-.03-.21-.02-.13-.04-.32-.07-.55,0-.02,0-.03,0-.04h0s0-.03,0-.04,0-.02,0-.03c0,0,0-.01,0-.02-.2-1.21-.66-3.37-1.56-4.45-1.57-3.19-3.43-3.36-4.49-6.51-.28-.84.23-1.37,0-5.43-.14-2.5-1.32-4.68-1.44-6.04,1.97,1.05,4.98,3.24,6.96,4.29.56-5.87-1.25-10.35-2.53-13.07-1.28-2.71-2.67-4.83-3.75-7.04-.1-.2-.19-.4-.28-.6-.01-.02-.02-.05-.03-.07-.02-.03-.03-.06-.04-.1,0-.01,0-.02-.01-.03-.09-.18-.17-.37-.24-.55-.33-.8-.61-1.63-.81-2.52-.04-.12-.06-.24-.09-.37-.02-.06-.02-.13-.03-.2-.03-.31.01-.66.1-1.03,0,0,0,0,0-.01.22-.95.76-2.11,1.21-3.34l.02-.05c.4-1.09.73-2.24.73-3.36s-.26-1.89-.85-3.12c0,0,0-.01,0-.02-.4-.84-.95-1.92-1.68-3.54l-.03-.06-.02-.03h0c-.1-.22-.19-.44-.29-.67-1.6-3.66-2.66-4.62-3.01-7.88-.14-1.24.03-2,.2-2.71.02-.09.04-.17.06-.26.01-.05.03-.11.04-.16.09.07.18.15.28.24h0c.06.05.13.11.2.17h0c.61.52,1.38,1.13,2.5,1.58,1.72.69,2.58.95,3.56.96-1.48-1.9-3.01-5.47-3.73-9.31-.28-1.5-.26-2.81-.07-4.08.01-.07.02-.15.03-.22.06-.46.15-.91.26-1.37.05-.26.11-.51.18-.77.06-.27.13-.54.2-.83.26-1.07.53-2.22.75-3.51,1.26-7.67.76-13.7.42-17.74-.61-7.38-2.22-11.38-5.85-15.6-3.05-3.54-6.24-4.97-8.76-5.64,1.04-.59,2.94-1.19,4.57-1.67,2.68-.77,4.64-.48,6.29-.78.01,0,.02,0,.02,0,.1-.02.19-.03.28-.05-3.16-7.91-9.83-12.97-13.64-15.09-2.82-1.57-6.97-3.16-13.01-4.93-5.53-1.62-10.5-1.91-13.67-1.71-.07,0-.14,0-.21.01.04-.06.07-.12.12-.2h0c.64-1.04,2.07-3.34,3.43-4.45,1.86-1.51,3.3-1.35,4.44-1.68-4.27-3.03-11.12-6.52-19.99-7.07-6.97-.43-12.85,0-17.07,1.24-4.39,1.28-7.83,3.43-10.27,4.63-3.3-1.35-7.77-2.51-13.36-2.72-3.7-.14-6.51-.17-8.44.19-4.41.83-7.69,2.02-9.84,2.98-2.62,1.17-5.71,2.78-9.39,5.52.35-.12,3.61-1.43,6.74,1.01,1.69,1.31,1.82,4.22,2.03,4.97-3.59-.34-8.11-.29-14.71.61-1.78.24-5.11,1.84-10.1,5.16-3.87,2.58-6.93,5.16-9.42,10-2.08,4.03-3.81,7.6-3.79,9.84.11-.09.23-.17.35-.26,0,0,0,0,.01,0,0,0,.01,0,.02-.01.2-.15.42-.29.63-.42,2.67-1.61,6.17-2.35,8.65-2.09,1.49.16.66.21,2.14.98.88.46.9,1.7.03,2.18-3.64,1.98-6,4.4-7.25,5.26-3.49,2.41-4.25,6.74-4.73,11.19-.09.85-.12,1.66-.1,2.41,0,.3.01.59.03.86h0v.06c.09,1.52.29,2.79.32,3.72.06,1.96.12,3.4.21,4.79,0,.11.01.21.02.32l.05.64h0c.13,1.74.32,3.57.65,6.39.12,1.03.21,1.97.27,2.82.02.18.03.35.04.52.01.15.02.3.03.45,0,.05.01.1.01.15.01.21.03.43.03.64.1,1.78.12,3.32.26,5.05.01.15.02.31.04.46.12,1.35-.43,6.21-2.61,12.58-1.17,3.4-3.22,7.01-2.71,8.74.15-.01.3-.02.44-.02h.04c.15,0,.3-.01.45-.02.02,0,.03,0,.05,0h.02c.63-.03,1.28-.12,2.44-.62,2.22-.95,3.81-1.84,4.74-2.69.04-.03.07-.06.1-.09.13-.12.24-.24.34-.36-.04.38-.02.61-.03.83,0,.05,0,.09,0,.14-.03.34-.14.72-.64,1.7-.93,1.84-.66,2.19-1.15,3.74-.15.5-.45,1.02-.69,1.69-.34.92-.6,2.13-.29,3.97.01.06.02.11.03.17.77,4.73.09,2.49.81,4.03-.07.08-.14.17-.22.25-.06.07-.13.15-.2.22-.67.76-1.46,1.71-2.09,3.32-.66,1.69-2.16,3.41-2.62,7.6-.63,5.72-.54,6.77-.48,6.23.13-1.13.35,11.77,3.13,13.41.1.06.19.1.29.13.04.01.08.02.12.03,1.67.32,3.75-2.51,4.01-2.84,1.65-2.07.87-2.59,1.53-2.58.91.02,1.91,1.99,2.68,6.01,0,.02,0,.04.01.05.02.12.04.23.06.35.01.04.02.09.03.12h0c.17.89.31,1.64.42,2.3.23,1.34.34,2.31.32,3.3-.02,1.24,0,3.49-.61,5.92-.21.86-.51,1.75-.93,2.62.09-.02.18-.04.27-.06.08-.02.15-.03.23-.05.04-.01.07-.02.11-.03.17-.04.34-.09.5-.13.56-.17,1.05-.36,1.49-.58h0Z"/>
    <path class="cls-13" d="m225.21,54.98c3.47-.81,5.97-1.4,7.95-.03,1.62,1.11,2.1,2.98,2.59,4.97.94,3.85.43,6.9.1,9.36-.95,7.16.15,6.01-.74,12.87-1.04,7.99-3.12,14.1-4.3,17.2-1.66,4.38-2.95,7.7-5.81,11.5-1.7,2.26-3.83,5.15-7.69,7.52-3.42,2.1-6.68,2.9-8.77,3.23-.15-.55-.3-1.11-.45-1.66.56-.73,2.01-2.85,2.13-5.94.06-1.68-.5-3.11-1.55-5.89-.41-1.1-1.01-2.78-2.12-4.84-.95-1.78-1.34-2.11-1.72-3.24-.63-1.85-.46-3.58-.23-4.76.6.52,1.6,1.26,3,1.78,1.59.59,2.99.63,3.82.59-1.32-1.92-2.13-3.67-2.62-4.93-.71-1.81-1.69-4.39-1.5-7.74.03-.54.13-1.16.33-2.4.63-3.97,1.2-5.04,1.63-7.89.18-1.24.23-2.39.33-4.69.13-3.02.11-5.54.05-7.36,3.06-2.22,5.82-3.75,7.91-4.77,4.11-2.03,6.77-2.69,7.65-2.9Z"/>
    <path class="cls-13" d="m44.36,57.19c-.77-.34-4.16-1.82-8.84-2.57-2.68-.43-4.47-.35-5.64.29-2.44,1.33-2.88,4.5-3.01,9.54-.23,8.59.06,13.26,1.01,19.14.35,2.16,1.49,8.66,4.75,16.66,2.99,7.35,4.48,11.02,8.15,14.5,5.18,4.92,11.97,6.83,16.63,7.34.08-2.43.02-5.54.73-8.65.35-1.52,1.09-3.33,1.52-4.61-2.36,1.45-4.73,2.46-6.09,2.74-1.02.21-1.57.22-1.94-.09-.72-.61-.29-2.24.59-4.69,1.11-3.11,1.94-4.09,2.59-6.55,1.09-4.12,2.6-5.4,1.25-16.38-.44-3.53.08-3.59-.38-9.75-.33-4.38-.56-7.59-.64-9.99-3.95-3.47-8.09-5.8-10.66-6.95Z"/>
    <circle class="cls-14" cx="95.92" cy="102.19" r="18.34"/>
    <circle class="cls-2" cx="95.63" cy="102.75" r="11.38"/>
    <circle class="cls-7" cx="95.92" cy="102.68" r="6.78"/>
    <circle class="cls-14" cx="85.2" cy="95.34" r="6.11"/>
    <circle class="cls-14" cx="170.57" cy="101.45" r="18.34"/>
    <circle class="cls-2" cx="170.18" cy="102.19" r="11.38"/>
    <circle class="cls-7" cx="170.57" cy="102.61" r="6.78"/>
    <circle class="cls-14" cx="159.73" cy="95.14" r="5.99"/>
    <path class="cls-9" d="m207.52,81.54c.91-2.76,2.85-4.53,6.71-7.96,2.69-2.39,5.18-4.24,7.21-5.6.47,2.86.97,8.29-1,14.6-2.42,7.76-7.19,12.5-9.41,14.45-1.01-1.34-2.52-3.67-3.35-6.9-.48-1.87-1.31-5.1-.16-8.59Z"/>
    <path class="cls-9" d="m56.18,82.93c-1.12-3.22-3.05-5.05-6.89-8.67-1.82-1.72-4.51-4.03-8.09-6.4-.52,1.85-3.28,12.33,2.9,22.18,3.55,5.64,8.4,8.47,10.84,9.68.67-1.82,1.46-4.49,1.78-7.8.28-2.93.56-5.81-.54-8.99Z"/>
    <path class="cls-9" d="m125.22,122.37c.19-.23,3.62,4.1,8.3,3.98,3.32-.09,5.96-2.38,7.63-4.22-1.32,3.39-4.22,5.74-7.41,5.95-5.37.37-8.72-5.46-8.52-5.71Z"/>
    <path class="cls-9" d="m151.2,118.36c-.13-.12-1.38,1.64-3.71,2.21-1.81.45-3.6-.16-5.02-.94,1.18,1.6,3.41,2.08,5.2,1.77,2.8-.48,3.69-2.91,3.53-3.05Z"/>
    <path class="cls-9" d="m123.9,120.23c-.07-.23-2.91.85-5.08-.07-1.26-.53-2.08-1.56-2.62-2.52-.2,1.6.69,2.67,1.89,3.43,2.38,1.51,5.9-.55,5.81-.84Z"/>
    <path class="cls-7" d="m66.63,134.92c-.17,0-.35-.06-.49-.17-1.15-.86-2.23-1.78-3.2-2.74-2.45-2.41-4.16-4.97-5.08-7.6-.26-.75-.46-1.51-.58-2.25-.1-.52-.16-1.05-.19-1.59-.15-2.72.55-5.19,1.61-8.93.32-1.13.68-2.25,1.09-3.44.91-2.6,2-5.14,3.24-7.57l.6.31c-1.23,2.4-2.3,4.92-3.2,7.48-.41,1.17-.76,2.29-1.08,3.4-1.05,3.67-1.74,6.09-1.59,8.7.03.51.08,1,.18,1.51.12.71.31,1.42.56,2.14.89,2.54,2.54,5.01,4.92,7.34.95.94,2,1.84,3.13,2.68.07.05.13.03.16.02.03-.01.08-.05.09-.13.28-3.17.12-6.35-.48-9.47-.16-.81-.34-1.58-.56-2.36-.22-.78-.44-1.39-.65-1.98-.47-1.31-.83-2.34-.93-4.26-.12-2.37.32-3.65.87-5.27.5-1.46,1.12-3.28,1.54-6.55.42-3.23.75-5.77,0-8.97-.43-1.84-.98-2.88-1.5-3.88-.5-.96-.98-1.86-1.3-3.33-.19-.85-.29-1.74-.29-2.64h.68c0,.86.1,1.68.28,2.49.31,1.38.76,2.25,1.24,3.17.55,1.04,1.11,2.12,1.56,4.04.77,3.32.43,5.91,0,9.19-.44,3.35-1.07,5.2-1.57,6.69-.55,1.61-.95,2.78-.83,5.02.09,1.81.44,2.81.89,4.06.2.57.44,1.22.66,2.02.23.8.42,1.59.58,2.42.61,3.17.78,6.42.49,9.65-.03.3-.21.56-.48.68-.11.05-.23.07-.34.07Z"/>
    <path class="cls-7" d="m91.94,61.8l-.42-.13-.1-.03s-.02.07-.03.11c-.4,1.26-.83,2.53-1.3,3.78-1.59,4.21-3.26,7.39-4.12,8.9-.76,1.35-1.55,2.66-2.38,3.9-.02.03-.04.06-.05.09l-.06.09c-.97,1.47-2,2.89-3.12,4.3.22-.73.44-1.63.58-2.65.32-2.3.16-4.56-.5-6.74-.69-2.25-1.91-4.37-3.54-6.12-.2-.21-.49-.3-.77-.23-.28.06-.5.26-.58.53-.96,2.94-1.7,5.96-2.21,9.02-.05.28-.1.58-.14.87-.05.29-.09.59-.13.89-.07.49-.13.99-.19,1.48,0,.02,0,.03,0,.04s0,.02,0,.03c0,.02,0,.03,0,.05h0c-.06.56-.12,1.11-.17,1.67-.15,1.85-.23,3.71-.21,5.58h0s0,.05,0,.06c0,1.76.09,3.5.25,5.25h0c0,.12.02.23.03.34,0,.04-.02.05-.09.06-.03-.02-.05-.03-.08-.04-1.84-.95-3.55-2.16-5.07-3.59-1.24-1.16-2.33-2.46-3.28-3.87-.03-.05-.07-.1-.1-.15l-.05-.09c-1.42-2.18-2.48-4.61-3.15-7.21l-.66.17c.68,2.64,1.75,5.11,3.18,7.33h0s.05.09.05.09c.06.1.13.2.2.29.1.14.2.29.3.43.06.09.12.17.19.26h0v.02c.85,1.17,1.8,2.25,2.85,3.24,1.59,1.5,3.38,2.75,5.3,3.74.11.06.22.09.34.09.14,0,.28-.04.4-.12.22-.15.35-.41.32-.69-.35-3.69-.37-7.43-.06-11.11.4-4.73,1.35-9.4,2.82-13.89.02-.05.06-.07.09-.08.02,0,.08-.02.12.04,1.56,1.68,2.73,3.71,3.39,5.86.62,2.02.78,4.13.51,6.28,0,.06-.02.11-.02.17-.03.23-.07.45-.11.67-.23,1.26-.57,2.28-.83,2.95-.09.22,0,.46.2.58.2.12.46.07.6-.11,1.43-1.74,2.72-3.47,3.91-5.29.02-.03.04-.05.05-.08l.05-.08c.18-.27.36-.54.53-.82.65-1.01,1.28-2.07,1.87-3.14.87-1.53,2.56-4.74,4.17-9,.38-1,.73-2.02,1.06-3.04.07-.22.14-.43.21-.65h0c.02-.08.05-.15.07-.23l-.13-.04Z"/>
    <path class="cls-7" d="m122.26,44.74h0s0,0,0,0l-.44-.32c-.04.06-.09.11-.12.17-3.16,4.34-5.43,9.15-6.76,14.3-1.42,5.51-1.7,11.18-.84,16.85-2.28-2.43-5.87-7.25-6.64-14.13-.4-3.62.05-7.37,1.3-10.86.08-.21-.01-.44-.21-.54-.2-.1-.44-.04-.56.15-1.75,2.6-3.96,6.87-4.54,12.47-.65,6.33,1.04,11.48,2.61,14.72-.41-.23-.91-.52-1.45-.86-3.55-2.23-6.69-5.23-9.1-8.67-1.38-1.98-2.53-4.12-3.43-6.37-1.12-2.8-1.83-5.73-2.12-8.7l-.27.03-.4.04c0,.07.02.14.03.21.3,2.92,1.01,5.79,2.1,8.55.01.04.03.08.04.12.01.02.02.04.03.06h0c.1.27.21.53.32.79.86,2,1.92,3.89,3.15,5.66,2.12,3.04,4.82,5.75,7.86,7.89h0c.47.34.94.66,1.43.96.02.01.04.03.06.04t.01,0c.63.39,1.19.71,1.62.96.1.05.2.07.3.07.15,0,.3-.06.42-.17.06-.06.11-.13.14-.2.07-.16.06-.34-.02-.5l-.06-.12s-.04-.09-.06-.13c-1.52-3.16-3.16-8.17-2.53-14.32.46-4.43,1.97-8.01,3.43-10.56-.84,3.06-1.11,6.26-.77,9.36.82,7.4,4.82,12.48,7.13,14.85.16.18.42.22.63.11.21-.11.33-.34.29-.57-.92-5.72-.67-11.44.76-17.01,1.28-4.95,3.44-9.58,6.44-13.78.11-.15.22-.31.33-.46l-.1-.07Z"/>
    <path class="cls-7" d="m176.55,53.23c-1.08,2.7-2.38,5.3-3.87,7.74-1.63,2.68-3.5,5.22-5.55,7.52-2.33,2.61-4.93,4.99-7.74,7.09,1.71-4.04,3.77-11.36,1.23-19.79-1.8-5.98-5.23-10.12-7.79-12.54l-.26-.2-.23.15c-.15.1-.22.3-.15.48,1.11,2.77,2.77,8.41,1.36,15.08-1.84,8.66-7.7,13.81-10.43,15.81,1.37-4.84,2.48-12.22.27-20.5-1.04-3.9-2.71-7.6-4.96-11.01-.11-.16-.31-.22-.49-.14-.19.08-.28.28-.22.51,1.38,3.87,2.03,7.88,1.93,11.91-.09,3.38-.23,9.04-3.2,13.93-.05.07-.09.15-.14.22-.35.56-.75,1.12-1.18,1.66h0c-.56.7-1.19,1.36-1.9,1.99-3.66,3.24-8.06,4.26-11.11,4.54-.03,0-.05,0-.06-.03-.01-.02-.02-.04,0-.07,2.33-4.79,5.82-14.51,3.05-25.78-.5-2.02-1.19-4.02-2.06-5.97,0,0,0-.01,0-.02h0s0-.02-.01-.03c-.13-.29-.27-.58-.4-.87h0c-.06-.15-.14-.31-.21-.46-.88-1.76-1.9-3.47-3.05-5.06-.06-.09-.13-.18-.19-.27l-.54.4s.04.05.05.07c1.14,1.57,2.16,3.25,3.04,4.98.03.06.06.12.09.18,0,0,0,.02.01.02.08.17.16.33.23.5,1.04,2.18,1.84,4.43,2.4,6.69.59,2.4.89,4.74.97,6.97v.07s0,.08,0,.12c.27,7.93-2.2,14.5-3.97,18.15-.12.24-.1.53.05.76.02.02.03.04.04.06.14.17.35.27.57.27h.07c.75-.07,1.58-.19,2.46-.36,0,0,.01,0,.02,0,0,0,0,0,.01,0,1.59-.32,3.33-.85,5.07-1.7.01-.01.03-.02.04-.02,0,0,.02,0,.02-.01,1.33-.66,2.65-1.51,3.89-2.61,6.34-5.61,6.54-13.85,6.66-18.28.09-3.39-.35-6.76-1.28-10.03,1.62,2.81,2.87,5.8,3.7,8.91,2.23,8.33,1.03,15.73-.36,20.47-.07.22.02.47.21.61.2.14.45.14.64,0,2.65-1.87,9.03-7.22,10.99-16.43,1.26-5.97.13-11.15-.94-14.25,2.35,2.44,5.15,6.19,6.7,11.33.09.3.18.6.25.9h0s0,.02,0,.03c1.65,6.28.69,11.95-.48,15.72t0,.01c-.45,1.46-.94,2.64-1.31,3.45-.09.19-.04.4.11.53.15.13.37.14.54.02,3.13-2.25,6-4.84,8.55-7.7.76-.85,1.49-1.73,2.19-2.64.14-.18.28-.36.42-.54.04-.04.07-.09.1-.13,1.04-1.38,2.02-2.82,2.92-4.31,1.51-2.47,2.82-5.11,3.92-7.84l-.63-.26Z"/>
    <path class="cls-7" d="m202.74,66.33c-.71,1.49-1.49,2.95-2.32,4.37-.09.16-.18.31-.28.47l-.05.09c-.25.42-.5.84-.78,1.27-.53.86-1.11,1.73-1.7,2.58-.13.18-.25.36-.38.53-.04.06-.08.12-.12.18-1.46,2.02-3.04,3.92-4.7,5.68,1.08-3.26,2.09-7.81,1.98-13.08h0c0-.39-.02-.77-.04-1.16-.07-1.45-.24-2.97-.52-4.52-.46-2.63-1.21-5.18-2.22-7.6,0,0,0-.01,0-.02,0-.02-.01-.03-.02-.04-.28-.68-.59-1.34-.92-2,0,0,0,0,0-.01-.07-.18-.23-.29-.41-.32-.18-.03-.36.04-.49.18-.55.63-1.2,1.45-1.89,2.46-.11.15-.22.31-.33.48-.14.21-.28.43-.42.65-.06.1-.13.21-.19.31-.06.11-.13.22-.2.34-1.63,2.74-3.22,6.42-3.86,10.94-.43,3.04-.39,6.15.11,9.27.11.64.22,1.22.34,1.76,0,.03,0,.05,0,.06-1.43-.46-4.23-1.57-6.91-3.82-1.94-1.63-3.51-3.61-4.66-5.88-.04-.08-.08-.17-.12-.24-.07-.13-.13-.26-.19-.39-.34-.75-.64-1.52-.88-2.3h0c-.1-.31-.18-.61-.26-.91-.01-.05-.03-.1-.04-.15l-.19.05-.25.06-.21.05c.02.09.04.18.07.27.03.13.07.26.11.39.27.96.62,1.9,1.04,2.82,1.06,2.3,2.51,4.32,4.35,6.04,0,0,0,0,.01,0,.26.24.52.48.79.71.03.02.05.04.08.06,2.75,2.29,5.61,3.42,7.06,3.88.22.07.46.03.63-.13.2-.18.29-.45.23-.72-.08-.36-.16-.74-.23-1.15-.03-.19-.07-.38-.1-.58-.01-.06-.02-.13-.03-.2-.46-2.98-.48-5.96-.07-8.87,1.02-7.21,4.51-12.23,6.59-14.67,1.43,2.93,2.45,6.07,3.02,9.32,1.35,7.55.02,14.12-1.4,18.43h0c-.05.15-.1.29-.14.43-.03.08-.05.16-.09.24-.07.21-.14.4-.21.59-.06.19.01.38.18.47l.28.12.18-.18c.13-.13.26-.27.39-.4.07-.07.13-.14.2-.22.09-.09.18-.18.26-.28,1.67-1.75,3.25-3.66,4.72-5.68.02-.02.04-.05.05-.07.02-.03.04-.05.06-.08.12-.17.23-.32.35-.49.67-.94,1.3-1.89,1.89-2.83.26-.4.5-.8.73-1.19.03-.06.07-.11.1-.17l.04-.08c.93-1.56,1.79-3.18,2.58-4.83l-.61-.29Z"/>
    <path class="cls-7" d="m203.44,84.72c-2.56-2.61-4.54-5.42-5.88-8.33-.15-.34-.33-.73-.45-1.11l.64-.21c.12.35.27.7.43,1.05,1.31,2.84,3.24,5.58,5.75,8.14l-.48.47Z"/>
    <path class="cls-7" d="m211.33,97.13c-.05-.08-.11-.15-.15-.23-2.36-3.52-3.63-7.16-3.79-10.81-.03-.79-.01-1.5.06-2.21v-.05s.04-.24.04-.24c0-.05.02-.11.02-.17.01-.09.03-.18.04-.28.03-.18.05-.37.09-.56.04-.22.09-.44.13-.69l.05-.19h0s.02-.07.02-.07c.08-.36.17-.73.26-1.12.04-.19.09-.37.13-.57h0s0-.01,0-.02c0,0,0,0,0,0,.07-.3.14-.62.22-.96.11-.49.24-1.15.38-1.95,0-.01,0-.02,0-.03.25-1.41.51-3.26.7-5.43,0-.03,0-.05,0-.07.19-2.39.29-5.16.13-8.14,0-.05,0-.1,0-.15,0-.13-.01-.26-.02-.39,0-.06,0-.12-.01-.19-.01-.2-.03-.4-.04-.6-.21-2.88-.64-5.63-1.28-8.18-.84-3.34-1.62-6.5-4.21-9.62-2.73-3.3-6.16-5.05-8.77-5.96,1.6-.61,3.26-1.08,4.95-1.37,1.61-.28,3.25-.42,4.88-.4.21,0,.4-.1.51-.27.12-.17.14-.37.07-.56-1.03-2.71-2.44-5.22-4.19-7.46-4.76-6.11-10.71-8.56-15.51-10.52-6.36-2.62-13.2-4.02-20.32-4.16.45-.99,1.26-2.3,2.64-3.42,1.67-1.36,3.41-1.86,4.59-2.03.17-.03.3-.17.34-.33.03-.17-.04-.34-.19-.43-4.53-2.9-11.97-6.5-21.63-7.16-11.25-.77-20.16,2.73-25.66,5.8-.2.11-.43.12-.66.04-5.91-2.16-12.3-3.03-18.48-2.51-10.19.87-17.81,5.16-22.4,8.62-.16.13-.21.35-.11.52.1.18.3.26.48.2,2.6-.8,5.28-.16,6.83,1.65,1.02,1.19,1.29,2.58,1.34,3.54,0,.06-.03.12-.07.17-.03.03-.09.05-.16.04-4.2-.71-10.62-.99-17.4,1.68-13.53,5.34-19.81,19.03-20.45,23.15-.12.78-.06,1.25.21,1.46.38.31.85,0,1.56-.48,1.01-.69,2.71-1.83,5.29-2.16,2.33-.29,5.09,0,5.46.95.28.73-1.13,1.73-2.92,2.98-2.58,1.81-6.12,4.29-8.31,8.37-1.07,1.99-1.37,3.49-1.14,9.08h0c0,.23.02.47.03.71,0,.05,0,.1,0,.14v.02c.12,2.59.32,5.95.6,10.56l.09,1.37c.09,1.48.17,2.83.23,4.07v.1h0c.04.63.07,1.21.11,1.77,0,0,0,0,0,0,0,.02,0,.04,0,.06l.02.39.04.84v.09s.03.37.03.37c0,.08.01.17.02.24,0,.08,0,.17.01.24v.03c.47,8.81.35,9.95-.07,11.84-.06.28-.13.56-.2.84-.04.18-.09.35-.13.52,0,.02-.01.04-.02.05,0,.02-.01.03-.02.05-.01.03-.02.06-.03.1,0,.01,0,.02,0,.03-.32,1.2-.68,2.35-1.07,3.42,0,.01,0,.02-.01.03-.07.22-.15.43-.23.64-.08.21-.16.42-.24.62h0c-.5,1.32-1.01,2.52-1.48,3.62-.23.54-.45,1.05-.64,1.52,0,0,0,0,0,.01-.94,2.28-1.35,3.72-.47,4.4.21.17.47.24.78.24.93,0,2.35-.68,4.61-1.75.89-.43,1.77-.88,2.62-1.35.03-.02.07-.04.1-.05.21-.12.41-.23.61-.35.02-.01.04-.03.06-.04l-.06-.1-.28-.48s-.02.01-.03.02c-.03.02-.05.03-.09.05-1.03.6-2.12,1.17-3.24,1.7-1.74.83-3.13,1.49-3.97,1.65h-.02s-.03,0-.05,0c-.18.04-.33.05-.45.02h-.04c-.07-.02-.11-.04-.17-.09-.64-.51.22-2.55,1.33-5.14,1.14-2.69,2.56-6.03,3.45-10.02.35-1.59.5-2.65.29-7.74h0c-.03-.77-.07-1.62-.12-2.58,0-.01,0-.02,0-.03-.04-.64-.07-1.34-.11-2.08,0-.02,0-.04,0-.06v-.27s-.03-.3-.03-.3h0s-.06-1.16-.06-1.16c-.1-1.74-.21-3.73-.35-6.02l-.09-1.37c-.28-4.71-.49-8.11-.61-10.71-.27-6.02,0-7.49,1.03-9.44,2.1-3.93,5.57-6.36,8.1-8.13,2.19-1.54,3.64-2.55,3.16-3.78-.63-1.61-4.31-1.6-6.17-1.37-2.65.33-4.39,1.47-5.47,2.19-.04.03-.07.05-.11.07-.18.12-.37.24-.52.34,0,0-.01,0-.02.01,0,0,0,0-.01,0-.09.05-.15.09-.21.11-.05-.25-.02-1.05.56-2.76,1.89-5.55,8.12-16.15,19.51-20.65,6.62-2.61,12.92-2.34,17.03-1.65.26.04.52-.03.72-.2.2-.18.31-.43.3-.71-.05-1.07-.36-2.61-1.5-3.94-1.47-1.71-3.84-2.5-6.28-2.14,4.59-3.24,11.71-6.94,21.02-7.73,6.09-.52,12.38.34,18.2,2.47.41.15.85.12,1.22-.09,5.42-3.02,14.21-6.48,25.29-5.71,9.14.62,16.25,3.91,20.75,6.7-1.2.27-2.75.84-4.24,2.06-1.65,1.34-2.53,2.91-2.98,4-.03.09-.04.17-.02.25h0c0,.06.03.11.06.16,0,.01.02.02.03.03.09.1.2.17.34.17,7.16.1,14.04,1.48,20.43,4.11,4.72,1.94,10.59,4.35,15.23,10.32,1.68,2.17,3.05,4.59,4.05,7.19h0s-.02,0-.02,0c-1.63-.01-3.28.13-4.89.41-1.98.35-3.92.92-5.78,1.69-.16.07-.26.22-.24.39,0,.17.12.31.28.37,2.59.81,6.28,2.51,9.15,5.98,2.49,3.01,3.22,5.95,4.07,9.36.67,2.68,1.11,5.6,1.3,8.65.48,7.54-.66,13.82-1.17,16.17-.12.55-.24,1.07-.35,1.54-.07.3-.14.59-.2.87h-.07v.3c-.14.64-.24,1.18-.31,1.68l-.04.29c-.11.85-.14,1.68-.1,2.62.17,3.77,1.47,7.52,3.89,11.15-1.52-.3-4.05-1.04-5.92-2.92-.48-.48-.88-1.02-1.21-1.6-.1-.19-.24-.44-.36-.72-.02-.03-.03-.07-.04-.1-.72-1.62-1.04-3.54-.9-5.26.04-.48.11-.88.18-1.3.04-.26.09-.52.13-.79h0c.03-.24.06-.49.07-.77h0c.02-.27.03-.55.03-.86v-.02h-.28s-.4.01-.4.01v.13c0,.92-.11,1.53-.22,2.18-.07.42-.14.85-.19,1.36-.15,1.82.19,3.82.92,5.52.02.06.04.12.07.17.03.06.06.13.09.19.06.12.11.23.17.34.05.09.09.18.13.25.09.16.19.32.29.47.27.4.56.78.9,1.13.03.04.06.07.1.1,0,.01.02.03.03.04.14.14.29.28.44.42.96.85,2.04,1.45,3.07,1.87.01,0,.02,0,.03.01,1.18.48,2.28.73,3.05.87.22.04.43-.05.55-.24.02-.03.03-.05.04-.07.01-.02.02-.04.03-.06.05-.16.03-.34-.07-.47Z"/>
    <path class="cls-7" d="m66.27,169.56c-.45.23-.93.42-1.45.58-.2.06-.39.11-.6.16-.07.02-.12-.02-.15-.05,0,0-.02-.02-.03-.05-.01-.03-.02-.07,0-.13.05-.14.1-.28.15-.44.04-.09.06-.18.1-.27.79-2.42,1.54-5.96,1.12-10.11-.12-1.16-.31-2.31-.59-3.42v-.05c-.53-2.09-1.33-4.11-2.39-6.01-.14-.24-.39-.38-.68-.35-.28.03-.5.2-.59.46-.29.81-.68,1.57-1.17,2.25-1.18,1.64-2.72,2.54-3.81,3.01-.15.06-.34,0-.41-.15,0,0-.01-.01-.01-.02-1.74-3.99-5.28-14.39-.7-24.82.79-1.8,1.79-3.53,3-5.16.12-.17.24-.33.37-.5l-.39-.3-.15-.11s-.07.1-.11.14c-1.35,1.77-2.47,3.67-3.34,5.65-4.68,10.68-1.07,21.3.7,25.36.21.5.8.73,1.31.53,1.17-.5,2.82-1.47,4.09-3.24.53-.73.95-1.55,1.29-2.43,1,1.79,1.75,3.68,2.26,5.63.02.05.03.11.04.17v.05c.04.13.07.26.1.38.01.04.02.08.03.12.21.94.37,1.9.47,2.86.44,4.45-.48,8.18-1.34,10.52-.11.29-.04.62.17.86.16.18.38.28.61.28.07,0,.13,0,.2-.02,1.26-.3,2.36-.78,3.29-1.45.37-.26.7-.55,1.01-.87,1.27-1.33,1.66-2.71,2.04-4.04.14-.47.26-.92.43-1.35.71-1.87,2.17-3.55,4.35-4.97l.05-.03s.09-.06.14-.09l-.37-.58c-.09.06-.18.11-.26.18-.05.03-.1.06-.15.1-2.18,1.48-3.66,3.21-4.39,5.16-.18.46-.31.94-.44,1.41-.07.26-.14.52-.23.78,0,0,0,.02-.01.02-.26.84-.6,1.69-1.24,2.5-.12.15-.26.31-.4.46-.54.56-1.18,1.02-1.91,1.39h0Z"/>
    <path class="cls-7" d="m209.79,109.77c-.15-.46-.72-1.63-1.85-3.96l-.08-.17c-.98-2.01-1.63-3.17-2.1-4.02-.53-.95-.79-1.42-1.01-2.16-.36-1.27-.4-2.67-.12-4.18,0-.02,0-.05.01-.07.03-.15.06-.3.1-.46h0s.02-.08.03-.12l-.22-.05h0l-.31-.08-.12-.03c-.02.06-.03.12-.04.18-.41,1.79-.4,3.47.03,4.98.24.81.53,1.34,1.07,2.31.47.84,1.11,2,2.08,3.99l.03.06h0s.02.04.02.04l.03.06c.88,1.81,1.44,2.95,1.68,3.54,0,0,.01.01,0,.02.06.13.1.24.13.31.68,2.06.53,4.13-.02,6.16,0,.02-.01.03-.02.05-.3,1.13-.73,2.25-1.21,3.34,0,0,0,0,0,.01-.13.3-.26.59-.39.88l-.5,1.06c-.73,1.54-1.6,3.01-2.6,4.4-.11.15-.22.3-.33.45-1.24,1.66-2.67,3.2-4.25,4.59,2.92-9.53,3.04-16.59.34-20.99-.06-.11-.14-.23-.23-.36-.87-1.38-2.49-3.95-2.12-7.1.17-1.46.83-2.69,2.12-5.16.77-1.45,1.71-2.96,2.82-4.51.11-.15.22-.3.33-.46l-.29-.21-.26-.19c-.04.05-.08.11-.11.16-1.22,1.67-2.26,3.32-3.09,4.89-1.29,2.45-2.01,3.8-2.19,5.39-.4,3.39,1.37,6.19,2.22,7.54l.22.36c2.66,4.34,2.44,11.49-.67,21.28-.05.19.04.38.2.48.06.04.14.06.21.06.1,0,.19-.04.27-.1,1.67-1.39,3.19-2.94,4.52-4.63.1-.13.2-.26.3-.39.03-.03.05-.06.07-.09.04-.05.09-.11.13-.17.03-.04.06-.07.09-.12,1.12-1.52,2.11-3.15,2.92-4.86l.16-.35.14-.28.2-.44s.04-.09.06-.13c.02-.04.04-.09.06-.13.36-.79.71-1.6,1.01-2.42h0c.48-1.32.85-2.66.98-4.03,0,0,0-.02,0-.02h0v-.09s0-.03,0-.04c.13-1.35.02-2.72-.44-4.08Z"/>
    <path class="cls-7" d="m213.86,156.9c-.43-.53-.84-.94-1.2-1.29-.69-.7-1.25-1.26-1.69-2.33-.5-1.22-.48-2.16-.44-3.46.01-.53.03-1.14.01-1.84-.07-2-.4-4.02-.99-6.03l.66.41c.61.37,1.21.75,1.82,1.13,1.14.71,2.27,1.41,3.39,2.12.17.11.37.11.55.02.18-.1.29-.28.29-.48-.04-5.41-1.09-10.23-3.13-14.32-.31-.62-.58-1.09-.88-1.63-.31-.55-.66-1.17-1.13-2.08-.88-1.7-1.69-3.45-2.4-5.19-.05-.11-.09-.21-.13-.31-.01-.02-.02-.04-.03-.06l-.07-.18v-.02s-.01-.02-.01-.02h0s-.02-.05-.02-.05l-.02-.03c-.09-.22-.18-.45-.26-.66-.02-.04-.03-.09-.05-.13l-.33.12-.3.11c.09.24.18.48.28.74.01.02.02.04.03.06l.12.3c.25.63.52,1.25.8,1.88.07.18.15.37.24.55,0,.01,0,.02.01.03.01.03.03.06.04.1.01.02.02.05.03.07.09.2.18.4.28.6.37.8.76,1.61,1.17,2.4.48.92.84,1.54,1.14,2.1.3.54.56,1,.87,1.61,1.97,3.94,2.99,8.57,3.05,13.78-1.06-.67-2.12-1.33-3.19-1.99-.61-.38-1.21-.76-1.82-1.13l-2.22-1.38.29.88c.73,2.24,1.14,4.5,1.22,6.72.02.68,0,1.28-.01,1.81-.04,1.33-.06,2.38.5,3.73.5,1.2,1.12,1.83,1.84,2.55.37.37.74.75,1.16,1.25,1.32,1.6,2.26,3.59,2.82,5.95,0,0,0,.01,0,.02,0,.01,0,.02,0,.03s0,.02,0,.03h0s0,.03,0,.05c.04.18.08.36.12.54-.02,0-.03,0-.04,0-1.95.23-3.68.02-5.14-.65-.97-.44-1.58-.95-2.28-1.54-.13-.11-.27-.22-.41-.34l-.12-.11c-.62-.5-1.41-1.09-2.58-1.71-1.24-.66-2.03-.9-2.67-1.09-.45-.13-.8-.24-1.19-.45-1.84-.97-3.03-3.41-3.54-7.24-.01-.05-.02-.09-.02-.14h-.03s-.55.07-.55.07h-.1s0,.06.01.09c.02.16.04.32.07.47,0,.06.02.13.03.19.59,3.77,1.84,6.11,3.8,7.15.46.24.86.36,1.32.5.64.2,1.37.42,2.55,1.04.88.47,1.54.93,2.07,1.33h.01s0,.01,0,.02c.1.06.17.13.26.2l.04.03h0l.09.07c.18.15.35.29.52.44.09.07.17.14.25.21.63.52,1.26,1,2.19,1.42,1.17.54,2.49.8,3.94.8.56,0,1.14-.04,1.74-.12.15-.02.29-.11.38-.24.09-.13.11-.28.09-.41-.53-2.81-1.58-5.18-3.12-7.03Z"/>
    <path class="cls-7" d="m94.21,168.52l1.15.53,18.08,8.24c.31.12.63.24.95.37h0c2.97,1.16,5.98,2.26,9.02,3.28.03.01.05.02.07.03,2.75.94,5.52,1.82,8.31,2.64,0,0,.01,0,.02,0,.52.15,1.04.3,1.56.45,2.94.85,6.03.88,8.99.1t.01,0c.26-.06.53-.14.78-.22,5.6-1.76,11.1-3.91,16.4-6.39.02-.01.04-.02.06-.03.75-.35,1.49-.7,2.22-1.06.02-.01.03-.02.05-.03,4.03-1.98,8.01-4.19,11.84-6.58,1.89-1.18,3.74-2.41,5.57-3.68.05-.03.09-.06.14-.1.37-.26.74-.52,1.11-.79,5.19-3.71,10.12-7.8,14.73-12.22.85-.81,1.66-1.68,2.4-2.58,3.89-4.71,6.24-10.52,6.65-16.45,0-.03,0-.06,0-.1.03-.27.04-.55.05-.82,0-.08,0-.13,0-.19.01-.39.02-.78.02-1.17v-.04c0-1.45-.1-2.91-.29-4.34-.02-.18-.05-.35-.07-.53-.01-.09-.02-.18-.04-.27l.37-.05h.03s.01,0,.01,0l.27-.04s.02.09.02.13c.31,2.08.43,4.2.37,6.32,0,.07,0,.14-.01.22-.13,3.58-.95,7.15-2.4,10.49-.17.37-.33.74-.51,1.11-.09.18-.18.36-.27.54-.19.36-.37.72-.58,1.08-.11.19-.22.39-.34.59-.79,1.34-1.68,2.63-2.67,3.84-.03.04-.06.08-.1.12s-.06.08-.1.12h0s0,.01-.01.02c-.12.15-.25.3-.38.44-.62.71-1.28,1.41-1.97,2.06-4.39,4.21-9.06,8.12-13.98,11.68-2.5,1.82-5.07,3.55-7.68,5.18-3.37,2.1-6.85,4.07-10.38,5.86,0,0-.02,0-.02.01-.48.24-.96.48-1.45.72,0,0-.02.01-.02.02-.01,0-.02,0-.03.01-1.17.58-2.33,1.13-3.51,1.67h0s-.05.02-.07.03c-.89.41-1.8.81-2.71,1.2,0,0,0,0-.01,0-4.08,1.75-8.28,3.31-12.51,4.64-1.74.54-3.53.81-5.31.81-1.64,0-3.28-.23-4.87-.69-7.1-2.03-14.1-4.43-20.87-7.14h0c-.77-.31-1.53-.62-2.28-.93-.09-.04-.17-.07-.26-.11-.35-.14-.7-.29-1.05-.44-.03-.01-.05-.02-.07-.03-.5-.21-.99-.42-1.48-.63h0c-9.84-4.26-19.37-9.29-28.33-14.96-.85-.54-1.68-1.07-2.51-1.62-.28-.18-.56-.37-.83-.57-.02,0-.03-.02-.04-.03-.05-.04-.1-.07-.15-.11-.11-.07-.21-.15-.31-.23-.03-.02-.06-.04-.09-.06-4.69-3.47-8.16-8.16-10.05-13.57l-.05-.17c-1.34-3.89-2-8-1.97-12.21v-.14h.41s0,0,0,0h.26v.19c0,.2,0,.4,0,.6h0c.02,2.07.21,4.11.58,6.11,0,.03.01.05.02.07.31,1.76.77,3.48,1.35,5.17l.05.17c.27.78.59,1.56.93,2.3,0,.01,0,.02.01.03,2.01,4.44,5.18,8.27,9.26,11.19.33.23.67.47,1,.69.84.55,1.67,1.08,2.51,1.61,3.37,2.13,6.81,4.18,10.33,6.11.05.03.11.06.17.09,1.49.83,2.99,1.63,4.51,2.42h0Z"/>
    <path class="cls-7" d="m57.56,122.45c-6.83-.72-12.4-3.07-16.56-7-2.44-2.3-3.65-4.56-6.07-9.08-7.98-14.92-8.16-26.42-8.41-42.34-.04-2.28-.12-7.52,2.94-9.37.67-.41,1.77-.8,4.84-.51,4.57.43,8.13,1.8,9.85,2.58,3.76,1.74,7.57,4.06,11.31,6.91l-.41.54c-3.71-2.82-7.47-5.12-11.19-6.83-1.67-.76-5.15-2.1-9.63-2.52-2.88-.27-3.85.06-4.43.42-2.73,1.65-2.65,6.62-2.62,8.74.25,15.86.43,27.29,8.3,42.03,2.4,4.5,3.6,6.73,5.96,8.95,4.05,3.82,9.49,6.12,16.17,6.82l-.07.67Z"/>
    <path class="cls-7" d="m56.4,83.97c-.1-.18-.2-.35-.31-.53-1.11-1.85-2.38-3.64-3.76-5.33-3.38-4.12-7.41-7.61-11.97-10.35l.35-.58c4.63,2.78,8.71,6.32,12.14,10.5,1.41,1.72,2.69,3.54,3.81,5.41.11.18.23.37.33.56l-.59.33Z"/>
    <path class="cls-7" d="m50.19,94.96c-2.1-1.59-3.16-4.18-2.69-6.6.57-2.93,3.06-4.31,3.81-4.66,1.56-.73,3.4-.85,5.18-.33l.11.03c.08.02.15.05.23.08l-.25.63c-.06-.02-.12-.04-.18-.06l-.11-.03c-1.61-.47-3.28-.37-4.69.3-.68.32-2.92,1.55-3.43,4.17-.42,2.17.54,4.49,2.43,5.93l-.41.54Z"/>
    <path class="cls-7" d="m208.3,121.99l-.13-.66c5.31-1.01,9.74-3.15,13.17-6.38,2.36-2.22,3.56-4.46,5.94-8.92,7.91-14.79,8.08-26.23,8.32-42.07.03-2.12.11-7.09-2.62-8.74-.58-.36-1.56-.69-4.43-.42-4.68.44-8.28,1.91-9.62,2.52-3.16,1.46-6.34,3.33-9.44,5.55l-.39-.55c3.14-2.24,6.35-4.13,9.55-5.61,1.37-.63,5.06-2.13,9.84-2.58,3.07-.28,4.17.1,4.85.52,3.06,1.85,2.97,7.09,2.94,9.33-.24,15.93-.42,27.44-8.38,42.34-2.44,4.56-3.65,6.83-6.09,9.13-3.52,3.31-8.07,5.52-13.51,6.55Z"/>
    <path class="cls-7" d="m207.7,81.88h-.18v-.33h-.35l.14-.14-.08-.05c.82-1.24,1.74-2.48,2.72-3.69,3.43-4.18,7.51-7.72,12.14-10.5l.35.58c-4.56,2.74-8.59,6.22-11.97,10.35-.97,1.19-1.88,2.41-2.68,3.63l-.1.15Z"/>
    <path class="cls-7" d="m212.62,94.96l-.41-.54c1.89-1.44,2.85-3.76,2.43-5.93-.51-2.62-2.75-3.86-3.43-4.17-1.21-.57-2.59-.73-3.99-.45h-.07s0-.67,0-.67c1.48-.29,3.01-.12,4.35.51.75.35,3.23,1.73,3.81,4.66.47,2.42-.58,5.01-2.68,6.6Z"/>
    <path class="cls-7" d="m127.74,105.74l-.3-.61c1.55-.75,3.2-1.19,4.91-1.29,2.01-.12,4.07.23,5.94,1.03l-.27.62c-1.78-.76-3.72-1.1-5.64-.98-1.62.1-3.19.51-4.66,1.23Z"/>
    <path class="cls-7" d="m133.09,126.7c-.25,0-.49,0-.74-.03-2.74-.2-5.32-1.55-7.1-3.71-1.81-2.2-2.62-4.95-2.28-7.75l.67.08c-.32,2.61.44,5.18,2.13,7.24,1.66,2.01,4.07,3.28,6.62,3.46,2.58.19,5.07-.68,7.03-2.44,1.97-1.77,3.1-4.19,3.18-6.8l.68.02c-.09,2.8-1.3,5.39-3.41,7.28-1.91,1.72-4.29,2.64-6.79,2.64Z"/>
    <path class="cls-7" d="m121.03,120.83c-1.9,0-3.62-.65-4.53-1.85-.73-.96-1.02-2.4-.79-3.96.35-2.35,1.76-4.56,3.88-6.08l.39.55c-1.97,1.41-3.28,3.47-3.61,5.63-.21,1.38.03,2.64.65,3.45,1.03,1.35,3.75,2.18,6.75,1.09l.23.64c-.98.36-2.01.53-2.98.53Z"/>
    <path class="cls-7" d="m146.45,120.85c-1.3,0-2.73-.32-4.14-1.06l.31-.6c3.14,1.65,6.59,1.02,7.83-.62.62-.81.86-2.07.66-3.45-.32-2.17-1.64-4.22-3.61-5.64l.39-.55c2.12,1.52,3.54,3.74,3.89,6.09.23,1.56-.06,3-.79,3.96-.85,1.11-2.55,1.86-4.54,1.86Z"/>
    <path class="cls-7" d="m98.61,96.16l-.08-.03s-.02,0-.02,0l-.08.26-.02.06-.15.3.06.03c2.49.99,4.1,3.37,4.1,6.04,0,.23-.01.46-.04.73l-.02.15.24.03h.09s.09.05.09.05l.17.15.04-.05h0s.05-.15.05-.15c.04-.3.05-.61.05-.9,0-2.96-1.77-5.58-4.49-6.66Zm0,0l-.08-.03s-.02,0-.02,0l-.08.26-.02.06-.15.3.06.03c2.49.99,4.1,3.37,4.1,6.04,0,.23-.01.46-.04.73l-.02.15.24.03h.09s.09.05.09.05l.17.15.04-.05h0s.05-.15.05-.15c.04-.3.05-.61.05-.9,0-2.96-1.77-5.58-4.49-6.66Zm0,0l-.08-.03s-.02,0-.02,0l-.08.26-.02.06-.15.3.06.03c2.49.99,4.1,3.37,4.1,6.04,0,.23-.01.46-.04.73l-.02.15.24.03h.09s.09.05.09.05l.17.15.04-.05h0s.05-.15.05-.15c.04-.3.05-.61.05-.9,0-2.96-1.77-5.58-4.49-6.66Zm0,0l-.08-.03s-.02,0-.02,0l-.08.26-.02.06-.15.3.06.03c2.49.99,4.1,3.37,4.1,6.04,0,.23-.01.46-.04.73l-.02.15.24.03h.09s.09.05.09.05l.17.15.04-.05h0s.05-.15.05-.15c.04-.3.05-.61.05-.9,0-2.96-1.77-5.58-4.49-6.66Zm0,0l-.08-.03s-.02,0-.02,0l-.08.26-.02.06-.15.3.06.03c2.49.99,4.1,3.37,4.1,6.04,0,.23-.01.46-.04.73l-.02.15.24.03h.09s.09.05.09.05l.17.15.04-.05h0s.05-.15.05-.15c.04-.3.05-.61.05-.9,0-2.96-1.77-5.58-4.49-6.66Zm0,0l-.08-.03s-.02,0-.02,0l-.08.26-.02.06-.15.3.06.03c2.49.99,4.1,3.37,4.1,6.04,0,.23-.01.46-.04.73l-.02.15.24.03h.09s.09.05.09.05l.17.15.04-.05h0s.05-.15.05-.15c.04-.3.05-.61.05-.9,0-2.96-1.77-5.58-4.49-6.66Zm0,0l-.08-.03s-.02,0-.02,0l-.08.26-.02.06-.15.3.06.03c2.49.99,4.1,3.37,4.1,6.04,0,.23-.01.46-.04.73l-.02.15.24.03h.09s.09.05.09.05l.17.15.04-.05h0s.05-.15.05-.15c.04-.3.05-.61.05-.9,0-2.96-1.77-5.58-4.49-6.66Zm0,0l-.08-.03s-.02,0-.02,0l-.08.26-.02.06-.15.3.06.03c2.49.99,4.1,3.37,4.1,6.04,0,.23-.01.46-.04.73l-.02.15.24.03h.09s.09.05.09.05l.17.15.04-.05h0s.05-.15.05-.15c.04-.3.05-.61.05-.9,0-2.96-1.77-5.58-4.49-6.66Zm-2.51-13.07c-6.33,0-12.2,3.14-15.69,8.41,0,.01-.02.02-.02.03-.03.05-.06.1-.09.15-.02.02-.03.04-.04.06,0,0,0,0,0,.01-.17.26-.33.53-.49.79,0,0,0,.01-.01.02,0,0,0,0,0,.01s0,0,0,.01,0,0,0,.01,0,0,0,.01c-.01.03-.03.06-.04.09-.2.36-.39.72-.57,1.09l-.11.24v.02c-1.17,2.47-1.75,5.13-1.75,7.89,0,10.39,8.45,18.84,18.84,18.84s18.85-8.45,18.85-18.84-8.46-18.84-18.85-18.84Zm18.13,19.97c0,.09-.01.18-.02.27-.71,9.37-8.57,16.77-18.12,16.77-10.02,0-18.17-8.15-18.17-18.17,0-1.89.28-3.72.84-5.47.09-.3.19-.58.31-.87v-.02c.17-.44.35-.87.55-1.3h0s.11-.23.11-.23h0c.35-.72.75-1.43,1.18-2.09h0s.03-.05.04-.07c.44-.66.91-1.27,1.41-1.85.06-.07.12-.14.18-.2h0c2.04-2.3,4.61-4,7.47-5.02,0,0,0,0,.02,0,1.92-.68,3.96-1.03,6.05-1.03,10.02,0,18.17,8.15,18.17,18.17,0,.32,0,.63-.03.95,0,.06,0,.12-.01.18Zm-15.62-6.9l-.08-.03s-.02,0-.02,0l-.08.26-.02.06-.15.3.06.03c2.49.99,4.1,3.37,4.1,6.04,0,.23-.01.46-.04.73l-.02.15.24.03h.09s.09.05.09.05l.17.15.04-.05h0s.05-.15.05-.15c.04-.3.05-.61.05-.9,0-2.96-1.77-5.58-4.49-6.66Zm0,0l-.08-.03s-.02,0-.02,0l-.08.26-.02.06-.15.3.06.03c2.49.99,4.1,3.37,4.1,6.04,0,.23-.01.46-.04.73l-.02.15.24.03h.09s.09.05.09.05l.17.15.04-.05h0s.05-.15.05-.15c.04-.3.05-.61.05-.9,0-2.96-1.77-5.58-4.49-6.66Zm0,0l-.08-.03s-.02,0-.02,0l-.08.26-.02.06-.15.3.06.03c2.49.99,4.1,3.37,4.1,6.04,0,.23-.01.46-.04.73l-.02.15.24.03h.09s.09.05.09.05l.17.15.04-.05h0s.05-.15.05-.15c.04-.3.05-.61.05-.9,0-2.96-1.77-5.58-4.49-6.66Zm0,0l-.08-.03s-.02,0-.02,0l-.08.26-.02.06-.15.3.06.03c2.49.99,4.1,3.37,4.1,6.04,0,.23-.01.46-.04.73l-.02.15.24.03h.09s.09.05.09.05l.17.15.04-.05h0s.05-.15.05-.15c.04-.3.05-.61.05-.9,0-2.96-1.77-5.58-4.49-6.66Zm0,0l-.08-.03s-.02,0-.02,0l-.08.26-.02.06-.15.3.06.03c2.49.99,4.1,3.37,4.1,6.04,0,.23-.01.46-.04.73l-.02.15.24.03h.09s.09.05.09.05l.17.15.04-.05h0s.05-.15.05-.15c.04-.3.05-.61.05-.9,0-2.96-1.77-5.58-4.49-6.66Zm0,0l-.08-.03s-.02,0-.02,0l-.08.26-.02.06-.15.3.06.03c2.49.99,4.1,3.37,4.1,6.04,0,.23-.01.46-.04.73l-.02.15.24.03h.09s.09.05.09.05l.17.15.04-.05h0s.05-.15.05-.15c.04-.3.05-.61.05-.9,0-2.96-1.77-5.58-4.49-6.66Zm0,0l-.08-.03s-.02,0-.02,0l-.08.26-.02.06-.15.3.06.03c2.49.99,4.1,3.37,4.1,6.04,0,.23-.01.46-.04.73l-.02.15.24.03h.09s.09.05.09.05l.17.15.04-.05h0s.05-.15.05-.15c.04-.3.05-.61.05-.9,0-2.96-1.77-5.58-4.49-6.66Z"/>
    <path class="cls-7" d="m90.71,92.49s-.01-.01-.02-.02c-.12-.2-.25-.38-.39-.56-.17-.22-.36-.44-.55-.63-1.17-1.17-2.78-1.89-4.56-1.89-1.01,0-1.96.23-2.81.65-.12.06-.24.12-.36.19-.51.29-.97.64-1.38,1.05-.09.09-.17.18-.25.27-.63.7-1.11,1.55-1.38,2.49-.16.53-.25,1.1-.26,1.68,0,.04,0,.08,0,.12,0,.21.01.43.03.63.27,2.71,2.22,4.93,4.78,5.6.22.05.44.1.67.13.01,0,.02,0,.03,0,.3.05.62.07.93.07,1.4,0,2.7-.45,3.75-1.21.17-.12.34-.26.5-.39.19-.17.37-.34.54-.53h0c.44-.5.8-1.05,1.08-1.66.12-.27.22-.54.3-.82h0c.05-.17.09-.33.13-.5h0c.09-.44.14-.87.14-1.33,0-1.22-.34-2.36-.93-3.34Zm-5.52,9.11c-.3,0-.59-.02-.88-.06h0c-1.25-.2-2.38-.8-3.22-1.67-.03-.02-.06-.05-.09-.08t0-.01c-.97-1.03-1.57-2.42-1.57-3.94,0-.54.07-1.06.21-1.56h0c.24-.88.69-1.67,1.28-2.32h0c1.05-1.17,2.58-1.9,4.27-1.9,2.07,0,3.89,1.1,4.92,2.74.54.88.86,1.92.86,3.03,0,1.52-.59,2.91-1.57,3.94t0,.01c-1.05,1.12-2.55,1.82-4.2,1.82Z"/>
    <path class="cls-7" d="m95.53,114.66c-6.61,0-11.98-5.37-11.98-11.98,0-.31.01-.6.03-.9l.67.05c-.02.28-.03.57-.03.86,0,6.23,5.07,11.3,11.3,11.3s11.3-5.07,11.3-11.3-5.07-11.3-11.3-11.3c-1.79,0-3.58.43-5.17,1.25l-.31-.6c1.68-.87,3.58-1.33,5.48-1.33,6.61,0,11.98,5.37,11.98,11.98s-5.37,11.98-11.98,11.98Z"/>
    <path class="cls-1" d="m102.71,103.68c.03-.28.05-.57.05-.86,0-2.88-1.78-5.35-4.31-6.36,2.54.79,4.39,3.16,4.39,5.96,0,.43-.04.85-.13,1.26Z"/>
    <path class="cls-7" d="m171.56,95.36h0l-.02.17-.02.17-.03.2-.02.13c3.21.44,5.62,3.21,5.62,6.44,0,.17,0,.34-.02.51l.27.02.4.03c.02-.18.02-.37.02-.55,0-3.57-2.66-6.63-6.2-7.11Zm0,0h0l-.02.17-.02.17-.03.2-.02.13c3.21.44,5.62,3.21,5.62,6.44,0,.17,0,.34-.02.51l.27.02.4.03c.02-.18.02-.37.02-.55,0-3.57-2.66-6.63-6.2-7.11Zm0,0h0l-.02.17-.02.17-.03.2-.02.13c3.21.44,5.62,3.21,5.62,6.44,0,.17,0,.34-.02.51l.27.02.4.03c.02-.18.02-.37.02-.55,0-3.57-2.66-6.63-6.2-7.11Zm0,0h0l-.02.17-.02.17-.03.2-.02.13c3.21.44,5.62,3.21,5.62,6.44,0,.17,0,.34-.02.51l.27.02.4.03c.02-.18.02-.37.02-.55,0-3.57-2.66-6.63-6.2-7.11Zm0,0h0l-.02.17-.02.17-.03.2-.02.13c3.21.44,5.62,3.21,5.62,6.44,0,.17,0,.34-.02.51l.27.02.4.03c.02-.18.02-.37.02-.55,0-3.57-2.66-6.63-6.2-7.11Zm0,0h0l-.02.17-.02.17-.03.2-.02.13c3.21.44,5.62,3.21,5.62,6.44,0,.17,0,.34-.02.51l.27.02.4.03c.02-.18.02-.37.02-.55,0-3.57-2.66-6.63-6.2-7.11Zm0,0h0l-.02.17-.02.17-.03.2-.02.13c3.21.44,5.62,3.21,5.62,6.44,0,.17,0,.34-.02.51l.27.02.4.03c.02-.18.02-.37.02-.55,0-3.57-2.66-6.63-6.2-7.11Zm0,0h0l-.02.17-.02.17-.03.2-.02.13c3.21.44,5.62,3.21,5.62,6.44,0,.17,0,.34-.02.51l.27.02.4.03c.02-.18.02-.37.02-.55,0-3.57-2.66-6.63-6.2-7.11Zm-.8-12.76c-6.32,0-12.18,3.15-15.69,8.42,0,.01-.02.02-.02.03-.52.79-.98,1.6-1.37,2.43h0s-.04.1-.04.1h0c-1.14,2.47-1.73,5.12-1.73,7.87,0,10.38,8.46,18.84,18.85,18.84s18.85-8.46,18.85-18.84-8.46-18.85-18.85-18.85Zm17.69,22.99c-.03.15-.07.3-.11.44-.03.13-.07.27-.11.41,0,.03-.01.05-.02.07-.02.1-.05.19-.08.28-.05.16-.1.32-.15.47-2.43,7.17-9.23,12.34-17.21,12.34-10.02,0-18.17-8.15-18.17-18.17,0-1.89.28-3.72.85-5.48.09-.3.2-.6.31-.9v-.03c.16-.43.34-.82.54-1.24l.03-.06s0-.01,0-.02c.36-.77.79-1.52,1.27-2.26.02-.03.03-.05.05-.07.31-.47.65-.93,1-1.36h.01c.13-.17.26-.33.4-.48,3.43-3.96,8.41-6.27,13.72-6.27,7.86,0,14.58,5.02,17.11,12.04.08.22.15.45.23.68.05.14.09.29.13.44.09.29.16.58.22.87.04.15.07.3.1.45,0,.02,0,.03.01.04.03.13.05.27.07.4.03.15.05.3.07.46,0,.02,0,.05.01.07.03.12.04.26.05.38.07.46.11.92.13,1.4.02.31.03.63.03.95,0,1.26-.13,2.5-.38,3.69-.03.15-.06.3-.1.45Zm-16.89-10.23h0l-.02.17-.02.17-.03.2-.02.13c3.21.44,5.62,3.21,5.62,6.44,0,.17,0,.34-.02.51l.27.02.4.03c.02-.18.02-.37.02-.55,0-3.57-2.66-6.63-6.2-7.11Zm0,0h0l-.02.17-.02.17-.03.2-.02.13c3.21.44,5.62,3.21,5.62,6.44,0,.17,0,.34-.02.51l.27.02.4.03c.02-.18.02-.37.02-.55,0-3.57-2.66-6.63-6.2-7.11Zm0,0h0l-.02.17-.02.17-.03.2-.02.13c3.21.44,5.62,3.21,5.62,6.44,0,.17,0,.34-.02.51l.27.02.4.03c.02-.18.02-.37.02-.55,0-3.57-2.66-6.63-6.2-7.11Zm0,0h0l-.02.17-.02.17-.03.2-.02.13c3.21.44,5.62,3.21,5.62,6.44,0,.17,0,.34-.02.51l.27.02.4.03c.02-.18.02-.37.02-.55,0-3.57-2.66-6.63-6.2-7.11Zm0,0h0l-.02.17-.02.17-.03.2-.02.13c3.21.44,5.62,3.21,5.62,6.44,0,.17,0,.34-.02.51l.27.02.4.03c.02-.18.02-.37.02-.55,0-3.57-2.66-6.63-6.2-7.11Zm0,0h0l-.02.17-.02.17-.03.2-.02.13c3.21.44,5.62,3.21,5.62,6.44,0,.17,0,.34-.02.51l.27.02.4.03c.02-.18.02-.37.02-.55,0-3.57-2.66-6.63-6.2-7.11Zm0,0h0l-.02.17-.02.17-.03.2-.02.13c3.21.44,5.62,3.21,5.62,6.44,0,.17,0,.34-.02.51l.27.02.4.03c.02-.18.02-.37.02-.55,0-3.57-2.66-6.63-6.2-7.11Z"/>
    <path class="cls-7" d="m165.35,91.98s-.03-.05-.05-.07c-.1-.17-.22-.34-.34-.49-1.18-1.53-3.03-2.52-5.11-2.52-1.01,0-1.97.23-2.82.65-.27.13-.54.28-.79.45t-.01,0c-.44.3-.84.66-1.19,1.05-.62.69-1.09,1.52-1.37,2.43h0c-.14.47-.23.95-.26,1.46h0c-.01.13-.02.26-.02.39,0,.21.01.43.03.63.26,2.71,2.21,4.93,4.78,5.61.19.05.39.09.59.12.03,0,.05.01.08.01.31.05.63.07.96.07,1.42,0,2.74-.46,3.8-1.25.24-.18.46-.37.68-.57h0c.17-.17.33-.35.48-.53.28-.34.53-.71.73-1.11,0,0,.01-.01.01-.02.1-.17.18-.35.25-.53.13-.3.23-.62.31-.95h0c.11-.48.18-.99.18-1.5,0-1.23-.35-2.38-.95-3.36Zm-1.17,7.16h0s-.04.05-.06.07c-.12.14-.26.27-.39.39-.13.12-.27.23-.41.34-.38.29-.8.54-1.25.72-.09.04-.18.07-.27.11-.17.06-.33.12-.5.16-.1.02-.19.05-.29.06-.1.02-.19.04-.28.05-.28.04-.57.06-.87.06-.34,0-.67-.03-.99-.09-2.72-.46-4.78-2.83-4.78-5.68,0-.55.08-1.09.23-1.6,0,0,0-.01,0-.02.24-.85.69-1.62,1.27-2.26,1.05-1.17,2.58-1.9,4.27-1.9,2.03,0,3.82,1.05,4.85,2.65.59.9.92,1.98.92,3.12,0,1.4-.5,2.67-1.32,3.67-.02.03-.04.05-.06.07l-.06.06Z"/>
    <path class="cls-7" d="m171.56,95.36h0l-.02.17-.02.17-.03.2-.02.13c3.21.44,5.62,3.21,5.62,6.44,0,.17,0,.34-.02.51l.27.02.4.03c.02-.18.02-.37.02-.55,0-3.57-2.66-6.63-6.2-7.11Zm-1.37-5.15c-1.81,0-3.61.42-5.22,1.21-.09.04-.17.08-.26.12l.28.53.04.07c.11-.06.22-.11.33-.16,1.5-.72,3.16-1.1,4.84-1.1,6.23,0,11.31,5.08,11.31,11.31s-5.08,11.31-11.31,11.31-11.31-5.07-11.31-11.31c0-.16,0-.32.01-.48,0-.13.02-.25.02-.38h-.08s-.6-.04-.6-.04c0,.1-.01.19-.02.29-.01.2-.02.4-.02.61,0,6.61,5.37,11.98,11.98,11.98s11.98-5.37,11.98-11.98-5.37-11.98-11.98-11.98Z"/>
    <path class="cls-1" d="m177.4,103c.01-.18.02-.35.02-.53,0-3.47-2.58-6.33-5.92-6.78,3.33.13,5.99,2.87,5.99,6.24,0,.37-.03.72-.09,1.07Z"/>
    <path class="cls-7" d="m133.64,152.28c-.06,0-.12,0-.19,0-14.91-.1-22.97-12.25-23.31-12.76l.57-.37c.33.5,8.2,12.36,22.75,12.46.06,0,.12,0,.18,0,14,0,21.73-10.69,22.56-11.92l.56.38c-.86,1.25-8.78,12.21-23.12,12.21Z"/>
    <path class="cls-7" d="m136.6,161.62c-2.34,0-4.69-.48-6.84-1.41l.27-.62c2.28.98,4.8,1.45,7.25,1.34,2.25-.1,4.41-.64,6.45-1.61l.29.61c-2.12,1.01-4.37,1.58-6.71,1.68-.24,0-.47.01-.71.01Z"/>
    <path class="cls-7" d="m75.79,83.68l-.42-.53c1.64-1.28,3.3-2.37,5.09-3.33l.32.6c-1.75.93-3.38,2-4.99,3.26Z"/>
    <path class="cls-7" d="m110.53,79.34c-1.34-.6-2.77-1.11-4.23-1.54l.19-.65c1.49.44,2.95.96,4.32,1.57l-.27.62Z"/>
    <path class="cls-7" d="m83.95,78.92l-.13-.31h-.34s0-.22,0-.22l.21-.09c2.3-.95,4.72-1.64,7.18-2.07,4.5-.77,9.09-.64,13.62.4l-.15.66c-4.45-1.02-8.94-1.15-13.36-.39-2.41.42-4.78,1.1-7.03,2.03Z"/>
    <path class="cls-7" d="m158.2,78.64l-.27-.62c4.04-1.78,10.49-3.7,18.33-2.73l-.08.67c-7.69-.95-14.02.93-17.98,2.68Z"/>
    <path class="cls-7" d="m192.95,82.99c-.25-.19-.52-.41-.82-.63l.4-.55c.31.23.59.44.84.64l-.42.53Z"/>
    <path class="cls-7" d="m191.75,82.09c-2.64-1.89-5.5-3.39-8.53-4.45l.22-.64c3.08,1.08,6.01,2.61,8.7,4.54l-.39.55Z"/>
    <path class="cls-7" d="m170.57,109.66c-3.96,0-7.19-3.22-7.19-7.19,0-1.16.27-2.26.79-3.27v-.06l.11-.11.23.24h.35l-.05.17c-.5.94-.75,1.96-.75,3.03,0,3.59,2.92,6.51,6.51,6.51,3.38,0,6.23-2.64,6.49-6.01l.67.05c-.29,3.72-3.43,6.63-7.17,6.63Z"/>
    <path class="cls-7" d="m165.29,98.46v-.33h-.34l.16-.16-.08-.06c1.37-1.66,3.39-2.62,5.55-2.62.35,0,.67.02.98.07l-.1.67c-.28-.04-.56-.06-.88-.06-1.95,0-3.79.86-5.03,2.37l-.1.12h-.16Z"/>
    <path class="cls-7" d="m95.92,110.01c-3.96,0-7.19-3.22-7.19-7.19,0-1.05.22-2.07.66-3.01l.61.29c-.4.85-.6,1.77-.6,2.72,0,3.59,2.92,6.51,6.51,6.51,3.25,0,6.02-2.43,6.45-5.64l.03-.14c.03-.26.04-.5.04-.73,0-2.68-1.61-5.06-4.1-6.05l-.07-.03c-.73-.29-1.53-.44-2.34-.44-1.86,0-3.63.8-4.87,2.19l-.5-.45c1.37-1.54,3.33-2.42,5.38-2.42.9,0,1.78.17,2.62.5l.08.03c2.71,1.08,4.49,3.7,4.49,6.66,0,.29-.02.6-.06.9l-.02.12c-.49,3.52-3.54,6.17-7.11,6.17Z"/>
  </g>
  <path class="cls-7" d="m26.67,264.7c-.92,0-1.66-.25-2.17-.74-.56-.55-.73-1.29-.94-2.23-.31-1.33-.31-2.79,0-4.34.84-4.27,3.67-7.24,3.79-7.37.71-.73,1.51-1.39,2.36-1.95.52-.34,1.09-.66,1.68-.94l.23.48c-.57.27-1.11.58-1.61.91-.82.54-1.58,1.17-2.27,1.87-.11.12-2.84,2.97-3.65,7.1-.29,1.47-.29,2.86,0,4.12.19.85.35,1.53.79,1.96.56.54,1.55.72,2.79.5l.09.52c-.39.07-.75.1-1.09.1Z"/>
  <path class="cls-7" d="m32.07,275.08c-.79,0-1.51-.18-2.16-.53-1.39-.75-1.99-2.05-2.36-2.82-.05-.11-.1-.23-.15-.34l-.02-.06c-.78-1.97-.55-3.8-.41-4.89.1-.73.26-1.47.49-2.18.16-.49.34-.96.54-1.41.36-.8.81-1.57,1.36-2.34l.43.31c-.53.75-.96,1.48-1.31,2.25-.2.43-.37.89-.52,1.36-.22.68-.38,1.39-.47,2.09-.13,1.05-.36,2.82.4,4.67l.02.05c.04.09.08.18.12.28.34.72.9,1.92,2.13,2.58.92.5,2.02.59,3.26.29l.13.52c-.51.13-1.01.19-1.47.19Z"/>
  <path class="cls-7" d="m41.22,281.44c-.41,0-.81-.02-1.21-.07-1.17-.14-3.62-.44-5.27-2.39-.96-1.13-1.46-2.59-1.51-4.34-.03-1.17.14-2.24.23-2.81.2-1.27.6-2.5,1.2-3.65l.47.24c-.57,1.11-.96,2.28-1.15,3.49-.09.56-.26,1.59-.23,2.71.04,1.63.51,2.98,1.39,4.01,1.52,1.78,3.82,2.07,4.93,2.2,1.34.16,2.7.04,4.03-.37l.16.51c-1,.31-2.02.46-3.04.46Z"/>
  <path class="cls-7" d="m44.76,275.76c-.91-.04-1.82-.17-2.72-.4-1.53-.4-2.97-1.06-4.27-1.97l.31-.44c1.25.87,2.63,1.51,4.09,1.89.86.22,1.74.35,2.61.39l-.02.53Z"/>
  <rect class="cls-7" x="35.14" y="272.45" width="5.68" height=".53" transform="translate(-237.31 278.45) rotate(-83.26)"/>
  <path class="cls-7" d="m143.12,267.04c-4.44,0-8.87-.1-13.31-.28-27.51-1.18-54.76-6.01-81.01-14.36-1.22-.39-2.4-.78-3.57-1.16l-.2-.07.02-.21c1.08-9.63,3.21-19.12,6.34-28.23,4.29-12.48,10.47-24.27,18.36-35.06.1-.13.19-.27.29-.4.03-.04.05-.07.08-.1l.45.28-.07.09c-.12.17-.22.3-.31.43-7.86,10.75-14.01,22.5-18.28,34.92-3.09,9-5.21,18.38-6.29,27.9,1.09.36,2.21.73,3.35,1.09,26.2,8.34,53.41,13.16,80.87,14.34,28.01,1.2,56.06-1.4,83.36-7.73,1.13-.26,2.23-.52,3.31-.78-.77-13.92-3.42-27.59-7.9-40.64-.69-2.03-1.46-4.11-2.28-6.2-3.14-7.99-7-15.76-11.48-23.11l-.14-.23c-.08-.13-.16-.27-.24-.4-.05-.07-.11-.17-.15-.25-.04-.06-.07-.1-.1-.14-.04-.07-.06-.11-.09-.14l.44-.3s.06.09.09.14c.04.06.06.1.08.13l.04.06c.04.07.09.15.14.22.09.14.16.27.24.41l.14.23c4.49,7.37,8.37,15.17,11.52,23.19.82,2.1,1.59,4.19,2.29,6.23,4.52,13.17,7.19,26.96,7.94,41.01v.22s-.2.05-.2.05c-1.15.28-2.32.56-3.53.84-23.03,5.34-46.58,8.03-70.19,8.03Z"/>
  <path class="cls-7" d="m172.6,356.32c-.31,0-.62,0-.93,0-5.25-.01-10.58-.3-15.84-.84-10.01-1.03-19.98-3.01-29.64-5.89-12.7,1.84-25.67,2.81-38.56,2.88-.98,0-1.98,0-2.98,0-4.28-.02-8.66-.15-13.03-.37-8.18-.42-16.44-1.21-24.56-2.36l-.19-.03-.04-.19c-3.55-18.76-4.84-37.89-3.86-56.87.21-3.96.52-7.98.92-11.95.18-1.75.38-3.51.59-5.24.23-1.82.48-3.62.74-5.36.89-6.02,2.02-12.08,3.37-18.03l.52.12c-1.35,5.93-2.48,11.99-3.37,17.99-.26,1.74-.51,3.53-.73,5.35-.21,1.72-.41,3.48-.59,5.22-.41,3.96-.72,7.97-.92,11.93-.98,18.87.31,37.9,3.82,56.56,8.04,1.12,16.22,1.91,24.32,2.33,4.36.23,8.73.35,13,.37,1,0,2,0,2.97,0,12.87-.07,25.83-1.04,38.51-2.88h.11s.04,0,.04,0c9.64,2.88,19.6,4.86,29.59,5.89,5.24.54,10.55.82,15.79.83.31,0,.61,0,.92,0,12.93-.03,25.86-1.63,38.44-4.76,3.58-19.96,5.1-40.3,4.55-60.44-.29-10.61-1.17-21.31-2.6-31.8l.53-.07c1.44,10.5,2.32,21.22,2.61,31.85.56,20.24-.98,40.66-4.58,60.72l-.03.17-.17.04c-12.68,3.17-25.71,4.79-38.74,4.82Z"/>
  <path class="cls-7" d="m45.32,270.33c-2.94-2.89-5.56-6.12-7.8-9.6-2.65-4.11-4.77-8.58-6.28-13.28-.21-.65-.41-1.33-.62-2.07l-.02-.06v-.06c1.81-11.5,7.64-33.2,26.55-49.28,3.95-3.36,8.31-6.32,12.97-8.81l.25.47c-4.62,2.47-8.96,5.42-12.88,8.75-18.75,15.94-24.56,37.45-26.35,48.9.2.71.4,1.37.6,1.99,1.5,4.65,3.6,9.08,6.22,13.16,2.22,3.45,4.82,6.64,7.73,9.51l-.37.38Z"/>
  <path class="cls-7" d="m208.93,217.23l-.15-.51c3.82-1.11,7.56-2.41,11.12-3.89,5-2.06,9.84-4.53,14.4-7.32,1.9-1.16,3.76-2.39,5.55-3.65.71-.89,1.8-2.34,3.06-4.22,1.19-1.79,2.04-3.24,3.96-6.75,1.47-2.68,2.98-5.5,4.49-8.39-.52-.75-1.07-1.52-1.65-2.29-2.95-3.92-6.31-7.54-9.99-10.77-1.57-1.37-3.17-2.66-4.75-3.82-2.55-1.88-5.26-3.61-8.06-5.14-.91,1.77-2.36,4.53-4.29,8.01-5.71,10.25-7.67,12.18-9.64,13.63-.44.33-.9.63-1.38.92-1.96,1.18-3.93,1.8-6.65,2.65-3.15.98-6.46,1.72-9.83,2.19l-.07-.53c3.34-.47,6.62-1.2,9.74-2.17,2.69-.84,4.63-1.45,6.54-2.6.47-.28.91-.57,1.34-.89,1.91-1.41,3.83-3.3,9.49-13.46,2.02-3.63,3.52-6.48,4.41-8.24l.12-.24.24.13c2.91,1.58,5.72,3.36,8.36,5.31,1.6,1.17,3.21,2.46,4.79,3.85,3.71,3.25,7.1,6.9,10.06,10.85.62.83,1.21,1.65,1.76,2.44l.09.13-.07.14c-1.54,2.94-3.07,5.82-4.57,8.54-1.9,3.49-2.8,5.01-3.98,6.79-1.28,1.92-2.4,3.39-3.11,4.28l-.05.05c-1.8,1.28-3.69,2.52-5.61,3.69-4.58,2.81-9.45,5.28-14.47,7.36-3.58,1.48-7.34,2.8-11.18,3.91Z"/>
  <path class="cls-7" d="m188.61,188.87l-.04-.53c.38-.03.75-.06,1.11-.09.31-.02.6-.05.89-.08l.04.53h0c-.26.04-.56.06-.87.08-.37.04-.74.07-1.12.1Z"/>
  <path class="cls-7" d="m183.33,191.45l-.05-.08c-.05-.09-.1-.17-.14-.26l-.13-.23.46-.27.14.24c.05.09.1.17.14.25l.05.08-.46.26Z"/>
  <path class="cls-7" d="m180.62,165.55l-.14-.51c.06-.02.11-.02.13-.02v.53Z"/>
  <path class="cls-7" d="m211.2,182.9c-1.22-2.95-2.48-5.96-3.76-8.94-.04-.11-.08-.2-.13-.3l-.27-.63.49-.21.27.63c.05.1.09.2.14.32,1.28,2.97,2.55,5.98,3.76,8.94l-.49.2Z"/>
  <path class="cls-7" d="m196.74,383.67l-.04-.53c5.09-.42,9.77-.86,13.9-1.24,8.66-.81,17.32-1.79,25.77-2.91,1.81-37.86-.2-76.06-5.99-113.53-2.7-17.49-6.28-35.09-10.63-52.31l.52-.13c4.36,17.23,7.94,34.85,10.64,52.36,5.8,37.58,7.82,75.89,5.98,113.86v.22s-.23.03-.23.03c-8.52,1.14-17.27,2.13-26.01,2.95-4.13.38-8.81.82-13.91,1.24Z"/>
  <path class="cls-7" d="m181.15,165.54l-.03-.53c.21-.01.44-.02.65-.03v.53c-.2,0-.41.02-.62.03Z"/>
  <path class="cls-7" d="m30.11,248.34l-.53-.07c.51-3.76,1.08-7.41,1.73-11.16,2.65-15.2,5.17-23.15,7.08-28.39,4.49-12.38,10.79-24.15,18.71-34.97.16-.22.32-.44.48-.66l.47.27-.03.04c-.16.22-.32.44-.48.66-7.89,10.78-14.16,22.51-18.64,34.84-1.9,5.21-4.41,13.14-7.05,28.3-.65,3.75-1.22,7.39-1.73,11.14Z"/>
  <path class="cls-7" d="m235.34,165.55l-.45-.29,2.57-3.99c-2.6-1.55-4.86-3.52-6.7-5.84-1.78-2.23-4.76-5.97-4.69-11.19.02-1.57.37-5.54,3.27-8.49.83-.85,3.04-3.1,5.37-2.47,1.83.49,3.08,2.54,3.23,4.23.07.75-.09,1.28-.25,1.79-.18.58-.34,1.12-.23,2.03.07.53.26,2.08,1.13,2.51.97.48,2.83-.57,4.96-2.82.77-.8,3.3-3.73,3.6-7.98.07-1.02.22-3.12-.66-3.58-.33-.17-.69-.03-1.35.24-.65.28-1.55.66-2.82.74-.95.07-2.55.17-3.4-.72-1.71-1.79.55-6.15,1.57-7.68.79-1.2,3.07-4.08,7.03-5.06,1.32-.33,2.57-.64,3.99-.15,3.34,1.15,4.4,5.67,4.8,7.37.51,2.22.46,3.96.33,6-.15,2.31-.36,4.53-.62,6.78l-.53-.06c.26-2.24.46-4.45.62-6.75.13-2,.18-3.7-.31-5.83-.38-1.63-1.39-5.94-4.46-7-1.27-.44-2.39-.16-3.69.17-3.78.94-5.95,3.7-6.71,4.84-1.42,2.14-2.86,5.73-1.63,7.02.69.71,2.07.62,2.98.56,1.18-.08,2-.42,2.65-.7.69-.29,1.24-.52,1.8-.23,1.19.62,1.03,2.87.94,4.08-.31,4.32-2.72,7.26-3.75,8.32-1.37,1.44-3.93,3.75-5.58,2.93-1.12-.55-1.35-2.32-1.42-2.9-.13-1.04.07-1.7.25-2.27.15-.48.29-.94.23-1.59-.13-1.48-1.25-3.33-2.84-3.76-2.03-.55-4.01,1.46-4.85,2.32-2.76,2.82-3.1,6.62-3.12,8.13-.07,5.03,2.84,8.68,4.57,10.85,1.86,2.34,4.15,4.31,6.8,5.85l.24.14-2.87,4.46Z"/>
  <path class="cls-7" d="m256.34,149.63c-.25,0-.46,0-.61-.01-1.8-.05-3.36-.09-4.35-1.21-1.9-2.14-.03-6.72,1.9-9.28.3-.4,1.08-1.45,2.31-2.39,1.17-.92,2.49-1.55,3.92-1.86,3.12-.68,5.41-.32,6.64,1.04,1.29,1.43,1.4,4.04.3,6.81l-.07.17h-.15c-1.46.4-2.79,1.09-3.95,2.04-1.34,1.11-2.53,2.65-3.35,4.34l-.06.12-.13.03c-.96.19-1.81.22-2.42.22Zm5.95-14.55c-.8,0-1.69.1-2.66.32-1.35.3-2.6.89-3.71,1.76-1.04.8-1.73,1.65-2.21,2.29-1.77,2.35-3.61,6.71-1.93,8.61.83.94,2.28.98,3.96,1.03.51.02,1.54.05,2.78-.18.85-1.71,2.06-3.26,3.43-4.39,1.19-.98,2.55-1.69,4.06-2.12.98-2.53.88-4.87-.25-6.13-.72-.79-1.91-1.19-3.48-1.19Z"/>
  <path class="cls-7" d="m262.55,155.7c-.22,0-.42,0-.59,0-1.88-.02-3.13-.03-3.87-.89-.95-1.1-.81-3.31.38-5.77.85-1.76,2.09-3.36,3.49-4.51,1.22-1.01,2.63-1.73,4.18-2.15h.04c2.71-.73,5.15-.34,6.07-.14,1.14.25,1.89.61,2.23,1.06.93,1.23.64,3.54-.77,6.04l-.46-.26c1.29-2.27,1.6-4.42.81-5.45-.26-.34-.94-.64-1.92-.86-.89-.2-3.24-.57-5.85.14h-.04c-1.46.41-2.79,1.1-3.95,2.05-1.34,1.11-2.53,2.65-3.35,4.34-1.08,2.23-1.25,4.27-.45,5.19.59.68,1.67.69,3.48.71.61,0,1.63.03,2.78-.13l.07.53c-.87.12-1.66.14-2.27.14Z"/>
  <path class="cls-7" d="m250.13,180.2l-.44-.31c.74-1.06,1.27-2.13,1.56-3.17l.02-.08c.13-.46.37-1.33,1.12-1.95.6-.5,1.42-.76,2.41-.77,1.01,0,2.09-.16,3.3-.47,1.13-.29,2.27-.64,3.37-1.03,3.11-1.1,5.23-2.3,7.68-3.69,3.57-2,5.34-3,6.82-4.6,1.08-1.16,2.54-3.12,3.44-5.83.82-2.48,1.6-4.83.45-6.66-1.57-2.5-5.78-2.49-8.07-1.9-2.64.69-4.21,2.46-5.06,3.41-1.12,1.26-2.81,3.16-2.37,5.28.05.28.39,1.68,1.66,2.36,1.28.68,3.03.35,4.36-.81l.35.4c-1.49,1.31-3.48,1.67-4.96.88-1.49-.79-1.87-2.41-1.93-2.72-.49-2.38,1.31-4.4,2.5-5.73.88-.99,2.53-2.85,5.32-3.57,2.53-.66,6.92-.63,8.65,2.13,1.28,2.04.43,4.62-.4,7.11-.92,2.8-2.44,4.82-3.55,6.02-1.53,1.66-3.33,2.68-6.93,4.7-2.5,1.41-4.63,2.62-7.78,3.74-1.12.4-2.27.75-3.42,1.05-1.26.33-2.38.49-3.43.49-.87,0-1.56.22-2.07.64-.62.52-.83,1.25-.95,1.69l-.02.08c-.31,1.1-.86,2.23-1.64,3.33Z"/>
  <path class="cls-7" d="m23.51,385.72c-1.23-1.45-1.72-3.1-1.3-4.41.22-.69.84-1.69,2.49-2.52,1.1-.54,1.85-.51,4.32-.39l1.02.05c1.15.05,2.06.08,2.8.1,2.32.07,2.94.09,4.06.55,1.12.46,2.15,1.11,3.07,1.95,1.1-.85,2.19-1.7,3.29-2.54,2.02-1.38,4.17-2.6,6.4-3.63,2.72-1.25,5.58-2.21,8.5-2.88,4-.91,8.13-1.23,12.26-.97l.07-1.5c.29-5.9.58-11.81.88-17.71l.53.03c-.3,5.91-.59,11.81-.88,17.71l-.1,2.04-.27-.02c-4.17-.29-8.33.03-12.37.94-2.89.65-5.72,1.61-8.4,2.84-2.21,1.02-4.33,2.22-6.31,3.58-1.14.88-2.3,1.77-3.45,2.67l-.18.14-.17-.16c-.91-.87-1.94-1.54-3.07-2-1.04-.42-1.64-.44-3.88-.51-.74-.02-1.65-.05-2.8-.1l-1.02-.05c-2.37-.11-3.08-.15-4.05.33-1.5.75-2.04,1.61-2.23,2.21-.37,1.13.08,2.59,1.2,3.9l-.41.35Z"/>
  <path class="cls-7" d="m23.16,394.75c-.82-.21-1.62-.49-2.38-.83-1.54-.7-2.45-1.47-2.96-2.49-.29-.57-.73-1.71-.33-2.88.35-1.01,1.44-1.88,3.15-2.52.91-.34,1.93-.59,3.03-.74,2.47-.34,5.44-.2,8.61.41l-.1.52c-3.11-.6-6.02-.74-8.43-.4-1.07.15-2.05.38-2.92.71-1.54.57-2.54,1.35-2.83,2.2-.35,1.02.09,2.07.3,2.47.3.61.89,1.41,2.71,2.24.72.33,1.49.6,2.29.8l-.13.52Z"/>
  <path class="cls-7" d="m27.7,402.1c-.67,0-1.32-.04-1.96-.12-2.73-.35-3.57-1.23-3.97-1.86-.73-1.15-.53-2.5-.35-3.2.25-.96.79-1.84,1.62-2.62,1.4-1.32,3.39-2.15,4.84-2.76,2.29-.96,4.76-1.5,7.34-1.6l.02.53c-2.51.09-4.92.62-7.15,1.56-1.41.59-3.35,1.4-4.68,2.65-.76.72-1.25,1.49-1.47,2.36-.16.62-.34,1.8.28,2.78.2.31.8,1.26,3.59,1.61,1.36.17,2.82.15,4.33-.06l.07.53c-.86.12-1.7.18-2.52.18Z"/>
  <path class="cls-7" d="m35.41,411.2c-.44,0-.88-.03-1.32-.08-3.09-.39-5.01-1.45-5.72-3.16-.56-1.35-.12-2.68.21-3.66l.1-.3c.28-.88.72-1.72,1.29-2.5,2.05-2.77,5.35-3.99,6.59-4.45,2-.75,4.16-1.07,6.41-.96l-.03.53c-2.17-.1-4.26.21-6.19.93-1.2.44-4.39,1.62-6.35,4.27-.54.73-.95,1.52-1.21,2.34l-.1.31c-.31.95-.7,2.12-.22,3.29.63,1.52,2.41,2.47,5.3,2.84,3.06.39,6.22-.65,9.4-3.09.95-.73,1.35-1.2,1.82-1.75.35-.41.71-.83,1.33-1.4,3.2-2.94,6.84-3.78,9.76-4.46l.75-.17c5.66-1.34,8.05-2.71,10.58-4.15,2.55-1.46,5.44-3.11,12.1-4.98l.28-.08c2.27-.64,5.7-1.6,8.09-4.56.5-.62,1.68-2.07,2.04-4.03.1-.48.13-.97.11-1.46-.08-1.62-.82-3.06-1.54-4.44-.49-.94-.85-1.44-1.17-1.88-.3-.41-.59-.8-.89-1.46-.79-1.67-.89-3.26-.81-5.79.1-3,.4-5.02.69-6.97.15-.99.3-2.01.42-3.13.16-1.47.25-3.02.26-4.59h.53c-.01,1.6-.1,3.16-.26,4.65-.12,1.13-.27,2.16-.42,3.15-.29,1.94-.58,3.95-.68,6.91-.08,2.45.02,3.98.76,5.55.29.61.54.96.84,1.37.33.45.7.97,1.2,1.93.75,1.45,1.52,2.94,1.61,4.68.03.53-.01,1.07-.12,1.59-.39,2.09-1.63,3.61-2.15,4.26-2.5,3.09-6.03,4.08-8.36,4.74l-.28.08c-6.6,1.86-9.33,3.42-11.98,4.93-2.56,1.46-4.98,2.85-10.72,4.21l-.75.18c-2.86.66-6.43,1.49-9.52,4.33-.6.55-.95.96-1.29,1.36-.47.54-.91,1.06-1.88,1.81-2.86,2.19-5.71,3.29-8.49,3.29Z"/>
  <path class="cls-7" d="m219.47,392.62h-.12v-.27s-.2-.17-.2-.17c1.12-1.3,1.58-2.76,1.23-3.89-.27-.86-1.05-1.65-2.2-2.23-.95-.49-1.65-.46-3.97-.38l-1.09.04c-1.16.04-2.07.06-2.8.07-2.24.05-2.85.06-3.89.47-1.13.44-2.16,1.11-3.08,1.96l-.17.16-3.62-2.86c-.96-.67-1.96-1.31-2.96-1.89-3.66-2.13-7.59-3.7-11.67-4.67-4.03-.95-8.19-1.31-12.36-1.06l-.27.02v-.27c-.27-6.41-.52-12.82-.77-19.22l-.09-2.37.53-.02.09,2.37c.25,6.32.5,12.63.75,18.95,4.13-.22,8.25.15,12.24,1.09,4.14.97,8.11,2.56,11.82,4.73,1.01.59,2.03,1.24,3.01,1.92l3.28,2.58c.93-.83,1.96-1.47,3.08-1.92,1.14-.44,1.76-.46,4.08-.51.73-.02,1.64-.03,2.8-.07l1.09-.04c2.36-.09,3.16-.12,4.23.43,1.28.64,2.16,1.55,2.47,2.54.41,1.31-.09,2.95-1.33,4.4l-.08.09Z"/>
  <path class="cls-7" d="m219.8,401.57l-.12-.52c.78-.19,1.56-.45,2.3-.78,1.83-.82,2.42-1.62,2.73-2.22.45-.87.56-1.75.33-2.47-.16-.49-.73-1.43-2.82-2.23-.86-.33-1.84-.58-2.9-.74-3.06-.45-6.28-.07-8.44.32l-.1-.52c2.2-.4,5.48-.79,8.61-.33,1.11.16,2.13.42,3.02.77,1.7.66,2.81,1.57,3.13,2.56.28.85.16,1.87-.36,2.87-.52,1.01-1.44,1.77-2.99,2.46-.77.34-1.57.61-2.39.81Z"/>
  <path class="cls-7" d="m215.37,408.86c-.87,0-1.77-.07-2.7-.21l.08-.53c1.52.23,2.97.26,4.33.1,2.8-.33,3.41-1.27,3.6-1.57.67-1.03.44-2.29.31-2.78-.21-.88-.68-1.65-1.44-2.38-1.31-1.27-3.16-2.06-4.65-2.71-2.21-.96-4.62-1.51-7.14-1.63l.03-.53c2.59.13,5.05.69,7.32,1.67,1.45.62,3.43,1.48,4.81,2.81.82.78,1.36,1.67,1.59,2.63.14.56.4,1.99-.38,3.2-.63.98-1.94,1.57-3.99,1.81-.58.07-1.17.1-1.78.1Z"/>
  <path class="cls-7" d="m207.49,417.89c-2.83,0-5.7-1.13-8.55-3.37-.97-.76-1.4-1.28-1.86-1.83-.34-.4-.68-.81-1.27-1.37-3.07-2.87-6.62-3.73-9.47-4.42l-.76-.19c-5.73-1.42-8.13-2.83-10.68-4.32-2.63-1.54-5.35-3.13-11.92-5.05l-.27-.08c-2.33-.68-5.85-1.7-8.33-4.83-.65-.82-2.38-3-2.21-5.87.1-1.75.89-3.23,1.65-4.66.51-.96.89-1.47,1.23-1.93.3-.4.56-.75.85-1.35.76-1.57.87-3.1.82-5.54-.07-2.96-.34-4.97-.61-6.91-.14-1-.28-2.03-.39-3.16-.26-2.72-.29-5.55-.07-8.4l.53.04c-.21,2.82-.19,5.61.07,8.31.11,1.13.25,2.15.39,3.14.27,1.96.55,3.98.61,6.97.06,2.53-.06,4.12-.87,5.79-.31.64-.6,1.03-.9,1.44-.32.44-.69.93-1.18,1.86-.73,1.38-1.49,2.81-1.59,4.44-.16,2.67,1.48,4.74,2.09,5.51,2.37,2.99,5.79,3.99,8.06,4.65l.27.08c6.64,1.94,9.51,3.62,12.04,5.1,2.51,1.47,4.89,2.86,10.54,4.26l.76.19c2.91.71,6.54,1.58,9.71,4.55.61.57.97,1,1.32,1.41.46.55.86,1.03,1.78,1.75,3.15,2.48,6.31,3.55,9.38,3.19,2.89-.34,4.69-1.27,5.33-2.78.5-1.16.12-2.34-.19-3.29l-.1-.31c-1.33-4.33-5.97-6.1-7.49-6.68-1.94-.74-4.02-1.08-6.19-.99l-.02-.53c2.24-.09,4.39.26,6.4,1.03,1.58.6,6.4,2.44,7.81,7.02l.1.31c.31.98.74,2.32.17,3.66-.72,1.69-2.66,2.74-5.76,3.1-.41.05-.81.07-1.22.07Z"/>
  <path class="cls-7" d="m126.44,349.39l-.51-.15c2.48-8.45,4.05-17.17,4.65-25.92.63-9.04.24-18.16-1.15-27.11l.53-.08c1.39,8.98,1.78,18.14,1.15,27.22-.61,8.78-2.18,17.54-4.68,26.03Z"/>
  <path class="cls-7" d="m133.14,266.62c-.15-3.92-.25-7.87-.31-11.75-.02-1.17-.04-2.36-.05-3.54-.04-3.42-.04-6.95-.02-10.48v-.28c.01-.91.02-1.82.04-2.74,0-.17,0-.35.01-.53.03-2.61.1-5.42.19-8.58.03-1.18.07-2.37.12-3.54.07-1.87.14-3.73.23-5.57.01-.26.02-.51.04-.77,0-.04,0-.1,0-.15l.53.07s0,.06,0,.1c-.02.26-.03.52-.04.77-.09,1.84-.16,3.7-.23,5.56-.04,1.17-.09,2.35-.12,3.53-.1,3.16-.16,5.97-.19,8.58,0,.17-.01.35-.01.52-.01.92-.02,1.83-.03,2.74v.28c-.03,3.53-.02,7.06.01,10.47.01,1.19.03,2.37.05,3.54.06,3.88.17,7.83.31,11.74l-.53.02Z"/>
  <g>
    <circle class="cls-11" cx="133.02" cy="253.1" r="1.78"/>
    <path class="cls-7" d="m133.02,255.14c-1.13,0-2.04-.92-2.04-2.04s.92-2.04,2.04-2.04,2.04.92,2.04,2.04-.92,2.04-2.04,2.04Zm0-3.55c-.83,0-1.51.68-1.51,1.51s.68,1.51,1.51,1.51,1.51-.68,1.51-1.51-.68-1.51-1.51-1.51Z"/>
  </g>
  <circle class="cls-7" cx="132.53" cy="252.65" r=".37"/>
  <circle class="cls-7" cx="132.53" cy="253.55" r=".37"/>
  <circle class="cls-7" cx="133.5" cy="252.65" r=".37"/>
  <circle class="cls-7" cx="133.5" cy="253.55" r=".37"/>
  <g>
    <circle class="cls-11" cx="133.14" cy="239.07" r="1.78"/>
    <path class="cls-7" d="m133.14,241.12c-1.13,0-2.04-.92-2.04-2.04s.92-2.04,2.04-2.04,2.04.92,2.04,2.04-.92,2.04-2.04,2.04Zm0-3.55c-.83,0-1.51.68-1.51,1.51s.68,1.51,1.51,1.51,1.51-.68,1.51-1.51-.68-1.51-1.51-1.51Z"/>
  </g>
  <circle class="cls-7" cx="132.65" cy="238.62" r=".37"/>
  <circle class="cls-7" cx="132.65" cy="239.53" r=".37"/>
  <circle class="cls-7" cx="133.62" cy="238.62" r=".37"/>
  <circle class="cls-7" cx="133.62" cy="239.53" r=".37"/>
  <g>
    <circle class="cls-11" cx="133.25" cy="226.94" r="1.78"/>
    <path class="cls-7" d="m133.25,228.99c-1.13,0-2.04-.92-2.04-2.04s.92-2.04,2.04-2.04,2.04.92,2.04,2.04-.92,2.04-2.04,2.04Zm0-3.55c-.83,0-1.51.68-1.51,1.51s.68,1.51,1.51,1.51,1.51-.68,1.51-1.51-.68-1.51-1.51-1.51Z"/>
  </g>
  <circle class="cls-7" cx="132.77" cy="226.49" r=".37"/>
  <circle class="cls-7" cx="132.77" cy="227.4" r=".37"/>
  <circle class="cls-7" cx="133.74" cy="226.49" r=".37"/>
  <circle class="cls-7" cx="133.74" cy="227.4" r=".37"/>
  <g>
    <path class="cls-18" d="m240.67,128.58c-.68.06-1.19.3-1.54.47-.9.44-1.5,1.01-1.95,1.45-.44.43-1.12,1.1-1.76,2.2-.14.24-1.09,1.93-1.18,3.92-.01.32,0,.62.06.89,1.88,0,3.4-1.65,4.57-2.9,1.24-1.33,1.91-2.56,2.29-3.39.4-.88.77-1.73.74-2.62-.37-.1-.85-.06-1.23-.02Z"/>
    <path class="cls-20" d="m240.78,126.46c.44.29.88.9,1.05,1.63.04.17.06.34.07.51-.37-.1-.85-.06-1.23-.02-.68.06-1.19.3-1.54.47-.9.44-1.5,1.01-1.95,1.45-.44.43-1.12,1.1-1.76,2.2-.14.24-1.09,1.93-1.18,3.92-.01.32,0,.62.06.89-.03,0-.06,0-.1,0-.33,0-1.02-.04-1.62-.55-.44-.37-.69-.88-.84-1.37,0-.75.15-1.43.27-1.96,0,0,.86-3.83,4.66-6.47,1.61-.93,3.2-1.31,4.11-.71Z"/>
    <path class="cls-19" d="m241.6,126.29c1.19.66,1.71,1.79,1.92,2.24.54,1.19.55,2.3.55,2.69,0,2.97-1.96,5.83-4.09,7.34-.8.57-2.57,1.82-4.67,1.37-.42-.09-2.47-.53-3.28-2.68-.21-.57-.29-1.12-.29-1.65.15.49.4,1,.84,1.37.6.51,1.29.54,1.62.55.03,0,.06,0,.1,0,1.88,0,3.4-1.65,4.57-2.9,1.24-1.33,1.91-2.56,2.29-3.39.4-.88.77-1.73.74-2.62,0-.17-.03-.34-.07-.51-.16-.73-.61-1.35-1.05-1.63-.91-.6-2.5-.22-4.11.71.48-.33,1-.64,1.57-.93.71-.35,1.25-.4,1.44-.42.95-.06,1.65.31,1.92.46Z"/>
    <path class="cls-18" d="m241.9,128.6c.04.89-.34,1.74-.74,2.62-.38.84-1.05,2.06-2.29,3.39-1.17,1.25-2.69,2.9-4.57,2.9-.07-.27-.08-.57-.06-.89.09-2,1.04-3.69,1.18-3.92.64-1.1,1.32-1.78,1.76-2.2.46-.45,1.05-1.02,1.95-1.45.35-.17.86-.41,1.54-.47.38-.04.86-.08,1.23.02Z"/>
  </g>
</svg>