<?xml version="1.0" encoding="UTF-8"?>
<svg id="Layer_1" data-name="Layer 1" xmlns="http://www.w3.org/2000/svg" width="226.87" height="76.22" viewBox="0 0 226.87 76.22">
  <defs>
    <style>
      .cls-1 {
        fill: #f9f1e1;
      }

      .cls-1, .cls-2, .cls-3, .cls-4, .cls-5, .cls-6, .cls-7, .cls-8, .cls-9 {
        stroke-width: 0px;
      }

      .cls-2 {
        fill: #6d6f71;
      }

      .cls-3 {
        fill: #94744b;
      }

      .cls-4 {
        fill: #424143;
      }

      .cls-5 {
        fill: #231f20;
      }

      .cls-6 {
        fill: #302f2f;
      }

      .cls-7 {
        fill: #818384;
      }

      .cls-8 {
        fill: #fff;
      }

      .cls-9 {
        fill: #fcb116;
      }
    </style>
  </defs>
  <g>
    <g>
      <polygon class="cls-7" points="214.47 31.35 195.47 54.95 171.28 67.41 171.28 67.42 169.85 68.15 101.46 70.67 44.28 69.47 41.4 69.41 20.98 64.47 3.77 51.59 17.76 45.04 29.59 37.73 47.31 24.76 70.11 17.96 101.46 8.46 127.24 4.06 151.8 3.63 151.8 3.63 198.28 10.22 214.47 31.35"/>
      <path class="cls-5" d="m101.49,70.78l-60.24-1.27-20.49-4.96-.04-.03L3.42,51.57l.12-.06,14-6.55,11.8-7.29,17.79-13,22.8-6.81,31.35-9.5,25.94-4.42,24.61-.44h.06s46.62,6.61,46.62,6.61l.04.05,16.21,21.17-.03.03-19.04,23.64-25.69,13.24h-.13s-68.39,2.52-68.39,2.52Zm-60-1.48l2.81.06,57.18,1.2,68.22-2.51,25.51-13.14,18.96-23.55-16.11-21.05-46.29-6.56-24.45.43-25.73,4.38-31.29,9.49-22.75,6.79-17.7,12.95-11.83,7.31-13.9,6.51,17.09,12.79,20.3,4.91Z"/>
    </g>
    <g>
      <polygon class="cls-2" points="151.8 3.63 127.24 4.06 101.46 8.46 70.11 17.96 47.31 24.76 29.59 37.73 17.76 45.04 3.77 51.59 2.98 51 .29 35.11 48.38 12.86 127.03 .12 151.8 3.63"/>
      <path class="cls-5" d="m3.71,51.79l-1.01-.78L0,35.07l.07-.03L48.27,12.75,127.02,0h.1s26.12,3.72,26.12,3.72l-25.93.46-25.73,4.38-31.29,9.49-22.75,6.79-17.7,12.95-11.83,7.31-14.29,6.69Zm-.45-.82l.56.42,13.72-6.42,11.8-7.29,17.79-13,22.8-6.81,31.35-9.5,25.94-4.42,23.12-.41L127.03.24,48.55,12.95.59,35.15l2.68,15.82Z"/>
    </g>
    <g>
      <polygon class="cls-4" points="185.36 73.51 185.35 73.51 110.91 76.11 36.53 76.11 35.95 75.67 44.28 69.47 101.46 70.67 169.85 68.15 171.28 67.42 185.36 73.51"/>
      <path class="cls-5" d="m36.53,76.22h-.17l-.74-.55,8.49-6.32h.18s57.18,1.2,57.18,1.2l68.22-2.51,1.56-.8,14.51,6.28-.3.1h-.09s-74.43,2.6-74.43,2.6H36.53Zm.17-.22h74.21l73.85-2.58-13.47-5.83-1.29.67h-.13s-68.39,2.52-68.39,2.52l-57.04-1.2-8.18,6.09.44.33Z"/>
    </g>
    <g>
      <polygon class="cls-2" points="44.28 69.47 35.95 75.67 20.98 64.47 41.4 69.41 44.28 69.47"/>
      <path class="cls-5" d="m35.95,75.91l-15.71-11.76,21.25,5.14,3.25.07-8.8,6.55Zm-14.23-11.14l14.24,10.66,7.87-5.86-2.57-.07-19.54-4.73Z"/>
    </g>
    <g>
      <polygon class="cls-4" points="226.58 25.75 218.52 52.41 185.36 73.51 171.28 67.42 171.28 67.41 195.47 54.95 214.47 31.35 198.28 10.22 208.87 11.72 226.58 25.75"/>
      <path class="cls-5" d="m185.4,73.7l-14.41-6.24v-.08l.06-.03,24.16-12.44,18.96-23.55-16.32-21.32,11.23,1.59.05.04,17.74,14.07-8.11,26.73-33.36,21.23Zm-13.75-6.29l13.67,5.92,32.93-20.95,8.04-26.6-17.62-13.97-9.95-1.41,16.04,20.96-.03.03-19.04,23.64-24.05,12.39Z"/>
    </g>
  </g>
  <g>
    <g>
      <path class="cls-3" d="m187.07,41.66c-.04.18.09.34-.34.64q-15.66,7.96-31.31,15.93c-.32-.11-.4-.4-.54-.64.49-.7.54-1.75.67-2.57,9.84-4.87,19.41-10.23,29.43-14.77.77-.66.1-1.23,1.01-2.18.18-.19.5-.31.67-.51l.4.45c.04.18.05,3.44,0,3.66Z"/>
      <path class="cls-5" d="m155.43,58.34h-.04c-.29-.11-.41-.35-.51-.55-.03-.05-.05-.1-.08-.15l-.03-.06.04-.05c.38-.55.49-1.34.59-2.04.02-.17.05-.33.07-.49v-.05s.05-.02.05-.02c3.67-1.82,7.37-3.74,10.95-5.59,6-3.11,12.2-6.33,18.47-9.17.33-.29.36-.55.4-.87.04-.36.09-.78.59-1.3.09-.1.21-.17.33-.25.13-.08.25-.16.34-.26l.08-.09.51.58c.05.19.05,3.48,0,3.7h0s0,.07,0,.1c0,.18-.03.36-.37.6l-31.36,15.95Zm-.43-.75s.04.07.05.1c.09.18.17.34.36.42l31.27-15.9c.27-.2.27-.3.27-.43,0-.04,0-.09.01-.14h0c.04-.2.04-3.25,0-3.6l-.31-.35c-.09.08-.2.15-.3.22-.11.07-.22.14-.3.22-.45.47-.49.83-.54,1.18-.04.34-.08.66-.48,1.01l-.02.02c-6.28,2.85-12.48,6.06-18.48,9.18-3.56,1.85-7.24,3.76-10.9,5.57-.02.14-.04.28-.06.43-.1.7-.2,1.49-.58,2.07Z"/>
    </g>
    <g>
      <path class="cls-1" d="m186.67,37.55c-.17.2-.49.33-.67.51q-15.05-8.73-30.1-17.47c-.59,8.14.55,27.34-.07,33.71,0,.04-.14-.09-.27.71-.13.81-.18,1.87-.67,2.57-.32-.56-.55-1.15-.81-1.73.3-10.71-.33-21.47,0-32.17.02-.69-.07-1.54,0-2.18.16-1.49.56-2.34,2.36-1.67,1.65.61,25.94,15.42,30.24,17.72Z"/>
      <path class="cls-5" d="m154.87,57.78l-.08-.14c-.26-.45-.46-.92-.66-1.38-.05-.12-.1-.24-.16-.36v-.02s0-.02,0-.02c.15-5.27.07-10.64,0-15.84-.08-5.36-.16-10.9,0-16.33,0-.28,0-.6-.01-.9-.01-.44-.03-.9.01-1.29.08-.76.23-1.5.75-1.82.39-.24.96-.22,1.74.07.91.34,8.62,4.94,16.07,9.39,6.29,3.75,12.23,7.3,14.17,8.34l.11.06-.08.1c-.1.12-.24.21-.38.3-.11.07-.22.14-.3.22l-.05.06-.07-.04-29.96-17.39c-.28,4.09-.14,10.85,0,17.38.14,6.68.26,12.99-.05,16.17v.06s-.08.04-.08.04c0,0-.09.04-.19.61-.03.15-.05.32-.07.48-.1.72-.21,1.54-.62,2.13l-.09.13Zm-.7-1.94c.05.11.1.23.15.34.18.42.35.82.57,1.22.31-.54.41-1.26.5-1.9.02-.17.05-.33.07-.49.09-.55.19-.7.27-.75.3-3.19.17-9.46.04-16.1-.13-6.63-.27-13.48.02-17.56v-.16s.15.08.15.08l30.04,17.43c.08-.07.18-.13.27-.19.09-.05.17-.11.25-.17-2.06-1.12-7.89-4.6-14.06-8.28-7.45-4.44-15.14-9.04-16.04-9.37-.72-.27-1.23-.29-1.56-.09-.36.22-.55.71-.66,1.67-.04.37-.03.83-.01,1.26.01.31.02.62.01.91-.17,5.43-.08,10.97,0,16.32.08,5.19.15,10.56,0,15.83Z"/>
    </g>
    <g>
      <path class="cls-9" d="m185.99,38.14c-.91.95-.24,1.52-1.01,2.18-10.02,4.54-19.59,9.9-29.43,14.77.13-.79.27-.66.27-.71.62-6.37-.52-25.57.07-33.71l30.1,17.47Z"/>
      <path class="cls-5" d="m155.42,55.27l.03-.19c.09-.55.19-.7.27-.75.3-3.19.17-9.46.04-16.1-.13-6.63-.27-13.48.02-17.56v-.16s.15.08.15.08l30.21,17.53-.09.09c-.45.47-.49.83-.54,1.18-.04.34-.08.67-.48,1.01l-.02.02c-6.27,2.85-12.48,6.06-18.47,9.17-3.58,1.86-7.27,3.77-10.95,5.59l-.18.09Zm.56-34.43c-.28,4.09-.14,10.84,0,17.38.13,6.68.26,12.99-.05,16.18v.06s-.08.04-.08.04c0,0-.07.03-.15.42,3.61-1.79,7.25-3.68,10.77-5.5,6-3.11,12.2-6.33,18.47-9.17.33-.29.36-.55.4-.87.04-.34.09-.73.51-1.2l-29.85-17.32Z"/>
    </g>
    <g>
      <path class="cls-6" d="m189.19,41.52c.58.19-1.05,3.11-1.28,3.42-.39.54-.93,1.03-1.47,1.43-2.03,1.49-12.18,5.97-15.5,7.7-3.82,2-7.48,4.3-11.21,6.46-.65-.59-2.48-2.2-2.82-2.61l.13-.37q14.89-7.7,29.78-15.41c.41-.29.28-.44.32-.62h2.05Z"/>
      <path class="cls-5" d="m159.72,60.66l-.05-.05c-.17-.16-.43-.39-.73-.66-.82-.74-1.85-1.66-2.1-1.96l-.04-.04.16-.47.04-.02,29.78-15.41c.26-.19.26-.29.26-.41,0-.05,0-.09,0-.14l.02-.08h2.16c.06.02.13.07.17.18.21.66-1.24,3.17-1.4,3.39-.36.5-.87.99-1.49,1.45-1.29.95-5.86,3.1-9.88,5-2.27,1.07-4.42,2.08-5.63,2.72-2.65,1.39-5.26,2.94-7.79,4.45-1.12.66-2.27,1.35-3.41,2.01l-.06.04Zm-2.69-2.76c.3.33,1.3,1.24,2.04,1.9.26.24.5.45.67.61,1.12-.65,2.25-1.32,3.35-1.98,2.53-1.5,5.15-3.06,7.8-4.45,1.21-.64,3.36-1.65,5.64-2.72,4.02-1.89,8.57-4.03,9.85-4.98.61-.45,1.1-.92,1.45-1.41.25-.35,1.53-2.71,1.37-3.21,0-.03-.02-.04-.03-.04h-1.94v.02c0,.18-.03.35-.35.58l-29.76,15.4-.1.28Z"/>
    </g>
  </g>
  <g>
    <path class="cls-8" d="m87.75,32.42c0,.08-.04.29-.12.63-.1.42-.15.69-.17.8-.27,1.88-1.32,3.8-3.13,5.77-1.63,1.8-3.56,3.3-5.79,4.52-2.22,1.22-4.15,1.83-5.79,1.83-.53,0-1.14-.16-1.82-.48-.81-.37-1.21-.81-1.21-1.31s.39-1,1.16-1.46c.63-.36,1.08-.53,1.36-.53.08,0,.53.14,1.33.41.81.28,1.25.41,1.33.41.27,0,.71-.13,1.3-.4.59-.27,1.05-.54,1.37-.81,1.57-1.34,2.86-2.94,3.86-4.8.99-1.81,1.48-3.45,1.48-4.9,0-1.07-.32-2.07-.95-3.01-.7-1.05-1.64-1.74-2.83-2.07-1.19-.33-1.89-.5-2.1-.5-1.13,0-2.98.75-5.54,2.24-2.56,1.5-3.9,2.62-4.02,3.39-.1.52-.15,1.2-.15,2.04,0,.1.05.53.13,1.3.09.77.13,1.19.13,1.27v17.76c0,1.08-.78,2.07-2.35,2.96-1.28.74-2.3,1.12-3.06,1.12-.23,0-.45-.06-.68-.17-.23-.11-.34-.25-.34-.41,0-.1.12-.28.36-.56.36-.39.57-.63.63-.73.15-.23.23-.53.24-.92.05-12.44-.02-19.8-.19-22.08-.05-.57-.07-1.55-.07-2.96l-.05-2.81c0-.32-.36-.59-1.09-.8l-2.48.41c-1.47-.24-2.21-.61-2.21-1.09,0-.34.27-.59.82-.75.36-.05.71-.11,1.07-.17.65-.18,1.61-.42,2.89-.73.7-.21,1.4-.42,2.11-.63.95-.27,1.8-.41,2.55-.41,1.13,0,1.7.61,1.7,1.82,0,.16-.01.4-.04.7-.02.31-.04.53-.04.68,0,.81.32,1.21.95,1.21.16,0,.74-.32,1.75-.95.5-.34,1.01-.67,1.53-.99.71-.37,1.43-.75,2.16-1.14.97-.52,1.76-.84,2.38-.97,1.37-.31,2.73-.46,4.08-.46,1,0,1.85.12,2.55.36.58.19,1.18.62,1.8,1.29.15.15.61.69,1.38,1.63.4.5.82,1.42,1.24,2.77.37,1.23.56,2.13.56,2.69Z"/>
    <path class="cls-8" d="m107.69,45.32c0,.32-.68.65-2.04.97-1.08.26-1.79.39-2.11.39h-8.3c-.4,0-.7-.27-.87-.8-.11-.34-.17-.69-.17-1.04v-7.67c0-.06,0-.19.03-.36.02-.18.03-.29.04-.34v-2.94c0,.23,0-.32,0-1.65.02-1.13.02-1.96,0-2.47-.02-.31-.18-.55-.5-.73-.22-.13-.66-.21-1.32-.24-.59-.03-1.04-.17-1.36-.41v-.36h5.68c.57,0,.9.37,1,1.12l.15,15.77c0,.11.07.24.21.39.14.15.38.23.74.27.24,0,.49,0,.73.02,1.16.13,2.37.19,3.61.19.79,0,1.45-.03,1.97-.1.23-.02.62-.1,1.19-.24.5-.13.78-.19.85-.19.1,0,.26.06.48.17v.27Z"/>
    <path class="cls-8" d="m126.28,46.51c-.06.05-.15.11-.24.17-.19.02-.86.02-2.01.02-1.23,0-1.9,0-2.01-.02-.28-.02-.63-.28-1.07-.8-.15-.16-.36-.44-.63-.82-.08-.15-.17-.31-.27-.48-.1-.18-.24-.27-.44-.27-.31,0-1.1.41-2.38,1.24-.81.53-1.5.87-2.09,1.02-.36.1-.94.15-1.75.15-1.05,0-1.93-.11-2.64-.32-.36-.1-.76-.35-1.21-.76-.45-.41-.68-.8-.68-1.15,0-.23,1.07-1.65,3.23-4.27.36-.39.82-.91,1.38-1.58.03-.05.66-.75,1.89-2.11.1-.1.15-.24.15-.44,0-.7-.66-1.79-1.99-3.28-.1-.1-.22-.18-.38-.24-.15-.06-.48-.12-.98-.17-.44-.05-.76-.16-.97-.34v-.27c.15-.1.32-.15.53-.17l1.41-.07s.23,0,.56-.02h1.55c1.46,0,2.94,1.47,4.46,4.4.29.49.71,1.22,1.26,2.21.47,1.02,1.18,2.54,2.13,4.57.84,1.81,1.68,2.84,2.52,3.09.1.03.32.16.66.39v.34Zm-7.23-3.78c0-.27-.55-1.47-1.65-3.59-.39-.76-.7-1.16-.95-1.19-.4.31-1.15,1.1-2.23,2.38-.26.31-.41.51-.46.61-.24.32-.49.65-.75.97-.47.68-.7,1.17-.7,1.48,0,.39.27.75.82,1.09.49.27.91.41,1.29.41.6,0,1.34-.16,2.23-.49.24-.08.67-.29,1.29-.63.11-.08.25-.19.41-.32.47-.32.7-.57.7-.73Z"/>
    <path class="cls-8" d="m141.9,32.95c-.49.34-1.12,1.21-1.89,2.62-1.46,2.64-2.85,5.25-4.17,7.84-.1.34-.29.85-.58,1.53-.39.73-1.15,1.89-2.28,3.49-.39.52-.95,1.27-1.67,2.26-.27.31-.68.78-1.21,1.41-.53.63-.8,1.12-.8,1.48-.02.37.12.63.4.78.28.15.57.28.86.41.11.06.17.15.17.24,0,.44-.57.72-1.72.85-.37.05-1.01.07-1.92.07h-2.28c-.15,0-.31-.07-.5-.21-.19-.14-.28-.27-.28-.4,0-.21.08-.4.24-.58,1.1-1.18,2.21-2.37,3.32-3.57,1.31-1.41,2.36-2.64,3.15-3.71.55-.74.83-1.31.85-1.7,0-.39-.32-1.17-.97-2.35-.36-.58-.74-1.26-1.16-2.04-.7-1.52-1.71-3.59-3.03-6.21-.15-.31-.4-.7-.75-1.16-.34-.26-.77-.32-1.29-.19-.13.03-.31.07-.53.12-.16.03-.3.02-.41-.05-.18-.1-.27-.25-.27-.46,0-.37.4-.74,1.19-1.09.4-.18.86-.33,1.38-.46.34-.13.83-.3,1.48-.51.08-.02.19-.02.34-.02-.03,0,.08,0,.34,0,.15,0,.34.11.58.32.39.36.95,1.25,1.7,2.67.68,1.33,1.72,3.32,3.13,5.99.19.37.4.56.63.56.18,0,.48-.28.91-.85.43-.57.91-1.39,1.44-2.47.65-1.33,1.09-2.18,1.33-2.57,1.5-2.47,3.05-3.71,4.63-3.71.79,0,1.16.19,1.12.56-.02.19-.22.4-.61.63-.29.16-.58.33-.87.51Z"/>
  </g>
</svg>